  0
SECTION
  2
HEADER
  9
$ACADVER
  1
AC1015
  9
$ACADMAINTVER
 70
     6
  9
$DWGCODEPAGE
  3
ANSI_1252
  9
$INSBASE
 10
0.0
 20
0.0
 30
0.0
  9
$EXTMIN
 10
0.0
 20
0.0
 30
0.0
  9
$EXTMAX
 10
210.0
 20
297.0
 30
0.0
  9
$LIMMIN
 10
0.0
 20
0.0
  9
$LIMMAX
 10
210.0
 20
297.0
  9
$ORTHOMODE
 70
     0
  9
$REGENMODE
 70
     1
  9
$FILLMODE
 70
     1
  9
$QTEXTMODE
 70
     0
  9
$MIRRTEXT
 70
     1
  9
$LTSCALE
 40
1.0
  9
$ATTMODE
 70
     1
  9
$TEXTSIZE
 40
3.5
  9
$TRACEWID
 40
1.0
  9
$TEXTSTYLE
  7
Standard
  9
$CLAYER
  8
0
  9
$CELTYPE
  6
ByLayer
  9
$CECOLOR
 62
   256
  9
$CELTSCALE
 40
1.0
  9
$DISPSILH
 70
     0
  9
$DIMSCALE
 40
1.0
  9
$DIMASZ
 40
3.302
  9
$DIMEXO
 40
1.0
  9
$DIMDLI
 40
3.75
  9
$DIMRND
 40
0.0
  9
$DIMDLE
 40
0.0
  9
$DIMEXE
 40
1.0
  9
$DIMTP
 40
0.0
  9
$DIMTM
 40
0.0
  9
$DIMTXT
 40
3.5
  9
$DIMCEN
 40
2.5
  9
$DIMTSZ
 40
0.0
  9
$DIMTOL
 70
     0
  9
$DIMLIM
 70
     0
  9
$DIMTIH
 70
     1
  9
$DIMTOH
 70
     1
  9
$DIMSE1
 70
     0
  9
$DIMSE2
 70
     0
  9
$DIMTAD
 70
     1
  9
$DIMZIN
 70
     1
  9
$DIMBLK
  1

  9
$DIMASO
 70
     1
  9
$DIMSHO
 70
     1
  9
$DIMPOST
  1

  9
$DIMAPOST
  1

  9
$DIMALT
 70
     0
  9
$DIMALTD
 70
     3
  9
$DIMALTF
 40
0.0393700787
  9
$DIMLFAC
 40
1.0
  9
$DIMTOFL
 70
     1
  9
$DIMTVP
 40
0.0
  9
$DIMTIX
 70
     0
  9
$DIMSOXD
 70
     0
  9
$DIMSAH
 70
     0
  9
$DIMBLK1
  1

  9
$DIMBLK2
  1

  9
$DIMSTYLE
  2
ISO-25
  9
$DIMCLRD
 70
     0
  9
$DIMCLRE
 70
     0
  9
$DIMCLRT
 70
     0
  9
$DIMTFAC
 40
1.0
  9
$DIMGAP
 40
1.524
  9
$DIMJUST
 70
     0
  9
$DIMSD1
 70
     0
  9
$DIMSD2
 70
     0
  9
$DIMTOLJ
 70
     0
  9
$DIMTZIN
 70
     1
  9
$DIMALTZ
 70
     0
  9
$DIMALTTZ
 70
     0
  9
$DIMUPT
 70
     0
  9
$DIMDEC
 70
     2
  9
$DIMTDEC
 70
     2
  9
$DIMALTU
 70
     2
  9
$DIMALTTD
 70
     3
  9
$DIMTXSTY
  7
Standard
  9
$DIMAUNIT
 70
     0
  9
$DIMADEC
 70
     2
  9
$DIMALTRND
 40
0.0
  9
$DIMAZIN
 70
     0
  9
$DIMDSEP
 70
    44
  9
$DIMATFIT
 70
     3
  9
$DIMFRAC
 70
     0
  9
$DIMLDRBLK
  1

  9
$DIMLUNIT
 70
     2
  9
$DIMLWD
 70
    -2
  9
$DIMLWE
 70
    -2
  9
$DIMTMOVE
 70
     0
  9
$LUNITS
 70
     2
  9
$LUPREC
 70
     2
  9
$SKETCHINC
 40
1.0
  9
$FILLETRAD
 40
0.0
  9
$AUNITS
 70
     0
  9
$AUPREC
 70
     2
  9
$MENU
  1
.
  9
$ELEVATION
 40
0.0
  9
$PELEVATION
 40
0.0
  9
$THICKNESS
 40
0.0
  9
$LIMCHECK
 70
     0
  9
$CHAMFERA
 40
0.0
  9
$CHAMFERB
 40
0.0
  9
$CHAMFERC
 40
0.0
  9
$CHAMFERD
 40
0.0
  9
$SKPOLY
 70
     0
  9
$TDCREATE
 40
2460835.659075637
  9
$TDUCREATE
 40
2460835.61740897
  9
$TDUPDATE
 40
2460835.65907794
  9
$TDUUPDATE
 40
2460835.617411273
  9
$TDINDWG
 40
0.0000000116
  9
$TDUSRTIMER
 40
0.0000000116
  9
$USRTIMER
 70
     1
  9
$ANGBASE
 50
0.0
  9
$ANGDIR
 70
     0
  9
$PDMODE
 70
     0
  9
$PDSIZE
 40
-1.0
  9
$PLINEWID
 40
0.0
  9
$SPLFRAME
 70
     0
  9
$SPLINETYPE
 70
     6
  9
$SPLINESEGS
 70
     8
  9
$HANDSEED
  5
DF
  9
$SURFTAB1
 70
     6
  9
$SURFTAB2
 70
     6
  9
$SURFTYPE
 70
     6
  9
$SURFU
 70
     6
  9
$SURFV
 70
     6
  9
$UCSBASE
  2

  9
$UCSNAME
  2

  9
$UCSORG
 10
0.0
 20
0.0
 30
0.0
  9
$UCSXDIR
 10
1.0
 20
0.0
 30
0.0
  9
$UCSYDIR
 10
0.0
 20
1.0
 30
0.0
  9
$UCSORTHOREF
  2

  9
$UCSORTHOVIEW
 70
     0
  9
$UCSORGTOP
 10
0.0
 20
0.0
 30
0.0
  9
$UCSORGBOTTOM
 10
0.0
 20
0.0
 30
0.0
  9
$UCSORGLEFT
 10
0.0
 20
0.0
 30
0.0
  9
$UCSORGRIGHT
 10
0.0
 20
0.0
 30
0.0
  9
$UCSORGFRONT
 10
0.0
 20
0.0
 30
0.0
  9
$UCSORGBACK
 10
0.0
 20
0.0
 30
0.0
  9
$PUCSBASE
  2

  9
$PUCSNAME
  2

  9
$PUCSORG
 10
0.0
 20
0.0
 30
0.0
  9
$PUCSXDIR
 10
1.0
 20
0.0
 30
0.0
  9
$PUCSYDIR
 10
0.0
 20
1.0
 30
0.0
  9
$PUCSORTHOREF
  2

  9
$PUCSORTHOVIEW
 70
     0
  9
$PUCSORGTOP
 10
0.0
 20
0.0
 30
0.0
  9
$PUCSORGBOTTOM
 10
0.0
 20
0.0
 30
0.0
  9
$PUCSORGLEFT
 10
0.0
 20
0.0
 30
0.0
  9
$PUCSORGRIGHT
 10
0.0
 20
0.0
 30
0.0
  9
$PUCSORGFRONT
 10
0.0
 20
0.0
 30
0.0
  9
$PUCSORGBACK
 10
0.0
 20
0.0
 30
0.0
  9
$USERI1
 70
     0
  9
$USERI2
 70
     0
  9
$USERI3
 70
     0
  9
$USERI4
 70
     0
  9
$USERI5
 70
     0
  9
$USERR1
 40
0.0
  9
$USERR2
 40
0.0
  9
$USERR3
 40
0.0
  9
$USERR4
 40
0.0
  9
$USERR5
 40
0.0
  9
$WORLDVIEW
 70
     1
  9
$SHADEDGE
 70
     3
  9
$SHADEDIF
 70
    70
  9
$TILEMODE
 70
     1
  9
$MAXACTVP
 70
    64
  9
$PINSBASE
 10
0.0
 20
0.0
 30
0.0
  9
$PLIMCHECK
 70
     0
  9
$PEXTMIN
 10
1.0000000000E+20
 20
1.0000000000E+20
 30
1.0000000000E+20
  9
$PEXTMAX
 10
-1.0000000000E+20
 20
-1.0000000000E+20
 30
-1.0000000000E+20
  9
$PLIMMIN
 10
0.0
 20
0.0
  9
$PLIMMAX
 10
420.0
 20
297.0
  9
$UNITMODE
 70
     0
  9
$VISRETAIN
 70
     1
  9
$PLINEGEN
 70
     0
  9
$PSLTSCALE
 70
     1
  9
$TREEDEPTH
 70
  3020
  9
$CMLSTYLE
  2
Standard
  9
$CMLJUST
 70
     0
  9
$CMLSCALE
 40
20.0
  9
$PROXYGRAPHICS
 70
     1
  9
$MEASUREMENT
 70
     1
  9
$CELWEIGHT
370
    -1
  9
$ENDCAPS
280
     0
  9
$JOINSTYLE
280
     0
  9
$LWDISPLAY
290
     1
  9
$INSUNITS
 70
     4
  9
$HYPERLINKBASE
  1

  9
$STYLESHEET
  1

  9
$XEDIT
290
     1
  9
$CEPSNTYPE
380
     0
  9
$PSTYLEMODE
290
     1
  9
$FINGERPRINTGUID
  2
{cfbf1e5c-381e-493c-a3a0-e23b91a9c9d0}
  9
$VERSIONGUID
  2
{FAEB1C32-E019-11D5-929B-00C0DF256EC4}
  9
$EXTNAMES
290
     1
  9
$PSVPSCALE
 40
0.0
  9
$OLESTARTUP
290
     0
  0
ENDSEC
  0
SECTION
  2
CLASSES
  0
CLASS
  1
ACDBDICTIONARYWDFLT
  2
AcDbDictionaryWithDefault
  3
ObjectDBX Classes
 90
        0
280
     0
281
     0
  0
CLASS
  1
VISUALSTYLE
  2
AcDbVisualStyle
  3
ObjectDBX Classes
 90
     4095
280
     0
281
     0
  0
CLASS
  1
MATERIAL
  2
AcDbMaterial
  3
ObjectDBX Classes
 90
     1153
280
     0
281
     0
  0
CLASS
  1
SCALE
  2
AcDbScale
  3
ObjectDBX Classes
 90
     1153
280
     0
281
     0
  0
CLASS
  1
TABLESTYLE
  2
AcDbTableStyle
  3
ObjectDBX Classes
 90
     4095
280
     0
281
     0
  0
CLASS
  1
MLEADERSTYLE
  2
AcDbMLeaderStyle
  3
ACDB_MLEADERSTYLE_CLASS
 90
     4095
280
     0
281
     0
  0
CLASS
  1
SUN
  2
AcDbSun
  3
SCENEOE
 90
     1153
280
     0
281
     0
  0
CLASS
  1
ACDBPLACEHOLDER
  2
AcDbPlaceHolder
  3
ObjectDBX Classes
 90
        0
280
     0
281
     0
  0
CLASS
  1
LAYOUT
  2
AcDbLayout
  3
ObjectDBX Classes
 90
        0
280
     0
281
     0
  0
ENDSEC
  0
SECTION
  2
TABLES
  0
TABLE
  2
VPORT
  5
8
330
0
100
AcDbSymbolTable
 70
     1
  0
VPORT
  5
29
330
8
100
AcDbSymbolTableRecord
100
AcDbViewportTableRecord
  2
*Active
 70
     0
 10
0.0
 20
0.0
 11
1.0
 21
1.0
 12
105.0
 22
148.5
 13
0.0
 23
0.0
 14
10.0
 24
10.0
 15
10.0
 25
10.0
 16
0.0
 26
0.0
 36
1.0
 17
0.0
 27
0.0
 37
0.0
 40
297.0
 41
0.7070707071
 42
50.0
 43
0.0
 44
0.0
 50
0.0
 51
0.0
 71
     0
 72
  2000
 73
     1
 74
     3
 75
     0
 76
     0
 77
     0
 78
     0
281
     0
 65
     1
110
0.0
120
0.0
130
0.0
111
1.0
121
0.0
131
0.0
112
0.0
122
1.0
132
0.0
 79
     0
146
0.0
  0
ENDTAB
  0
TABLE
  2
LTYPE
  5
5
330
0
100
AcDbSymbolTable
 70
     6
  0
LTYPE
  5
14
330
5
100
AcDbSymbolTableRecord
100
AcDbLinetypeTableRecord
  2
ByBlock
 70
     0
  3

 72
    65
 73
     0
 40
0.0
  0
LTYPE
  5
15
330
5
100
AcDbSymbolTableRecord
100
AcDbLinetypeTableRecord
  2
ByLayer
 70
     0
  3

 72
    65
 73
     0
 40
0.0
  0
LTYPE
  5
16
330
5
100
AcDbSymbolTableRecord
100
AcDbLinetypeTableRecord
  2
Continuous
 70
     0
  3
Solid line
 72
    65
 73
     0
 40
0.0
  0
LTYPE
  5
5E
330
5
100
AcDbSymbolTableRecord
100
AcDbLinetypeTableRecord
  2
HIDDEN
 70
     0
  3
Hidden __ __ __ __ __ __ __ __ __ __ __ __ __ __
 72
    65
 73
     2
 40
1.905
 49
1.27
 74
     0
 49
-0.635
 74
     0
  0
LTYPE
  5
5F
330
5
100
AcDbSymbolTableRecord
100
AcDbLinetypeTableRecord
  2
PHANTOM
 70
     0
  3
Phantom ______  __  __  ______  __  __  ______
 72
    65
 73
     6
 40
12.7
 49
6.35
 74
     0
 49
-1.27
 74
     0
 49
1.27
 74
     0
 49
-1.27
 74
     0
 49
1.27
 74
     0
 49
-1.27
 74
     0
  0
LTYPE
  5
60
330
5
100
AcDbSymbolTableRecord
100
AcDbLinetypeTableRecord
  2
CENTER
 70
     0
  3
Center ____ _ ____ _ ____ _ ____ _ ____ _ ____
 72
    65
 73
     4
 40
10.16
 49
6.35
 74
     0
 49
-1.27
 74
     0
 49
1.27
 74
     0
 49
-1.27
 74
     0
  0
LTYPE
  5
61
330
5
100
AcDbSymbolTableRecord
100
AcDbLinetypeTableRecord
  2
CENTERX2
 70
     0
  3
Center (2x) ________  __  ________  __  _____
 72
    65
 73
     4
 40
20.32
 49
12.7
 74
     0
 49
-2.54
 74
     0
 49
2.54
 74
     0
 49
-2.54
 74
     0
  0
LTYPE
  5
62
330
5
100
AcDbSymbolTableRecord
100
AcDbLinetypeTableRecord
  2
DOT2
 70
     0
  3
Dot (.5x) ........................................
 72
    65
 73
     2
 40
0.635
 49
0.0
 74
     0
 49
-0.635
 74
     0
  0
ENDTAB
  0
TABLE
  2
LAYER
  5
2
330
0
100
AcDbSymbolTable
 70
     2
  0
LAYER
  5
10
330
2
100
AcDbSymbolTableRecord
100
AcDbLayerTableRecord
  2
0
 70
     0
 62
     7
  6
Continuous
370
    -3
390
F
  0
LAYER
  5
63
330
2
100
AcDbSymbolTableRecord
100
AcDbLayerTableRecord
  2
FORMAT
 70
     0
 62
     7
  6
Continuous
370
    -3
390
F
  0
ENDTAB
  0
TABLE
  2
STYLE
  5
3
330
0
100
AcDbSymbolTable
 70
     5
  0
STYLE
  5
11
330
3
100
AcDbSymbolTableRecord
100
AcDbTextStyleTableRecord
  2
Standard
 70
     0
 40
0.0
 41
1.0
 50
0.0
 71
     0
 42
3.5
  3
txt
  4

  0
STYLE
  5
99
330
3
100
AcDbSymbolTableRecord
100
AcDbTextStyleTableRecord
  2
SLDTEXTSTYLE0
 70
     0
 40
0.0
 41
0.6864493306
 50
0.0
 71
     0
 42
3.5
  3
TXT
  4

  0
STYLE
  5
9B
330
3
100
AcDbSymbolTableRecord
100
AcDbTextStyleTableRecord
  2
SLDTEXTSTYLE1
 70
     0
 40
0.0
 41
0.75
 50
0.0
 71
     0
 42
3.5
  3
TXT
  4

  0
STYLE
  5
AC
330
3
100
AcDbSymbolTableRecord
100
AcDbTextStyleTableRecord
  2
SLDTEXTSTYLE2
 70
     0
 40
0.0
 41
0.6875
 50
0.0
 71
     0
 42
3.5
  3
TXT
  4

  0
STYLE
  5
DB
330
3
100
AcDbSymbolTableRecord
100
AcDbTextStyleTableRecord
  2
SLDTEXTSTYLE3
 70
     0
 40
0.0
 41
0.7
 50
0.0
 71
     0
 42
3.5
  3
TXT
  4

  0
ENDTAB
  0
TABLE
  2
VIEW
  5
6
330
0
100
AcDbSymbolTable
 70
     0
  0
ENDTAB
  0
TABLE
  2
UCS
  5
7
330
0
100
AcDbSymbolTable
 70
     0
  0
ENDTAB
  0
TABLE
  2
APPID
  5
9
330
0
100
AcDbSymbolTable
 70
     1
  0
APPID
  5
12
330
9
100
AcDbSymbolTableRecord
100
AcDbRegAppTableRecord
  2
ACAD
 70
     0
  0
ENDTAB
  0
TABLE
  2
DIMSTYLE
  5
A
330
0
100
AcDbSymbolTable
 70
     1
100
AcDbDimStyleTable
  0
DIMSTYLE
105
27
330
A
100
AcDbSymbolTableRecord
100
AcDbDimStyleTableRecord
  2
ISO-25
 70
     0
 41
2.5
 42
0.625
 43
3.75
 44
1.25
 73
     0
 74
     0
 77
     1
 78
     8
140
2.5
141
2.5
143
0.0393700787
147
0.625
171
     3
172
     1
178
     0
271
     2
272
     2
274
     3
278
    44
283
     0
284
     8
340
11
  0
ENDTAB
  0
TABLE
  2
BLOCK_RECORD
  5
1
330
0
100
AcDbSymbolTable
 70
     1
  0
BLOCK_RECORD
  5
1F
330
1
100
AcDbSymbolTableRecord
100
AcDbBlockTableRecord
  2
*Model_Space
340
22
  0
BLOCK_RECORD
  5
1B
330
1
100
AcDbSymbolTableRecord
100
AcDbBlockTableRecord
  2
*Paper_Space
340
1E
  0
BLOCK_RECORD
  5
23
330
1
100
AcDbSymbolTableRecord
100
AcDbBlockTableRecord
  2
*Paper_Space0
340
26
  0
ENDTAB
  0
ENDSEC
  0
SECTION
  2
BLOCKS
  0
BLOCK
  5
20
330
1F
100
AcDbEntity
  8
0
100
AcDbBlockBegin
  2
*Model_Space
 70
     0
 10
0.0
 20
0.0
 30
0.0
  3
*Model_Space
  1

  0
ENDBLK
  5
21
330
1F
100
AcDbEntity
  8
0
100
AcDbBlockEnd
  0
BLOCK
  5
1C
330
1B
100
AcDbEntity
 67
     1
  8
0
100
AcDbBlockBegin
  2
*Paper_Space
 70
     0
 10
0.0
 20
0.0
 30
0.0
  3
*Paper_Space
  1

  0
ENDBLK
  5
1D
330
1B
100
AcDbEntity
 67
     1
  8
0
100
AcDbBlockEnd
  0
BLOCK
  5
24
330
23
100
AcDbEntity
  8
0
100
AcDbBlockBegin
  2
*Paper_Space0
 70
     0
 10
0.0
 20
0.0
 30
0.0
  3
*Paper_Space0
  1

  0
ENDBLK
  5
25
330
23
100
AcDbEntity
  8
0
100
AcDbBlockEnd
  0
ENDSEC
  0
SECTION
  2
ENTITIES
  0
LINE
  5
64
330
1F
100
AcDbEntity
  8
0
  6
Continuous
 62
     7
370
    50
100
AcDbLine
 10
20.0
 20
14.25
 30
0.0
 11
200.0
 21
14.25
 31
0.0
  0
LINE
  5
65
330
1F
100
AcDbEntity
  8
0
  6
Continuous
 62
     7
370
    50
100
AcDbLine
 10
200.0
 20
48.25
 30
0.0
 11
20.0
 21
48.25
 31
0.0
  0
LINE
  5
66
330
1F
100
AcDbEntity
  8
0
  6
Continuous
 62
     7
370
    50
100
AcDbLine
 10
20.0
 20
65.25
 30
0.0
 11
200.0
 21
65.25
 31
0.0
  0
LINE
  5
67
330
1F
100
AcDbEntity
  8
0
  6
Continuous
 62
     7
370
    50
100
AcDbLine
 10
46.9909524338
 20
48.25
 30
0.0
 11
46.9909524338
 21
10.0
 31
0.0
  0
LINE
  5
68
330
1F
100
AcDbEntity
  8
0
  6
Continuous
 62
     7
370
    50
100
AcDbLine
 10
118.8
 20
31.25
 30
0.0
 11
20.0
 21
31.25
 31
0.0
  0
LINE
  5
69
330
1F
100
AcDbEntity
  8
0
  6
Continuous
 62
     7
370
    50
100
AcDbLine
 10
118.8
 20
35.5
 30
0.0
 11
20.0
 21
35.5
 31
0.0
  0
LINE
  5
6A
330
1F
100
AcDbEntity
  8
0
  6
Continuous
 62
     7
370
    50
100
AcDbLine
 10
118.8
 20
39.75
 30
0.0
 11
20.0
 21
39.75
 31
0.0
  0
LINE
  5
6B
330
1F
100
AcDbEntity
  8
0
  6
Continuous
 62
     7
370
    50
100
AcDbLine
 10
118.8
 20
44.0
 30
0.0
 11
20.0
 21
44.0
 31
0.0
  0
LINE
  5
6C
330
1F
100
AcDbEntity
  8
0
  6
Continuous
 62
     7
370
    50
100
AcDbLine
 10
74.6
 20
10.0
 30
0.0
 11
74.6
 21
48.25
 31
0.0
  0
LINE
  5
6D
330
1F
100
AcDbEntity
  8
0
  6
Continuous
 62
     7
370
    50
100
AcDbLine
 10
20.0
 20
65.25
 30
0.0
 11
20.0
 21
10.0
 31
0.0
  0
LINE
  5
6E
330
1F
100
AcDbEntity
  8
0
  6
Continuous
 62
     7
370
    50
100
AcDbLine
 10
27.8
 20
48.25
 30
0.0
 11
27.8
 21
10.0
 31
0.0
  0
LINE
  5
6F
330
1F
100
AcDbEntity
  8
0
  6
Continuous
 62
     7
370
    50
100
AcDbLine
 10
53.8
 20
48.25
 30
0.0
 11
53.8
 21
65.25
 31
0.0
  0
LINE
  5
70
330
1F
100
AcDbEntity
  8
0
  6
Continuous
 62
     7
370
    50
100
AcDbLine
 10
64.3989261635
 20
48.25
 30
0.0
 11
64.3989261635
 21
10.0
 31
0.0
  0
LINE
  5
71
330
1F
100
AcDbEntity
  8
0
  6
Continuous
 62
     7
370
    50
100
AcDbLine
 10
85.0
 20
31.25
 30
0.0
 11
85.0
 21
48.25
 31
0.0
  0
LINE
  5
72
330
1F
100
AcDbEntity
  8
0
  6
Continuous
 62
     7
370
    50
100
AcDbLine
 10
74.6
 20
18.5
 30
0.0
 11
20.0
 21
18.5
 31
0.0
  0
LINE
  5
73
330
1F
100
AcDbEntity
  8
0
  6
Continuous
 62
     7
370
    50
100
AcDbLine
 10
100.6
 20
65.25
 30
0.0
 11
100.6
 21
27.0
 31
0.0
  0
LINE
  5
74
330
1F
100
AcDbEntity
  8
0
  6
Continuous
 62
     7
370
    50
100
AcDbLine
 10
74.6
 20
22.749928
 30
0.0
 11
20.0
 21
22.749928
 31
0.0
  0
LINE
  5
75
330
1F
100
AcDbEntity
  8
0
  6
Continuous
 62
     7
370
    50
100
AcDbLine
 10
74.6
 20
27.0
 30
0.0
 11
20.0
 21
27.0
 31
0.0
  0
LINE
  5
76
330
1F
100
AcDbEntity
  8
0
  6
Continuous
 62
     7
370
    50
100
AcDbLine
 10
74.6
 20
27.0
 30
0.0
 11
200.0
 21
27.0
 31
0.0
  0
LINE
  5
77
330
1F
100
AcDbEntity
  8
0
  6
Continuous
 62
     7
370
    50
100
AcDbLine
 10
118.8
 20
65.25
 30
0.0
 11
118.8
 21
10.0
 31
0.0
  0
LINE
  5
78
330
1F
100
AcDbEntity
  8
0
  6
Continuous
 62
     7
370
    50
100
AcDbLine
 10
163.0
 20
10.0
 30
0.0
 11
163.0
 21
14.25
 31
0.0
  0
LINE
  5
79
330
1F
100
AcDbEntity
  8
0
  6
Continuous
 62
     7
370
    50
100
AcDbLine
 10
170.8
 20
58.875
 30
0.0
 11
170.8
 21
65.25
 31
0.0
  0
LINE
  5
7A
330
1F
100
AcDbEntity
  8
0
  6
Continuous
 62
     7
370
    50
100
AcDbLine
 10
187.0
 20
14.25
 30
0.0
 11
187.0
 21
27.0
 31
0.0
  0
LINE
  5
7B
330
1F
100
AcDbEntity
  8
0
  6
Continuous
 62
     7
370
    50
100
AcDbLine
 10
200.0
 20
58.875
 30
0.0
 11
118.8
 21
58.875
 31
0.0
  0
LINE
  5
7C
330
1F
100
AcDbEntity
  8
0
  6
Continuous
 62
     7
370
    50
100
AcDbLine
 10
200.0
 20
18.5
 30
0.0
 11
187.0
 21
18.5
 31
0.0
  0
LINE
  5
7D
330
1F
100
AcDbEntity
  8
0
  6
Continuous
 62
     7
370
    35
100
AcDbLine
 10
20.0
 20
48.5
 30
0.0
 11
15.0
 21
48.5
 31
0.0
  0
LINE
  5
7E
330
1F
100
AcDbEntity
  8
0
  6
Continuous
 62
     7
370
    35
100
AcDbLine
 10
200.0
 20
48.5
 30
0.0
 11
205.0
 21
48.5
 31
0.0
  0
LINE
  5
7F
330
1F
100
AcDbEntity
  8
0
  6
Continuous
 62
     7
370
    35
100
AcDbLine
 10
20.0
 20
98.5
 30
0.0
 11
15.0
 21
98.5
 31
0.0
  0
LINE
  5
80
330
1F
100
AcDbEntity
  8
0
  6
Continuous
 62
     7
370
    35
100
AcDbLine
 10
200.0
 20
98.5
 30
0.0
 11
205.0
 21
98.5
 31
0.0
  0
LINE
  5
81
330
1F
100
AcDbEntity
  8
0
  6
Continuous
 62
     7
370
    35
100
AcDbLine
 10
20.0
 20
148.5
 30
0.0
 11
15.0
 21
148.5
 31
0.0
  0
LINE
  5
82
330
1F
100
AcDbEntity
  8
0
  6
Continuous
 62
     7
370
    35
100
AcDbLine
 10
200.0
 20
148.5
 30
0.0
 11
205.0
 21
148.5
 31
0.0
  0
LINE
  5
83
330
1F
100
AcDbEntity
  8
0
  6
Continuous
 62
     7
370
    35
100
AcDbLine
 10
20.0
 20
198.5
 30
0.0
 11
15.0
 21
198.5
 31
0.0
  0
LINE
  5
84
330
1F
100
AcDbEntity
  8
0
  6
Continuous
 62
     7
370
    35
100
AcDbLine
 10
200.0
 20
198.5
 30
0.0
 11
205.0
 21
198.5
 31
0.0
  0
LINE
  5
85
330
1F
100
AcDbEntity
  8
0
  6
Continuous
 62
     7
370
    35
100
AcDbLine
 10
20.0
 20
248.5
 30
0.0
 11
15.0
 21
248.5
 31
0.0
  0
LINE
  5
86
330
1F
100
AcDbEntity
  8
0
  6
Continuous
 62
     7
370
    35
100
AcDbLine
 10
200.0
 20
248.5
 30
0.0
 11
205.0
 21
248.5
 31
0.0
  0
LINE
  5
87
330
1F
100
AcDbEntity
  8
0
  6
Continuous
 62
     7
370
    35
100
AcDbLine
 10
60.0
 20
287.0
 30
0.0
 11
60.0
 21
292.0
 31
0.0
  0
LINE
  5
88
330
1F
100
AcDbEntity
  8
0
  6
Continuous
 62
     7
370
    35
100
AcDbLine
 10
60.0
 20
10.0
 30
0.0
 11
60.0
 21
5.0
 31
0.0
  0
LINE
  5
89
330
1F
100
AcDbEntity
  8
0
  6
Continuous
 62
     7
370
    35
100
AcDbLine
 10
110.0
 20
287.0
 30
0.0
 11
110.0
 21
292.0
 31
0.0
  0
LINE
  5
8A
330
1F
100
AcDbEntity
  8
0
  6
Continuous
 62
     7
370
    35
100
AcDbLine
 10
110.0
 20
10.0
 30
0.0
 11
110.0
 21
5.0
 31
0.0
  0
LINE
  5
8B
330
1F
100
AcDbEntity
  8
0
  6
Continuous
 62
     7
370
    35
100
AcDbLine
 10
160.0
 20
287.0
 30
0.0
 11
160.0
 21
292.0
 31
0.0
  0
LINE
  5
8C
330
1F
100
AcDbEntity
  8
0
  6
Continuous
 62
     7
370
    35
100
AcDbLine
 10
160.0
 20
10.0
 30
0.0
 11
160.0
 21
5.0
 31
0.0
  0
LINE
  5
8D
330
1F
100
AcDbEntity
  8
0
  6
Continuous
 62
     7
370
    70
100
AcDbLine
 10
20.0
 20
10.0
 30
0.0
 11
20.0
 21
287.0
 31
0.0
  0
LINE
  5
8E
330
1F
100
AcDbEntity
  8
0
  6
Continuous
 62
     7
370
    70
100
AcDbLine
 10
20.0
 20
287.0
 30
0.0
 11
200.0
 21
287.0
 31
0.0
  0
LINE
  5
8F
330
1F
100
AcDbEntity
  8
0
  6
Continuous
 62
     7
370
    70
100
AcDbLine
 10
200.0
 20
287.0
 30
0.0
 11
200.0
 21
10.0
 31
0.0
  0
LINE
  5
90
330
1F
100
AcDbEntity
  8
0
  6
Continuous
 62
     7
370
    70
100
AcDbLine
 10
200.0
 20
10.0
 30
0.0
 11
20.0
 21
10.0
 31
0.0
  0
LINE
  5
91
330
1F
100
AcDbEntity
  8
0
  6
Continuous
 62
     7
370
    70
100
AcDbLine
 10
15.0
 20
5.0
 30
0.0
 11
15.0
 21
292.0
 31
0.0
  0
LINE
  5
92
330
1F
100
AcDbEntity
  8
0
  6
Continuous
 62
     7
370
    70
100
AcDbLine
 10
15.0
 20
292.0
 30
0.0
 11
205.0
 21
292.0
 31
0.0
  0
LINE
  5
93
330
1F
100
AcDbEntity
  8
0
  6
Continuous
 62
     7
370
    70
100
AcDbLine
 10
205.0
 20
292.0
 30
0.0
 11
205.0
 21
5.0
 31
0.0
  0
LINE
  5
94
330
1F
100
AcDbEntity
  8
0
  6
Continuous
 62
     7
370
    70
100
AcDbLine
 10
205.0
 20
5.0
 30
0.0
 11
15.0
 21
5.0
 31
0.0
  0
LINE
  5
95
330
1F
100
AcDbEntity
  8
0
  6
Continuous
 62
     7
370
    35
100
AcDbLine
 10
14.999
 20
148.5
 30
0.0
 11
25.001
 21
148.5
 31
0.0
  0
LINE
  5
96
330
1F
100
AcDbEntity
  8
0
  6
Continuous
 62
     7
370
    35
100
AcDbLine
 10
110.0
 20
292.001
 30
0.0
 11
110.0
 21
281.999
 31
0.0
  0
LINE
  5
97
330
1F
100
AcDbEntity
  8
0
  6
Continuous
 62
     7
370
    35
100
AcDbLine
 10
205.001
 20
148.5
 30
0.0
 11
194.999
 21
148.5
 31
0.0
  0
LINE
  5
98
330
1F
100
AcDbEntity
  8
0
  6
Continuous
 62
     7
370
    35
100
AcDbLine
 10
110.0
 20
4.999
 30
0.0
 11
110.0
 21
15.001
 31
0.0
  0
MTEXT
  5
9A
330
1F
100
AcDbEntity
  8
0
  6
Continuous
 62
     7
370
     0
100
AcDbMText
 10
20.6433628979
 20
42.3847813173
 30
0.0
 40
1.5
 41
0.0
 71
     1
 72
     1
  1
DRAWN
  7
SLDTEXTSTYLE0
 73
     1
 44
1.0
  0
MTEXT
  5
9C
330
1F
100
AcDbEntity
  8
0
  6
Continuous
 62
     7
370
     0
100
AcDbMText
 10
20.9392221937
 20
38.1618530186
 30
0.0
 40
1.5
 41
0.0
 71
     1
 72
     1
  1
CHK'D
  7
SLDTEXTSTYLE1
 73
     1
 44
1.0
  0
MTEXT
  5
9D
330
1F
100
AcDbEntity
  8
0
  6
Continuous
 62
     7
370
     0
100
AcDbMText
 10
20.4017224083
 20
34.0658666243
 30
0.0
 40
1.5
 41
0.0
 71
     1
 72
     1
  1
APPV'D
  7
SLDTEXTSTYLE1
 73
     1
 44
1.0
  0
MTEXT
  5
9E
330
1F
100
AcDbEntity
  8
0
  6
Continuous
 62
     7
370
     0
100
AcDbMText
 10
21.1240107386
 20
29.7157844608
 30
0.0
 40
1.5
 41
0.0
 71
     1
 72
     1
  1
MFG
  7
SLDTEXTSTYLE1
 73
     1
 44
1.0
  0
MTEXT
  5
9F
330
1F
100
AcDbEntity
  8
0
  6
Continuous
 62
     7
370
     0
100
AcDbMText
 10
21.509036604
 20
25.504662132
 30
0.0
 40
1.5
 41
0.0
 71
     1
 72
     1
  1
Q.A
  7
SLDTEXTSTYLE1
 73
     1
 44
1.0
  0
MTEXT
  5
A0
330
1F
100
AcDbEntity
  8
0
  6
Continuous
 62
     7
370
     0
100
AcDbMText
 10
20.5936687456
 20
63.9209714839
 30
0.0
 40
1.5
 41
0.0
 71
     1
 72
     1
  1
UNLESS OTHERWISE SPECIFIED:^JDIMENSIONS ARE IN MILLIMETERS^JSURFACE FINISH:^JTOLERANCES:^J   LINEAR:^J   ANGULAR:
  7
SLDTEXTSTYLE1
 73
     1
 44
1.0
  0
MTEXT
  5
A1
330
1F
100
AcDbEntity
  8
0
  6
Continuous
 62
     7
370
     0
100
AcDbMText
 10
54.3712921668
 20
63.9192719951
 30
0.0
 40
1.5
 41
0.0
 71
     1
 72
     1
  1
FINISH:
  7
SLDTEXTSTYLE1
 73
     1
 44
1.0
  0
MTEXT
  5
A2
330
1F
100
AcDbEntity
  8
0
  6
Continuous
 62
     7
370
     0
100
AcDbMText
 10
101.3092156863
 20
64.0030912527
 30
0.0
 40
1.5
 41
0.0
 71
     1
 72
     1
  1
DEBURR AND ^JBREAK SHARP ^JEDGES
  7
SLDTEXTSTYLE1
 73
     1
 44
1.0
  0
MTEXT
  5
A3
330
1F
100
AcDbEntity
  8
0
  6
Continuous
 62
     7
370
     0
100
AcDbMText
 10
34.3222392177
 20
46.5014826335
 30
0.0
 40
1.5
 41
0.0
 71
     1
 72
     1
  1
NAME
  7
SLDTEXTSTYLE1
 73
     1
 44
1.0
  0
MTEXT
  5
A4
330
1F
100
AcDbEntity
  8
0
  6
Continuous
 62
     7
370
     0
100
AcDbMText
 10
50.0335875632
 20
46.5617563795
 30
0.0
 40
1.5
 41
0.0
 71
     1
 72
     1
  1
SIGNATURE
  7
SLDTEXTSTYLE1
 73
     1
 44
1.0
  0
MTEXT
  5
A5
330
1F
100
AcDbEntity
  8
0
  6
Continuous
 62
     7
370
     0
100
AcDbMText
 10
67.2147019657
 20
46.5761792212
 30
0.0
 40
1.5
 41
0.0
 71
     1
 72
     1
  1
DATE
  7
SLDTEXTSTYLE1
 73
     1
 44
1.0
  0
MTEXT
  5
A6
330
1F
100
AcDbEntity
  8
0
  6
Continuous
 62
     7
370
     0
100
AcDbMText
 10
75.6458623088
 20
25.9860562892
 30
0.0
 40
1.5
 41
0.0
 71
     1
 72
     1
  1
MATERIAL:
  7
SLDTEXTSTYLE1
 73
     1
 44
1.0
  0
MTEXT
  5
A7
330
1F
100
AcDbEntity
  8
0
  6
Continuous
 62
     7
370
     0
100
AcDbMText
 10
132.6146405229
 20
62.5329935751
 30
0.0
 40
1.5
 41
0.0
 71
     1
 72
     1
  1
DO NOT SCALE DRAWING
  7
SLDTEXTSTYLE1
 73
     1
 44
1.0
  0
MTEXT
  5
A8
330
1F
100
AcDbEntity
  8
0
  6
Continuous
 62
     7
370
     0
100
AcDbMText
 10
173.3275816993
 20
62.3349086805
 30
0.0
 40
1.5
 41
0.0
 71
     1
 72
     1
  1
REVISION
  7
SLDTEXTSTYLE1
 73
     1
 44
1.0
  0
MTEXT
  5
A9
330
1F
100
AcDbEntity
  8
0
  6
Continuous
 62
     7
370
     0
100
AcDbMText
 10
120.090160639
 20
46.5761792212
 30
0.0
 40
1.5
 41
0.0
 71
     1
 72
     1
  1
TITLE:
  7
SLDTEXTSTYLE1
 73
     1
 44
1.0
  0
MTEXT
  5
AA
330
1F
100
AcDbEntity
  8
0
  6
Continuous
 62
     7
370
     0
100
AcDbMText
 10
119.9530022162
 20
25.9860562892
 30
0.0
 40
1.5
 41
0.0
 71
     1
 72
     1
  1
DWG NO.
  7
SLDTEXTSTYLE1
 73
     1
 44
1.0
  0
MTEXT
  5
AB
330
1F
100
AcDbEntity
  8
0
  6
Continuous
 62
     7
370
     0
100
AcDbMText
 10
120.0739661175
 20
12.9000872745
 30
0.0
 40
1.5
 41
0.0
 71
     1
 72
     1
  1
SCALE:1:1
  7
SLDTEXTSTYLE1
 73
     1
 44
1.0
  0
MTEXT
  5
AD
330
1F
100
AcDbEntity
  8
0
  6
Continuous
 62
     7
370
     0
100
AcDbMText
 10
164.4782944278
 20
12.9000872745
 30
0.0
 40
1.5
 41
0.0
 71
     1
 72
     1
  1
SHEET 1 OF 1
  7
SLDTEXTSTYLE2
 73
     1
 44
1.0
  0
MTEXT
  5
AE
330
1F
100
AcDbEntity
  8
0
  6
Continuous
 62
     7
370
     0
100
AcDbMText
 10
190.8711564346
 20
24.406388569
 30
0.0
 40
2.9104166667
 41
0.0
 71
     1
 72
     1
  1
A4
  7
SLDTEXTSTYLE1
 73
     1
 44
1.0
  0
MTEXT
  5
AF
330
1F
100
AcDbEntity
  8
0
  6
Continuous
 62
     7
370
     0
100
AcDbMText
 10
75.6178111281
 20
12.9493119036
 30
0.0
 40
1.4986
 41
0.0
 71
     1
 72
     1
  1
WEIGHT:
  7
SLDTEXTSTYLE1
 73
     1
 44
1.0
  0
MTEXT
  5
B0
330
1F
100
AcDbEntity
  8
0
  6
Continuous
 62
     7
370
     0
100
AcDbMText
 10
154.9144059583
 20
23.6069109673
 30
0.0
 40
6.35
 41
0.0
 71
     2
 72
     1
  1
glasses lens sketch
  7
SLDTEXTSTYLE1
 73
     1
 44
1.0
  0
MTEXT
  5
B1
330
1F
100
AcDbEntity
  8
0
  6
Continuous
 62
     7
370
     0
100
AcDbMText
 10
17.3396881428
 20
31.81015409
 30
0.0
 40
3.96875
 41
0.0
 71
     2
 72
     1
  1
A
  7
SLDTEXTSTYLE1
 73
     1
 44
1.0
  0
MTEXT
  5
B2
330
1F
100
AcDbEntity
  8
0
  6
Continuous
 62
     7
370
     0
100
AcDbMText
 10
202.3396881428
 20
31.81015409
 30
0.0
 40
3.96875
 41
0.0
 71
     2
 72
     1
  1
A
  7
SLDTEXTSTYLE1
 73
     1
 44
1.0
  0
MTEXT
  5
B3
330
1F
100
AcDbEntity
  8
0
  6
Continuous
 62
     7
370
     0
100
AcDbMText
 10
17.4706018241
 20
76.06015409
 30
0.0
 40
3.96875
 41
0.0
 71
     2
 72
     1
  1
B
  7
SLDTEXTSTYLE1
 73
     1
 44
1.0
  0
MTEXT
  5
B4
330
1F
100
AcDbEntity
  8
0
  6
Continuous
 62
     7
370
     0
100
AcDbMText
 10
202.4706018241
 20
76.06015409
 30
0.0
 40
3.96875
 41
0.0
 71
     2
 72
     1
  1
B
  7
SLDTEXTSTYLE1
 73
     1
 44
1.0
  0
MTEXT
  5
B5
330
1F
100
AcDbEntity
  8
0
  6
Continuous
 62
     7
370
     0
100
AcDbMText
 10
17.458658902
 20
126.06015409
 30
0.0
 40
3.96875
 41
0.0
 71
     2
 72
     1
  1
C
  7
SLDTEXTSTYLE1
 73
     1
 44
1.0
  0
MTEXT
  5
B6
330
1F
100
AcDbEntity
  8
0
  6
Continuous
 62
     7
370
     0
100
AcDbMText
 10
202.458658902
 20
126.06015409
 30
0.0
 40
3.96875
 41
0.0
 71
     2
 72
     1
  1
C
  7
SLDTEXTSTYLE1
 73
     1
 44
1.0
  0
MTEXT
  5
B7
330
1F
100
AcDbEntity
  8
0
  6
Continuous
 62
     7
370
     0
100
AcDbMText
 10
17.4526872821
 20
176.06015409
 30
0.0
 40
3.96875
 41
0.0
 71
     2
 72
     1
  1
D
  7
SLDTEXTSTYLE1
 73
     1
 44
1.0
  0
MTEXT
  5
B8
330
1F
100
AcDbEntity
  8
0
  6
Continuous
 62
     7
370
     0
100
AcDbMText
 10
202.4526872821
 20
176.06015409
 30
0.0
 40
3.96875
 41
0.0
 71
     2
 72
     1
  1
D
  7
SLDTEXTSTYLE1
 73
     1
 44
1.0
  0
MTEXT
  5
B9
330
1F
100
AcDbEntity
  8
0
  6
Continuous
 62
     7
370
     0
100
AcDbMText
 10
17.5078089051
 20
226.06015409
 30
0.0
 40
3.96875
 41
0.0
 71
     2
 72
     1
  1
E
  7
SLDTEXTSTYLE1
 73
     1
 44
1.0
  0
MTEXT
  5
BA
330
1F
100
AcDbEntity
  8
0
  6
Continuous
 62
     7
370
     0
100
AcDbMText
 10
202.5078089051
 20
226.06015409
 30
0.0
 40
3.96875
 41
0.0
 71
     2
 72
     1
  1
E
  7
SLDTEXTSTYLE1
 73
     1
 44
1.0
  0
MTEXT
  5
BB
330
1F
100
AcDbEntity
  8
0
  6
Continuous
 62
     7
370
     0
100
AcDbMText
 10
17.4577402091
 20
270.31015409
 30
0.0
 40
3.96875
 41
0.0
 71
     2
 72
     1
  1
F
  7
SLDTEXTSTYLE1
 73
     1
 44
1.0
  0
MTEXT
  5
BC
330
1F
100
AcDbEntity
  8
0
  6
Continuous
 62
     7
370
     0
100
AcDbMText
 10
202.4577402091
 20
270.31015409
 30
0.0
 40
3.96875
 41
0.0
 71
     2
 72
     1
  1
F
  7
SLDTEXTSTYLE1
 73
     1
 44
1.0
  0
MTEXT
  5
BD
330
1F
100
AcDbEntity
  8
0
  6
Continuous
 62
     7
370
     0
100
AcDbMText
 10
39.9600369465
 20
10.06015409
 30
0.0
 40
3.96875
 41
0.0
 71
     2
 72
     1
  1
4
  7
SLDTEXTSTYLE1
 73
     1
 44
1.0
  0
MTEXT
  5
BE
330
1F
100
AcDbEntity
  8
0
  6
Continuous
 62
     7
370
     0
100
AcDbMText
 10
39.9600369465
 20
292.06015409
 30
0.0
 40
3.96875
 41
0.0
 71
     2
 72
     1
  1
4
  7
SLDTEXTSTYLE1
 73
     1
 44
1.0
  0
MTEXT
  5
BF
330
1F
100
AcDbEntity
  8
0
  6
Continuous
 62
     7
370
     0
100
AcDbMText
 10
84.9600369465
 20
10.06015409
 30
0.0
 40
3.96875
 41
0.0
 71
     2
 72
     1
  1
3
  7
SLDTEXTSTYLE1
 73
     1
 44
1.0
  0
MTEXT
  5
C0
330
1F
100
AcDbEntity
  8
0
  6
Continuous
 62
     7
370
     0
100
AcDbMText
 10
84.9600369465
 20
292.06015409
 30
0.0
 40
3.96875
 41
0.0
 71
     2
 72
     1
  1
3
  7
SLDTEXTSTYLE1
 73
     1
 44
1.0
  0
MTEXT
  5
C1
330
1F
100
AcDbEntity
  8
0
  6
Continuous
 62
     7
370
     0
100
AcDbMText
 10
134.9600369465
 20
10.06015409
 30
0.0
 40
3.96875
 41
0.0
 71
     2
 72
     1
  1
2
  7
SLDTEXTSTYLE1
 73
     1
 44
1.0
  0
MTEXT
  5
C2
330
1F
100
AcDbEntity
  8
0
  6
Continuous
 62
     7
370
     0
100
AcDbMText
 10
134.9600369465
 20
292.06015409
 30
0.0
 40
3.96875
 41
0.0
 71
     2
 72
     1
  1
2
  7
SLDTEXTSTYLE1
 73
     1
 44
1.0
  0
MTEXT
  5
C3
330
1F
100
AcDbEntity
  8
0
  6
Continuous
 62
     7
370
     0
100
AcDbMText
 10
179.9600369465
 20
10.06015409
 30
0.0
 40
3.96875
 41
0.0
 71
     2
 72
     1
  1
1
  7
SLDTEXTSTYLE1
 73
     1
 44
1.0
  0
MTEXT
  5
C4
330
1F
100
AcDbEntity
  8
0
  6
Continuous
 62
     7
370
     0
100
AcDbMText
 10
179.9600369465
 20
292.06015409
 30
0.0
 40
3.96875
 41
0.0
 71
     2
 72
     1
  1
1
  7
SLDTEXTSTYLE1
 73
     1
 44
1.0
  0
SPLINE
  5
C5
330
1F
100
AcDbEntity
  8
0
  6
Continuous
 62
     7
370
    25
100
AcDbSpline
210
0.0
220
0.0
230
1.0
 70
    11
 71
     3
 72
    69
 73
    65
 74
     0
 42
0.00000001
 43
0.00000001
 40
0.0
 40
0.0
 40
0.0
 40
0.0
 40
0.0345676759763378
 40
0.0556591508347827
 40
0.0803703768223146
 40
0.1084222240710632
 40
0.1264218163262924
 40
0.1368675919030124
 40
0.145598676619055
 40
0.15183613502906
 40
0.1580735934390649
 40
0.1648205826339213
 40
0.1735855307662037
 40
0.1859051273215857
 40
0.2050968503725327
 40
0.2372307258165684
 40
0.2557814531988797
 40
0.287896885628897
 40
0.2997257888083791
 40
0.3139639539772502
 40
0.327314473158286
 40
0.3364760243957292
 40
0.3420708838726156
 40
0.3485490788788002
 40
0.3565606230275007
 40
0.3692006735719574
 40
0.3814559795564281
 40
0.3973863587537946
 40
0.4247558025119205
 40
0.4576909477222768
 40
0.4747063231151285
 40
0.5011322773146426
 40
0.5287852754334487
 40
0.5675079496635009
 40
0.583011956110983
 40
0.5956798059838067
 40
0.6090525311672311
 40
0.6205356342229112
 40
0.6294731409867343
 40
0.6408386041768912
 40
0.6529255521099833
 40
0.6690400503512527
 40
0.6853303077175836
 40
0.716321304523186
 40
0.7422889957208276
 40
0.748124320635828
 40
0.7602827811780813
 40
0.7697497369386516
 40
0.7832815043379441
 40
0.7903149031583069
 40
0.7948001580715776
 40
0.8021296124744782
 40
0.8098708745261446
 40
0.816680748291865
 40
0.8247126073059305
 40
0.8357978562598265
 40
0.8534722587857405
 40
0.8726103025523061
 40
0.8896412892627651
 40
0.9085489899550147
 40
0.9294893218229121
 40
0.9533419924087386
 40
0.9813481255595097
 40
1.0
 40
1.0
 40
1.0
 40
1.0
 10
145.8334305438345
 20
231.2149945757816
 30
0.0
 10
144.0728349027152
 20
231.2083249632511
 30
0.0
 10
141.2380509887805
 20
231.2276500134116
 30
0.0
 10
137.1455316831108
 20
231.0109158350332
 30
0.0
 10
133.4238983280128
 20
230.4638488524735
 30
0.0
 10
129.8438990305422
 20
229.9775564743764
 30
0.0
 10
127.08271492909
 20
229.1465987509218
 30
0.0
 10
125.2997795751069
 20
228.5047073189138
 30
0.0
 10
124.161242357785
 20
227.8653284891139
 30
0.0
 10
123.3514022868456
 20
227.1461538294909
 30
0.0
 10
122.6887305863896
 20
226.4182748936743
 30
0.0
 10
122.1749087124746
 20
225.4208299367457
 30
0.0
 10
121.8596450289064
 20
224.0304655961861
 30
0.0
 10
121.6539242638678
 20
221.9845934274179
 30
0.0
 10
121.8771350484054
 20
218.7355188572138
 30
0.0
 10
122.539090362345
 20
215.2403445726213
 30
0.0
 10
123.2219219749901
 20
211.0714762245047
 30
0.0
 10
124.2974153813163
 20
208.0627444899006
 30
0.0
 10
125.0924422991663
 20
205.2070698905613
 30
0.0
 10
125.8657578200023
 20
203.347694424415
 30
0.0
 10
126.7094960497632
 20
201.6800153801022
 30
0.0
 10
127.4055905445483
 20
200.4206967538137
 30
0.0
 10
128.1041906005477
 20
199.5933615534017
 30
0.0
 10
128.7123286661783
 20
198.765566087777
 30
0.0
 10
129.7830809440327
 20
197.881107610325
 30
0.0
 10
131.1281365119027
 20
196.8663126078734
 30
0.0
 10
133.0854768498563
 20
196.1080564119012
 30
0.0
 10
135.8370618451738
 20
195.458260319863
 30
0.0
 10
139.6116455657565
 20
194.5239355547283
 30
0.0
 10
143.5364179425708
 20
194.1014685841652
 30
0.0
 10
147.4150430101209
 20
193.8172850457435
 30
0.0
 10
151.0318410437929
 20
193.6378991057249
 30
0.0
 10
155.7636424942024
 20
193.5994434702354
 30
0.0
 10
159.9165022624275
 20
194.0217714465222
 30
0.0
 10
163.3009439561766
 20
194.4561631904421
 30
0.0
 10
165.3446950798944
 20
195.0235116340256
 30
0.0
 10
167.117572354136
 20
195.766152948075
 30
0.0
 10
168.5107912069102
 20
196.8185842897603
 30
0.0
 10
169.5112604998785
 20
198.0991610738124
 30
0.0
 10
170.4176400177059
 20
199.4825245342299
 30
0.0
 10
171.2230776102838
 20
201.3373693290567
 30
0.0
 10
171.9346071570442
 20
203.4910941934108
 30
0.0
 10
172.6739731153937
 20
206.636986105235
 30
0.0
 10
173.3013820245117
 20
210.3166162125983
 30
0.0
 10
173.7099664446726
 20
213.4891346101615
 30
0.0
 10
173.9484111524813
 20
215.7154800328869
 30
0.0
 10
174.0306716319646
 20
217.112934015948
 30
0.0
 10
174.0386235938448
 20
218.9035105509705
 30
0.0
 10
174.0999504507961
 20
220.4328850508039
 30
0.0
 10
174.0135830888952
 20
221.7089397853997
 30
0.0
 10
173.8452889627636
 20
222.6543403909022
 30
0.0
 10
173.6652392819978
 20
223.6349439407102
 30
0.0
 10
173.3212204475805
 20
224.6985987435461
 30
0.0
 10
172.7754079440581
 20
225.7255958617068
 30
0.0
 10
171.8016795752423
 20
226.6443668123126
 30
0.0
 10
170.1901539988505
 20
227.6233392821845
 30
0.0
 10
167.8702730049585
 20
228.4051874625121
 30
0.0
 10
165.2895640557155
 20
229.3489857372691
 30
0.0
 10
162.5136650416526
 20
229.8067764447116
 30
0.0
 10
159.6643162143607
 20
230.3221097348162
 30
0.0
 10
156.4370509441403
 20
230.6753697395117
 30
0.0
 10
152.7506567367231
 20
231.0704385976953
 30
0.0
 10
149.1598014522353
 20
231.2411941858951
 30
0.0
 10
146.7834049899359
 20
231.2185933359519
 30
0.0
 10
145.8334305438345
 20
231.2149945757816
 30
0.0
  0
SPLINE
  5
C6
330
1F
100
AcDbEntity
  8
0
  6
Continuous
 62
     7
370
    25
100
AcDbSpline
210
0.0
220
0.0
230
1.0
 70
    11
 71
     3
 72
    69
 73
    65
 74
     0
 42
0.00000001
 43
0.00000001
 40
0.0
 40
0.0
 40
0.0
 40
0.0
 40
0.0345676759763378
 40
0.0556591508347827
 40
0.0803703768223146
 40
0.1084222240710632
 40
0.1264218163262924
 40
0.1368675919030124
 40
0.145598676619055
 40
0.15183613502906
 40
0.1580735934390649
 40
0.1648205826339213
 40
0.1735855307662037
 40
0.1859051273215857
 40
0.2050968503725327
 40
0.2372307258165684
 40
0.2557814531988797
 40
0.287896885628897
 40
0.2997257888083791
 40
0.3139639539772502
 40
0.327314473158286
 40
0.3364760243957292
 40
0.3420708838726156
 40
0.3485490788788002
 40
0.3565606230275007
 40
0.3692006735719574
 40
0.3814559795564281
 40
0.3973863587537946
 40
0.4247558025119205
 40
0.4576909477222768
 40
0.4747063231151285
 40
0.5011322773146426
 40
0.5287852754334487
 40
0.5675079496635009
 40
0.583011956110983
 40
0.5956798059838067
 40
0.6090525311672311
 40
0.6205356342229112
 40
0.6294731409867343
 40
0.6408386041768912
 40
0.6529255521099833
 40
0.6690400503512527
 40
0.6853303077175836
 40
0.716321304523186
 40
0.7422889957208276
 40
0.748124320635828
 40
0.7602827811780813
 40
0.7697497369386516
 40
0.7832815043379441
 40
0.7903149031583069
 40
0.7948001580715776
 40
0.8021296124744782
 40
0.8098708745261446
 40
0.816680748291865
 40
0.8247126073059305
 40
0.8357978562598265
 40
0.8534722587857405
 40
0.8726103025523061
 40
0.8896412892627651
 40
0.9085489899550147
 40
0.9294893218229121
 40
0.9533419924087386
 40
0.9813481255595097
 40
1.0
 40
1.0
 40
1.0
 40
1.0
 10
73.62760596253177
 20
231.2149945757816
 30
0.0
 10
75.38820160365097
 20
231.2083249632511
 30
0.0
 10
78.22298551758573
 20
231.2276500134116
 30
0.0
 10
82.31550482325541
 20
231.0109158350331
 30
0.0
 10
86.03713817835353
 20
230.4638488524737
 30
0.0
 10
89.61713747582397
 20
229.9775564743764
 30
0.0
 10
92.37832157727617
 20
229.1465987509218
 30
0.0
 10
94.16125693125916
 20
228.5047073189138
 30
0.0
 10
95.2997941485811
 20
227.8653284891139
 30
0.0
 10
96.10963421952064
 20
227.1461538294909
 30
0.0
 10
96.77230591997662
 20
226.4182748936743
 30
0.0
 10
97.28612779389175
 20
225.4208299367457
 30
0.0
 10
97.60139147745969
 20
224.030465596186
 30
0.0
 10
97.80711224249856
 20
221.984593427418
 30
0.0
 10
97.58390145796088
 20
218.7355188572136
 30
0.0
 10
96.921946144021
 20
215.2403445726213
 30
0.0
 10
96.23911453137619
 20
211.0714762245047
 30
0.0
 10
95.1636211250498
 20
208.0627444899006
 30
0.0
 10
94.36859420719985
 20
205.2070698905614
 30
0.0
 10
93.59527868636381
 20
203.347694424415
 30
0.0
 10
92.75154045660301
 20
201.6800153801023
 30
0.0
 10
92.05544596181798
 20
200.4206967538136
 30
0.0
 10
91.35684590581823
 20
199.5933615534018
 30
0.0
 10
90.74870784018815
 20
198.7655660877768
 30
0.0
 10
89.67795556233357
 20
197.881107610325
 30
0.0
 10
88.33289999446332
 20
196.8663126078734
 30
0.0
 10
86.37555965650962
 20
196.1080564119012
 30
0.0
 10
83.62397466119249
 20
195.4582603198629
 30
0.0
 10
79.84939094060945
 20
194.5239355547282
 30
0.0
 10
75.92461856379525
 20
194.1014685841651
 30
0.0
 10
72.04599349624526
 20
193.8172850457437
 30
0.0
 10
68.42919546257338
 20
193.6378991057249
 30
0.0
 10
63.69739401216375
 20
193.5994434702354
 30
0.0
 10
59.54453424393876
 20
194.0217714465221
 30
0.0
 10
56.16009255018957
 20
194.4561631904421
 30
0.0
 10
54.11634142647166
 20
195.0235116340256
 30
0.0
 10
52.34346415223008
 20
195.766152948075
 30
0.0
 10
50.95024529945598
 20
196.8185842897604
 30
0.0
 10
49.94977600648772
 20
198.0991610738122
 30
0.0
 10
49.04339648866026
 20
199.4825245342299
 30
0.0
 10
48.23795889608225
 20
201.3373693290566
 30
0.0
 10
47.52642934932212
 20
203.4910941934108
 30
0.0
 10
46.78706339097223
 20
206.636986105235
 30
0.0
 10
46.15965448185451
 20
210.3166162125984
 30
0.0
 10
45.75107006169372
 20
213.4891346101614
 30
0.0
 10
45.51262535388474
 20
215.715480032887
 30
0.0
 10
45.43036487440162
 20
217.112934015948
 30
0.0
 10
45.42241291252154
 20
218.9035105509705
 30
0.0
 10
45.36108605557017
 20
220.4328850508039
 30
0.0
 10
45.44745341747099
 20
221.7089397853997
 30
0.0
 10
45.61574754360238
 20
222.6543403909022
 30
0.0
 10
45.79579722436862
 20
223.6349439407102
 30
0.0
 10
46.13981605878555
 20
224.6985987435461
 30
0.0
 10
46.68562856230836
 20
225.7255958617068
 30
0.0
 10
47.65935693112385
 20
226.6443668123126
 30
0.0
 10
49.27088250751573
 20
227.6233392821846
 30
0.0
 10
51.59076350140764
 20
228.4051874625119
 30
0.0
 10
54.17147245065075
 20
229.3489857372692
 30
0.0
 10
56.9473714647137
 20
229.8067764447115
 30
0.0
 10
59.79672029200552
 20
230.3221097348162
 30
0.0
 10
63.02398556222595
 20
230.6753697395117
 30
0.0
 10
66.71037976964296
 20
231.0704385976954
 30
0.0
 10
70.30123505413096
 20
231.2411941858951
 30
0.0
 10
72.67763151643044
 20
231.2185933359519
 30
0.0
 10
73.62760596253177
 20
231.2149945757816
 30
0.0
  0
ARC
  5
C7
330
1F
100
AcDbEntity
  8
0
  6
Continuous
 62
     7
370
    25
100
AcDbCircle
 10
39.91008452
 20
221.2149945758
 30
0.0
 40
2.499999999999905
100
AcDbArc
 50
357.4019331057
 51
90.0
  0
LINE
  5
C8
330
1F
100
AcDbEntity
  8
0
  6
Continuous
 62
     7
370
    25
100
AcDbLine
 10
35.9608836288
 20
223.7149945758
 30
0.0
 11
39.91008452
 21
223.7149945758
 31
0.0
  0
LINE
  5
C9
330
1F
100
AcDbEntity
  8
0
  6
Continuous
 62
     7
370
    25
100
AcDbLine
 10
35.9608836288
 20
228.2149945758
 30
0.0
 11
35.9608836288
 21
223.7149945758
 31
0.0
  0
LINE
  5
CA
330
1F
100
AcDbEntity
  8
0
  6
Continuous
 62
     7
370
    25
100
AcDbLine
 10
35.9608836288
 20
228.2149945758
 30
0.0
 11
43.5069604345
 21
228.2149945758
 31
0.0
  0
ARC
  5
CB
330
1F
100
AcDbEntity
  8
0
  6
Continuous
 62
     7
370
    25
100
AcDbCircle
 10
43.5069604345
 20
232.2149945758
 30
0.0
 40
4.000000000000227
100
AcDbArc
 50
270.0
 51
306.8726382728
  0
ARC
  5
CC
330
1F
100
AcDbEntity
  8
0
  6
Continuous
 62
     7
370
    25
100
AcDbCircle
 10
100.9145311302
 20
232.2149945758
 30
0.0
 40
4.000000000000341
100
AcDbArc
 50
225.7903634605
 51
270.0
  0
LINE
  5
CD
330
1F
100
AcDbEntity
  8
0
  6
Continuous
 62
     7
370
    25
100
AcDbLine
 10
100.9145311302
 20
228.2149945758
 30
0.0
 11
118.5465053612
 21
228.2149945758
 31
0.0
  0
ARC
  5
CE
330
1F
100
AcDbEntity
  8
0
  6
Continuous
 62
     7
370
    25
100
AcDbCircle
 10
118.5465053612
 20
232.2149945758
 30
0.0
 40
4.000000000001108
100
AcDbArc
 50
270.0
 51
314.2096366482
  0
SPLINE
  5
CF
330
1F
100
AcDbEntity
  8
0
  6
Continuous
 62
     7
370
    25
100
AcDbSpline
210
0.0
220
0.0
230
1.0
 70
     8
 71
     3
 72
    40
 73
    36
 74
     0
 42
0.00000001
 43
0.00000001
 40
0.8258668536857844
 40
0.8258668536857844
 40
0.8258668536857844
 40
0.8258668536857844
 40
0.828125
 40
0.8359375
 40
0.84375
 40
0.8515625
 40
0.859375
 40
0.8671875
 40
0.875
 40
0.8828125
 40
0.890625
 40
0.8984375
 40
0.90625
 40
0.9140625
 40
0.921875
 40
0.9375
 40
0.953125
 40
0.96875
 40
0.984375
 40
1.0
 40
1.015625
 40
1.03125
 40
1.046875
 40
1.0625
 40
1.078125
 40
1.09375
 40
1.1015625
 40
1.109375
 40
1.1171875
 40
1.125
 40
1.1328125
 40
1.140625
 40
1.14453125
 40
1.1484375
 40
1.151312345955912
 40
1.151312345955912
 40
1.151312345955912
 40
1.151312345955912
 10
173.5527747911908
 20
229.0158744794627
 30
0.0
 10
173.4217253916575
 20
229.1142366035832
 30
0.0
 10
172.8377407254847
 20
229.530079222646
 30
0.0
 10
171.7593365826027
 20
230.1421797086646
 30
0.0
 10
170.4022039978215
 20
230.7103636589522
 30
0.0
 10
169.1915255704906
 20
231.1329344351537
 30
0.0
 10
168.1029286312768
 20
231.5183952766876
 30
0.0
 10
166.8678674703702
 20
231.9406362888361
 30
0.0
 10
165.4786390326388
 20
232.3218702445327
 30
0.0
 10
164.1535326296414
 20
232.5784332462978
 30
0.0
 10
162.9730113745646
 20
232.7776108003963
 30
0.0
 10
161.800970924761
 20
232.9841356083809
 30
0.0
 10
160.5721227912687
 20
233.1890934052862
 30
0.0
 10
159.3065205392045
 20
233.3677623524119
 30
0.0
 10
157.6656486632261
 20
233.5615215002063
 30
0.0
 10
155.6955491298822
 20
233.7739450252704
 30
0.0
 10
153.2361010731898
 20
234.0172674945167
 30
0.0
 10
150.7435198678437
 20
234.1731550576976
 30
0.0
 10
148.2213942441959
 20
234.2332713874607
 30
0.0
 10
145.8156292358253
 20
234.210656346221
 30
0.0
 10
143.4484836957863
 20
234.2139415247947
 30
0.0
 10
140.9955131965375
 20
234.1912503643
 30
0.0
 10
138.4971231635988
 20
234.0996937336743
 30
0.0
 10
135.9094301565706
 20
233.8590013046034
 30
0.0
 10
133.5012632448569
 20
233.5089071983169
 30
0.0
 10
131.5254731381727
 20
233.2386328578457
 30
0.0
 10
129.8296673512621
 20
232.9488251573546
 30
0.0
 10
128.5150166283084
 20
232.6683325472153
 30
0.0
 10
127.2180522515372
 20
232.31844405658
 30
0.0
 10
125.9881920493514
 20
231.9288889941013
 30
0.0
 10
124.7391950395673
 20
231.5020306869774
 30
0.0
 10
123.5120071492151
 20
230.9562400699
 30
0.0
 10
122.5035431503896
 20
230.337622116751
 30
0.0
 10
121.824583141309
 20
229.8054931780193
 30
0.0
 10
121.4800586419485
 20
229.4883016481267
 30
0.0
 10
121.3356480455063
 20
229.3478212139918
 30
0.0
  0
ARC
  5
D0
330
1F
100
AcDbEntity
  8
0
  6
Continuous
 62
     7
370
    25
100
AcDbCircle
 10
175.9539475483
 20
232.2149945758
 30
0.0
 40
4.000000000000104
100
AcDbArc
 50
233.1091013324
 51
270.0
  0
LINE
  5
D1
330
1F
100
AcDbEntity
  8
0
  6
Continuous
 62
     7
370
    25
100
AcDbLine
 10
183.5001528776
 20
228.2149945758
 30
0.0
 11
175.9539475483
 21
228.2149945758
 31
0.0
  0
LINE
  5
D2
330
1F
100
AcDbEntity
  8
0
  6
Continuous
 62
     7
370
    25
100
AcDbLine
 10
183.5001528776
 20
228.2149945758
 30
0.0
 11
183.5001528776
 21
223.7149945758
 31
0.0
  0
LINE
  5
D3
330
1F
100
AcDbEntity
  8
0
  6
Continuous
 62
     7
370
    25
100
AcDbLine
 10
183.5001528776
 20
223.7149945758
 30
0.0
 11
179.5509519929
 21
223.7149945758
 31
0.0
  0
ARC
  5
D4
330
1F
100
AcDbEntity
  8
0
  6
Continuous
 62
     7
370
    25
100
AcDbCircle
 10
114.7476353331
 20
220.7149945758
 30
0.0
 40
3.999999999999949
100
AcDbArc
 50
2.6090988326
 51
90.0
  0
LINE
  5
D5
330
1F
100
AcDbEntity
  8
0
  6
Continuous
 62
     7
370
    25
100
AcDbLine
 10
104.7134011798
 20
224.7149945758
 30
0.0
 11
114.7476353331
 21
224.7149945758
 31
0.0
  0
ARC
  5
D6
330
1F
100
AcDbEntity
  8
0
  6
Continuous
 62
     7
370
    25
100
AcDbCircle
 10
104.7134011798
 20
220.7149945758
 30
0.0
 40
4.000000000000008
100
AcDbArc
 50
90.0
 51
177.3909012115
  0
SPLINE
  5
D7
330
1F
100
AcDbEntity
  8
0
  6
Continuous
 62
     7
370
    25
100
AcDbSpline
210
0.0
220
0.0
230
1.0
 70
     8
 71
     3
 72
    72
 73
    68
 74
     0
 42
0.00000001
 43
0.00000001
 40
0.1944075974244417
 40
0.1944075974244417
 40
0.1944075974244417
 40
0.1944075974244417
 40
0.1953125
 40
0.203125
 40
0.21875
 40
0.234375
 40
0.2421875
 40
0.25
 40
0.2578125
 40
0.265625
 40
0.28125
 40
0.2890625
 40
0.296875
 40
0.3046875
 40
0.3125
 40
0.3203125
 40
0.32421875
 40
0.328125
 40
0.33203125
 40
0.3359375
 40
0.33984375
 40
0.34375
 40
0.34765625
 40
0.349609375
 40
0.3515625
 40
0.35546875
 40
0.359375
 40
0.3671875
 40
0.37109375
 40
0.375
 40
0.3828125
 40
0.390625
 40
0.3984375
 40
0.40625
 40
0.421875
 40
0.4375
 40
0.453125
 40
0.46875
 40
0.5
 40
0.515625
 40
0.53125
 40
0.546875
 40
0.5625
 40
0.5703125
 40
0.578125
 40
0.5859375
 40
0.59375
 40
0.6015625
 40
0.609375
 40
0.6171875
 40
0.625
 40
0.6328125
 40
0.640625
 40
0.6484375
 40
0.65625
 40
0.6640625
 40
0.671875
 40
0.6875
 40
0.71875
 40
0.734375
 40
0.7421875
 40
0.75
 40
0.7578125
 40
0.765625
 40
0.7734375
 40
0.78125
 40
0.7845968893707642
 40
0.7845968893707642
 40
0.7845968893707642
 40
0.7845968893707642
 10
118.7434887464846
 20
220.8970810904431
 30
0.0
 10
118.7459192496568
 20
220.8437441675259
 30
0.0
 10
118.7711355385716
 20
220.3313099571229
 30
0.0
 10
118.8875903365624
 20
218.9392011924315
 30
0.0
 10
119.1905397870299
 20
216.8389888477955
 30
0.0
 10
119.5490038311521
 20
214.846123905345
 30
0.0
 10
119.8121965270947
 20
213.3085958480149
 30
0.0
 10
120.031572904787
 20
212.0671026737548
 30
0.0
 10
120.3209708963043
 20
210.7375765831747
 30
0.0
 10
120.7877158117044
 20
209.0455484080721
 30
0.0
 10
121.2994024877147
 20
207.4717554153076
 30
0.0
 10
121.7362478352294
 20
206.0628662311705
 30
0.0
 10
122.0717206829996
 20
204.8792198421287
 30
0.0
 10
122.5450773008615
 20
203.5165563081675
 30
0.0
 10
123.0751147465635
 20
202.2777585142203
 30
0.0
 10
123.5445959372118
 20
201.2954632558749
 30
0.0
 10
123.9380469570318
 20
200.5255514081967
 30
0.0
 10
124.2283425036873
 20
199.9753749497766
 30
0.0
 10
124.5686726716194
 20
199.3549053930969
 30
0.0
 10
125.0235930961116
 20
198.6287556348302
 30
0.0
 10
125.5661103991245
 20
197.9445928545124
 30
0.0
 10
125.8234444848419
 20
197.6271755917396
 30
0.0
 10
126.2122417063194
 20
197.116984216992
 30
0.0
 10
126.6699050628102
 20
196.6208044659769
 30
0.0
 10
127.1064304410261
 20
196.2058060260185
 30
0.0
 10
127.6037734020045
 20
195.7929457749566
 30
0.0
 10
128.2677010473706
 20
195.26877182027
 30
0.0
 10
129.0955023682541
 20
194.6622860892893
 30
0.0
 10
130.1016061206064
 20
194.1027658698419
 30
0.0
 10
131.0881779861934
 20
193.6587947796949
 30
0.0
 10
132.2529252010603
 20
193.2609805919059
 30
0.0
 10
133.5539308096193
 20
192.9130237548362
 30
0.0
 10
134.7262073269439
 20
192.6351667977016
 30
0.0
 10
136.2738751298163
 20
192.2598779043314
 30
0.0
 10
138.3244044128443
 20
191.7889419386516
 30
0.0
 10
140.8952169667415
 20
191.3765843846239
 30
0.0
 10
143.3826604840536
 20
191.1151278272916
 30
0.0
 10
146.6299647660524
 20
190.8577278965213
 30
0.0
 10
149.8763947898273
 20
190.6821809077556
 30
0.0
 10
153.1733719288958
 20
190.6164228485519
 30
0.0
 10
155.7137746387428
 20
190.665646511677
 30
0.0
 10
158.2222362065145
 20
190.842569084068
 30
0.0
 10
160.2768555712493
 20
191.0596887307887
 30
0.0
 10
161.875190745108
 20
191.2490760143376
 30
0.0
 10
163.1692784502697
 20
191.4222899615383
 30
0.0
 10
164.5763567672255
 20
191.6978983428617
 30
0.0
 10
165.9456725397476
 20
192.0879530947169
 30
0.0
 10
167.2972018755229
 20
192.5749142672828
 30
0.0
 10
168.7524136597917
 20
193.2904185013337
 30
0.0
 10
170.1600125569941
 20
194.2729223602254
 30
0.0
 10
171.4120958331571
 20
195.6133065433585
 30
0.0
 10
172.19303070353
 20
196.7160343749229
 30
0.0
 10
172.9992841393886
 20
197.9920687808125
 30
0.0
 10
173.6407473007838
 20
199.3538661105642
 30
0.0
 10
174.1253249469617
 20
200.6008985887333
 30
0.0
 10
174.554070102755
 20
201.866426900805
 30
0.0
 10
175.0420873057821
 20
203.5662430036951
 30
0.0
 10
175.6948140041367
 20
206.4611407072588
 30
0.0
 10
176.2334487707863
 20
209.6972438266115
 30
0.0
 10
176.6115181459715
 20
212.5461676804829
 30
0.0
 10
176.7989896536259
 20
214.1481621879681
 30
0.0
 10
176.9331116197935
 20
215.4316437259722
 30
0.0
 10
177.0143703540115
 20
216.7527796234623
 30
0.0
 10
177.0352077372572
 20
218.0617084951568
 30
0.0
 10
177.0544916408803
 20
219.1526189560257
 30
0.0
 10
177.0805708063932
 20
220.2110554400179
 30
0.0
 10
177.0630773997136
 20
220.8910826851597
 30
0.0
 10
177.053521743465
 20
221.1016713689625
 30
0.0
  0
SPLINE
  5
D8
330
1F
100
AcDbEntity
  8
0
  6
Continuous
 62
     7
370
    25
100
AcDbSpline
210
0.0
220
0.0
230
1.0
 70
     8
 71
     3
 72
    42
 73
    38
 74
     0
 42
0.00000001
 43
0.00000001
 40
0.8258598335515376
 40
0.8258598335515376
 40
0.8258598335515376
 40
0.8258598335515376
 40
0.828125
 40
0.8359375
 40
0.84375
 40
0.8515625
 40
0.859375
 40
0.8671875
 40
0.875
 40
0.8828125
 40
0.890625
 40
0.8984375
 40
0.90625
 40
0.9140625
 40
0.921875
 40
0.9375
 40
0.953125
 40
0.96875
 40
0.984375
 40
1.0
 40
1.015625
 40
1.03125
 40
1.046875
 40
1.0625
 40
1.078125
 40
1.09375
 40
1.1015625
 40
1.109375
 40
1.1171875
 40
1.125
 40
1.1328125
 40
1.135113366707956
 40
1.137066491707956
 40
1.140625
 40
1.14453125
 40
1.1484375
 40
1.151312345855177
 40
1.151312345855177
 40
1.151312345855177
 40
1.151312345855177
 10
45.9071134972225
 20
229.0151093785558
 30
0.0
 10
46.03849695342173
 20
229.1136567905264
 30
0.0
 10
46.62287245266446
 20
229.5298389189398
 30
0.0
 10
47.70169992943436
 20
230.142179688603
 30
0.0
 10
49.05883251421557
 20
230.7103636388908
 30
0.0
 10
50.26951094154615
 20
231.1329344150921
 30
0.0
 10
51.35810788076041
 20
231.5183952566261
 30
0.0
 10
52.59316904166651
 20
231.9406362687746
 30
0.0
 10
53.98239747939844
 20
232.3218702244712
 30
0.0
 10
55.30750388239543
 20
232.5784332262361
 30
0.0
 10
56.48802513747204
 20
232.7776107803348
 30
0.0
 10
57.66006558727584
 20
232.9841355883193
 30
0.0
 10
58.88891372076817
 20
233.1890933852247
 30
0.0
 10
60.15451597283235
 20
233.3677623323504
 30
0.0
 10
61.79538784881096
 20
233.5615214801448
 30
0.0
 10
63.76548738215455
 20
233.7739450052088
 30
0.0
 10
66.22493543884718
 20
234.0172674744554
 30
0.0
 10
68.71751664419297
 20
234.1731550376361
 30
0.0
 10
71.23964226784126
 20
234.2332713673992
 30
0.0
 10
73.64540727621213
 20
234.2106563261595
 30
0.0
 10
76.01255281625026
 20
234.213941504733
 30
0.0
 10
78.4655233154998
 20
234.1912503442386
 30
0.0
 10
80.96391334843818
 20
234.0996937136125
 30
0.0
 10
83.55160635546639
 20
233.8590012845419
 30
0.0
 10
85.95977326718003
 20
233.5089071782554
 30
0.0
 10
87.93556337386406
 20
233.2386328377841
 30
0.0
 10
89.63136916077525
 20
232.9488251372931
 30
0.0
 10
90.94601988372837
 20
232.6683325271538
 30
0.0
 10
92.24298426049967
 20
232.3184440365187
 30
0.0
 10
93.47284446268596
 20
231.9288889740398
 30
0.0
 10
94.42812356310289
 20
231.6024119557275
 30
0.0
 10
95.1479053309648
 20
231.3062337186614
 30
0.0
 10
95.62796341865395
 20
231.0904974058921
 30
0.0
 10
96.22358920210313
 20
230.787817928681
 30
0.0
 10
96.95749336164734
 20
230.3376220966898
 30
0.0
 10
97.63645336432853
 20
229.8054931629734
 30
0.0
 10
97.980977859853
 20
229.4883016374889
 30
0.0
 10
98.1253884513505
 20
229.3478212086977
 30
0.0
  0
ARC
  5
D9
330
1F
100
AcDbEntity
  8
0
  6
Continuous
 62
     7
370
    25
100
AcDbCircle
 10
179.5509519929
 20
221.2149945758
 30
0.0
 40
2.500000000000099
100
AcDbArc
 50
90.0
 51
182.5980668342
  0
SPLINE
  5
DA
330
1F
100
AcDbEntity
  8
0
  6
Continuous
 62
     7
370
    25
100
AcDbSpline
210
0.0
220
0.0
230
1.0
 70
     8
 71
     3
 72
    72
 73
    68
 74
     0
 42
0.00000001
 43
0.00000001
 40
0.1944075973283801
 40
0.1944075973283801
 40
0.1944075973283801
 40
0.1944075973283801
 40
0.1953125
 40
0.203125
 40
0.21875
 40
0.234375
 40
0.2421875
 40
0.25
 40
0.2578125
 40
0.265625
 40
0.28125
 40
0.2890625
 40
0.296875
 40
0.3046875
 40
0.3125
 40
0.3203125
 40
0.32421875
 40
0.328125
 40
0.33203125
 40
0.3359375
 40
0.33984375
 40
0.34375
 40
0.34765625
 40
0.349609375
 40
0.3515625
 40
0.35546875
 40
0.359375
 40
0.3671875
 40
0.37109375
 40
0.375
 40
0.3828125
 40
0.390625
 40
0.3984375
 40
0.40625
 40
0.421875
 40
0.4375
 40
0.453125
 40
0.46875
 40
0.5
 40
0.515625
 40
0.53125
 40
0.546875
 40
0.5625
 40
0.5703125
 40
0.578125
 40
0.5859375
 40
0.59375
 40
0.6015625
 40
0.609375
 40
0.6171875
 40
0.625
 40
0.6328125
 40
0.640625
 40
0.6484375
 40
0.65625
 40
0.6640625
 40
0.671875
 40
0.6875
 40
0.71875
 40
0.734375
 40
0.7421875
 40
0.75
 40
0.7578125
 40
0.765625
 40
0.7734375
 40
0.78125
 40
0.7845968894631555
 40
0.7845968894631555
 40
0.7845968894631555
 40
0.7845968894631555
 10
100.7175477663266
 20
220.8970810873677
 30
0.0
 10
100.7151172629362
 20
220.8437441587578
 30
0.0
 10
100.6899009739251
 20
220.3313099425549
 30
0.0
 10
100.5734461754745
 20
218.9392011723698
 30
0.0
 10
100.270496725007
 20
216.8389888277343
 30
0.0
 10
99.91203268088485
 20
214.8461238852836
 30
0.0
 10
99.6488399849423
 20
213.3085958279534
 30
0.0
 10
99.42946360724999
 20
212.0671026536932
 30
0.0
 10
99.1400656157327
 20
210.737576563113
 30
0.0
 10
98.6733207003326
 20
209.0455483880107
 30
0.0
 10
98.1616340243224
 20
207.4717553952461
 30
0.0
 10
97.72478867680775
 20
206.0628662111088
 30
0.0
 10
97.38931582903683
 20
204.8792198220668
 30
0.0
 10
96.91595921117553
 20
203.5165562881061
 30
0.0
 10
96.38592176547307
 20
202.2777584941588
 30
0.0
 10
95.91644057482503
 20
201.2954632358129
 30
0.0
 10
95.522989555005
 20
200.5255513881353
 30
0.0
 10
95.23269400834951
 20
199.9753749297153
 30
0.0
 10
94.89236384041762
 20
199.3549053730357
 30
0.0
 10
94.43744341592549
 20
198.6287556147693
 30
0.0
 10
93.89492611291257
 20
197.9445928344511
 30
0.0
 10
93.6375920271952
 20
197.627175571678
 30
0.0
 10
93.24879480571798
 20
197.1169841969308
 30
0.0
 10
92.79113144922631
 20
196.620804445915
 30
0.0
 10
92.35460607101083
 20
196.2058060059568
 30
0.0
 10
91.85726311003191
 20
195.7929457548948
 30
0.0
 10
91.19333546466675
 20
195.2687718002087
 30
0.0
 10
90.36553414378285
 20
194.662286069228
 30
0.0
 10
89.35943039143054
 20
194.1027658497803
 30
0.0
 10
88.3728585258436
 20
193.6587947596336
 30
0.0
 10
87.20811131097668
 20
193.2609805718444
 30
0.0
 10
85.90710570241762
 20
192.9130237347747
 30
0.0
 10
84.73482918509296
 20
192.6351667776401
 30
0.0
 10
83.18716138222055
 20
192.2598778842699
 30
0.0
 10
81.13663209919282
 20
191.7889419185902
 30
0.0
 10
78.56581954529535
 20
191.3765843645625
 30
0.0
 10
76.07837602798358
 20
191.1151278072302
 30
0.0
 10
72.8310717459842
 20
190.8577278764596
 30
0.0
 10
69.58464172220964
 20
190.6821808876941
 30
0.0
 10
66.28766458314112
 20
190.6164228284904
 30
0.0
 10
63.74726187329423
 20
190.6656464916155
 30
0.0
 10
61.2388003055225
 20
190.8425690640063
 30
0.0
 10
59.18418094078755
 20
191.0596887107272
 30
0.0
 10
57.58584576692878
 20
191.249075994276
 30
0.0
 10
56.29175806176686
 20
191.4222899414772
 30
0.0
 10
54.88467974481144
 20
191.6978983228003
 30
0.0
 10
53.51536397228947
 20
192.0879530746553
 30
0.0
 10
52.1638346365136
 20
192.5749142472213
 30
0.0
 10
50.70862285224538
 20
193.2904184812722
 30
0.0
 10
49.30102395504228
 20
194.2729223401644
 30
0.0
 10
48.04894067888017
 20
195.6133065232969
 30
0.0
 10
47.26800580850672
 20
196.7160343548613
 30
0.0
 10
46.46175237264834
 20
197.9920687607512
 30
0.0
 10
45.82028921125321
 20
199.3538660905021
 30
0.0
 10
45.33571156507573
 20
200.6008985686718
 30
0.0
 10
44.90696640928178
 20
201.8664268807438
 30
0.0
 10
44.41894920625518
 20
203.5662429836336
 30
0.0
 10
43.76622250790015
 20
206.4611406871971
 30
0.0
 10
43.22758774125064
 20
209.69724380655
 30
0.0
 10
42.8495183660655
 20
212.5461676604216
 30
0.0
 10
42.66204685841109
 20
214.1481621679068
 30
0.0
 10
42.52792489224351
 20
215.4316437059105
 30
0.0
 10
42.44666615802547
 20
216.7527796034007
 30
0.0
 10
42.42582877477992
 20
218.0617084750958
 30
0.0
 10
42.40654487115643
 20
219.1526189359639
 30
0.0
 10
42.38046570551697
 20
220.2110554251107
 30
0.0
 10
42.39795911261297
 20
220.8910826763585
 30
0.0
 10
42.40751476936329
 20
221.101671366341
 30
0.0
  0
MTEXT
  5
DC
330
1F
100
AcDbEntity
  8
0
  6
Continuous
 62
     7
100
AcDbMText
 10
0.0
 20
10.1326830986
 30
0.0
 40
3.633
 41
0.0
 71
     1
 72
     1
  1
SOLIDWORKS Educational Product.
  7
SLDTEXTSTYLE3
 73
     1
 44
1.0
  0
MTEXT
  5
DD
330
1F
100
AcDbEntity
  8
0
  6
Continuous
 62
     7
100
AcDbMText
 10
0.0
 20
4.6831830986
 30
0.0
 40
3.633
 41
0.0
 71
     1
 72
     1
  1
For Instructional Use Only.
  7
SLDTEXTSTYLE3
 73
     1
 44
1.0
  0
ENDSEC
  0
SECTION
  2
OBJECTS
  0
DICTIONARY
  5
C
330
0
100
AcDbDictionary
281
     1
  3
ACAD_GROUP
350
D
  3
ACAD_LAYOUT
350
1A
  3
ACAD_MLINESTYLE
350
17
  3
ACAD_PLOTSETTINGS
350
19
  3
ACAD_PLOTSTYLENAME
350
E
  3
ACAD_SCALELIST
350
47
  3
DWGPROPS
350
DE
  0
DICTIONARY
  5
D
102
{ACAD_REACTORS
330
C
102
}
330
C
100
AcDbDictionary
281
     1
  0
DICTIONARY
  5
1A
102
{ACAD_REACTORS
330
C
102
}
330
C
100
AcDbDictionary
281
     1
  3
Layout1
350
1E
  3
Layout2
350
26
  3
Model
350
22
  0
DICTIONARY
  5
17
102
{ACAD_REACTORS
330
C
102
}
330
C
100
AcDbDictionary
281
     1
  3
Standard
350
18
  0
DICTIONARY
  5
19
102
{ACAD_REACTORS
330
C
102
}
330
C
100
AcDbDictionary
281
     1
  0
ACDBDICTIONARYWDFLT
  5
E
102
{ACAD_REACTORS
330
C
102
}
330
C
100
AcDbDictionary
281
     1
  3
Normal
350
F
100
AcDbDictionaryWithDefault
340
F
  0
DICTIONARY
  5
47
102
{ACAD_REACTORS
330
C
102
}
330
C
100
AcDbDictionary
281
     1
  3
A0
350
48
  3
A1
350
49
  3
A2
350
4A
  3
A3
350
4B
  3
A4
350
4C
  3
A5
350
4D
  3
A6
350
4E
  3
A7
350
4F
  3
A8
350
50
  3
A9
350
51
  3
B0
350
52
  3
B1
350
53
  3
B2
350
54
  3
B3
350
55
  3
B4
350
56
  3
B5
350
57
  3
B6
350
58
  0
XRECORD
  5
DE
102
{ACAD_REACTORS
330
C
102
}
330
C
100
AcDbXrecord
280
     1
  1
DWGPROPS COOKIE
  2

  3

  4

  6

  7

  8
brad
  9

300
=
301
=
302
=
303
=
304
=
305
=
306
=
307
=
308
=
309
=
 40
0.0
 41
2460835.61740897
 42
2460835.617411273
  1

 90
        0
  0
LAYOUT
  5
1E
102
{ACAD_REACTORS
330
1A
102
}
330
1A
100
AcDbPlotSettings
  1

  2
none_device
  4

  6

 40
0.0
 41
0.0
 42
0.0
 43
0.0
 44
0.0
 45
0.0
 46
0.0
 47
0.0
 48
0.0
 49
0.0
140
0.0
141
0.0
142
1.0
143
1.0
 70
   688
 72
     1
 73
     0
 74
     5
  7

 75
    16
147
1.0
148
0.0
149
0.0
100
AcDbLayout
  1
Layout1
 70
     1
 71
     1
 10
0.0
 20
0.0
 11
420.0
 21
297.0
 12
0.0
 22
0.0
 32
0.0
 14
1.0000000000E+20
 24
1.0000000000E+20
 34
1.0000000000E+20
 15
-1.0000000000E+20
 25
-1.0000000000E+20
 35
-1.0000000000E+20
146
0.0
 13
0.0
 23
0.0
 33
0.0
 16
1.0
 26
0.0
 36
0.0
 17
0.0
 27
1.0
 37
0.0
 76
     0
330
1B
  0
LAYOUT
  5
26
102
{ACAD_REACTORS
330
1A
102
}
330
1A
100
AcDbPlotSettings
  1

  2
none_device
  4

  6

 40
0.0
 41
0.0
 42
0.0
 43
0.0
 44
0.0
 45
0.0
 46
0.0
 47
0.0
 48
0.0
 49
0.0
140
0.0
141
0.0
142
1.0
143
1.0
 70
   688
 72
     1
 73
     0
 74
     5
  7

 75
    16
147
1.0
148
0.0
149
0.0
100
AcDbLayout
  1
Layout2
 70
     1
 71
     2
 10
0.0
 20
0.0
 11
0.0
 21
0.0
 12
0.0
 22
0.0
 32
0.0
 14
0.0
 24
0.0
 34
0.0
 15
0.0
 25
0.0
 35
0.0
146
0.0
 13
0.0
 23
0.0
 33
0.0
 16
1.0
 26
0.0
 36
0.0
 17
0.0
 27
1.0
 37
0.0
 76
     0
330
23
  0
LAYOUT
  5
22
102
{ACAD_REACTORS
330
1A
102
}
330
1A
100
AcDbPlotSettings
  1

  2
none_device
  4
Letter_(8.50_x_11.00_Inches)
  6

 40
6.35
 41
6.35
 42
6.35000508
 43
6.35000508
 44
215.9
 45
279.4
 46
0.0
 47
0.0
 48
0.0
 49
0.0
140
0.0
141
0.0
142
1.0
143
1.0
 70
  1712
 72
     1
 73
     0
 74
     0
  7

 75
     0
147
1.0
148
0.0
149
0.0
100
AcDbLayout
  1
Model
 70
     1
 71
     0
 10
0.0
 20
0.0
 11
210.0
 21
297.0
 12
0.0
 22
0.0
 32
0.0
 14
0.0
 24
0.0
 34
0.0
 15
210.0
 25
297.0
 35
0.0
146
0.0
 13
0.0
 23
0.0
 33
0.0
 16
1.0
 26
0.0
 36
0.0
 17
0.0
 27
1.0
 37
0.0
 76
     0
330
1F
331
29
  0
MLINESTYLE
  5
18
102
{ACAD_REACTORS
330
17
102
}
330
17
100
AcDbMlineStyle
  2
Standard
 70
     0
  3

 62
   256
 51
90.0
 52
90.0
 71
     2
 49
0.5
 62
   256
  6
BYLAYER
 49
-0.5
 62
   256
  6
BYLAYER
  0
ACDBPLACEHOLDER
  5
F
102
{ACAD_REACTORS
330
E
102
}
330
E
  0
SCALE
  5
48
102
{ACAD_REACTORS
330
47
102
}
330
47
100
AcDbScale
 70
     0
300
1:1
140
1.0
141
1.0
290
     1
  0
SCALE
  5
49
102
{ACAD_REACTORS
330
47
102
}
330
47
100
AcDbScale
 70
     0
300
1:2
140
1.0
141
2.0
290
     0
  0
SCALE
  5
4A
102
{ACAD_REACTORS
330
47
102
}
330
47
100
AcDbScale
 70
     0
300
1:4
140
1.0
141
4.0
290
     0
  0
SCALE
  5
4B
102
{ACAD_REACTORS
330
47
102
}
330
47
100
AcDbScale
 70
     0
300
1:5
140
1.0
141
5.0
290
     0
  0
SCALE
  5
4C
102
{ACAD_REACTORS
330
47
102
}
330
47
100
AcDbScale
 70
     0
300
1:8
140
1.0
141
8.0
290
     0
  0
SCALE
  5
4D
102
{ACAD_REACTORS
330
47
102
}
330
47
100
AcDbScale
 70
     0
300
1:10
140
1.0
141
10.0
290
     0
  0
SCALE
  5
4E
102
{ACAD_REACTORS
330
47
102
}
330
47
100
AcDbScale
 70
     0
300
1:16
140
1.0
141
16.0
290
     0
  0
SCALE
  5
4F
102
{ACAD_REACTORS
330
47
102
}
330
47
100
AcDbScale
 70
     0
300
1:20
140
1.0
141
20.0
290
     0
  0
SCALE
  5
50
102
{ACAD_REACTORS
330
47
102
}
330
47
100
AcDbScale
 70
     0
300
1:30
140
1.0
141
30.0
290
     0
  0
SCALE
  5
51
102
{ACAD_REACTORS
330
47
102
}
330
47
100
AcDbScale
 70
     0
300
1:40
140
1.0
141
40.0
290
     0
  0
SCALE
  5
52
102
{ACAD_REACTORS
330
47
102
}
330
47
100
AcDbScale
 70
     0
300
1:50
140
1.0
141
50.0
290
     0
  0
SCALE
  5
53
102
{ACAD_REACTORS
330
47
102
}
330
47
100
AcDbScale
 70
     0
300
1:100
140
1.0
141
100.0
290
     0
  0
SCALE
  5
54
102
{ACAD_REACTORS
330
47
102
}
330
47
100
AcDbScale
 70
     0
300
2:1
140
2.0
141
1.0
290
     0
  0
SCALE
  5
55
102
{ACAD_REACTORS
330
47
102
}
330
47
100
AcDbScale
 70
     0
300
4:1
140
4.0
141
1.0
290
     0
  0
SCALE
  5
56
102
{ACAD_REACTORS
330
47
102
}
330
47
100
AcDbScale
 70
     0
300
8:1
140
8.0
141
1.0
290
     0
  0
SCALE
  5
57
102
{ACAD_REACTORS
330
47
102
}
330
47
100
AcDbScale
 70
     0
300
10:1
140
10.0
141
1.0
290
     0
  0
SCALE
  5
58
102
{ACAD_REACTORS
330
47
102
}
330
47
100
AcDbScale
 70
     0
300
100:1
140
100.0
141
1.0
290
     0
  0
ENDSEC
  0
EOF
