<?xml version="1.0" encoding="utf-8" standalone="no"?>
<!DOCTYPE svg PUBLIC "-//W3C//DTD SVG 1.1//EN" "http://www.w3.org/Graphics/SVG/1.1/DTD/svg11.dtd">
<svg version="1.1" width="1190.4pt" height="1683.6pt" viewBox="0 0 1190.4 1683.6" overflow="visible" xmlns="http://www.w3.org/2000/svg">
  <path d="M583.9405,804.9315 C583.9405,811.8256 585.7871,817.4395 589.4804,821.7729 C593.2722,826.1556 598.0489,828.347 603.8104,828.347 C609.9659,828.347 614.9395,826.2295 618.7313,821.9945 C622.5231,817.6118 624.419,812.0472 624.419,805.3008 C624.419,798.5544 622.5231,792.9899 618.7313,788.6071 C614.9395,784.3229 610.0151,782.1808 603.9581,782.1808 C598.2458,782.1808 593.4692,784.3475 589.6282,788.681 C585.8364,793.0637 583.9405,798.4805 583.9405,804.9315 z" stroke="#000000" stroke-width="0.24" fill="none" />
  <path d="M623.3849,833.5915 L623.3849,841.1258 L640.0786,841.1258 L640.0786,769.1804 L623.3849,769.1804 L623.3849,777.5273 C616.7369,770.6331 609.2272,767.186 600.8558,767.186 C591.1547,767.186 583.0787,770.7808 576.6277,777.9705 C570.1768,785.16 566.9514,794.1471 566.9514,804.9315 C566.9514,815.9129 570.1768,825.0723 576.6277,832.4096 C583.128,839.5992 591.3517,843.194 601.299,843.194 C609.178,843.194 616.54,839.9932 623.3849,833.5915 z" stroke="#000000" stroke-width="0.24" fill="none" />
  <path d="M549.2974,716.3663 L532.6776,716.3663 L532.6776,841.1258 L549.2974,841.1258 z" stroke="#000000" stroke-width="0.24" fill="none" />
  <path d="M498.1083,805.6702 C498.1083,798.776 496.2371,793.1622 492.4945,788.8287 C488.7027,784.3968 483.9507,782.1808 478.2384,782.1808 C472.1321,782.1808 467.1585,784.3229 463.3175,788.6071 C459.5257,792.8421 457.6298,798.3574 457.6298,805.1531 C457.6298,812.1458 459.5011,817.7349 463.2436,821.9207 C466.9861,826.2049 471.9106,828.347 478.0168,828.347 C483.7783,828.347 488.555,826.2049 492.3468,821.9207 C496.1878,817.5872 498.1083,812.1703 498.1083,805.6702 z" stroke="#000000" stroke-width="0.24" fill="none" />
  <path d="M458.5901,777.5273 L458.5901,716.3663 L441.9702,716.3663 L441.9702,841.1258 L458.5901,841.1258 L458.5901,833.5915 C465.1395,839.9932 472.5753,843.194 480.8976,843.194 C490.7463,843.194 498.8962,839.5992 505.3472,832.4096 C511.8474,825.1708 515.0975,816.0114 515.0975,804.9315 C515.0975,794.1964 511.872,785.2339 505.4211,778.0443 C498.9701,770.8055 490.8941,767.186 481.193,767.186 C472.7723,767.186 465.238,770.6331 458.5901,777.5273 z" stroke="#000000" stroke-width="0.24" fill="none" />
  <path d="M739.5759,784.6923 L752.5024,784.6923 L752.5024,769.1804 L739.5759,769.1804 L739.5759,742.8103 L722.9561,742.8103 L722.9561,769.1804 L715.865,769.1804 L715.865,784.6923 L722.9561,784.6923 L722.9561,841.1258 L739.5759,841.1258 z" stroke="#000000" stroke-width="0.24" fill="none" />
  <path d="M702.8646,781.4421 C698.3834,771.938 691.5385,767.186 682.3298,767.186 C676.0759,767.186 670.7576,769.2297 666.3748,773.3169 C662.0906,777.4041 659.9485,782.5748 659.9485,788.8287 C659.9485,793.5562 661.2042,797.4218 663.7156,800.4257 C665.6854,802.7894 669.0833,805.1531 673.9092,807.5168 L679.0059,809.9544 L684.0288,812.392 C688.3622,814.9526 690.529,817.7103 690.529,820.6649 C690.529,825.7863 687.722,828.347 682.1083,828.347 C679.3014,828.347 676.8884,827.4114 674.8694,825.5401 C673.8353,824.6044 672.3334,822.4131 670.3636,818.966 L656.1813,825.5401 C661.2042,837.3094 669.748,843.194 681.8128,843.194 C688.8547,843.194 694.8624,840.9781 699.8361,836.5461 C704.9575,831.8679 707.5181,826.0571 707.5181,819.1138 C707.5181,813.6969 705.9916,809.3881 702.9385,806.1872 C699.8853,802.9864 693.9514,799.4901 685.1368,795.6982 C678.735,792.9899 675.5342,790.2568 675.5342,787.4991 C675.5342,785.9233 676.0759,784.6307 677.1592,783.6212 C678.2426,782.6117 679.5476,782.1069 681.0742,782.1069 C684.275,782.1069 686.9588,784.3229 689.1255,788.7549 z" stroke="#000000" stroke-width="0.24" fill="none" />
</svg>