<?xml version="1.0" encoding="UTF-8" standalone="no"?>
<svg
   version="1.1"
   width="23.6220in"
   height="15.7480in"
   viewBox="0 0 1700.7874 1133.8583"
   id="svg199"
   sodipodi:docname="eo46qg1j.svg"
   inkscape:version="1.4.2 (f4327f4, 2025-05-13)"
   xmlns:inkscape="http://www.inkscape.org/namespaces/inkscape"
   xmlns:sodipodi="http://sodipodi.sourceforge.net/DTD/sodipodi-0.dtd"
   xmlns="http://www.w3.org/2000/svg"
   xmlns:svg="http://www.w3.org/2000/svg">
  <defs
     id="defs199">
    <rect
       x="1337.2556"
       y="795.46509"
       width="46.032326"
       height="39.40897"
       id="rect200" />
    <linearGradient
       id="swatch199"
       inkscape:swatch="solid">
      <stop
         style="stop-color:#000000;stop-opacity:1;"
         offset="0"
         id="stop199" />
    </linearGradient>
  </defs>
  <sodipodi:namedview
     id="namedview199"
     pagecolor="#ffffff"
     bordercolor="#000000"
     borderopacity="0.25"
     inkscape:showpageshadow="2"
     inkscape:pageopacity="0.0"
     inkscape:pagecheckerboard="0"
     inkscape:deskcolor="#d1d1d1"
     inkscape:document-units="in"
     showgrid="false"
     inkscape:zoom="0.53379794"
     inkscape:cx="1074.3766"
     inkscape:cy="657.55218"
     inkscape:window-width="1504"
     inkscape:window-height="932"
     inkscape:window-x="-8"
     inkscape:window-y="-8"
     inkscape:window-maximized="1"
     inkscape:current-layer="svg199" />
  <path
     d="  M1103.8223,126.9343 C1104.4388,118.8934 1118.0456,118.3535 1131.2650,129.7113 C1135.5165,133.3640 1149.5208,145.7828 1150.6379,151.0952 C1148.2120,150.6089 1132.5189,140.5598 1128.1949,138.1323 C1124.1349,135.8530 1105.1568,128.1617 1103.8223,126.9343 Z"
     style="stroke-width: 0.2160; stroke: #000000; stroke-dasharray: none; stroke-linecap: butt; stroke-linejoin: miter; fill: none; "
     id="path91" />
  <path
     d="  M1065.8217,221.7874 C1064.8188,215.5678 1065.9120,202.1431 1066.9382,195.9318 C1068.2930,187.7314 1071.6433,183.2548 1075.3060,176.6386 C1088.9226,152.0427 1123.2611,154.8409 1145.3859,183.3357 C1154.7816,195.4363 1159.5656,202.7817 1165.0419,219.5083 C1170.1190,235.0160 1169.6512,252.7464 1160.6452,264.1802 C1154.3008,272.2351 1136.4069,281.6099 1120.0491,277.7782 C1095.9483,272.1327 1083.2681,262.3738 1071.8799,243.2771 C1068.0773,236.8998 1067.1426,229.9791 1065.8217,221.7874 Z"
     style="stroke-width: 0.2160; stroke: #000000; stroke-dasharray: none; stroke-linecap: butt; stroke-linejoin: miter; fill: none; "
     id="path92" />
  <path
     d="  M999.5780,290.2924 C995.9930,274.0464 1020.5159,264.8379 1036.9729,263.9143 C1053.0692,263.0108 1077.1155,271.1577 1078.5043,286.5709 C1080.0170,303.3617 1059.8004,302.6071 1052.3859,307.9285 C1043.8019,314.0889 1037.6797,314.6521 1028.3457,309.4022 C1024.1899,307.0647 1021.9887,306.2248 1017.5213,304.3004 C1011.3272,301.6321 1001.2350,297.8015 999.5780,290.2924 Z"
     style="stroke-width: 0.2160; stroke: #000000; stroke-dasharray: none; stroke-linecap: butt; stroke-linejoin: miter; fill: none; "
     id="path93" />
  <path
     d="  M1098.1140,321.9064 C1096.1683,323.7243 1090.1942,334.9376 1088.1430,338.4816 C1085.5702,342.9268 1079.1575,352.0748 1078.7382,355.9045 C1076.9834,357.0987 1071.9583,365.4492 1069.0969,368.3699 C1065.3584,372.1849 1060.9873,375.3499 1055.0516,376.9148 C1024.9591,384.8478 1015.2316,364.3067 1001.2047,344.8469 C998.1847,340.6572 984.5020,321.7028 981.2463,319.4229 C977.8187,319.4067 976.3775,320.9905 974.9087,320.4045 C976.1466,316.6959 987.9705,313.7857 992.5953,316.6405 C991.0267,317.8081 988.3341,317.4334 986.7968,318.1462 C987.9250,321.4284 1006.1244,329.1643 1010.2188,330.5562 C1038.3888,340.1371 1058.6554,337.9844 1084.0730,325.2976 C1089.1667,322.7552 1091.0264,321.0396 1095.2401,318.4791 L1094.9193,315.4273 C1100.8169,314.9973 1104.4053,317.7168 1105.6293,322.1084 C1101.8582,320.9107 1103.4883,319.9081 1099.4362,319.7129 L1098.1140,321.9064 Z"
     style="stroke-width: 0.2160; stroke: #000000; stroke-dasharray: none; stroke-linecap: butt; stroke-linejoin: miter; fill: none; "
     id="path94" />
  <path
     d="  M956.7893,730.9710 C968.2852,734.1053 983.5614,728.1521 994.0438,724.3454 C997.7336,723.0053 1032.5316,737.9562 1059.2522,731.9005 C1064.8491,730.6321 1075.9517,726.1667 1081.0966,728.0718 C1082.5402,728.6064 1082.8153,729.0167 1084.4607,729.3223 C1093.8982,731.0749 1109.0429,731.8186 1119.0984,732.7129 C1119.5656,732.6922 1120.8333,732.5970 1121.2379,732.4709 C1123.4333,731.7862 1122.0076,733.1062 1123.1828,731.1229 L1130.3442,744.1305 C1131.8640,746.2040 1133.2577,748.4564 1134.8332,750.2732 C1136.5081,752.2046 1138.5846,753.5667 1140.4836,755.1215 C1176.9036,784.9404 1232.7858,759.3424 1267.5078,739.9414 C1284.3618,730.5246 1305.7356,711.3224 1319.5528,697.1011 L1334.4703,679.1174 C1335.1435,677.4391 1340.6877,670.3339 1342.4362,661.9779 C1348.4900,633.0450 1325.5856,625.6019 1319.3228,607.3668 C1309.6102,579.0884 1301.2433,584.5490 1279.9714,568.9263 C1277.2197,566.9050 1275.2002,565.7209 1272.6836,563.4596 C1270.0894,561.1282 1268.4593,559.3631 1265.4763,557.5373 C1266.7914,556.7648 1291.2437,561.5988 1307.3017,554.7109 C1310.3315,553.4113 1312.9007,552.6691 1316.1910,551.3971 L1323.3452,546.5731 C1331.1846,539.3613 1329.4026,540.9799 1334.7090,533.0338 C1351.1527,508.4108 1328.3847,479.1890 1314.0994,466.3513 C1290.2484,444.9175 1258.0840,421.4748 1231.5050,403.6531 L1212.2721,389.7461 C1212.1450,389.6528 1211.9550,389.5363 1211.8227,389.4475 L1207.2463,385.7533 C1205.7903,384.8331 1204.8836,385.2672 1202.9452,383.8268 C1200.4756,382.9331 1201.0656,383.2331 1198.6980,381.4240 L1181.0886,368.9691 C1177.9276,366.7451 1176.1578,366.2289 1174.6034,363.3142 C1177.3711,359.3278 1181.8590,357.9179 1185.6791,354.6858 C1189.1634,351.7380 1192.6948,348.5310 1196.0908,345.5639 L1214.1462,327.3291 C1215.3115,326.4209 1214.3075,327.0916 1215.8731,326.2453 C1217.4840,323.9803 1218.8047,321.9970 1220.7773,318.9679 C1226.4500,310.2568 1230.5665,306.8752 1234.6801,292.9278 C1239.7593,275.7068 1241.7016,259.4937 1238.1627,245.0141 L1234.6515,227.3386 C1232.9450,220.1054 1230.5157,212.5874 1228.0365,205.5994 C1227.4335,203.9003 1226.7203,202.0355 1226.3627,200.4666 C1225.2635,193.9005 1222.6917,191.4480 1220.3544,185.1361 C1219.4609,182.7235 1217.1448,178.7642 1215.6924,175.5488 C1213.7017,171.1422 1213.4445,170.1480 1210.9621,166.0801 C1211.9612,162.5344 1220.5411,155.7075 1223.7008,153.3585 C1229.2093,149.2639 1234.4697,143.8966 1238.4277,137.9477 C1257.8595,108.7410 1240.5008,74.1396 1219.7445,52.5432 C1208.8350,41.1922 1185.5157,26.5588 1160.8737,33.3314 C1150.4928,36.1843 1141.1976,40.9312 1134.6110,46.9499 C1128.9301,52.1413 1119.9979,62.8093 1119.0090,71.4470 C1114.4076,71.8437 1110.6385,68.5082 1102.7336,66.1802 C1096.2097,64.2593 1092.6072,62.1128 1085.1327,61.1871 C1052.8167,57.1847 1038.4082,53.2060 1002.9626,60.4440 C993.2272,62.4320 981.7563,65.3335 972.8798,69.3660 C970.9417,70.2464 970.7719,70.4799 968.4487,70.6090 C963.2828,59.8318 963.0669,55.5633 952.0902,45.4084 C945.9257,39.7052 933.9823,33.0009 923.9112,31.3319 C893.4993,26.2927 877.2604,38.6671 863.1007,53.9601 C849.8454,68.2762 836.6782,92.1056 839.3082,113.9625 C842.2955,138.7884 857.7285,150.5122 876.7452,161.4781 C876.1031,163.4957 874.6282,165.8072 873.4402,168.3954 L869.4760,176.5041 C862.7494,190.1015 860.0656,196.6597 854.8840,209.9989 C847.7283,228.4209 843.4323,251.6741 844.8010,272.2490 C845.5713,283.8285 846.7712,284.8121 849.0257,292.1541 C850.1900,295.9458 851.0630,297.4426 852.5123,300.6356 C853.7978,303.4673 855.8652,306.3265 856.4526,308.6894 C858.9205,310.0234 861.1227,314.2859 862.4468,316.4352 C864.7408,320.1587 878.8011,335.8324 881.9251,338.4338 L912.9674,362.5615 C909.3162,366.4570 885.0031,386.9600 878.9733,388.8001 C876.8577,391.0121 871.6332,394.0833 868.7370,396.0740 L807.6480,438.2140 C798.3759,444.1644 767.1541,468.4724 760.3083,475.8612 C759.2778,476.9734 753.1549,485.1250 752.2726,486.6002 C733.0019,518.8184 755.9150,541.5862 756.1621,542.4150 L766.5142,550.2076 C775.2757,556.4009 789.1037,559.0022 799.8178,559.8773 C807.9077,560.5376 803.0135,560.3873 806.4784,559.2231 C807.1098,561.1496 806.6399,560.2849 808.0479,561.3273 C806.9481,562.8529 807.0838,563.0979 806.1402,564.6281 C805.2326,566.0997 804.9738,565.9983 803.9936,567.5089 C801.3354,569.6134 798.8426,571.4394 796.3471,573.5323 L770.7221,588.3070 C769.5488,592.0604 764.6967,593.7332 760.2727,606.9603 C753.5215,627.1441 741.8039,628.1259 736.6744,643.6048 C733.0277,654.6092 736.8671,663.5739 737.8933,670.2294 C741.0152,673.3906 744.2430,685.1289 761.8944,702.3565 C763.9343,704.3475 764.5776,705.8116 767.3518,708.1663 C778.3871,717.5334 776.4032,717.5194 788.0340,725.8327 C797.8217,732.8292 806.1506,740.2314 818.6582,746.6208 C851.5762,763.4368 905.7820,785.6491 939.4432,758.1167 C947.6394,751.4130 951.0740,748.1448 954.4072,738.8582 C954.9123,737.4515 956.7187,732.1165 956.7893,730.9710 Z"
     style="stroke-width: 0.2160; stroke: #000000; stroke-dasharray: none; stroke-linecap: butt; stroke-linejoin: miter; fill: none; "
     id="path95" />
  <path
     d="  M916.0742,758.1442 C911.5744,758.8305 908.2303,760.3949 903.6997,760.7376 C899.0817,761.0869 893.9720,761.0233 889.3646,760.6702 C879.7696,759.9348 854.8558,752.6530 845.0577,747.9118 C841.6449,746.2604 838.5673,745.3234 835.1898,743.4903 C831.7112,741.6022 829.0065,740.0470 824.9243,738.9566 L810.8783,729.4224 C809.2201,728.3369 808.5022,728.5868 805.6626,726.3137 C804.5446,725.4187 804.0009,724.8163 802.7173,723.9662 C796.3971,719.7798 793.1516,716.6301 787.3292,711.5356 C785.0358,709.5291 783.0854,708.9047 781.0874,706.5576 C779.3500,704.5160 777.6445,702.5415 775.7110,700.5881 C761.4792,686.2104 740.8543,663.0355 751.2952,641.5186 C757.9189,627.8688 766.4045,626.4442 770.0977,615.9405 C772.4407,609.2771 771.6247,606.0353 776.0678,600.0579 C784.5222,588.6841 791.1713,589.4459 802.4169,581.9366 C814.2066,574.0637 825.2030,557.9043 844.7581,565.3154 L848.6676,567.6871 C853.0358,568.0405 856.6601,572.2383 859.5498,575.3479 C870.9117,587.5740 872.0986,599.7730 878.5866,614.9954 C882.2943,623.6946 887.4648,632.8925 891.8541,640.1506 C899.9662,653.5642 911.5716,666.4141 922.5681,677.2090 C924.2185,678.8293 925.3408,680.7023 927.0622,682.4800 C934.2783,689.9336 938.3219,696.0668 943.7092,705.0389 C948.9175,713.7133 946.3079,728.7596 942.4194,736.1748 C939.4010,741.9304 928.8395,754.0149 922.0219,754.5129 C920.9532,756.0750 922.2096,754.8283 920.7765,755.9209 C919.5252,756.8750 920.3497,756.2911 919.2379,756.8144 C917.9226,757.4332 916.2775,757.9948 916.0742,758.1442 Z"
     style="stroke-width: 0.2160; stroke: #000000; stroke-dasharray: none; stroke-linecap: butt; stroke-linejoin: miter; fill: none; "
     id="path96" />
  <path
     d="  M1260.2234,567.3064 C1263.1279,569.7992 1264.5790,570.7926 1267.7694,573.5942 C1281.6071,585.7454 1281.1445,582.3384 1291.6436,588.8228 C1313.3269,602.2145 1300.9774,609.4056 1318.8606,627.9718 C1340.5861,650.5272 1328.9579,669.5331 1312.4426,690.0166 C1307.7379,695.8517 1302.8732,699.3825 1299.2993,703.1954 C1290.7113,712.3580 1281.7059,720.0747 1270.7320,727.3670 L1254.6304,737.6399 C1236.6179,746.6108 1216.7730,755.4621 1196.5918,758.6997 C1186.5882,760.3046 1180.6904,758.9090 1170.9559,758.4455 C1160.0483,756.0933 1148.8076,748.5479 1143.2596,741.8148 C1137.4246,734.7333 1131.2894,718.9226 1136.4302,706.6771 C1137.5424,704.0278 1142.8290,695.7473 1144.9644,692.6533 C1150.3592,684.8365 1169.1092,665.4355 1176.6579,656.6198 C1208.0222,619.9914 1204.9974,587.0134 1225.8879,570.3001 C1236.1766,562.0689 1247.3420,560.9639 1260.2234,567.3064 Z"
     style="stroke-width: 0.2160; stroke: #000000; stroke-dasharray: none; stroke-linecap: butt; stroke-linejoin: miter; fill: none; "
     id="path97" />
  <path
     d="  M1192.8536,384.7471 L1274.9407,442.9842 C1291.8461,457.2761 1313.0567,470.2978 1323.8774,493.6329 C1335.9102,519.5822 1313.1088,545.0807 1303.0213,546.1728 L1298.5533,548.9572 C1282.6858,555.4080 1271.8066,552.7891 1258.2813,551.4788 C1244.3918,547.6990 1237.3616,544.9507 1226.1548,538.4655 C1208.7147,528.3731 1192.3374,508.1232 1180.1392,492.6249 L1158.6879,467.4511 C1149.1322,456.7484 1135.6645,442.5051 1121.9445,435.6044 C1118.6964,433.9707 1117.0535,433.9892 1114.3246,431.9797 C1111.6564,430.0146 1109.9755,429.2568 1106.5554,427.7940 C1077.0522,415.1752 1059.8548,415.5997 1026.4700,415.8218 C963.1328,421.7906 934.5190,462.3041 901.8720,502.9896 C896.0893,510.1961 871.8912,534.9345 864.8326,536.1579 C862.2802,539.8244 849.6744,544.5139 845.7115,546.1937 C836.7392,549.9972 831.7447,549.6859 822.0381,551.9884 C788.3293,559.9840 753.3809,530.7336 761.4182,499.5712 C765.8881,482.2397 774.2305,474.1101 785.1562,464.5373 C806.4897,445.8458 870.8155,405.3195 896.6198,386.3124 L922.1497,366.8874 C924.2859,365.3529 940.0789,375.1024 944.3833,376.9299 C992.9903,397.5667 1019.3209,396.1404 1024.3621,398.0709 C1044.3710,399.4646 1057.4849,398.8801 1076.8270,397.4557 C1085.8883,396.7885 1092.1369,395.2985 1100.2889,393.4134 C1105.7332,392.1542 1118.5178,389.9889 1121.7458,386.9807 L1128.0464,385.2855 C1132.6542,384.4928 1144.4625,379.1306 1148.2197,377.4327 C1154.6614,374.5213 1160.4826,370.7460 1167.5529,368.4143 C1169.0682,367.5319 1178.0512,375.2657 1179.6873,376.4060 C1181.7386,377.8358 1183.7580,379.0988 1185.9821,380.6500 C1188.4372,382.3622 1190.5103,384.4260 1192.8536,384.7471 Z"
     style="stroke-width: 0.2160; stroke: #000000; stroke-dasharray: none; stroke-linecap: butt; stroke-linejoin: miter; fill: none; "
     id="path98" />
  <path
     d="  M1130.7866,66.2251 C1132.2308,65.2074 1131.1310,66.3629 1132.6628,64.5444 C1132.9813,64.1660 1133.3317,63.5532 1133.5778,63.1460 C1148.6762,38.1584 1183.3621,31.0466 1208.5073,52.4868 C1212.8709,56.2075 1214.4027,57.4205 1217.9947,61.7997 C1220.4176,64.7537 1224.3066,71.3083 1226.2716,72.7250 C1226.4818,74.4379 1232.9612,84.2469 1235.9186,94.4674 C1246.2748,130.2578 1214.4142,153.7031 1203.1882,153.4157 C1188.9748,129.1053 1163.2161,100.5738 1139.9458,84.9255 C1137.8358,83.5069 1129.8959,79.6449 1128.8595,77.9467 C1126.7392,74.4876 1130.7612,69.7650 1130.7866,66.2251 Z"
     style="stroke-width: 0.2160; stroke: #000000; stroke-dasharray: none; stroke-linecap: butt; stroke-linejoin: miter; fill: none; "
     id="path99" />
  <path
     d="  M1004.6687,174.6011 C1005.4008,177.0382 1009.9723,185.1284 1011.0720,186.0413 C1011.6690,192.6347 1016.9514,203.6097 1014.0531,223.0041 C1011.9955,236.7714 1009.0883,242.7820 1002.1558,252.4965 C991.3698,267.6113 963.3050,280.5190 945.1080,277.5704 C928.1565,274.6358 915.1222,266.0886 911.5144,247.9041 C908.8781,234.6174 915.0424,211.9203 922.0351,200.3412 L924.3769,197.6435 C924.6728,195.6798 924.2089,197.2425 925.2714,195.2168 C930.4564,185.3309 946.3452,168.5736 957.0962,163.6237 C972.0046,156.7595 989.5065,157.8337 1000.6812,169.9536 C1002.1841,171.5837 1002.9780,173.3803 1004.6687,174.6011 Z"
     style="stroke-width: 0.2160; stroke: #000000; stroke-dasharray: none; stroke-linecap: butt; stroke-linejoin: miter; fill: none; "
     id="path100" />
  <path
     d="  M955.2093,126.9560 C958.3979,125.4529 961.6636,122.2620 965.3269,120.0267 C970.4317,116.9123 972.5951,116.5107 979.7369,117.0546 C982.6062,117.8497 984.8970,118.8447 985.0895,122.4176 C983.3431,124.4177 975.2832,126.2644 972.1269,127.7251 C967.1273,130.0387 953.9934,136.0856 949.2926,139.4111 C946.8420,141.1445 940.9361,145.2013 938.4857,145.6765 C939.9172,139.8895 952.9254,130.8244 955.2093,126.9560 Z"
     style="stroke-width: 0.2160; stroke: #000000; stroke-dasharray: none; stroke-linecap: butt; stroke-linejoin: miter; fill: none; "
     id="path101" />
  <path
     d="  M874.3469,147.6536 C873.6043,146.6229 874.0518,147.1889 873.1594,146.2868 C864.0159,137.0469 850.6003,131.3502 850.5459,105.8436 C850.4936,81.1086 879.2744,37.4012 913.4979,38.9110 C943.8972,40.2522 951.4555,59.0427 955.4302,61.7933 C956.6647,66.9826 960.0694,68.6778 959.6675,76.4965 L953.2116,80.1511 C951.3813,81.1679 949.7198,82.3689 947.6761,83.6234 C938.1817,89.4512 923.0131,101.1861 916.4141,108.8279 C913.2602,112.4803 910.6126,115.0335 907.5436,118.7293 L884.4965,151.2640 C879.3821,150.5788 877.8519,148.3348 874.3469,147.6536 Z"
     style="stroke-width: 0.2160; stroke: #000000; stroke-dasharray: none; stroke-linecap: butt; stroke-linejoin: miter; fill: none; "
     id="path102" />
  <path
     d="  M883.5924,677.2329 C885.9205,665.0917 883.3709,648.6754 876.1405,642.3545 C873.9383,640.4295 870.9712,639.5537 867.5732,639.3514 C862.3470,639.0403 862.2827,639.6205 859.4640,642.0654 C854.8319,646.0831 852.4095,647.8338 848.7733,652.4205 C833.7551,671.3644 831.1513,671.6094 812.1779,680.5495 C806.4229,683.2613 803.1147,684.5316 798.1224,687.5902 C785.9519,695.0470 797.3554,708.3966 805.5885,713.6175 C815.3045,719.7783 826.5680,722.5228 840.8124,720.1932 C852.7910,718.2340 861.8442,712.0264 868.6094,705.3839 C872.1018,701.9545 875.3522,697.4647 877.8737,692.7912 C881.0596,686.8855 882.3801,683.5543 883.5924,677.2329 Z"
     style="stroke-width: 0.2160; stroke: #000000; stroke-dasharray: none; stroke-linecap: butt; stroke-linejoin: miter; fill: none; "
     id="path103" />
  <path
     d="  M1201.0682,643.3903 C1201.0176,645.2447 1198.9680,647.6900 1198.2354,650.2266 C1197.5152,652.7209 1196.9892,655.5731 1196.5073,658.1400 C1191.5487,684.5602 1212.0553,711.5672 1236.2583,716.1869 C1254.0909,719.5908 1265.9473,712.2705 1269.3564,712.1380 C1269.4796,711.9639 1269.6597,711.7520 1269.7595,711.6412 C1269.8577,711.5322 1270.0433,711.2900 1270.1656,711.1611 L1272.7886,709.0095 C1273.9503,708.2139 1274.6974,707.8021 1275.8041,706.7622 C1298.4553,685.4742 1267.7822,681.6871 1250.2200,671.7696 C1242.6335,667.4854 1234.9473,657.4296 1228.6727,649.6276 C1226.6401,647.1001 1219.8262,640.4935 1217.4211,639.0981 C1211.2033,635.4905 1204.2644,641.2459 1201.0682,643.3903 Z"
     style="stroke-width: 0.2160; stroke: #000000; stroke-dasharray: none; stroke-linecap: butt; stroke-linejoin: miter; fill: none; "
     id="path104" />
  <path
     d="  M790.5687,612.1780 C768.8135,618.2089 788.8696,659.5759 812.5925,654.6075 C824.3974,652.1349 824.2346,637.6127 817.7048,626.2621 C813.4019,618.7831 802.0541,608.9940 790.5687,612.1780 Z"
     style="stroke-width: 0.2160; stroke: #000000; stroke-dasharray: none; stroke-linecap: butt; stroke-linejoin: miter; fill: none; "
     id="path105" />
  <path
     d="  M1276.7091,611.9985 C1271.9186,613.6365 1267.8529,615.9198 1264.2770,620.0089 C1247.8932,638.7443 1257.6258,662.5771 1280.9917,648.7379 C1300.1639,637.3825 1300.9170,603.7219 1276.7091,611.9985 Z"
     style="stroke-width: 0.2160; stroke: #000000; stroke-dasharray: none; stroke-linecap: butt; stroke-linejoin: miter; fill: none; "
     id="path106" />
  <path
     d="  M832.3853,589.9715 C827.5381,592.2083 825.0636,594.1358 823.2737,599.8522 C821.6105,605.1644 821.6835,611.2792 823.2144,616.8135 C830.5478,643.3259 860.6204,637.7666 852.9139,605.2779 C851.3619,598.7347 842.1263,585.4768 832.3853,589.9715 Z"
     style="stroke-width: 0.2160; stroke: #000000; stroke-dasharray: none; stroke-linecap: butt; stroke-linejoin: miter; fill: none; "
     id="path107" />
  <path
     d="  M1151.5659,89.2941 C1151.7110,90.9537 1161.1381,98.8104 1162.8433,100.4061 C1175.6249,112.3670 1176.6033,115.5226 1184.4323,123.2874 C1189.2806,128.0960 1194.2136,119.4203 1195.2005,114.8584 C1197.7939,102.8727 1187.1483,90.6730 1180.1185,85.3421 C1175.8276,82.0885 1170.4126,78.9744 1163.4073,79.5517 C1156.4968,80.1212 1151.3203,86.4863 1151.5659,89.2941 Z"
     style="stroke-width: 0.2160; stroke: #000000; stroke-dasharray: none; stroke-linecap: butt; stroke-linejoin: miter; fill: none; "
     id="path108" />
  <path
     d="  M1240.0920,589.6301 C1232.0532,592.0305 1226.0125,601.8545 1225.2740,611.7335 C1223.1705,639.8657 1253.0692,638.6801 1255.7951,609.2852 C1256.7545,598.9391 1250.8309,586.4232 1240.0920,589.6301 Z"
     style="stroke-width: 0.2160; stroke: #000000; stroke-dasharray: none; stroke-linecap: butt; stroke-linejoin: miter; fill: none; "
     id="path109" />
  <path
     d="  M936.2464,88.5415 C935.9370,76.3002 915.9956,75.5638 907.2886,83.8319 C880.3778,109.3865 897.2655,125.7092 903.3493,120.6078 L913.7130,109.0688 C923.7928,98.3287 928.9548,95.8254 936.2464,88.5415 Z"
     style="stroke-width: 0.2160; stroke: #000000; stroke-dasharray: none; stroke-linecap: butt; stroke-linejoin: miter; fill: none; "
     id="path110" />
  <path
     d="  M981.3346,218.6370 C996.9560,215.1062 1001.4791,239.4844 986.5083,242.3806 C978.5505,243.9198 972.4957,239.5922 971.5260,233.0058 C970.2365,224.2448 974.7965,220.1148 981.3346,218.6370 Z Z M983.6326,208.2369 C947.5187,222.2863 960.9628,242.7628 980.5237,245.3399 C990.8585,246.7014 1001.8517,238.0970 1002.8006,227.8622 C1003.8770,216.2547 995.3155,203.6921 983.6326,208.2369 Z"
     style="stroke-width: 0.2160; stroke: #000000; stroke-dasharray: none; stroke-linecap: butt; stroke-linejoin: miter; fill: none; "
     id="path111" />
  <path
     d="  M1095.2117,217.3375 C1112.7696,214.1726 1115.1227,239.7634 1099.4454,241.4739 C1082.7130,243.2993 1080.2499,220.0343 1095.2117,217.3375 Z Z M1078.9187,228.5626 C1080.3038,237.1764 1091.0785,246.6365 1102.1890,244.1398 C1110.7023,242.2265 1124.9070,233.8978 1118.6341,222.9316 C1113.8189,214.5136 1105.8668,208.7881 1095.2919,206.5345 C1083.7316,204.0708 1077.0763,217.1034 1078.9187,228.5626 Z"
     style="stroke-width: 0.2160; stroke: #000000; stroke-dasharray: none; stroke-linecap: butt; stroke-linejoin: miter; fill: none; "
     id="path112" />
  <path
     d="  M767.0014,663.6825 C768.3246,670.2349 776.0814,675.5898 782.7425,677.7075 C791.4333,680.4707 801.0885,676.4097 798.7337,666.3172 C796.4016,656.3215 782.4926,647.4800 770.7912,652.6447 C766.8396,654.3890 765.8305,657.8837 767.0014,663.6825 Z"
     style="stroke-width: 0.2160; stroke: #000000; stroke-dasharray: none; stroke-linecap: butt; stroke-linejoin: miter; fill: none; "
     id="path113" />
  <path
     d="  M1044.4933,374.7870 C1051.2619,374.6980 1062.7211,371.4483 1065.7210,367.0782 C1066.6744,363.5120 1056.9030,351.7521 1041.7847,356.1403 C1042.1501,359.0350 1043.5602,358.8607 1044.4359,361.8302 C1040.3251,359.6583 1038.3711,355.8132 1031.0378,357.4738 C1027.1705,358.3496 1022.6906,362.4702 1022.5275,367.0782 C1026.2977,372.8170 1036.1817,374.8965 1044.4933,374.7870 Z"
     style="stroke-width: 0.2160; stroke: #000000; stroke-dasharray: none; stroke-linecap: butt; stroke-linejoin: miter; fill: none; "
     id="path114" />
  <path
     d="  M1293.8462,650.1425 C1269.9921,659.2556 1276.2836,680.2563 1294.0016,675.1818 C1299.9751,673.4710 1307.1216,668.3046 1308.9961,661.7314 C1311.9793,651.2709 1302.1466,646.9715 1293.8462,650.1425 Z"
     style="stroke-width: 0.2160; stroke: #000000; stroke-dasharray: none; stroke-linecap: butt; stroke-linejoin: miter; fill: none; "
     id="path115" />
  <path
     d="  M1020.2869,271.9513 C1003.7750,275.6893 1014.6894,287.8783 1028.3531,285.2126 C1043.2078,282.3147 1035.6966,268.4628 1020.2869,271.9513 Z"
     style="stroke-width: 0.2160; stroke: #000000; stroke-dasharray: none; stroke-linecap: butt; stroke-linejoin: miter; fill: none; "
     id="path116" />
  <path
     d="  M813.7854,542.4811 C816.7772,552.1301 834.5722,549.6656 831.0248,536.6911 C830.0227,533.0261 825.0647,529.6995 819.8972,531.1184 C815.4697,532.3339 812.0876,537.0052 813.7854,542.4811 Z"
     style="stroke-width: 0.2160; stroke: #000000; stroke-dasharray: none; stroke-linecap: butt; stroke-linejoin: miter; fill: none; "
     id="path117" />
  <path
     d="  M807.2391,538.7173 C812.7178,528.0246 794.2717,521.3390 790.6367,531.6943 C786.4995,543.4807 801.9835,548.9742 807.2391,538.7173 Z"
     style="stroke-width: 0.2160; stroke: #000000; stroke-dasharray: none; stroke-linecap: butt; stroke-linejoin: miter; fill: none; "
     id="path118" />
  <path
     d="  M855.7429,534.9533 C859.1960,527.4103 850.5656,519.9517 843.4914,523.8201 C828.9188,531.7884 848.9350,549.8238 855.7429,534.9533 Z"
     style="stroke-width: 0.2160; stroke: #000000; stroke-dasharray: none; stroke-linecap: butt; stroke-linejoin: miter; fill: none; "
     id="path119" />
  <path
     d="  M773.6110,520.6500 C776.7278,530.6084 794.3383,527.0737 790.5917,514.8322 C787.6303,505.1557 769.9016,508.7986 773.6110,520.6500 Z"
     style="stroke-width: 0.2160; stroke: #000000; stroke-dasharray: none; stroke-linecap: butt; stroke-linejoin: miter; fill: none; "
     id="path120" />
  <path
     d="  M1312.7196,518.4262 C1311.1868,510.1807 1300.1898,509.5034 1296.6854,516.0283 C1289.2380,529.8946 1315.7094,534.5079 1312.7196,518.4262 Z"
     style="stroke-width: 0.2160; stroke: #000000; stroke-dasharray: none; stroke-linecap: butt; stroke-linejoin: miter; fill: none; "
     id="path121" />
  <path
     d="  M1227.6170,533.4476 C1230.3273,542.9745 1245.8380,540.7181 1244.0167,529.0135 C1242.3149,518.0752 1223.8788,520.3068 1227.6170,533.4476 Z"
     style="stroke-width: 0.2160; stroke: #000000; stroke-dasharray: none; stroke-linecap: butt; stroke-linejoin: miter; fill: none; "
     id="path122" />
  <path
     d="  M1276.1760,537.2116 C1278.4352,546.9967 1295.0280,545.4362 1292.8774,533.5470 C1290.8118,522.1277 1273.6196,526.1389 1276.1760,537.2116 Z"
     style="stroke-width: 0.2160; stroke: #000000; stroke-dasharray: none; stroke-linecap: butt; stroke-linejoin: miter; fill: none; "
     id="path123" />
  <path
     d="  M1267.7265,540.2228 C1271.2981,528.9953 1254.8297,525.1203 1251.6832,535.2132 C1248.7228,544.7096 1263.6842,552.9293 1267.7265,540.2228 Z"
     style="stroke-width: 0.2160; stroke: #000000; stroke-dasharray: none; stroke-linecap: butt; stroke-linejoin: miter; fill: none; "
     id="path124" />
  <path
     d="  M982.8888,222.7412 A3.3305,3.3305 0.0000 0,1 986.2194,226.0718 A3.3305,3.3305 0.0000 1,1 982.8888,222.7412 Z"
     style="stroke-width: 0.2160; stroke: #1b1918; stroke-dasharray: none; stroke-linecap: butt; stroke-linejoin: miter; fill: none; "
     id="path125" />
  <path
     d="  M1093.4829,222.7412 A3.3305,3.3305 0.0000 0,1 1096.8134,226.0718 A3.3305,3.3305 0.0000 1,1 1093.4829,222.7412 Z"
     style="stroke-width: 0.2160; stroke: #1b1918; stroke-dasharray: none; stroke-linecap: butt; stroke-linejoin: miter; fill: none; "
     id="path126" />
  <g
     id="Layer1001">
    <path
       d="  M1036.5378,452.5214 C1036.5378,451.8444 1036.8700,451.3544 1037.1545,450.8899 C1037.4786,450.3614 1037.6082,450.1073 1037.9692,449.6289 C1038.3329,449.1476 1038.6306,448.8055 1038.9598,448.3704 C1039.2649,447.9674 1039.5533,447.6358 1039.9704,447.3054 C1041.4954,446.0976 1043.1993,444.7400 1045.8826,444.7400 C1048.2335,444.7400 1050.0297,445.1962 1051.8683,446.5402 C1052.3557,446.8958 1052.7029,447.1350 1053.1131,447.5443 C1053.6688,448.0994 1054.7281,449.5575 1055.0579,450.2699 C1057.2230,454.9527 1055.2367,459.7681 1052.6675,463.6244 C1050.6740,466.6162 1047.6888,469.6558 1045.8826,472.0615 C1045.3671,472.7490 1044.6427,473.4044 1044.1521,474.1369 C1045.4343,474.1369 1053.3735,474.0015 1054.2246,474.2740 C1056.5841,475.0290 1056.2165,478.8055 1053.4969,478.8055 L1038.2684,478.8055 C1036.6587,478.8055 1035.4830,476.6467 1037.1830,474.9546 L1045.8421,464.9313 C1046.2028,464.4977 1046.4939,464.1463 1046.8483,463.6886 C1048.8126,461.1518 1051.4203,458.0576 1051.4203,454.4236 C1051.4203,451.7772 1048.9387,449.2358 1046.0558,449.2358 C1043.6824,449.2358 1041.9501,452.0512 1041.0078,453.5297 C1039.5089,455.8814 1036.5378,454.6001 1036.5378,452.5214 Z"
       style="fill: none; "
       id="path127" />
    <path
       d="  M1026.3279,446.6422 C1026.3279,444.7481 1029.0949,443.8278 1030.4135,445.3261 C1030.7790,445.7414 1031.0001,446.2752 1031.0001,446.9879 L1031.0001,476.3848 C1031.0001,479.7040 1026.3279,479.3658 1026.3279,476.7308 L1026.3279,446.6422 Z"
       style="fill: none; "
       id="path128" />
    <path
       d="  M1095.7213,458.4006 C1095.7213,455.6027 1100.3938,455.7869 1100.3938,458.4006 L1100.3938,488.4891 C1100.3938,491.1611 1095.7213,491.2565 1095.7213,488.4891 L1095.7213,458.4006 Z"
       style="fill: none; "
       id="path129" />
    <path
       d="  M994.6591,463.7616 C994.6591,460.1198 999.3317,460.7325 999.3317,463.0699 L999.3317,493.5038 C999.3317,495.8789 994.6591,496.3326 994.6591,492.8121 L994.6591,463.7616 Z"
       style="fill: none; "
       id="path130" />
    <path
       d="  M977.1812,463.2427 C977.1812,460.5573 981.8535,460.2881 981.8535,463.5887 L981.8535,492.9852 C981.8535,496.2255 977.1812,495.9891 977.1812,493.3309 L977.1812,463.2427 Z"
       style="fill: none; "
       id="path131" />
    <path
       d="  M1129.1203,505.7813 C1129.1203,504.5117 1131.5854,501.8574 1132.4509,500.9818 C1135.7656,497.6278 1141.2279,497.4727 1144.6447,500.2982 C1145.6649,501.1414 1146.0641,501.4526 1146.8464,502.5938 C1151.3092,509.1026 1146.1454,516.3700 1141.9667,521.3852 L1139.2894,524.5886 C1138.9155,525.0099 1138.8444,525.1887 1138.4213,525.6232 C1138.0486,526.0062 1136.8396,527.3505 1136.7345,527.7424 C1138.0150,527.7424 1146.1322,527.5573 1146.9580,527.9024 C1149.0742,528.7852 1148.8188,532.4111 1145.9062,532.4111 L1131.1968,532.4111 C1129.3234,532.4111 1128.9474,531.3392 1128.9474,529.9906 C1128.9474,529.1975 1130.8686,527.1252 1131.4963,526.4854 C1133.1882,524.7611 1134.8149,522.5759 1136.3468,520.9567 C1138.5566,518.6215 1143.5488,512.4110 1143.8224,509.2301 C1143.9152,508.1492 1143.9938,507.7756 1143.7249,506.7518 C1143.5041,505.9136 1143.2247,505.3558 1142.7452,504.7901 C1141.9592,503.8638 1140.4393,502.8417 1138.8111,502.8417 C1136.2757,502.8417 1134.6901,505.1763 1133.5504,507.0957 C1132.2747,509.2439 1129.1203,508.6831 1129.1203,505.7813 Z"
       style="fill: none; "
       id="path132" />
    <path
       d="  M940.3210,518.2320 C940.3210,513.3085 943.1208,506.3247 947.3796,503.4968 C949.8921,501.8286 951.1264,501.6312 954.1650,501.6312 C956.7187,501.6312 960.2812,503.5970 961.5587,505.1370 C963.2553,507.1821 964.6072,509.4618 965.3436,512.0764 C967.0991,518.3106 966.4785,525.1206 962.7461,530.2649 C957.7468,537.1560 948.6348,536.9060 944.5000,531.6939 C940.7787,527.0021 940.3210,524.0808 940.3210,518.2320 Z"
       style="fill: none; "
       id="path133" />
    <path
       d="  M931.6685,504.0519 C931.6685,500.2586 936.3408,501.3170 936.3408,503.1877 L936.3408,533.7948 C936.3408,536.0742 931.6685,536.7764 931.6685,533.1028 L931.6685,504.0519 Z"
       style="fill: none; "
       id="path134" />
    <path
       d="  M1147.2908,561.2891 C1147.2908,559.9774 1149.4349,556.8347 1151.3704,555.5092 C1151.8004,555.2145 1152.0999,555.0459 1152.5992,554.8346 C1154.0678,554.2135 1155.3879,554.1994 1156.9819,554.1994 C1162.3575,554.1994 1167.2015,562.1506 1162.1949,569.0924 C1161.6506,569.8468 1161.5398,569.6472 1162.5463,570.4268 C1165.8460,572.9838 1166.3369,580.1333 1163.2875,584.1909 C1158.4046,590.6883 1147.1686,589.3592 1144.7593,581.2790 C1144.1999,579.4035 1145.4390,578.2355 1146.5985,578.2355 C1149.2716,578.2355 1148.7204,579.7437 1150.1265,581.6271 C1152.3892,584.6564 1160.1598,584.8244 1160.6852,577.9682 C1161.2586,570.4875 1154.2953,573.9099 1152.1983,572.4668 C1151.0391,571.6701 1150.9833,569.7342 1152.1743,568.7629 C1153.9895,567.2823 1155.9907,569.5539 1158.2434,566.5273 C1158.7170,565.8917 1158.9681,565.5796 1159.2574,564.7736 C1160.1243,562.3541 1159.6148,559.8718 1157.6805,559.0346 C1154.6935,557.7415 1152.9221,560.1773 1151.7377,562.4471 C1151.5096,562.8834 1151.5042,562.9290 1151.1357,563.2291 C1149.8697,564.2608 1147.2908,563.8692 1147.2908,561.2891 Z"
       style="fill: none; "
       id="path135" />
    <path
       d="  M912.1134,566.6497 C912.1134,562.4930 914.7088,559.1177 918.3428,557.4840 C921.1024,556.2438 924.8021,556.3569 927.5151,557.6581 C928.1462,557.2356 928.5105,556.6204 929.5920,556.6204 C930.7524,556.6204 931.8417,557.5564 931.8417,558.6952 L931.8417,588.6108 C931.8417,589.0613 931.7864,589.0871 931.6097,589.4166 C931.5941,589.4466 931.2907,589.8883 931.2556,589.9276 C930.5486,590.7045 927.3347,591.2963 927.3347,588.0995 L927.3422,575.2959 C925.3203,575.7665 926.1866,576.5065 921.2854,576.5065 C916.4484,576.5065 912.1134,572.1715 912.1134,566.6497 Z"
       style="fill: none; "
       id="path136" />
    <path
       d="  M931.8417,615.7595 C931.8417,614.1417 932.4709,612.2635 933.3253,611.0170 C935.8970,607.2666 940.7343,606.1368 944.2002,608.4249 C945.2460,609.1157 945.7144,609.5817 946.3776,610.5720 C947.1581,610.0495 947.7877,608.8426 948.9736,608.8426 C951.3832,608.8426 951.8409,611.2459 951.0874,612.3382 L947.2871,616.8410 C946.8037,617.3376 946.6444,617.6398 946.1609,618.1361 L942.9167,621.9846 L945.2964,623.9298 C946.1072,624.7448 946.5507,625.1934 947.2109,626.1672 C954.4654,636.8696 941.6741,644.7386 933.3409,639.6807 C932.0829,638.9173 931.0047,637.7860 930.3374,636.4569 C927.1532,630.1150 934.6816,625.1562 935.9948,622.6763 C934.0308,621.3623 931.8417,619.0210 931.8417,615.7595 Z"
       style="fill: none; "
       id="path137" />
    <path
       d="  M1128.2551,611.7822 C1128.2551,610.5834 1129.5467,609.4602 1130.7911,609.5982 C1132.0893,609.7422 1132.9274,610.7556 1132.9274,612.1279 L1132.9274,624.2328 L1141.7531,624.2328 L1141.7531,611.6093 C1141.7531,609.0262 1146.2525,608.8783 1146.2525,611.6093 L1146.2525,624.2328 C1147.3412,624.2328 1148.3636,624.1449 1149.2089,624.7367 C1150.3852,625.5610 1150.2973,627.5076 1149.3307,628.3461 C1148.5400,629.0329 1147.3328,628.9015 1146.2525,628.9015 L1146.2525,642.0436 C1146.2525,643.4323 1144.0601,644.7611 1142.4088,643.2907 C1142.0922,643.0092 1141.7531,642.4238 1141.7531,641.8707 L1141.7531,628.9015 L1130.6777,628.9015 C1129.1638,628.9015 1128.2551,627.9938 1128.2551,626.4805 L1128.2551,611.7822 Z"
       style="fill: none; "
       id="path138" />
    <path
       d="  M973.9298,647.6140 C974.4006,647.2290 975.1523,647.0582 975.9698,647.0582 L990.3328,647.0582 C992.3140,647.0582 993.2745,647.8249 993.2745,649.8253 C993.2745,651.5867 993.2136,651.1963 992.5837,652.5929 L990.8523,656.3961 C990.5642,656.9789 990.2536,657.7096 989.9880,658.2992 L981.2203,679.9723 C980.2465,682.0296 976.8349,681.1876 976.8349,679.0486 C976.8349,676.9736 982.2538,664.5727 983.5810,661.5806 L987.9100,651.7272 C985.0262,651.7272 982.1421,651.7272 979.2578,651.7272 C976.9234,651.7272 973.0281,652.5980 973.0281,649.3064 C973.0281,648.7099 973.5499,647.9248 973.9298,647.6140 Z"
       style="fill: none; "
       id="path139" />
    <path
       d="  M1089.6644,651.5540 C1089.6644,650.1932 1090.5647,649.1333 1091.7413,649.1333 L1107.6621,649.1333 C1110.6788,649.1333 1110.8093,653.8022 1107.4889,653.8022 L1094.3370,653.8022 L1094.3370,663.1401 C1097.0482,661.8399 1100.5556,661.6962 1103.3076,662.9949 C1110.1453,666.2226 1110.2608,675.5995 1106.1515,679.7874 C1105.2924,680.6628 1104.6955,681.2482 1103.5666,681.8736 C1100.1397,683.7704 1095.1952,683.3869 1092.4654,681.6107 C1090.5563,680.3690 1088.2802,678.4062 1088.2802,675.9362 C1088.2802,674.0445 1091.3731,672.8343 1092.6661,675.1848 C1093.9637,677.5419 1095.8845,678.5301 1099.0093,678.5301 C1102.8095,678.5301 1106.2493,672.8175 1103.0685,668.5950 L1101.5533,667.3419 C1099.6967,666.3318 1097.5410,666.7024 1095.7216,667.6363 C1093.8368,668.6034 1089.6644,669.0295 1089.6644,665.9066 L1089.6644,651.5540 Z"
       style="fill: none; "
       id="path140" />
    <path
       d="  M936.5139,615.5866 C936.5139,613.8068 938.0053,612.3514 939.4505,611.9412 C941.6663,611.3123 942.4729,613.3834 943.0899,614.5489 C942.4708,615.2607 939.4217,618.6982 939.2828,619.2179 C938.4602,618.9985 936.5139,617.4987 936.5139,615.5866 Z"
       style="fill: none; "
       id="path141" />
    <path
       d="  M934.2642,633.2248 C934.2642,631.4900 935.3604,630.5679 936.0386,629.8099 C936.3720,629.4369 936.3711,629.3201 936.7273,628.9417 C937.0436,628.6050 937.2980,628.4220 937.5804,628.0649 L939.1804,626.2056 C939.4763,625.8110 939.6093,625.6879 939.9748,625.4431 L942.3526,627.3903 C942.6350,627.7063 942.6266,627.8023 942.9606,628.1660 C944.7947,630.1636 945.7207,633.6944 942.8456,635.5744 C939.3896,637.8340 934.2642,636.4383 934.2642,633.2248 Z"
       style="fill: none; "
       id="path142" />
    <path
       d="  M952.9539,531.0280 C945.7387,531.0280 942.4432,519.7003 946.7788,511.0240 C947.7580,509.0645 950.1535,506.3001 952.6079,506.3001 L953.9921,506.3001 C958.9612,506.3001 961.6064,513.3322 961.6064,517.8860 C961.6064,522.0787 960.7599,526.7209 957.5265,529.1990 C956.7418,529.8004 956.4063,530.1644 955.1309,530.6094 C954.7922,530.7276 953.2749,531.0280 952.9539,531.0280 Z"
       style="fill: none; "
       id="path143" />
    <path
       d="  M916.7860,566.1309 C916.7860,562.1104 923.1330,559.7304 926.0051,562.2793 C927.8512,563.9181 927.3422,565.0035 927.3422,568.5519 C927.3422,569.4627 923.8679,573.4661 919.6644,571.3817 C917.1776,570.1487 916.7860,568.6173 916.7860,566.1309 Z"
       style="fill: none; "
       id="path144" />
    <path
       d="  M1030.1347,687.0032 C1030.1347,681.1702 1034.6248,673.0530 1038.3179,668.7229 L1040.3932,666.3009 C1043.2965,662.8296 1045.5363,665.2158 1045.5363,666.5983 C1045.5363,668.4642 1044.4897,668.9521 1043.0691,670.3580 C1041.1251,672.2821 1036.8508,678.6939 1036.3647,680.7780 C1037.1266,680.6007 1037.6592,680.3108 1038.5093,680.1541 C1041.7646,679.5549 1045.0520,680.2109 1047.2267,682.3744 C1050.2641,685.3959 1050.6011,689.1890 1048.7115,692.9427 C1047.7599,694.8335 1045.5180,697.0268 1043.5633,697.8280 C1042.3942,698.3066 1040.9562,698.7387 1039.5311,698.6706 C1033.2606,698.3714 1030.1347,693.1852 1030.1347,687.0032 Z"
       style="fill: none; "
       id="path145" />
    <path
       d="  M1034.8069,688.3866 C1034.8069,686.9678 1038.1528,684.5824 1040.5178,684.5824 C1046.3505,684.5824 1046.3183,690.3641 1043.0466,692.8158 C1038.4088,696.2898 1034.8069,691.9509 1034.8069,688.3866 Z"
       style="fill: none; "
       id="path146" />
  </g>
  <path
     d="  M1038.5021,567.9764 A3.6523,3.6523 0.0000 0,1 1042.1544,571.6287 A3.6523,3.6523 0.0000 1,1 1038.5021,567.9764 Z"
     style="stroke-width: 0.2160; stroke: #1b1918; stroke-dasharray: none; stroke-linecap: butt; stroke-linejoin: miter; fill: none; "
     id="path147" />
  <path
     d="  M1139.9458,84.9255 C1163.2161,100.5738 1188.9748,129.1053 1203.1882,153.4157 C1214.4142,153.7031 1246.2748,130.2578 1235.9186,94.4674 C1232.9612,84.2469 1226.4818,74.4379 1226.2716,72.7250 C1224.3066,71.3083 1220.4176,64.7537 1217.9947,61.7997 C1214.4027,57.4205 1212.8709,56.2075 1208.5073,52.4868 C1183.3621,31.0466 1148.6762,38.1584 1133.5778,63.1460 C1133.3317,63.5532 1132.9813,64.1660 1132.6628,64.5444 C1131.1310,66.3629 1132.2308,65.2074 1130.7866,66.2251 C1130.7612,69.7650 1126.7392,74.4876 1128.8595,77.9467 C1129.8959,79.6449 1137.8358,83.5069 1139.9458,84.9255 Z Z M1180.1185,85.3421 C1187.1483,90.6730 1197.7939,102.8727 1195.2005,114.8584 C1194.2136,119.4203 1189.2806,128.0960 1184.4323,123.2874 C1176.6035,115.5226 1175.6249,112.3670 1162.8433,100.4061 C1161.1381,98.8104 1151.7110,90.9537 1151.5659,89.2941 C1151.3203,86.4865 1156.4968,80.1212 1163.4073,79.5517 C1170.4126,78.9744 1175.8276,82.0885 1180.1185,85.3421 Z"
     style="stroke-width: 0.2160; stroke: #1b1918; stroke-dasharray: none; stroke-linecap: butt; stroke-linejoin: miter; fill: none; "
     id="path148" />
  <path
     d="  M959.6675,76.4965 C960.0694,68.6778 956.6647,66.9826 955.4302,61.7933 C951.4555,59.0427 943.8972,40.2522 913.4979,38.9110 C879.2744,37.4012 850.4936,81.1086 850.5459,105.8436 C850.6003,131.3502 864.0159,137.0469 873.1594,146.2868 C874.0518,147.1889 873.6043,146.6229 874.3469,147.6536 C877.8519,148.3348 879.3821,150.5788 884.4965,151.2640 L907.5436,118.7293 C910.6126,115.0335 913.2602,112.4803 916.4141,108.8279 C923.0131,101.1861 938.1817,89.4512 947.6761,83.6234 C949.7198,82.3689 951.3813,81.1679 953.2116,80.1511 L959.6675,76.4965 Z Z M907.2886,83.8319 C915.9956,75.5638 935.9370,76.3002 936.2464,88.5415 C928.9548,95.8254 923.7928,98.3287 913.7130,109.0688 L903.3493,120.6078 C897.2655,125.7092 880.3778,109.3865 907.2886,83.8319 Z"
     style="stroke-width: 0.2160; stroke: #1b1918; stroke-dasharray: none; stroke-linecap: butt; stroke-linejoin: miter; fill: none; "
     id="path149" />
  <path
     d="  M1000.6812,169.9536 C989.5065,157.8337 972.0046,156.7595 957.0962,163.6237 C946.3452,168.5736 930.4564,185.3309 925.2714,195.2168 C924.2089,197.2425 924.6728,195.6798 924.3769,197.6435 L922.0351,200.3412 C915.0424,211.9203 908.8781,234.6174 911.5144,247.9041 C915.1222,266.0886 928.1565,274.6358 945.1080,277.5704 C963.3050,280.5190 991.3698,267.6113 1002.1558,252.4965 C1009.0883,242.7820 1011.9955,236.7714 1014.0531,223.0041 C1016.9514,203.6097 1011.6690,192.6347 1011.0720,186.0413 C1009.9723,185.1284 1005.4008,177.0382 1004.6687,174.6011 C1002.9780,173.3803 1002.1841,171.5837 1000.6812,169.9536 Z Z M983.6326,208.2369 C995.3155,203.6923 1003.8770,216.2547 1002.8006,227.8622 C1001.8517,238.0970 990.8585,246.7012 980.5237,245.3399 C960.9628,242.7628 947.5187,222.2863 983.6326,208.2369 Z"
     style="stroke-width: 0.2160; stroke: #1b1918; stroke-dasharray: none; stroke-linecap: butt; stroke-linejoin: miter; fill: none; "
     id="path150" />
  <path
     d="  M1118.6341,222.9316 C1124.9070,233.8978 1110.7023,242.2265 1102.1890,244.1398 C1091.0785,246.6365 1080.3038,237.1764 1078.9187,228.5626 C1077.0763,217.1034 1083.7316,204.0708 1095.2919,206.5345 C1105.8668,208.7881 1113.8189,214.5136 1118.6341,222.9316 Z Z M1066.9382,195.9318 C1065.9120,202.1431 1064.8188,215.5678 1065.8217,221.7874 C1067.1426,229.9791 1068.0773,236.8998 1071.8799,243.2771 C1083.2681,262.3738 1095.9483,272.1327 1120.0491,277.7782 C1136.4069,281.6099 1154.3008,272.2351 1160.6452,264.1802 C1169.6512,252.7464 1170.1190,235.0160 1165.0419,219.5083 C1159.5656,202.7817 1154.7816,195.4363 1145.3859,183.3357 C1123.2611,154.8409 1088.9226,152.0427 1075.3060,176.6386 C1071.6433,183.2548 1068.2930,187.7314 1066.9382,195.9318 Z"
     style="stroke-width: 0.2160; stroke: #1b1918; stroke-dasharray: none; stroke-linecap: butt; stroke-linejoin: miter; fill: none; "
     id="path151" />
  <path
     d="  M986.5083,242.3806 C1001.4791,239.4847 996.9560,215.1062 981.3346,218.6370 C974.7965,220.1148 970.2365,224.2448 971.5260,233.0058 C972.4957,239.5922 978.5505,243.9198 986.5083,242.3806 Z Z M986.2192,226.0716 C986.2192,227.9111 984.7282,229.4021 982.8887,229.4021 C981.0493,229.4021 979.5583,227.9111 979.5583,226.0716 C979.5583,224.2322 981.0493,222.7412 982.8887,222.7412 C984.7282,222.7412 986.2192,224.2322 986.2192,226.0716 Z"
     style="stroke-width: 0.2160; stroke: #1b1918; stroke-dasharray: none; stroke-linecap: butt; stroke-linejoin: miter; fill: none; "
     id="path152" />
  <path
     d="  M1095.2117,217.3375 C1080.2499,220.0343 1082.7130,243.2993 1099.4454,241.4739 C1115.1227,239.7634 1112.7696,214.1726 1095.2117,217.3375 Z Z M1096.8132,226.0716 C1096.8132,227.9111 1095.3222,229.4021 1093.4828,229.4021 C1091.6433,229.4021 1090.1523,227.9111 1090.1523,226.0716 C1090.1523,224.2322 1091.6433,222.7412 1093.4828,222.7412 C1095.3222,222.7412 1096.8132,224.2322 1096.8132,226.0716 Z"
     style="stroke-width: 0.2160; stroke: #1b1918; stroke-dasharray: none; stroke-linecap: butt; stroke-linejoin: miter; fill: none; "
     id="path153" />
  <path
     d="  M1103.8223,126.9343 C1105.1568,128.1617 1124.1349,135.8530 1128.1949,138.1323 C1132.5189,140.5598 1148.2120,150.6089 1150.6379,151.0952 C1149.5208,145.7828 1135.5165,133.3640 1131.2650,129.7113 C1118.0456,118.3535 1104.4388,118.8934 1103.8223,126.9343 Z"
     style="stroke-width: 0.2160; stroke: #1b1918; stroke-dasharray: none; stroke-linecap: butt; stroke-linejoin: miter; fill: none; "
     id="path154" />
  <path
     d="  M949.2926,139.4111 C953.9934,136.0856 967.1273,130.0387 972.1269,127.7251 C975.2832,126.2644 983.3431,124.4177 985.0895,122.4176 C984.8970,118.8447 982.6062,117.8497 979.7369,117.0546 C972.5951,116.5107 970.4317,116.9123 965.3269,120.0267 C961.6636,122.2620 958.3979,125.4529 955.2093,126.9560 C952.9254,130.8244 939.9172,139.8895 938.4857,145.6765 C940.9361,145.2013 946.8420,141.1445 949.2926,139.4111 Z"
     style="stroke-width: 0.2160; stroke: #1b1918; stroke-dasharray: none; stroke-linecap: butt; stroke-linejoin: miter; fill: none; "
     id="path155" />
  <path
     d="  M1176.6579,656.6198 C1169.1092,665.4355 1150.3592,684.8365 1144.9644,692.6533 C1142.8290,695.7473 1137.5424,704.0278 1136.4302,706.6771 C1131.2894,718.9226 1137.4246,734.7333 1143.2596,741.8148 C1148.8076,748.5479 1160.0483,756.0933 1170.9559,758.4455 C1180.6904,758.9090 1186.5882,760.3046 1196.5918,758.6997 C1216.7730,755.4621 1236.6179,746.6108 1254.6304,737.6399 L1270.7320,727.3670 C1281.7059,720.0747 1290.7113,712.3580 1299.2993,703.1954 C1302.8732,699.3825 1307.7379,695.8517 1312.4426,690.0166 C1328.9579,669.5331 1340.5861,650.5272 1318.8606,627.9718 C1300.9774,609.4056 1313.3269,602.2145 1291.6436,588.8228 C1281.1445,582.3384 1281.6071,585.7454 1267.7694,573.5942 C1264.5790,570.7926 1263.1279,569.7992 1260.2234,567.3064 C1247.3420,560.9639 1236.1766,562.0689 1225.8879,570.3001 C1204.9974,587.0134 1208.0222,619.9914 1176.6579,656.6198 Z Z M1236.2583,716.1869 C1212.0553,711.5672 1191.5487,684.5602 1196.5073,658.1400 C1196.9892,655.5731 1197.5152,652.7209 1198.2354,650.2264 C1198.9680,647.6900 1201.0176,645.2447 1201.0682,643.3903 C1204.2644,641.2459 1211.2033,635.4905 1217.4211,639.0981 C1219.8262,640.4935 1226.6401,647.1001 1228.6727,649.6276 C1234.9473,657.4296 1242.6335,667.4854 1250.2200,671.7696 C1267.7824,681.6871 1298.4553,685.4742 1275.8041,706.7622 C1274.6974,707.8021 1273.9501,708.2139 1272.7886,709.0095 L1270.1656,711.1611 C1270.0433,711.2900 1269.8577,711.5322 1269.7595,711.6412 C1269.6597,711.7520 1269.4796,711.9639 1269.3564,712.1380 C1265.9473,712.2705 1254.0909,719.5908 1236.2583,716.1869 Z Z M1280.9917,648.7379 C1257.6258,662.5771 1247.8932,638.7443 1264.2770,620.0089 C1267.8529,615.9198 1271.9186,613.6365 1276.7091,611.9985 C1300.9168,603.7219 1300.1642,637.3825 1280.9917,648.7379 Z Z M1255.7951,609.2852 C1253.0692,638.6801 1223.1705,639.8657 1225.2740,611.7335 C1226.0125,601.8545 1232.0532,592.0305 1240.0920,589.6301 C1250.8309,586.4232 1256.7545,598.9391 1255.7951,609.2852 Z Z M1294.0016,675.1816 C1276.2836,680.2563 1269.9921,659.2556 1293.8462,650.1425 C1302.1466,646.9715 1311.9791,651.2709 1308.9961,661.7314 C1307.1216,668.3044 1299.9751,673.4710 1294.0016,675.1816 Z"
     style="stroke-width: 0.2160; stroke: #1b1918; stroke-dasharray: none; stroke-linecap: butt; stroke-linejoin: miter; fill: none; "
     id="path156" />
  <path
     d="  M942.4194,736.1748 C946.3079,728.7596 948.9175,713.7133 943.7092,705.0389 C938.3219,696.0668 934.2783,689.9336 927.0622,682.4800 C925.3408,680.7023 924.2185,678.8293 922.5681,677.2090 C911.5716,666.4141 899.9662,653.5642 891.8541,640.1506 C887.4648,632.8925 882.2943,623.6946 878.5866,614.9954 C872.0986,599.7730 870.9117,587.5740 859.5498,575.3479 C856.6601,572.2383 853.0358,568.0405 848.6676,567.6871 L844.7581,565.3154 C825.2030,557.9043 814.2066,574.0637 802.4169,581.9366 C791.1713,589.4459 784.5222,588.6841 776.0678,600.0579 C771.6247,606.0353 772.4407,609.2771 770.0977,615.9405 C766.4045,626.4442 757.9189,627.8688 751.2952,641.5186 C740.8543,663.0355 761.4792,686.2104 775.7110,700.5881 C777.6445,702.5415 779.3500,704.5160 781.0874,706.5576 C783.0854,708.9047 785.0358,709.5291 787.3292,711.5356 C793.1516,716.6301 796.3971,719.7798 802.7173,723.9662 C804.0009,724.8163 804.5446,725.4187 805.6626,726.3137 C808.5022,728.5868 809.2201,728.3369 810.8783,729.4224 L824.9243,738.9566 C829.0065,740.0470 831.7112,741.6022 835.1898,743.4903 C838.5673,745.3234 841.6449,746.2604 845.0577,747.9118 C854.8558,752.6530 879.7696,759.9348 889.3646,760.6702 C893.9720,761.0233 899.0817,761.0869 903.6997,760.7376 C908.2303,760.3949 911.5744,758.8305 916.0742,758.1442 C916.2775,757.9948 917.9226,757.4332 919.2379,756.8144 C920.3497,756.2911 919.5252,756.8750 920.7765,755.9209 C922.2096,754.8283 920.9532,756.0750 922.0219,754.5129 C928.8395,754.0149 939.4010,741.9304 942.4194,736.1748 Z Z M876.1403,642.3545 C883.3709,648.6754 885.9205,665.0917 883.5924,677.2329 C882.3801,683.5543 881.0596,686.8855 877.8737,692.7912 C875.3522,697.4647 872.1018,701.9545 868.6094,705.3841 C861.8444,712.0264 852.7910,718.2340 840.8127,720.1932 C826.5680,722.5228 815.3045,719.7785 805.5885,713.6175 C797.3554,708.3966 785.9521,695.0470 798.1224,687.5902 C803.1147,684.5316 806.4229,683.2613 812.1779,680.5495 C831.1513,671.6096 833.7551,671.3644 848.7733,652.4205 C852.4095,647.8338 854.8319,646.0831 859.4640,642.0654 C862.2827,639.6205 862.3470,639.0401 867.5732,639.3514 C870.9712,639.5537 873.9383,640.4295 876.1403,642.3545 Z Z M798.7337,666.3172 C801.0885,676.4097 791.4333,680.4707 782.7425,677.7075 C776.0814,675.5898 768.3246,670.2349 767.0014,663.6823 C765.8305,657.8837 766.8396,654.3890 770.7912,652.6447 C782.4926,647.4800 796.4016,656.3215 798.7337,666.3172 Z Z M790.5687,612.1780 C802.0541,608.9940 813.4019,618.7831 817.7048,626.2621 C824.2346,637.6127 824.3974,652.1349 812.5925,654.6075 C788.8696,659.5759 768.8135,618.2089 790.5687,612.1780 Z Z M852.9139,605.2779 C860.6204,637.7666 830.5478,643.3259 823.2144,616.8135 C821.6835,611.2790 821.6105,605.1644 823.2737,599.8522 C825.0636,594.1358 827.5381,592.2083 832.3853,589.9715 C842.1263,585.4768 851.3619,598.7347 852.9139,605.2779 Z"
     style="stroke-width: 0.2160; stroke: #1b1918; stroke-dasharray: none; stroke-linecap: butt; stroke-linejoin: miter; fill: none; "
     id="path157" />
  <path
     d="  M864.8326,536.1579 C871.8912,534.9345 896.0893,510.1961 901.8720,502.9896 C934.5190,462.3041 963.1328,421.7906 1026.4700,415.8218 C1059.8548,415.5997 1077.0522,415.1752 1106.5554,427.7940 C1109.9755,429.2568 1111.6564,430.0146 1114.3246,431.9797 C1117.0535,433.9892 1118.6964,433.9707 1121.9445,435.6044 C1135.6645,442.5051 1149.1322,456.7484 1158.6879,467.4511 L1180.1392,492.6249 C1192.3374,508.1232 1208.7147,528.3731 1226.1548,538.4655 C1237.3616,544.9507 1244.3918,547.6990 1258.2813,551.4788 C1271.8066,552.7891 1282.6858,555.4080 1298.5533,548.9572 L1303.0213,546.1728 C1313.1088,545.0807 1335.9102,519.5822 1323.8774,493.6329 C1313.0567,470.2978 1291.8461,457.2761 1274.9407,442.9842 L1192.8536,384.7471 C1190.5103,384.4260 1188.4372,382.3622 1185.9821,380.6500 C1183.7580,379.0988 1181.7386,377.8358 1179.6873,376.4060 C1178.0512,375.2657 1169.0682,367.5319 1167.5529,368.4143 C1160.4826,370.7460 1154.6614,374.5213 1148.2197,377.4327 C1144.4625,379.1306 1132.6542,384.4928 1128.0464,385.2855 L1121.7458,386.9807 C1118.5178,389.9889 1105.7332,392.1542 1100.2889,393.4134 C1092.1369,395.2985 1085.8883,396.7885 1076.8270,397.4557 C1057.4849,398.8801 1044.3710,399.4646 1024.3621,398.0709 C1019.3209,396.1404 992.9903,397.5667 944.3833,376.9299 C940.0789,375.1024 924.2859,365.3529 922.1497,366.8874 L896.6198,386.3124 C870.8155,405.3195 806.4897,445.8458 785.1562,464.5373 C774.2305,474.1101 765.8881,482.2397 761.4182,499.5712 C753.3809,530.7336 788.3293,559.9840 822.0381,551.9884 C831.7447,549.6859 836.7392,549.9972 845.7115,546.1937 C849.6744,544.5139 862.2802,539.8244 864.8326,536.1579 Z Z M843.4914,523.8201 C850.5656,519.9517 859.1960,527.4103 855.7429,534.9533 C848.9350,549.8238 828.9188,531.7884 843.4914,523.8201 Z Z M1227.6170,533.4476 C1223.8788,520.3068 1242.3147,518.0752 1244.0165,529.0135 C1245.8380,540.7181 1230.3273,542.9745 1227.6170,533.4476 Z Z M1251.6834,535.2132 C1254.8297,525.1205 1271.2981,528.9953 1267.7265,540.2228 C1263.6842,552.9293 1248.7228,544.7096 1251.6834,535.2132 Z Z M1296.6854,516.0283 C1300.1898,509.5034 1311.1868,510.1807 1312.7196,518.4262 C1315.7094,534.5079 1289.2380,529.8946 1296.6854,516.0283 Z Z M790.5917,514.8322 C794.3383,527.0737 776.7278,530.6084 773.6110,520.6500 C769.9016,508.7986 787.6303,505.1557 790.5917,514.8322 Z Z M790.6367,531.6943 C794.2717,521.3390 812.7178,528.0246 807.2391,538.7173 C801.9835,548.9742 786.4995,543.4807 790.6367,531.6943 Z Z M831.0248,536.6911 C834.5722,549.6656 816.7772,552.1301 813.7854,542.4811 C812.0876,537.0052 815.4697,532.3339 819.8972,531.1184 C825.0647,529.6995 830.0227,533.0263 831.0248,536.6911 Z Z M1292.8774,533.5470 C1295.0280,545.4364 1278.4352,546.9967 1276.1760,537.2116 C1273.6196,526.1389 1290.8118,522.1277 1292.8774,533.5470 Z"
     style="stroke-width: 0.2160; stroke: #1b1918; stroke-dasharray: none; stroke-linecap: butt; stroke-linejoin: miter; fill: none; "
     id="path158" />
  <path
     d="  M955.1310,530.6094 C954.7922,530.7277 953.2749,531.0279 952.9538,531.0279 C945.7388,531.0279 942.4431,519.7002 946.7788,511.0240 C947.7579,509.0644 950.1534,506.3002 952.6079,506.3002 L953.9921,506.3002 C958.9612,506.3002 961.6064,513.3323 961.6064,517.8859 C961.6064,522.0786 960.7599,526.7210 957.5266,529.1989 C956.7417,529.8005 956.4063,530.1643 955.1310,530.6094 Z Z M940.3211,518.2320 C940.3211,524.0809 940.7787,527.0020 944.5000,531.6939 C948.6347,536.9060 957.7468,537.1559 962.7462,530.2648 C966.4784,525.1205 967.0992,518.3105 965.3436,512.0765 C964.6072,509.4618 963.2553,507.1821 961.5586,505.1370 C960.2813,503.5971 956.7187,501.6311 954.1650,501.6311 C951.1263,501.6311 949.8922,501.8287 947.3795,503.4968 C943.1209,506.3247 940.3211,513.3086 940.3211,518.2320 Z"
     style="fill: none; "
     id="path159" />
  <path
     d="  M936.3407,533.7948 L936.3407,503.1876 C936.3407,501.3170 931.6685,500.2586 931.6685,504.0518 L931.6685,533.1027 C931.6685,536.7763 936.3407,536.0742 936.3407,533.7948 Z"
     style="fill: none; "
     id="path160" />
  <path
     d="  M931.8418,558.6951 C931.8418,557.5563 930.7524,556.6203 929.5920,556.6203 C928.5105,556.6203 928.1462,557.2355 927.5150,557.6580 C924.8021,556.3570 921.1023,556.2439 918.3427,557.4841 C914.7089,559.1177 912.1134,562.4931 912.1134,566.6498 C912.1134,572.1715 916.4485,576.5064 921.2854,576.5064 C926.1866,576.5064 925.3203,575.7666 927.3422,575.2960 L927.3347,588.0996 C927.3347,591.2962 930.5486,590.7045 931.2556,589.9275 C931.2908,589.8883 931.5940,589.4465 931.6098,589.4167 C931.7865,589.0870 931.8418,589.0614 931.8418,588.6109 L931.8418,558.6951 Z Z M926.0050,562.2793 C927.8511,563.9181 927.3422,565.0035 927.3422,568.5520 C927.3422,569.4627 923.8679,573.4660 919.6643,571.3818 C917.1776,570.1486 916.7860,568.6173 916.7860,566.1308 C916.7860,562.1105 923.1330,559.7305 926.0050,562.2793 Z"
     style="fill: none; "
     id="path161" />
  <path
     d="  M939.2828,619.2178 C938.4604,618.9984 936.5140,617.4987 936.5140,615.5865 C936.5140,613.8068 938.0054,612.3515 939.4505,611.9413 C941.6664,611.3123 942.4730,613.3834 943.0899,614.5490 C942.4709,615.2607 939.4217,618.6982 939.2828,619.2178 Z Z M944.2002,608.4248 C940.7343,606.1368 935.8969,607.2665 933.3253,611.0169 C932.4708,612.2636 931.8418,614.1416 931.8418,615.7594 C931.8418,619.0211 934.0307,621.3622 935.9948,622.6763 C934.6816,625.1561 927.1531,630.1149 930.3373,636.4570 C931.0048,637.7860 932.0829,638.9174 933.3408,639.6807 C941.6740,644.7385 954.4655,636.8695 947.2110,626.1672 C946.5507,625.1935 946.1073,624.7447 945.2964,623.9297 L942.9168,621.9847 L946.1608,618.1361 C946.6444,617.6398 946.8038,617.3376 947.2871,616.8410 L951.0874,612.3382 C951.8409,611.2459 951.3832,608.8427 948.9736,608.8427 C947.7878,608.8427 947.1580,610.0496 946.3777,610.5720 C945.7144,609.5816 945.2460,609.1156 944.2002,608.4248 Z Z M934.2642,633.2247 C934.2642,631.4900 935.3604,630.5678 936.0386,629.8098 C936.3719,629.4368 936.3710,629.3200 936.7272,628.9417 C937.0436,628.6050 937.2980,628.4219 937.5803,628.0649 L939.1803,626.2056 C939.4763,625.8110 939.6093,625.6879 939.9748,625.4431 L942.3526,627.3903 C942.6350,627.7064 942.6266,627.8024 942.9606,628.1660 C944.7947,630.1636 945.7206,633.6944 942.8456,635.5744 C939.3897,637.8340 934.2642,636.4384 934.2642,633.2247 Z"
     style="fill: none; "
     id="path162" />
  <path
     d="  M990.3329,647.0581 L975.9697,647.0581 C975.1524,647.0581 974.4006,647.2290 973.9299,647.6140 C973.5498,647.9249 973.0281,648.7098 973.0281,649.3064 C973.0281,652.5980 976.9233,651.7271 979.2579,651.7271 L987.9101,651.7271 L983.5810,661.5806 C982.2537,664.5728 976.8350,676.9737 976.8350,679.0487 C976.8350,681.1875 980.2465,682.0296 981.2202,679.9722 L989.9881,658.2992 C990.2536,657.7096 990.5643,656.9790 990.8523,656.3962 L992.5838,652.5929 C993.2135,651.1962 993.2746,651.5867 993.2746,649.8252 C993.2746,647.8248 992.3139,647.0581 990.3329,647.0581 Z"
     style="fill: none; "
     id="path163" />
  <path
     d="  M1038.5094,680.1541 C1037.6592,680.3107 1037.1266,680.6007 1036.3648,680.7780 C1036.8509,678.6940 1041.1251,672.2822 1043.0691,670.3580 C1044.4897,668.9522 1045.5364,668.4642 1045.5364,666.5983 C1045.5364,665.2157 1043.2966,662.8295 1040.3932,666.3008 L1038.3179,668.7228 C1034.6248,673.0530 1030.1348,681.1702 1030.1348,687.0031 C1030.1348,693.1851 1033.2605,698.3714 1039.5311,698.6706 C1040.9561,698.7387 1042.3942,698.3065 1043.5634,697.8281 C1045.5180,697.0268 1047.7599,694.8336 1048.7115,692.9427 C1050.6011,689.1889 1050.2641,685.3961 1047.2267,682.3744 C1045.0520,680.2108 1041.7647,679.5548 1038.5094,680.1541 Z Z M1040.5178,684.5824 C1046.3505,684.5824 1046.3183,690.3640 1043.0465,692.8157 C1038.4089,696.2898 1034.8070,691.9508 1034.8070,688.3865 C1034.8070,686.9677 1038.1528,684.5824 1040.5178,684.5824 Z"
     style="fill: none; "
     id="path164" />
  <path
     d="  M1088.2802,675.9361 C1088.2802,678.4062 1090.5563,680.3689 1092.4653,681.6107 C1095.1952,683.3870 1100.1398,683.7704 1103.5666,681.8736 C1104.6955,681.2483 1105.2924,680.6628 1106.1515,679.7874 C1110.2608,675.5994 1110.1453,666.2225 1103.3076,662.9949 C1100.5557,661.6962 1097.0481,661.8398 1094.3370,663.1402 L1094.3370,653.8022 L1107.4890,653.8022 C1110.8094,653.8022 1110.6788,649.1334 1107.6621,649.1334 L1091.7413,649.1334 C1090.5646,649.1334 1089.6645,650.1931 1089.6645,651.5541 L1089.6645,665.9067 C1089.6645,669.0295 1093.8368,668.6033 1095.7215,667.6362 C1097.5409,666.7024 1099.6968,666.3318 1101.5533,667.3420 L1103.0684,668.5950 C1106.2494,672.8174 1102.8095,678.5301 1099.0092,678.5301 C1095.8845,678.5301 1093.9638,677.5419 1092.6661,675.1848 C1091.3732,672.8343 1088.2802,674.0444 1088.2802,675.9361 Z"
     style="fill: none; "
     id="path165" />
  <path
     d="  M1141.7531,628.9016 L1141.7531,641.8707 C1141.7531,642.4239 1142.0922,643.0092 1142.4088,643.2907 C1144.0601,644.7612 1146.2525,643.4324 1146.2525,642.0436 L1146.2525,628.9016 C1147.3329,628.9016 1148.5400,629.0330 1149.3307,628.3461 C1150.2973,627.5077 1150.3852,625.5609 1149.2088,624.7366 C1148.3636,624.1448 1147.3412,624.2328 1146.2525,624.2328 L1146.2525,611.6093 C1146.2525,608.8783 1141.7531,609.0262 1141.7531,611.6093 L1141.7531,624.2328 L1132.9274,624.2328 L1132.9274,612.1278 C1132.9274,610.7555 1132.0894,609.7423 1130.7911,609.5983 C1129.5468,609.4602 1128.2551,610.5833 1128.2551,611.7821 L1128.2551,626.4804 C1128.2551,627.9938 1129.1638,628.9016 1130.6778,628.9016 L1141.7531,628.9016 Z"
     style="fill: none; "
     id="path166" />
  <path
     d="  M1144.7594,581.2789 C1147.1686,589.3593 1158.4045,590.6883 1163.2874,584.1909 C1166.3370,580.1332 1165.8460,572.9839 1162.5463,570.4268 C1161.5399,569.6473 1161.6505,569.8468 1162.1948,569.0923 C1167.2014,562.1506 1162.3576,554.1994 1156.9819,554.1994 C1155.3878,554.1994 1154.0678,554.2135 1152.5992,554.8346 C1152.0999,555.0459 1151.8005,555.2145 1151.3705,555.5092 C1149.4348,556.8346 1147.2908,559.9774 1147.2908,561.2891 C1147.2908,563.8693 1149.8697,564.2608 1151.1357,563.2291 C1151.5043,562.9291 1151.5096,562.8834 1151.7377,562.4470 C1152.9221,560.1774 1154.6934,557.7415 1157.6805,559.0346 C1159.6149,559.8718 1160.1243,562.3540 1159.2575,564.7736 C1158.9681,565.5796 1158.7169,565.8918 1158.2434,566.5273 C1155.9906,569.5538 1153.9894,567.2823 1152.1743,568.7628 C1150.9834,569.7342 1151.0391,571.6701 1152.1982,572.4669 C1154.2952,573.9098 1161.2587,570.4874 1160.6853,577.9681 C1160.1597,584.8244 1152.3892,584.6563 1150.1266,581.6270 C1148.7203,579.7438 1149.2715,578.2355 1146.5986,578.2355 C1145.4390,578.2355 1144.2000,579.4034 1144.7594,581.2789 Z"
     style="fill: none; "
     id="path167" />
  <path
     d="  M1131.1967,532.4111 L1145.9061,532.4111 C1148.8187,532.4111 1149.0742,528.7851 1146.9579,527.9023 C1146.1321,527.5573 1138.0151,527.7425 1136.7345,527.7425 C1136.8395,527.3505 1138.0486,526.0061 1138.4214,525.6233 C1138.8443,525.1888 1138.9156,525.0098 1139.2895,524.5886 L1141.9667,521.3851 C1146.1453,516.3699 1151.3092,509.1026 1146.8463,502.5937 C1146.0640,501.4527 1145.6650,501.1414 1144.6448,500.2983 C1141.2279,497.4727 1135.7655,497.6279 1132.4509,500.9818 C1131.5855,501.8575 1129.1202,504.5117 1129.1202,505.7814 C1129.1202,508.6831 1132.2748,509.2439 1133.5505,507.0957 C1134.6900,505.1764 1136.2757,502.8417 1138.8110,502.8417 C1140.4394,502.8417 1141.9592,503.8639 1142.7451,504.7902 C1143.2246,505.3557 1143.5040,505.9137 1143.7248,506.7517 C1143.9937,507.7756 1143.9152,508.1492 1143.8223,509.2300 C1143.5488,512.4111 1138.5567,518.6215 1136.3468,520.9566 C1134.8148,522.5758 1133.1881,524.7612 1131.4963,526.4854 C1130.8685,527.1252 1128.9474,529.1974 1128.9474,529.9906 C1128.9474,531.3392 1129.3234,532.4111 1131.1967,532.4111 Z"
     style="fill: none; "
     id="path168" />
  <path
     d="  M1095.7213,488.4891 C1095.7213,491.2564 1100.3939,491.1610 1100.3939,488.4891 L1100.3939,458.4005 C1100.3939,455.7869 1095.7213,455.6027 1095.7213,458.4005 L1095.7213,488.4891 Z"
     style="fill: none; "
     id="path169" />
  <path
     d="  M1052.3859,307.9285 C1059.8004,302.6071 1080.0170,303.3617 1078.5043,286.5709 C1077.1155,271.1577 1053.0692,263.0108 1036.9729,263.9143 C1020.5159,264.8379 995.9930,274.0464 999.5780,290.2924 C1001.2350,297.8015 1011.3272,301.6321 1017.5213,304.3004 C1021.9887,306.2248 1024.1899,307.0647 1028.3457,309.4022 C1037.6797,314.6521 1043.8019,314.0889 1052.3859,307.9285 Z Z M1020.2869,271.9513 C1035.6966,268.4628 1043.2078,282.3147 1028.3531,285.2126 C1014.6894,287.8783 1003.7750,275.6895 1020.2869,271.9513 Z"
     style="stroke-width: 0.2160; stroke: #1b1918; stroke-dasharray: none; stroke-linecap: butt; stroke-linejoin: miter; fill: none; "
     id="path170" />
  <path
     d="  M1084.0730,325.2976 C1058.6554,337.9844 1038.3888,340.1371 1010.2188,330.5562 C1006.1244,329.1643 987.9250,321.4284 986.7968,318.1462 C988.3341,317.4334 991.0267,317.8081 992.5953,316.6405 C987.9705,313.7857 976.1466,316.6959 974.9087,320.4045 C976.3775,320.9905 977.8187,319.4067 981.2463,319.4229 C984.5020,321.7028 998.1847,340.6572 1001.2047,344.8469 C1015.2316,364.3067 1024.9591,384.8478 1055.0516,376.9148 C1060.9873,375.3499 1065.3584,372.1849 1069.0969,368.3699 C1071.9583,365.4492 1076.9834,357.0987 1078.7382,355.9045 C1079.1575,352.0748 1085.5702,342.9268 1088.1430,338.4816 C1090.1942,334.9376 1096.1683,323.7243 1098.1140,321.9064 L1099.4362,319.7129 C1103.4883,319.9081 1101.8582,320.9107 1105.6293,322.1084 C1104.4053,317.7168 1100.8169,314.9973 1094.9193,315.4273 L1095.2401,318.4791 C1091.0264,321.0396 1089.1667,322.7552 1084.0730,325.2976 Z Z M1041.7847,356.1403 C1056.9030,351.7521 1066.6744,363.5120 1065.7210,367.0782 C1062.7211,371.4483 1051.2619,374.6980 1044.4933,374.7870 C1036.1817,374.8963 1026.2977,372.8170 1022.5275,367.0782 C1022.6906,362.4702 1027.1705,358.3496 1031.0378,357.4738 C1038.3711,355.8132 1040.3251,359.6583 1044.4359,361.8302 C1043.5602,358.8607 1042.1503,359.0350 1041.7847,356.1403 Z"
     style="stroke-width: 0.2160; stroke: #1b1918; stroke-dasharray: none; stroke-linecap: butt; stroke-linejoin: miter; fill: none; "
     id="path171" />
  <path
     d="  M981.8534,492.9853 L981.8534,463.5887 C981.8534,460.2882 977.1811,460.5573 977.1811,463.2428 L977.1811,493.3310 C977.1811,495.9890 981.8534,496.2255 981.8534,492.9853 Z"
     style="fill: none; "
     id="path172" />
  <path
     d="  M994.6591,463.7616 L994.6591,492.8120 C994.6591,496.3326 999.3317,495.8789 999.3317,493.5038 L999.3317,463.0700 C999.3317,460.7325 994.6591,460.1198 994.6591,463.7616 Z"
     style="fill: none; "
     id="path173" />
  <path
     d="  M1026.3278,446.6421 L1026.3278,476.7307 C1026.3278,479.3657 1031.0001,479.7039 1031.0001,476.3848 L1031.0001,446.9878 C1031.0001,446.2753 1030.7790,445.7414 1030.4135,445.3261 C1029.0949,443.8277 1026.3278,444.7481 1026.3278,446.6421 Z"
     style="fill: none; "
     id="path174" />
  <path
     d="  M1045.8422,464.9312 L1037.1829,474.9547 C1035.4830,476.6467 1036.6588,478.8056 1038.2684,478.8056 L1053.4968,478.8056 C1056.2165,478.8056 1056.5842,475.0289 1054.2247,474.2739 C1053.3735,474.0014 1045.4344,474.1370 1044.1521,474.1370 C1044.6427,473.4044 1045.3672,472.7490 1045.8827,472.0615 C1047.6889,469.6557 1050.6740,466.6161 1052.6675,463.6244 C1055.2368,459.7681 1057.2231,454.9527 1055.0580,450.2698 C1054.7281,449.5575 1053.6688,448.0994 1053.1131,447.5444 C1052.7030,447.1351 1052.3556,446.8959 1051.8684,446.5401 C1050.0298,445.1962 1048.2335,444.7400 1045.8827,444.7400 C1043.1993,444.7400 1041.4954,446.0976 1039.9705,447.3054 C1039.5533,447.6359 1039.2650,447.9673 1038.9598,448.3704 C1038.6306,448.8055 1038.3329,449.1476 1037.9693,449.6290 C1037.6082,450.1072 1037.4785,450.3614 1037.1545,450.8899 C1036.8701,451.3545 1036.5378,451.8444 1036.5378,452.5213 C1036.5378,454.6000 1039.5089,455.8814 1041.0078,453.5296 C1041.9501,452.0512 1043.6824,449.2359 1046.0558,449.2359 C1048.9387,449.2359 1051.4203,451.7772 1051.4203,454.4237 C1051.4203,458.0576 1048.8126,461.1518 1046.8483,463.6886 C1046.4939,464.1463 1046.2028,464.4976 1045.8422,464.9312 Z"
     style="fill: none; "
     id="path175" />
  <path
     d="  M1038.5022,560.2901 C1044.7634,560.2901 1049.8408,565.3675 1049.8408,571.6287 C1049.8408,577.8899 1044.7634,582.9673 1038.5022,582.9673 C1032.2410,582.9673 1027.1636,577.8899 1027.1636,571.6287 C1027.1636,565.3675 1032.2410,560.2901 1038.5022,560.2901 Z"
     style="fill: none; "
     id="path177" />
  <path
     d="  M1038.5022,560.2901 C1044.7634,560.2901 1049.8408,565.3675 1049.8408,571.6287 C1049.8408,577.8899 1044.7634,582.9673 1038.5022,582.9673 C1032.2410,582.9673 1027.1636,577.8899 1027.1636,571.6287 C1027.1636,565.3675 1032.2410,560.2901 1038.5022,560.2901 Z"
     style="stroke-width: 0.2160; stroke: #1b1918; stroke-dasharray: none; stroke-linecap: butt; stroke-linejoin: miter; fill: none; "
     id="path178" />
  <path
     d="  M993.2746,649.8252 C993.2746,647.8248 992.3139,647.0580 990.3331,647.0580 L975.9696,647.0580 C975.1524,647.0580 974.4007,647.2290 973.9298,647.6139 C973.5497,647.9249 973.0281,648.7098 973.0281,649.3065 C973.0281,652.5981 976.9232,651.7273 979.2578,651.7273 L987.9100,651.7273 L983.5809,661.5805 C982.2538,664.5728 976.8351,676.9738 976.8351,679.0487 C976.8351,681.1875 980.2466,682.0296 981.2203,679.9723 L989.9881,658.2991 C990.2537,657.7095 990.5644,656.9790 990.8524,656.3962 L992.5838,652.5930 C993.2136,651.1963 993.2746,651.5867 993.2746,649.8252 Z"
     style="fill-rule: evenodd; fill: #71859e; "
     id="path179" />
  <path
     d="  M1038.3180,668.7227 C1034.6247,673.0529 1030.1349,681.1702 1030.1349,687.0030 C1030.1349,693.1851 1033.2607,698.3714 1039.5312,698.6707 C1040.9562,698.7387 1042.3942,698.3065 1043.5635,697.8280 C1045.5180,697.0269 1047.7599,694.8334 1048.7115,692.9427 C1050.6010,689.1888 1050.2640,685.3961 1047.2267,682.3743 C1045.0519,680.2109 1041.7646,679.5547 1038.5093,680.1540 C1037.6592,680.3107 1037.1266,680.6007 1036.3649,680.7781 C1036.8507,678.6941 1041.1251,672.2821 1043.0691,670.3580 C1044.4898,668.9523 1045.5364,668.4642 1045.5364,666.5984 C1045.5364,665.2157 1043.2967,662.8294 1040.3932,666.3008 L1038.3180,668.7227 Z Z M1034.8070,688.3866 C1034.8070,686.9676 1038.1527,684.5825 1040.5179,684.5825 C1046.3505,684.5825 1046.3182,690.3641 1043.0464,692.8157 C1038.4089,696.2899 1034.8070,691.9509 1034.8070,688.3866 Z"
     style="fill-rule: evenodd; fill: #71859e; "
     id="path180" />
  <path
     d="  M1089.6644,665.9067 C1089.6644,669.0294 1093.8368,668.6033 1095.7215,667.6362 C1097.5408,666.7024 1099.6968,666.3317 1101.5532,667.3419 L1103.0683,668.5951 C1106.2494,672.8173 1102.8095,678.5303 1099.0091,678.5303 C1095.8845,678.5303 1093.9637,677.5418 1092.6660,675.1848 C1091.3732,672.8343 1088.2803,674.0444 1088.2803,675.9360 C1088.2803,678.4061 1090.5562,680.3688 1092.4654,681.6107 C1095.1951,683.3869 1100.1399,683.7704 1103.5667,681.8734 C1104.6954,681.2484 1105.2924,680.6628 1106.1516,679.7874 C1110.2607,675.5995 1110.1453,666.2225 1103.3076,662.9950 C1100.5557,661.6962 1097.0481,661.8399 1094.3371,663.1401 L1094.3371,653.8022 L1107.4890,653.8022 C1110.8095,653.8022 1110.6788,649.1333 1107.6622,649.1333 L1091.7414,649.1333 C1090.5647,649.1333 1089.6644,650.1932 1089.6644,651.5541 L1089.6644,665.9067 Z"
     style="fill-rule: evenodd; fill: #71859e; "
     id="path181" />
  <path
     d="  M1141.7530,628.9016 L1141.7530,641.8706 C1141.7530,642.4240 1142.0921,643.0093 1142.4087,643.2905 C1144.0602,644.7611 1146.2525,643.4323 1146.2525,642.0436 L1146.2525,628.9016 C1147.3328,628.9016 1148.5400,629.0331 1149.3306,628.3460 C1150.2972,627.5078 1150.3851,625.5609 1149.2087,624.7366 C1148.3634,624.1448 1147.3413,624.2326 1146.2525,624.2326 L1146.2525,611.6094 C1146.2525,608.8782 1141.7530,609.0262 1141.7530,611.6094 L1141.7530,624.2326 L1132.9274,624.2326 L1132.9274,612.1278 C1132.9274,610.7556 1132.0894,609.7422 1130.7912,609.5982 C1129.5468,609.4602 1128.2550,610.5832 1128.2550,611.7820 L1128.2550,626.4805 C1128.2550,627.9939 1129.1638,628.9016 1130.6778,628.9016 L1141.7530,628.9016 Z"
     style="fill-rule: evenodd; fill: #71859e; "
     id="path182" />
  <path
     d="  M1144.7595,581.2790 C1147.1686,589.3591 1158.4046,590.6883 1163.2873,584.1910 C1166.3371,580.1332 1165.8461,572.9839 1162.5463,570.4268 C1161.5400,569.6473 1161.6506,569.8468 1162.1948,569.0923 C1167.2014,562.1505 1162.3575,554.1993 1156.9819,554.1993 C1155.3877,554.1993 1154.0679,554.2135 1152.5992,554.8346 C1152.0998,555.0460 1151.8004,555.2144 1151.3704,555.5092 C1149.4349,556.8347 1147.2908,559.9774 1147.2908,561.2890 C1147.2908,563.8691 1149.8698,564.2609 1151.1357,563.2291 C1151.5042,562.9292 1151.5096,562.8835 1151.7378,562.4470 C1152.9221,560.1773 1154.6935,557.7415 1157.6806,559.0346 C1159.6150,559.8717 1160.1244,562.3540 1159.2575,564.7737 C1158.9681,565.5796 1158.7170,565.8919 1158.2433,566.5272 C1155.9906,569.5537 1153.9894,567.2823 1152.1743,568.7629 C1150.9835,569.7343 1151.0391,571.6701 1152.1981,572.4669 C1154.2952,573.9097 1161.2588,570.4875 1160.6854,577.9681 C1160.1598,584.8245 1152.3892,584.6562 1150.1266,581.6271 C1148.7203,579.7437 1149.2717,578.2354 1146.5986,578.2354 C1145.4389,578.2354 1144.2002,579.4033 1144.7595,581.2790 Z"
     style="fill-rule: evenodd; fill: #71859e; "
     id="path183" />
  <path
     d="  M1131.1968,532.4111 L1145.9061,532.4111 C1148.8187,532.4111 1149.0741,528.7850 1146.9580,527.9023 C1146.1320,527.5573 1138.0150,527.7424 1136.7346,527.7424 C1136.8395,527.3504 1138.0484,526.0062 1138.4215,525.6232 C1138.8444,525.1887 1138.9156,525.0098 1139.2894,524.5886 L1141.9668,521.3852 C1146.1453,516.3698 1151.3092,509.1026 1146.8463,502.5937 C1146.0640,501.4528 1145.6649,501.1413 1144.6447,500.2982 C1141.2278,497.4727 1135.7654,497.6280 1132.4509,500.9817 C1131.5854,501.8576 1129.1202,504.5117 1129.1202,505.7813 C1129.1202,508.6831 1132.2748,509.2438 1133.5504,507.0957 C1134.6900,505.1764 1136.2757,502.8418 1138.8110,502.8418 C1140.4395,502.8418 1141.9591,503.8639 1142.7452,504.7903 C1143.2245,505.3558 1143.5040,505.9137 1143.7248,506.7516 C1143.9938,507.7755 1143.9153,508.1491 1143.8223,509.2299 C1143.5488,512.4110 1138.5567,518.6214 1136.3468,520.9566 C1134.8150,522.5757 1133.1882,524.7612 1131.4964,526.4855 C1130.8686,527.1250 1128.9472,529.1974 1128.9472,529.9906 C1128.9472,531.3393 1129.3234,532.4111 1131.1968,532.4111 Z"
     style="fill-rule: evenodd; fill: #71859e; "
     id="path184" />
  <path
     d="  M1100.3939,488.4891 L1100.3939,458.4005 C1100.3939,455.7869 1095.7212,455.6027 1095.7212,458.4005 L1095.7212,488.4891 C1095.7212,491.2563 1100.3939,491.1610 1100.3939,488.4891 Z"
     style="fill-rule: evenodd; fill: #71859e; "
     id="path185" />
  <path
     d="  M1053.4969,478.8057 C1056.2165,478.8057 1056.5841,475.0291 1054.2246,474.2739 C1053.3733,474.0015 1045.4343,474.1370 1044.1522,474.1370 C1044.6426,473.4043 1045.3671,472.7492 1045.8828,472.0615 C1047.6890,469.6557 1050.6742,466.6161 1052.6675,463.6244 C1055.2368,459.7682 1057.2231,454.9527 1055.0580,450.2699 C1054.7280,449.5575 1053.6687,448.0994 1053.1131,447.5443 C1052.7029,447.1350 1052.3557,446.8958 1051.8684,446.5400 C1050.0299,445.1961 1048.2335,444.7400 1045.8828,444.7400 C1043.1992,444.7400 1041.4953,446.0975 1039.9706,447.3054 C1039.5533,447.6359 1039.2650,447.9673 1038.9597,448.3704 C1038.6306,448.8055 1038.3330,449.1476 1037.9693,449.6289 C1037.6082,450.1071 1037.4783,450.3614 1037.1546,450.8901 C1036.8700,451.3544 1036.5378,451.8445 1036.5378,452.5214 C1036.5378,454.6001 1039.5088,455.8813 1041.0077,453.5297 C1041.9500,452.0511 1043.6825,449.2361 1046.0557,449.2361 C1048.9388,449.2361 1051.4203,451.7773 1051.4203,454.4237 C1051.4203,458.0575 1048.8127,461.1518 1046.8483,463.6885 C1046.4939,464.1463 1046.2028,464.4975 1045.8422,464.9312 L1037.1830,474.9548 C1035.4830,476.6468 1036.6588,478.8057 1038.2683,478.8057 L1053.4969,478.8057 Z"
     style="fill-rule: evenodd; fill: #71859e; "
     id="path186" />
  <path
     d="  M1031.0000,476.3849 L1031.0000,446.9879 C1031.0000,446.2753 1030.7789,445.7415 1030.4135,445.3262 C1029.0949,443.8278 1026.3280,444.7480 1026.3280,446.6421 L1026.3280,476.7307 C1026.3280,479.3658 1031.0000,479.7040 1031.0000,476.3849 Z"
     style="fill-rule: evenodd; fill: #71859e; "
     id="path187" />
  <path
     d="  M999.3317,493.5039 L999.3317,463.0700 C999.3317,460.7325 994.6590,460.1197 994.6590,463.7616 L994.6590,492.8119 C994.6590,496.3326 999.3317,495.8790 999.3317,493.5039 Z"
     style="fill-rule: evenodd; fill: #71859e; "
     id="path188" />
  <path
     d="  M981.8532,492.9854 L981.8532,463.5887 C981.8532,460.2881 977.1812,460.5574 977.1812,463.2429 L977.1812,493.3310 C977.1812,495.9890 981.8532,496.2254 981.8532,492.9854 Z"
     style="fill-rule: evenodd; fill: #71859e; "
     id="path189" />
  <path
     d="  M962.7463,530.2647 C966.4784,525.1207 967.0992,518.3104 965.3437,512.0765 C964.6072,509.4618 963.2554,507.1822 961.5586,505.1370 C960.2813,503.5972 956.7187,501.6311 954.1650,501.6311 C951.1262,501.6311 949.8923,501.8287 947.3794,503.4969 C943.1209,506.3247 940.3211,513.3087 940.3211,518.2319 C940.3211,524.0809 940.7786,527.0020 944.5000,531.6939 C948.6346,536.9060 957.7468,537.1560 962.7463,530.2647 Z Z M953.9921,506.3000 C958.9612,506.3000 961.6065,513.3322 961.6065,517.8858 C961.6065,522.0785 960.7598,526.7211 957.5266,529.1989 C956.7417,529.8004 956.4063,530.1643 955.1310,530.6094 C954.7923,530.7276 953.2749,531.0278 952.9537,531.0278 C945.7387,531.0278 942.4431,519.7003 946.7787,511.0240 C947.7578,509.0644 950.1534,506.3000 952.6079,506.3000 L953.9921,506.3000 Z"
     style="fill-rule: evenodd; fill: #71859e; "
     id="path190" />
  <path
     d="  M936.3407,533.7947 L936.3407,503.1876 C936.3407,501.3170 931.6684,500.2586 931.6684,504.0519 L931.6684,533.1027 C931.6684,536.7762 936.3407,536.0743 936.3407,533.7947 Z"
     style="fill-rule: evenodd; fill: #71859e; "
     id="path191" />
  <path
     d="  M931.8419,558.6951 C931.8419,557.5564 930.7525,556.6204 929.5920,556.6204 C928.5106,556.6204 928.1463,557.2355 927.5151,557.6581 C924.8020,556.3570 921.1022,556.2439 918.3427,557.4841 C914.7090,559.1177 912.1133,562.4932 912.1133,566.6496 C912.1133,572.1715 916.4486,576.5063 921.2854,576.5063 C926.1867,576.5063 925.3202,575.7664 927.3421,575.2962 L927.3348,588.0997 C927.3348,591.2963 930.5487,590.7044 931.2557,589.9275 L931.6097,589.4167 C931.7866,589.0870 931.8419,589.0615 931.8419,588.6108 L931.8419,558.6951 Z Z M926.0050,562.2792 C927.8512,563.9182 927.3421,565.0036 927.3421,568.5520 C927.3421,569.4627 923.8680,573.4661 919.6642,571.3818 C917.1777,570.1484 916.7859,568.6172 916.7859,566.1309 C916.7859,562.1105 923.1330,559.7306 926.0050,562.2792 Z"
     style="fill-rule: evenodd; fill: #71859e; "
     id="path192" />
  <path
     d="  M948.9736,608.8428 C947.7879,608.8428 947.1580,610.0495 946.3776,610.5719 C945.7143,609.5818 945.2460,609.1155 944.2001,608.4249 C940.7341,606.1368 935.8968,607.2664 933.3252,611.0169 C932.4709,612.2636 931.8419,614.1416 931.8419,615.7593 C931.8419,619.0211 934.0308,621.3623 935.9949,622.6764 C934.6816,625.1562 927.1531,630.1148 930.3372,636.4570 C931.0048,637.7859 932.0828,638.9175 933.3408,639.6806 C941.6741,644.7385 954.4654,636.8695 947.2110,626.1673 C946.5508,625.1936 946.1072,624.7446 945.2965,623.9296 L942.9168,621.9848 L946.1608,618.1362 C946.6444,617.6398 946.8037,617.3376 947.2873,616.8410 L951.0874,612.3382 C951.8409,611.2460 951.3833,608.8428 948.9736,608.8428 Z Z M943.0900,614.5489 C942.4709,615.2607 939.4217,618.6983 939.2828,619.2179 C938.4605,618.9985 936.5139,617.4986 936.5139,615.5864 C936.5139,613.8068 938.0055,612.3515 939.4506,611.9413 C941.6665,611.3123 942.4729,613.3833 943.0900,614.5489 Z Z M934.2641,633.2247 C934.2641,631.4902 935.3605,630.5678 936.0386,629.8098 C936.3719,629.4368 936.3711,629.3200 936.7271,628.9418 C937.0437,628.6051 937.2980,628.4220 937.5803,628.0648 L939.1805,626.2055 C939.4764,625.8110 939.6094,625.6879 939.9747,625.4430 L942.3527,627.3904 C942.6351,627.7065 942.6266,627.8023 942.9605,628.1660 C944.7948,630.1636 945.7206,633.6944 942.8457,635.5743 C939.3897,637.8341 934.2641,636.4383 934.2641,633.2247 Z"
     style="fill-rule: evenodd; fill: #71859e; "
     id="path193" />
  <text
     xml:space="preserve"
     style="font-size:60.374px;text-align:start;writing-mode:lr-tb;direction:ltr;text-anchor:start;fill:#000000;fill-opacity:1;stroke-width:5.03907;stroke-dasharray:none"
     x="1268.8112"
     y="452.00467"
     id="text199"
     transform="scale(0.75229385,1.3292678)"><tspan
       id="tspan199"
       style="fill-opacity:1;stroke-width:5.03907;stroke-dasharray:none"
       x="1268.8112"
       y="452.00467"
       sodipodi:role="line">EE   SA</tspan></text>
  <text
     xml:space="preserve"
     transform="scale(0.75000153)"
     id="text200"
     style="text-align:start;writing-mode:lr-tb;direction:ltr;white-space:pre;shape-inside:url(#rect200);display:inline;fill-opacity:1;stroke-width:1.00157;stroke-dasharray:none" />
</svg>
