<?xml version="1.0" encoding="UTF-8" standalone="no"?>
<svg
   version="1.1"
   width="23.6220in"
   height="15.7480in"
   viewBox="0 0 1700.7874 1133.8583"
   id="svg199"
   sodipodi:docname="eo46qg1j.svg"
   inkscape:version="1.4.2 (f4327f4, 2025-05-13)"
   xmlns:inkscape="http://www.inkscape.org/namespaces/inkscape"
   xmlns:sodipodi="http://sodipodi.sourceforge.net/DTD/sodipodi-0.dtd"
   xmlns="http://www.w3.org/2000/svg"
   xmlns:svg="http://www.w3.org/2000/svg">
  <defs
     id="defs199">
    <rect
       x="1337.2556"
       y="795.46509"
       width="46.032326"
       height="39.40897"
       id="rect200" />
    <linearGradient
       id="swatch199"
       inkscape:swatch="solid">
      <stop
         style="stop-color:#000000;stop-opacity:1;"
         offset="0"
         id="stop199" />
    </linearGradient>
  </defs>
  <sodipodi:namedview
     id="namedview199"
     pagecolor="#ffffff"
     bordercolor="#000000"
     borderopacity="0.25"
     inkscape:showpageshadow="2"
     inkscape:pageopacity="0.0"
     inkscape:pagecheckerboard="0"
     inkscape:deskcolor="#d1d1d1"
     inkscape:document-units="in"
     showgrid="false"
     inkscape:zoom="0.53379794"
     inkscape:cx="1074.3766"
     inkscape:cy="657.55218"
     inkscape:window-width="1504"
     inkscape:window-height="932"
     inkscape:window-x="-8"
     inkscape:window-y="-8"
     inkscape:window-maximized="1"
     inkscape:current-layer="svg199" />
  <path
     d="  M166.8473,162.8478 C147.3313,151.2681 133.2537,138.7125 130.3232,114.3597 C127.6560,92.1939 140.2889,67.5848 154.9671,51.7318 C158.8835,47.5020 163.0022,43.4437 167.5479,39.8873 C182.9956,27.8022 199.5562,24.9178 218.7263,28.0943 C228.6192,29.7336 241.2286,36.1813 248.5996,43.0007 C253.3687,47.4128 257.3357,51.7609 260.3407,57.5590 C261.9102,60.5874 263.2255,63.7883 264.6378,66.9224 C264.9269,66.7923 265.2724,66.6175 265.7982,66.3785 C275.2451,62.0869 286.4196,59.3041 296.5829,57.2286 C311.9277,54.0952 326.3362,52.4625 341.9935,53.4537 C347.8761,53.8261 353.7310,54.5111 359.5747,55.2682 C366.3235,56.1427 373.0601,57.0938 379.8144,57.9303 C383.5454,58.3923 386.8675,59.2424 390.4072,60.4711 C392.9208,61.3435 395.3829,62.2794 397.9396,63.0323 C401.0613,63.9516 403.8819,65.1538 406.8472,66.4560 C407.9814,66.9540 409.3396,67.5714 410.6516,67.9209 C413.0264,59.3792 420.6808,50.0034 426.6721,44.5286 C434.2752,37.5805 444.4201,32.8771 454.2806,30.1672 C466.5705,26.7894 479.3056,28.2962 490.9878,33.1067 C500.2350,36.9147 509.4473,43.0453 516.3916,50.2705 C538.8328,73.6200 555.5410,109.5624 535.4416,139.7724 C531.3299,145.9522 525.8858,151.5796 519.9390,156.0003 C517.7063,157.6603 515.4994,159.4585 513.4339,161.3206 C512.5740,162.0958 510.1383,164.3776 508.9860,165.9504 C509.6063,167.0197 510.1942,168.1031 510.7309,169.2257 C511.5134,170.8616 512.2180,172.5465 512.9649,174.2003 C514.4326,177.4490 516.4914,180.6981 517.7140,183.9993 C518.7088,186.6859 519.9998,189.0454 521.2181,191.6121 C522.5038,194.3205 523.3595,196.8686 523.8644,199.8267 C524.2297,201.3853 524.8761,202.9962 525.4115,204.5049 C527.9777,211.7380 530.3645,219.1153 532.1278,226.5885 L532.1410,226.6455 L535.6498,244.3090 C537.5529,252.1352 537.8826,260.2192 537.2055,268.2244 C536.4712,276.9029 534.5705,285.5193 532.1099,293.8621 C530.0634,300.8003 527.6655,306.4138 523.6060,312.3918 C521.6967,315.2035 519.6663,317.9136 517.8089,320.7658 C516.1863,323.2573 514.5525,325.7310 512.8290,328.1545 L512.3860,328.7772 L511.7136,329.1406 C511.4409,329.2880 511.1696,329.4297 510.8939,329.5665 C510.8020,329.6412 510.7098,329.7157 510.6167,329.7895 L492.6202,347.9650 L492.5306,348.0431 C489.0429,351.0904 485.6156,354.2074 482.0795,357.1992 C480.6491,358.4091 479.1067,359.4142 477.5214,360.4039 C476.2554,361.1945 474.9479,361.9807 473.7785,362.9106 C473.5504,363.0922 473.3287,363.2790 473.1144,363.4725 C474.2858,364.4705 475.9814,365.3832 477.2641,366.2906 L494.9230,378.7805 L494.9710,378.8172 C496.8247,380.2337 496.2594,379.9878 498.3411,380.7411 L498.7952,380.9054 L499.1829,381.1935 C499.8374,381.6798 500.1737,381.7475 500.9351,381.9632 C501.7859,382.2043 502.5276,382.5046 503.2796,382.9798 L503.4403,383.0814 L508.0445,386.7978 C508.1892,386.8928 508.3341,386.9854 508.4755,387.0876 L527.6613,400.9605 C542.0346,410.5992 556.1972,420.6076 570.0383,430.9958 C583.9234,441.4172 597.6580,452.3045 610.5738,463.9116 C618.7685,471.2758 626.4724,480.7466 631.5492,490.5264 C639.0022,504.8834 641.1367,520.7620 631.7197,534.8634 C630.7705,536.2846 629.8461,537.7184 628.9155,539.1516 C628.3007,540.0984 627.6798,541.0424 626.9830,541.9318 C625.0247,544.4315 622.1849,546.8463 619.8478,548.9962 L619.6656,549.1639 L611.9990,554.3332 L611.6537,554.4668 C608.7422,555.5924 605.7426,556.5055 602.8750,557.7355 C598.7057,559.5237 594.1673,560.5427 589.6788,561.1159 C583.3788,561.9201 576.9264,561.8886 570.5950,561.5004 C570.2750,561.4808 569.9549,561.4601 569.6350,561.4385 C571.7160,563.2242 573.9816,564.6567 576.1945,566.2821 C580.6548,569.5579 585.2007,572.3081 590.0635,574.9277 C593.7471,576.9118 597.5677,578.8149 600.9530,581.2879 C609.3762,587.4413 613.4125,596.7074 616.7086,606.3039 C617.4337,608.4154 618.4290,610.4055 619.5979,612.3047 C621.6632,615.6603 624.2373,618.7155 626.7703,621.7237 C629.5638,625.0407 632.3503,628.3446 634.7002,632.0007 C640.9144,641.6697 642.2780,651.4365 639.9306,662.6554 C639.0638,666.7972 637.3539,670.7552 635.3143,674.4471 C634.5651,675.8032 633.7668,677.1239 632.9499,678.4394 C632.5972,679.0075 632.0669,679.7695 631.7889,680.3681 L631.6062,680.8235 L616.2775,699.3031 L616.1875,699.3955 C608.5922,707.2129 600.5548,714.7442 592.2655,721.8201 C583.4272,729.3648 573.5446,737.1400 563.3886,742.8147 C548.4423,751.1659 532.8538,758.8501 516.6252,764.3753 C488.9582,773.7945 456.9218,777.5171 432.6795,757.6688 C430.5643,755.9369 428.4492,754.5306 426.6281,752.4306 C424.9032,750.4416 423.5239,748.1958 421.9714,746.0777 L421.8457,745.9061 L416.2203,735.6885 C415.4085,735.8882 414.3132,735.9655 413.5217,736.0005 L413.3030,736.0101 L413.0851,735.9906 C407.5689,735.5000 402.0367,735.1467 396.5160,734.6979 C390.4403,734.2041 384.1311,733.6706 378.1384,732.5578 C377.2151,732.3864 376.4014,732.1404 375.5497,731.7465 C375.1074,731.5418 374.6923,731.3280 374.2331,731.1581 C370.4599,729.7608 358.4613,734.1569 354.2563,735.1100 C347.8911,736.5525 341.2439,736.8517 334.7407,736.5192 C324.6423,736.0028 314.6028,733.9709 304.8235,731.4769 C301.2404,730.5632 297.6831,729.5654 294.1058,728.6341 C293.0474,728.3584 290.3405,727.5932 289.1333,727.5514 C278.5934,731.3835 265.0782,736.4902 253.4906,734.8227 C253.3510,735.2640 253.2148,735.6789 253.1003,736.0382 C252.6807,737.3529 252.2443,738.6738 251.7781,739.9730 C248.1274,750.1435 243.9997,753.9596 235.8016,760.6648 C230.3647,765.1117 224.2517,768.4601 217.6062,770.7218 C184.0867,782.1304 141.2799,764.7948 111.4409,749.5517 C102.7106,745.0918 95.3293,739.6870 87.5533,733.8113 C85.1855,732.0220 82.8151,730.2365 80.4008,728.5106 C76.5952,725.7905 72.9645,723.0618 69.5579,719.8513 C68.2579,718.6262 66.9846,717.3745 65.6793,716.1541 C63.6683,714.2739 61.6018,712.4577 59.5028,710.6763 C57.9976,709.3985 56.8408,708.1286 55.5909,706.6195 C55.0410,705.9556 54.4949,705.3161 53.8769,704.7128 C47.0635,698.0630 40.9571,690.8527 35.9310,682.7557 C34.5062,680.4603 33.2098,678.1260 31.8898,675.7722 C31.3937,674.8875 30.5384,673.2574 29.8329,672.5430 L29.0854,671.7861 L28.9232,670.7347 C28.6556,668.9989 28.2250,667.2606 27.8319,665.5488 C27.3343,663.3814 26.8689,661.2180 26.5556,659.0149 C25.7541,653.3745 26.0307,648.0135 27.8328,642.5756 C29.6733,637.0216 32.3947,632.8532 36.2693,628.5369 C39.0067,625.4875 41.9158,622.6810 44.4170,619.4133 C47.5823,615.2786 49.7836,610.8564 51.4338,605.9224 C53.0951,600.9557 55.2094,596.3058 58.3686,592.1090 C59.1294,591.0986 59.9416,590.1460 60.7245,589.1565 C61.0979,588.6845 61.5508,588.1060 61.7842,587.5469 C61.8139,587.4763 61.8403,587.4041 61.8632,587.3310 L62.2462,586.1059 L88.7366,570.8323 C91.0579,568.8996 93.4826,567.0998 95.8560,565.2331 C96.3129,564.6134 96.8131,564.0562 97.2522,563.4536 C96.1110,563.3584 94.9694,563.2504 93.8281,563.1572 C82.5439,562.2357 68.2577,559.5139 58.8951,552.8955 L58.8548,552.8672 L47.5996,544.3946 L47.4491,543.8902 C47.0936,543.4378 46.7069,542.9886 46.3559,542.5390 C45.4161,541.3346 44.5263,540.0937 43.6906,538.8148 C41.1508,534.9274 39.1116,530.7057 37.7148,526.2750 C33.1748,511.8733 36.0798,497.7083 43.7301,484.9178 C44.2047,484.1242 44.8013,483.3233 45.3434,482.5724 C46.1575,481.4444 46.9861,480.3258 47.8200,479.2123 C48.6706,478.0766 49.5278,476.9450 50.3978,475.8240 C50.9582,475.1017 51.5554,474.3015 52.1753,473.6321 C54.9738,470.6119 58.5099,467.6705 61.6598,465.0123 C66.3054,461.0916 71.0519,457.2747 75.8282,453.5149 C80.4535,449.8742 85.1223,446.2800 89.8452,442.7667 C93.1760,440.2888 96.6114,437.7274 100.1044,435.4825 L161.1489,393.3733 C162.7593,392.2624 164.4300,391.2253 166.0633,390.1462 C167.5519,389.1624 169.6509,387.8142 170.8762,386.5332 L171.4700,385.9123 L172.2918,385.6615 C176.5797,384.3530 194.7380,369.6321 202.2280,362.8287 L174.1426,340.9990 L174.0999,340.9636 C172.5942,339.7097 171.0812,338.0638 169.7315,336.6377 C167.6475,334.4359 165.6049,332.1891 163.5903,329.9240 C161.6030,327.6897 159.6348,325.4301 157.7250,323.1293 C156.4608,321.6063 154.9624,319.8446 153.9268,318.1634 C152.9505,316.5790 150.7131,312.4202 149.1677,311.5850 L147.8914,310.8949 L147.5412,309.4869 C147.1665,307.9797 145.7852,305.8048 145.0221,304.4107 C144.5892,303.6197 144.1705,302.8197 143.7977,301.9983 C142.4006,298.9208 141.1706,296.4080 140.1619,293.1231 C139.4722,290.8771 138.6600,288.6755 137.9701,286.4347 C136.5575,281.8461 136.1172,277.2449 135.7997,272.4716 C134.4191,251.7166 138.5900,228.1433 146.0985,208.8135 C148.1695,203.4819 150.2652,198.1584 152.5227,192.9023 C155.1116,186.8748 157.9207,180.9578 160.8015,175.0652 L164.7484,166.9917 C165.3397,165.7077 166.0076,164.4700 166.6572,163.2159 C166.7197,163.0949 166.7833,162.9722 166.8473,162.8478 Z"
     style="stroke-width: 0.2160; stroke: #1b1918; stroke-dasharray: none; stroke-linecap: butt; stroke-linejoin: miter; fill: none; "
     id="path1" />
  <path
     d="  M398.1024,126.9343 C398.7189,118.8934 412.3257,118.3535 425.5451,129.7113 C429.7965,133.3640 443.8009,145.7828 444.9180,151.0952 C442.4921,150.6089 426.7990,140.5598 422.4750,138.1323 C418.4150,135.8530 399.4369,128.1617 398.1024,126.9343 Z"
     style="fill: none; "
     id="path2" />
  <path
     d="  M360.1018,221.7874 C359.0989,215.5678 360.1921,202.1431 361.2183,195.9318 C362.5731,187.7314 365.9234,183.2548 369.5861,176.6386 C383.2027,152.0427 417.5412,154.8409 439.6660,183.3357 C449.0617,195.4363 453.8457,202.7817 459.3220,219.5083 C464.3990,235.0160 463.9313,252.7464 454.9253,264.1802 C448.5809,272.2351 430.6870,281.6099 414.3292,277.7782 C390.2284,272.1327 377.5482,262.3738 366.1600,243.2771 C362.3574,236.8998 361.4227,229.9791 360.1018,221.7874 Z"
     style="fill: none; "
     id="path3" />
  <path
     d="  M293.8581,290.2924 C290.2731,274.0464 314.7960,264.8379 331.2530,263.9143 C347.3492,263.0108 371.3956,271.1577 372.7844,286.5709 C374.2971,303.3617 354.0805,302.6071 346.6660,307.9285 C338.0820,314.0889 331.9598,314.6521 322.6258,309.4022 C318.4699,307.0647 316.2688,306.2248 311.8014,304.3004 C305.6073,301.6321 295.5151,297.8015 293.8581,290.2924 Z"
     style="fill: none; "
     id="path4" />
  <path
     d="  M392.3941,321.9064 C390.4484,323.7243 384.4743,334.9376 382.4231,338.4816 C379.8503,342.9268 373.4376,352.0748 373.0183,355.9045 C371.2635,357.0987 366.2384,365.4492 363.3770,368.3699 C359.6385,372.1849 355.2674,375.3499 349.3317,376.9148 C319.2392,384.8478 309.5117,364.3067 295.4848,344.8469 C292.4648,340.6572 278.7821,321.7028 275.5263,319.4229 C272.0988,319.4067 270.6576,320.9905 269.1888,320.4045 C270.4267,316.6959 282.2506,313.7857 286.8754,316.6405 C285.3068,317.8081 282.6142,317.4334 281.0769,318.1462 C282.2051,321.4284 300.4045,329.1643 304.4989,330.5562 C332.6689,340.1371 352.9354,337.9844 378.3531,325.2976 C383.4468,322.7552 385.3065,321.0396 389.5201,318.4791 L389.1994,315.4273 C395.0970,314.9973 398.6854,317.7168 399.9094,322.1084 C396.1383,320.9107 397.7684,319.9081 393.7163,319.7129 L392.3941,321.9064 Z"
     style="fill: none; "
     id="path5" />
  <path
     d="  M251.0694,730.9710 C262.5653,734.1053 277.8414,728.1521 288.3239,724.3454 C292.0137,723.0053 326.8117,737.9562 353.5323,731.9005 C359.1292,730.6321 370.2318,726.1667 375.3767,728.0718 C376.8203,728.6064 377.0954,729.0167 378.7408,729.3223 C388.1783,731.0749 403.3230,731.8186 413.3785,732.7129 C413.8457,732.6922 415.1134,732.5970 415.5180,732.4709 C417.7134,731.7862 416.2877,733.1062 417.4629,731.1229 L424.6243,744.1305 C426.1441,746.2040 427.5378,748.4564 429.1133,750.2732 C430.7882,752.2046 432.8647,753.5667 434.7637,755.1215 C471.1837,784.9404 527.0659,759.3424 561.7879,739.9414 C578.6419,730.5246 600.0157,711.3224 613.8329,697.1011 L628.7504,679.1174 C629.4236,677.4391 634.9678,670.3339 636.7163,661.9779 C642.7700,633.0450 619.8657,625.6019 613.6029,607.3668 C603.8903,579.0884 595.5234,584.5490 574.2515,568.9263 C571.4998,566.9050 569.4803,565.7209 566.9637,563.4596 C564.3695,561.1282 562.7394,559.3631 559.7564,557.5373 C561.0715,556.7648 585.5238,561.5988 601.5818,554.7109 C604.6116,553.4113 607.1808,552.6691 610.4711,551.3971 L617.6253,546.5731 C625.4647,539.3613 623.6827,540.9799 628.9891,533.0338 C645.4328,508.4108 622.6648,479.1890 608.3794,466.3513 C584.5285,444.9175 552.3640,421.4748 525.7851,403.6531 L506.5522,389.7461 C506.4251,389.6528 506.2351,389.5363 506.1028,389.4475 L501.5264,385.7533 C500.0704,384.8331 499.1637,385.2672 497.2253,383.8268 C494.7557,382.9331 495.3457,383.2331 492.9781,381.4240 L475.3687,368.9691 C472.2077,366.7451 470.4379,366.2289 468.8835,363.3142 C471.6512,359.3278 476.1391,357.9179 479.9592,354.6858 C483.4435,351.7380 486.9749,348.5310 490.3709,345.5639 L508.4263,327.3291 C509.5916,326.4209 508.5876,327.0916 510.1532,326.2453 C511.7641,323.9803 513.0848,321.9970 515.0574,318.9679 C520.7301,310.2568 524.8466,306.8752 528.9602,292.9278 C534.0394,275.7068 535.9817,259.4937 532.4428,245.0141 L528.9316,227.3386 C527.2251,220.1054 524.7958,212.5874 522.3166,205.5994 C521.7136,203.9003 521.0004,202.0355 520.6428,200.4666 C519.5436,193.9005 516.9718,191.4480 514.6345,185.1361 C513.7410,182.7235 511.4248,178.7642 509.9725,175.5488 C507.9818,171.1422 507.7246,170.1480 505.2422,166.0801 C506.2413,162.5344 514.8212,155.7075 517.9809,153.3585 C523.4894,149.2639 528.7498,143.8966 532.7078,137.9477 C552.1396,108.7410 534.7809,74.1396 514.0246,52.5432 C503.1151,41.1922 479.7958,26.5588 455.1538,33.3314 C444.7729,36.1843 435.4777,40.9312 428.8911,46.9499 C423.2102,52.1413 414.2780,62.8093 413.2891,71.4470 C408.6877,71.8437 404.9186,68.5082 397.0137,66.1802 C390.4898,64.2593 386.8873,62.1128 379.4128,61.1871 C347.0968,57.1847 332.6883,53.2060 297.2427,60.4440 C287.5073,62.4320 276.0364,65.3335 267.1599,69.3660 C265.2218,70.2464 265.0520,70.4799 262.7288,70.6090 C257.5629,59.8318 257.3470,55.5633 246.3703,45.4084 C240.2058,39.7052 228.2624,33.0009 218.1913,31.3319 C187.7794,26.2927 171.5405,38.6671 157.3808,53.9601 C144.1255,68.2762 130.9583,92.1056 133.5883,113.9625 C136.5756,138.7884 152.0086,150.5122 171.0253,161.4781 C170.3832,163.4957 168.9083,165.8072 167.7203,168.3954 L163.7561,176.5041 C157.0295,190.1015 154.3457,196.6597 149.1641,209.9989 C142.0084,228.4209 137.7124,251.6741 139.0811,272.2490 C139.8514,283.8285 141.0513,284.8121 143.3058,292.1541 C144.4701,295.9458 145.3431,297.4426 146.7924,300.6356 C148.0779,303.4673 150.1453,306.3265 150.7327,308.6894 C153.2006,310.0234 155.4028,314.2859 156.7269,316.4352 C159.0209,320.1587 173.0812,335.8324 176.2052,338.4338 L207.2475,362.5615 C203.5963,366.4570 179.2832,386.9600 173.2534,388.8001 C171.1378,391.0121 165.9133,394.0833 163.0171,396.0740 L101.9281,438.2140 C92.6560,444.1644 61.4342,468.4724 54.5884,475.8612 C53.5579,476.9734 47.4350,485.1250 46.5527,486.6002 C27.2820,518.8184 50.1951,541.5862 50.4422,542.4150 L60.7943,550.2076 C69.5558,556.4009 83.3838,559.0022 94.0979,559.8773 C102.1878,560.5376 97.2936,560.3873 100.7585,559.2231 C101.3899,561.1496 100.9200,560.2849 102.3280,561.3273 C101.2282,562.8529 101.3639,563.0979 100.4203,564.6281 C99.5127,566.0997 99.2539,565.9983 98.2737,567.5089 C95.6155,569.6134 93.1227,571.4394 90.6272,573.5323 L65.0022,588.3070 C63.8289,592.0604 58.9768,593.7332 54.5528,606.9603 C47.8016,627.1441 36.0840,628.1259 30.9545,643.6048 C27.3078,654.6092 31.1472,663.5739 32.1734,670.2294 C35.2953,673.3906 38.5231,685.1289 56.1745,702.3565 C58.2144,704.3475 58.8577,705.8116 61.6318,708.1663 C72.6672,717.5334 70.6833,717.5194 82.3141,725.8327 C92.1018,732.8292 100.4307,740.2314 112.9383,746.6208 C145.8563,763.4368 200.0621,785.6491 233.7233,758.1167 C241.9195,751.4130 245.3541,748.1448 248.6873,738.8582 C249.1924,737.4515 250.9988,732.1165 251.0694,730.9710 Z"
     style="fill: none; "
     id="path6" />
  <path
     d="  M210.3543,758.1442 C205.8544,758.8305 202.5104,760.3949 197.9798,760.7376 C193.3618,761.0869 188.2521,761.0233 183.6447,760.6702 C174.0497,759.9348 149.1359,752.6530 139.3378,747.9118 C135.9250,746.2604 132.8474,745.3234 129.4698,743.4903 C125.9913,741.6022 123.2866,740.0470 119.2044,738.9566 L105.1584,729.4224 C103.5002,728.3369 102.7823,728.5868 99.9427,726.3137 C98.8247,725.4187 98.2810,724.8163 96.9974,723.9662 C90.6772,719.7798 87.4317,716.6301 81.6093,711.5356 C79.3159,709.5291 77.3655,708.9047 75.3675,706.5576 C73.6301,704.5160 71.9246,702.5415 69.9911,700.5881 C55.7593,686.2104 35.1344,663.0355 45.5753,641.5186 C52.1990,627.8688 60.6846,626.4442 64.3778,615.9405 C66.7208,609.2771 65.9048,606.0353 70.3479,600.0579 C78.8023,588.6841 85.4514,589.4459 96.6970,581.9366 C108.4867,574.0637 119.4831,557.9043 139.0382,565.3154 L142.9477,567.6871 C147.3159,568.0405 150.9402,572.2383 153.8299,575.3479 C165.1918,587.5740 166.3787,599.7730 172.8667,614.9954 C176.5744,623.6946 181.7449,632.8925 186.1342,640.1506 C194.2463,653.5642 205.8517,666.4141 216.8482,677.2090 C218.4986,678.8293 219.6208,680.7023 221.3423,682.4800 C228.5584,689.9336 232.6020,696.0668 237.9893,705.0389 C243.1975,713.7133 240.5880,728.7596 236.6995,736.1748 C233.6811,741.9304 223.1196,754.0149 216.3019,754.5129 C215.2333,756.0750 216.4897,754.8283 215.0566,755.9209 C213.8053,756.8750 214.6298,756.2911 213.5180,756.8144 C212.2027,757.4332 210.5576,757.9948 210.3543,758.1442 Z"
     style="fill: none; "
     id="path7" />
  <path
     d="  M554.5035,567.3064 C557.4080,569.7992 558.8591,570.7926 562.0495,573.5942 C575.8872,585.7454 575.4246,582.3384 585.9237,588.8228 C607.6070,602.2145 595.2575,609.4056 613.1407,627.9718 C634.8662,650.5272 623.2380,669.5331 606.7227,690.0166 C602.0180,695.8517 597.1533,699.3825 593.5794,703.1954 C584.9914,712.3580 575.9860,720.0747 565.0121,727.3670 L548.9105,737.6399 C530.8980,746.6108 511.0531,755.4621 490.8719,758.6997 C480.8683,760.3046 474.9705,758.9090 465.2360,758.4455 C454.3284,756.0933 443.0877,748.5479 437.5397,741.8148 C431.7047,734.7333 425.5695,718.9226 430.7103,706.6771 C431.8225,704.0278 437.1091,695.7473 439.2445,692.6533 C444.6393,684.8365 463.3893,665.4355 470.9380,656.6198 C502.3023,619.9914 499.2775,587.0134 520.1680,570.3001 C530.4567,562.0689 541.6221,560.9639 554.5035,567.3064 Z"
     style="fill: none; "
     id="path8" />
  <path
     d="  M487.1337,384.7471 L569.2208,442.9842 C586.1262,457.2761 607.3368,470.2978 618.1575,493.6329 C630.1903,519.5822 607.3889,545.0807 597.3014,546.1728 L592.8334,548.9572 C576.9659,555.4080 566.0867,552.7891 552.5614,551.4788 C538.6719,547.6990 531.6417,544.9507 520.4349,538.4655 C502.9948,528.3731 486.6175,508.1232 474.4193,492.6249 L452.9680,467.4511 C443.4123,456.7484 429.9446,442.5051 416.2246,435.6044 C412.9765,433.9707 411.3336,433.9892 408.6047,431.9797 C405.9365,430.0146 404.2556,429.2568 400.8355,427.7940 C371.3323,415.1752 354.1349,415.5997 320.7500,415.8218 C257.4129,421.7906 228.7991,462.3041 196.1521,502.9896 C190.3694,510.1961 166.1713,534.9345 159.1127,536.1579 C156.5603,539.8244 143.9545,544.5139 139.9916,546.1937 C131.0193,549.9972 126.0248,549.6859 116.3182,551.9884 C82.6094,559.9840 47.6610,530.7336 55.6982,499.5712 C60.1682,482.2397 68.5106,474.1101 79.4363,464.5373 C100.7698,445.8458 165.0956,405.3195 190.8999,386.3124 L216.4298,366.8874 C218.5660,365.3529 234.3590,375.1024 238.6634,376.9299 C287.2704,397.5667 313.6010,396.1404 318.6422,398.0709 C338.6511,399.4646 351.7650,398.8801 371.1071,397.4557 C380.1684,396.7885 386.4170,395.2985 394.5690,393.4134 C400.0133,392.1542 412.7979,389.9889 416.0259,386.9807 L422.3265,385.2855 C426.9343,384.4928 438.7426,379.1306 442.4998,377.4327 C448.9415,374.5213 454.7627,370.7460 461.8330,368.4143 C463.3483,367.5319 472.3313,375.2657 473.9674,376.4060 C476.0187,377.8358 478.0381,379.0988 480.2622,380.6500 C482.7173,382.3622 484.7904,384.4260 487.1337,384.7471 Z"
     style="fill: none; "
     id="path9" />
  <path
     d="  M425.0667,66.2251 C426.5109,65.2074 425.4111,66.3629 426.9428,64.5444 C427.2614,64.1660 427.6118,63.5532 427.8579,63.1460 C442.9563,38.1584 477.6422,31.0466 502.7873,52.4868 C507.1510,56.2075 508.6828,57.4205 512.2748,61.7997 C514.6977,64.7537 518.5867,71.3083 520.5517,72.7250 C520.7619,74.4379 527.2413,84.2469 530.1987,94.4674 C540.5549,130.2578 508.6943,153.7031 497.4683,153.4157 C483.2549,129.1053 457.4962,100.5738 434.2259,84.9255 C432.1159,83.5069 424.1760,79.6449 423.1395,77.9467 C421.0193,74.4876 425.0413,69.7650 425.0667,66.2251 Z"
     style="fill: none; "
     id="path10" />
  <path
     d="  M298.9488,174.6011 C299.6809,177.0382 304.2524,185.1284 305.3520,186.0413 C305.9491,192.6347 311.2314,203.6097 308.3331,223.0041 C306.2756,236.7714 303.3683,242.7820 296.4359,252.4965 C285.6499,267.6113 257.5851,280.5190 239.3881,277.5704 C222.4366,274.6358 209.4023,266.0886 205.7945,247.9041 C203.1582,234.6174 209.3225,211.9203 216.3152,200.3412 L218.6569,197.6435 C218.9529,195.6798 218.4890,197.2425 219.5515,195.2168 C224.7365,185.3309 240.6253,168.5736 251.3763,163.6237 C266.2847,156.7595 283.7866,157.8337 294.9613,169.9536 C296.4642,171.5837 297.2581,173.3803 298.9488,174.6011 Z"
     style="fill: none; "
     id="path11" />
  <path
     d="  M249.4894,126.9560 C252.6780,125.4529 255.9437,122.2620 259.6070,120.0267 C264.7118,116.9123 266.8752,116.5107 274.0170,117.0546 C276.8863,117.8497 279.1771,118.8447 279.3696,122.4176 C277.6231,124.4177 269.5633,126.2644 266.4070,127.7251 C261.4074,130.0387 248.2735,136.0856 243.5727,139.4111 C241.1221,141.1445 235.2162,145.2013 232.7658,145.6765 C234.1973,139.8895 247.2055,130.8244 249.4894,126.9560 Z"
     style="fill: none; "
     id="path12" />
  <path
     d="  M168.6270,147.6536 C167.8844,146.6229 168.3319,147.1889 167.4395,146.2868 C158.2960,137.0469 144.8804,131.3502 144.8260,105.8436 C144.7737,81.1086 173.5545,37.4012 207.7780,38.9110 C238.1773,40.2522 245.7356,59.0427 249.7103,61.7933 C250.9448,66.9826 254.3495,68.6778 253.9476,76.4965 L247.4917,80.1511 C245.6614,81.1679 243.9999,82.3689 241.9562,83.6234 C232.4618,89.4512 217.2932,101.1861 210.6942,108.8279 C207.5403,112.4803 204.8927,115.0335 201.8237,118.7293 L178.7766,151.2640 C173.6622,150.5788 172.1320,148.3348 168.6270,147.6536 Z"
     style="fill: none; "
     id="path13" />
  <path
     d="  M177.8725,677.2329 C180.2006,665.0917 177.6510,648.6754 170.4206,642.3545 C168.2184,640.4295 165.2513,639.5537 161.8533,639.3514 C156.6271,639.0403 156.5628,639.6205 153.7441,642.0654 C149.1120,646.0831 146.6896,647.8338 143.0534,652.4205 C128.0352,671.3644 125.4314,671.6094 106.4580,680.5495 C100.7030,683.2613 97.3948,684.5316 92.4024,687.5902 C80.2320,695.0470 91.6355,708.3966 99.8686,713.6175 C109.5846,719.7783 120.8481,722.5228 135.0925,720.1932 C147.0711,718.2340 156.1243,712.0264 162.8895,705.3839 C166.3819,701.9545 169.6323,697.4647 172.1537,692.7912 C175.3397,686.8855 176.6602,683.5543 177.8725,677.2329 Z"
     style="fill: none; "
     id="path14" />
  <path
     d="  M495.3483,643.3903 C495.2977,645.2447 493.2480,647.6900 492.5155,650.2266 C491.7953,652.7209 491.2693,655.5731 490.7874,658.1400 C485.8288,684.5602 506.3354,711.5672 530.5384,716.1869 C548.3710,719.5908 560.2274,712.2705 563.6365,712.1380 C563.7597,711.9639 563.9398,711.7520 564.0396,711.6412 C564.1378,711.5322 564.3234,711.2900 564.4457,711.1611 L567.0687,709.0095 C568.2304,708.2139 568.9775,707.8021 570.0842,706.7622 C592.7354,685.4742 562.0623,681.6871 544.5001,671.7696 C536.9136,667.4854 529.2274,657.4296 522.9528,649.6276 C520.9202,647.1001 514.1063,640.4935 511.7012,639.0981 C505.4834,635.4905 498.5445,641.2459 495.3483,643.3903 Z"
     style="fill: none; "
     id="path15" />
  <path
     d="  M84.8488,612.1780 C63.0936,618.2089 83.1497,659.5759 106.8726,654.6075 C118.6775,652.1349 118.5147,637.6127 111.9849,626.2621 C107.6820,618.7831 96.3342,608.9940 84.8488,612.1780 Z"
     style="fill: none; "
     id="path16" />
  <path
     d="  M570.9892,611.9985 C566.1987,613.6365 562.1330,615.9198 558.5571,620.0089 C542.1733,638.7443 551.9059,662.5771 575.2718,648.7379 C594.4440,637.3825 595.1971,603.7219 570.9892,611.9985 Z"
     style="fill: none; "
     id="path17" />
  <path
     d="  M126.6654,589.9715 C121.8182,592.2083 119.3437,594.1358 117.5538,599.8522 C115.8906,605.1644 115.9636,611.2792 117.4945,616.8135 C124.8279,643.3259 154.9005,637.7666 147.1940,605.2779 C145.6420,598.7347 136.4064,585.4768 126.6654,589.9715 Z"
     style="fill: none; "
     id="path18" />
  <path
     d="  M445.8460,89.2941 C445.9911,90.9537 455.4182,98.8104 457.1234,100.4061 C469.9050,112.3670 470.8834,115.5226 478.7124,123.2874 C483.5607,128.0960 488.4937,119.4203 489.4806,114.8584 C492.0740,102.8727 481.4284,90.6730 474.3986,85.3421 C470.1077,82.0885 464.6927,78.9744 457.6874,79.5517 C450.7769,80.1212 445.6004,86.4863 445.8460,89.2941 Z"
     style="fill: none; "
     id="path19" />
  <path
     d="  M534.3720,589.6301 C526.3333,592.0305 520.2926,601.8545 519.5540,611.7335 C517.4506,639.8657 547.3493,638.6801 550.0752,609.2852 C551.0346,598.9391 545.1110,586.4232 534.3720,589.6301 Z"
     style="fill: none; "
     id="path20" />
  <path
     d="  M230.5265,88.5415 C230.2171,76.3002 210.2757,75.5638 201.5687,83.8319 C174.6579,109.3865 191.5456,125.7092 197.6294,120.6078 L207.9931,109.0688 C218.0729,98.3287 223.2349,95.8254 230.5265,88.5415 Z"
     style="fill: none; "
     id="path21" />
  <path
     d="  M275.6147,218.6370 C291.2361,215.1062 295.7592,239.4844 280.7884,242.3806 C272.8306,243.9198 266.7757,239.5922 265.8061,233.0058 C264.5166,224.2448 269.0766,220.1148 275.6147,218.6370 Z Z M277.9127,208.2369 C241.7988,222.2863 255.2429,242.7628 274.8038,245.3399 C285.1386,246.7014 296.1318,238.0970 297.0807,227.8622 C298.1571,216.2547 289.5955,203.6921 277.9127,208.2369 Z"
     style="fill: none; "
     id="path22" />
  <path
     d="  M389.4918,217.3375 C407.0497,214.1726 409.4028,239.7634 393.7255,241.4739 C376.9931,243.2993 374.5299,220.0343 389.4918,217.3375 Z Z M373.1988,228.5626 C374.5839,237.1764 385.3586,246.6365 396.4691,244.1398 C404.9824,242.2265 419.1871,233.8978 412.9142,222.9316 C408.0990,214.5136 400.1469,208.7881 389.5720,206.5345 C378.0117,204.0708 371.3564,217.1034 373.1988,228.5626 Z"
     style="fill: none; "
     id="path23" />
  <path
     d="  M61.2815,663.6825 C62.6047,670.2349 70.3615,675.5898 77.0226,677.7075 C85.7134,680.4707 95.3686,676.4097 93.0138,666.3172 C90.6817,656.3215 76.7727,647.4800 65.0713,652.6447 C61.1197,654.3890 60.1106,657.8837 61.2815,663.6825 Z"
     style="fill: none; "
     id="path24" />
  <path
     d="  M338.7734,374.7870 C345.5420,374.6980 357.0012,371.4483 360.0011,367.0782 C360.9545,363.5120 351.1831,351.7521 336.0648,356.1403 C336.4302,359.0350 337.8403,358.8607 338.7160,361.8302 C334.6052,359.6583 332.6512,355.8132 325.3179,357.4738 C321.4506,358.3496 316.9706,362.4702 316.8076,367.0782 C320.5778,372.8170 330.4618,374.8965 338.7734,374.7870 Z"
     style="fill: none; "
     id="path25" />
  <path
     d="  M588.1263,650.1425 C564.2722,659.2556 570.5637,680.2563 588.2817,675.1818 C594.2552,673.4710 601.4017,668.3046 603.2762,661.7314 C606.2594,651.2709 596.4267,646.9715 588.1263,650.1425 Z"
     style="fill: none; "
     id="path26" />
  <path
     d="  M314.5670,271.9513 C298.0551,275.6893 308.9695,287.8783 322.6332,285.2126 C337.4879,282.3147 329.9767,268.4628 314.5670,271.9513 Z"
     style="fill: none; "
     id="path27" />
  <path
     d="  M108.0655,542.4811 C111.0572,552.1301 128.8523,549.6656 125.3048,536.6911 C124.3028,533.0261 119.3448,529.6995 114.1773,531.1184 C109.7498,532.3339 106.3677,537.0052 108.0655,542.4811 Z"
     style="fill: none; "
     id="path28" />
  <path
     d="  M101.5192,538.7173 C106.9979,528.0246 88.5518,521.3390 84.9168,531.6943 C80.7796,543.4807 96.2636,548.9742 101.5192,538.7173 Z"
     style="fill: none; "
     id="path29" />
  <path
     d="  M150.0230,534.9533 C153.4761,527.4103 144.8457,519.9517 137.7715,523.8201 C123.1989,531.7884 143.2151,549.8238 150.0230,534.9533 Z"
     style="fill: none; "
     id="path30" />
  <path
     d="  M67.8911,520.6500 C71.0079,530.6084 88.6184,527.0737 84.8718,514.8322 C81.9104,505.1557 64.1817,508.7986 67.8911,520.6500 Z"
     style="fill: none; "
     id="path31" />
  <path
     d="  M606.9997,518.4262 C605.4669,510.1807 594.4699,509.5034 590.9655,516.0283 C583.5181,529.8946 609.9895,534.5079 606.9997,518.4262 Z"
     style="fill: none; "
     id="path32" />
  <path
     d="  M521.8971,533.4476 C524.6074,542.9745 540.1181,540.7181 538.2968,529.0135 C536.5950,518.0752 518.1589,520.3068 521.8971,533.4476 Z"
     style="fill: none; "
     id="path33" />
  <path
     d="  M570.4561,537.2116 C572.7153,546.9967 589.3081,545.4362 587.1575,533.5470 C585.0919,522.1277 567.8997,526.1389 570.4561,537.2116 Z"
     style="fill: none; "
     id="path34" />
  <path
     d="  M562.0066,540.2228 C565.5782,528.9953 549.1098,525.1203 545.9633,535.2132 C543.0029,544.7096 557.9643,552.9293 562.0066,540.2228 Z"
     style="fill: none; "
     id="path35" />
  <path
     d="  M277.1689,222.7412 A3.3305,3.3305 0.0000 0,1 280.4995,226.0718 A3.3305,3.3305 0.0000 1,1 277.1689,222.7412 Z"
     style="fill: none; "
     id="path36" />
  <path
     d="  M387.7630,222.7412 A3.3305,3.3305 0.0000 0,1 391.0935,226.0718 A3.3305,3.3305 0.0000 1,1 387.7630,222.7412 Z"
     style="fill: none; "
     id="path37" />
  <g
     id="Layer1000">
    <path
       d="  M330.8179,452.5214 C330.8179,451.8444 331.1501,451.3544 331.4346,450.8899 C331.7587,450.3614 331.8883,450.1073 332.2493,449.6289 C332.6130,449.1476 332.9107,448.8055 333.2399,448.3704 C333.5450,447.9674 333.8334,447.6358 334.2505,447.3054 C335.7755,446.0976 337.4794,444.7400 340.1627,444.7400 C342.5136,444.7400 344.3098,445.1962 346.1484,446.5402 C346.6358,446.8958 346.9830,447.1350 347.3932,447.5443 C347.9489,448.0994 349.0082,449.5575 349.3380,450.2699 C351.5031,454.9527 349.5168,459.7681 346.9476,463.6244 C344.9541,466.6162 341.9689,469.6558 340.1627,472.0615 C339.6472,472.7490 338.9228,473.4044 338.4322,474.1369 C339.7144,474.1369 347.6536,474.0015 348.5047,474.2740 C350.8642,475.0290 350.4966,478.8055 347.7770,478.8055 L332.5485,478.8055 C330.9388,478.8055 329.7631,476.6467 331.4631,474.9546 L340.1222,464.9313 C340.4829,464.4977 340.7740,464.1463 341.1284,463.6886 C343.0927,461.1518 345.7004,458.0576 345.7004,454.4236 C345.7004,451.7772 343.2187,449.2358 340.3359,449.2358 C337.9625,449.2358 336.2302,452.0512 335.2879,453.5297 C333.7890,455.8814 330.8179,454.6001 330.8179,452.5214 Z"
       style="fill: none; "
       id="path38" />
    <path
       d="  M320.6079,446.6422 C320.6079,444.7481 323.3750,443.8278 324.6935,445.3261 C325.0590,445.7414 325.2802,446.2752 325.2802,446.9879 L325.2802,476.3848 C325.2802,479.7040 320.6079,479.3658 320.6079,476.7308 L320.6079,446.6422 Z"
       style="fill: none; "
       id="path39" />
    <path
       d="  M390.0014,458.4006 C390.0014,455.6027 394.6739,455.7869 394.6739,458.4006 L394.6739,488.4891 C394.6739,491.1611 390.0014,491.2565 390.0014,488.4891 L390.0014,458.4006 Z"
       style="fill: none; "
       id="path40" />
    <path
       d="  M288.9392,463.7616 C288.9392,460.1198 293.6118,460.7325 293.6118,463.0699 L293.6118,493.5038 C293.6118,495.8789 288.9392,496.3326 288.9392,492.8121 L288.9392,463.7616 Z"
       style="fill: none; "
       id="path41" />
    <path
       d="  M271.4613,463.2427 C271.4613,460.5573 276.1335,460.2881 276.1335,463.5887 L276.1335,492.9852 C276.1335,496.2255 271.4613,495.9891 271.4613,493.3309 L271.4613,463.2427 Z"
       style="fill: none; "
       id="path42" />
    <path
       d="  M423.4004,505.7813 C423.4004,504.5117 425.8655,501.8574 426.7310,500.9818 C430.0457,497.6278 435.5080,497.4727 438.9248,500.2982 C439.9450,501.1414 440.3441,501.4526 441.1265,502.5938 C445.5893,509.1026 440.4255,516.3700 436.2468,521.3852 L433.5695,524.5886 C433.1956,525.0099 433.1245,525.1887 432.7014,525.6232 C432.3287,526.0062 431.1197,527.3505 431.0146,527.7424 C432.2951,527.7424 440.4123,527.5573 441.2381,527.9024 C443.3543,528.7852 443.0989,532.4111 440.1863,532.4111 L425.4769,532.4111 C423.6035,532.4111 423.2275,531.3392 423.2275,529.9906 C423.2275,529.1975 425.1486,527.1252 425.7764,526.4854 C427.4683,524.7611 429.0950,522.5759 430.6269,520.9567 C432.8367,518.6215 437.8289,512.4110 438.1025,509.2301 C438.1953,508.1492 438.2739,507.7756 438.0050,506.7518 C437.7842,505.9136 437.5048,505.3558 437.0253,504.7901 C436.2393,503.8638 434.7194,502.8417 433.0912,502.8417 C430.5558,502.8417 428.9702,505.1763 427.8305,507.0957 C426.5548,509.2439 423.4004,508.6831 423.4004,505.7813 Z"
       style="fill: none; "
       id="path43" />
    <path
       d="  M234.6011,518.2320 C234.6011,513.3085 237.4009,506.3247 241.6596,503.4968 C244.1722,501.8286 245.4065,501.6312 248.4451,501.6312 C250.9988,501.6312 254.5613,503.5970 255.8388,505.1370 C257.5354,507.1821 258.8873,509.4618 259.6237,512.0764 C261.3792,518.3106 260.7586,525.1206 257.0262,530.2649 C252.0268,537.1560 242.9149,536.9060 238.7801,531.6939 C235.0588,527.0021 234.6011,524.0808 234.6011,518.2320 Z"
       style="fill: none; "
       id="path44" />
    <path
       d="  M225.9486,504.0519 C225.9486,500.2586 230.6209,501.3170 230.6209,503.1877 L230.6209,533.7948 C230.6209,536.0742 225.9486,536.7764 225.9486,533.1028 L225.9486,504.0519 Z"
       style="fill: none; "
       id="path45" />
    <path
       d="  M441.5709,561.2891 C441.5709,559.9774 443.7150,556.8347 445.6505,555.5092 C446.0805,555.2145 446.3800,555.0459 446.8793,554.8346 C448.3479,554.2135 449.6680,554.1994 451.2620,554.1994 C456.6376,554.1994 461.4815,562.1506 456.4750,569.0924 C455.9307,569.8468 455.8199,569.6472 456.8264,570.4268 C460.1261,572.9838 460.6170,580.1333 457.5676,584.1909 C452.6847,590.6883 441.4487,589.3592 439.0394,581.2790 C438.4800,579.4035 439.7191,578.2355 440.8786,578.2355 C443.5517,578.2355 443.0005,579.7437 444.4066,581.6271 C446.6693,584.6564 454.4398,584.8244 454.9653,577.9682 C455.5387,570.4875 448.5754,573.9099 446.4784,572.4668 C445.3192,571.6701 445.2634,569.7342 446.4544,568.7629 C448.2696,567.2823 450.2708,569.5539 452.5235,566.5273 C452.9971,565.8917 453.2482,565.5796 453.5375,564.7736 C454.4044,562.3541 453.8949,559.8718 451.9606,559.0346 C448.9736,557.7415 447.2022,560.1773 446.0178,562.4471 C445.7897,562.8834 445.7843,562.9290 445.4158,563.2291 C444.1498,564.2608 441.5709,563.8692 441.5709,561.2891 Z"
       style="fill: none; "
       id="path46" />
    <path
       d="  M206.3935,566.6497 C206.3935,562.4930 208.9889,559.1177 212.6229,557.4840 C215.3825,556.2438 219.0822,556.3569 221.7952,557.6581 C222.4263,557.2356 222.7906,556.6204 223.8720,556.6204 C225.0325,556.6204 226.1218,557.5564 226.1218,558.6952 L226.1218,588.6108 C226.1218,589.0613 226.0665,589.0871 225.8898,589.4166 C225.8742,589.4466 225.5708,589.8883 225.5357,589.9276 C224.8287,590.7045 221.6148,591.2963 221.6148,588.0995 L221.6223,575.2959 C219.6004,575.7665 220.4667,576.5065 215.5655,576.5065 C210.7285,576.5065 206.3935,572.1715 206.3935,566.6497 Z"
       style="fill: none; "
       id="path47" />
    <path
       d="  M226.1218,615.7595 C226.1218,614.1417 226.7510,612.2635 227.6054,611.0170 C230.1771,607.2666 235.0144,606.1368 238.4803,608.4249 C239.5261,609.1157 239.9945,609.5817 240.6577,610.5720 C241.4382,610.0495 242.0678,608.8426 243.2537,608.8426 C245.6633,608.8426 246.1210,611.2459 245.3674,612.3382 L241.5672,616.8410 C241.0838,617.3376 240.9244,617.6398 240.4410,618.1361 L237.1968,621.9846 L239.5765,623.9298 C240.3873,624.7448 240.8308,625.1934 241.4910,626.1672 C248.7455,636.8696 235.9542,644.7386 227.6210,639.6807 C226.3630,638.9173 225.2848,637.7860 224.6175,636.4569 C221.4333,630.1150 228.9617,625.1562 230.2749,622.6763 C228.3108,621.3623 226.1218,619.0210 226.1218,615.7595 Z"
       style="fill: none; "
       id="path48" />
    <path
       d="  M422.5352,611.7822 C422.5352,610.5834 423.8268,609.4602 425.0712,609.5982 C426.3694,609.7422 427.2075,610.7556 427.2075,612.1279 L427.2075,624.2328 L436.0332,624.2328 L436.0332,611.6093 C436.0332,609.0262 440.5326,608.8783 440.5326,611.6093 L440.5326,624.2328 C441.6213,624.2328 442.6437,624.1449 443.4890,624.7367 C444.6653,625.5610 444.5774,627.5076 443.6108,628.3461 C442.8201,629.0329 441.6129,628.9015 440.5326,628.9015 L440.5326,642.0436 C440.5326,643.4323 438.3402,644.7611 436.6889,643.2907 C436.3723,643.0092 436.0332,642.4238 436.0332,641.8707 L436.0332,628.9015 L424.9578,628.9015 C423.4439,628.9015 422.5352,627.9938 422.5352,626.4805 L422.5352,611.7822 Z"
       style="fill: none; "
       id="path49" />
    <path
       d="  M268.2099,647.6140 C268.6807,647.2290 269.4324,647.0582 270.2499,647.0582 L284.6129,647.0582 C286.5941,647.0582 287.5546,647.8249 287.5546,649.8253 C287.5546,651.5867 287.4937,651.1963 286.8638,652.5929 L285.1324,656.3961 C284.8443,656.9789 284.5337,657.7096 284.2681,658.2992 L275.5004,679.9723 C274.5266,682.0296 271.1150,681.1876 271.1150,679.0486 C271.1150,676.9736 276.5339,664.5727 277.8611,661.5806 L282.1901,651.7272 C279.3063,651.7272 276.4222,651.7272 273.5378,651.7272 C271.2035,651.7272 267.3082,652.5980 267.3082,649.3064 C267.3082,648.7099 267.8300,647.9248 268.2099,647.6140 Z"
       style="fill: none; "
       id="path50" />
    <path
       d="  M383.9445,651.5540 C383.9445,650.1932 384.8448,649.1333 386.0214,649.1333 L401.9422,649.1333 C404.9589,649.1333 405.0894,653.8022 401.7690,653.8022 L388.6171,653.8022 L388.6171,663.1401 C391.3283,661.8399 394.8357,661.6962 397.5877,662.9949 C404.4254,666.2226 404.5409,675.5995 400.4316,679.7874 C399.5724,680.6628 398.9756,681.2482 397.8467,681.8736 C394.4198,683.7704 389.4753,683.3869 386.7455,681.6107 C384.8364,680.3690 382.5603,678.4062 382.5603,675.9362 C382.5603,674.0445 385.6532,672.8343 386.9462,675.1848 C388.2438,677.5419 390.1646,678.5301 393.2894,678.5301 C397.0896,678.5301 400.5294,672.8175 397.3485,668.5950 L395.8334,667.3419 C393.9768,666.3318 391.8211,666.7024 390.0017,667.6363 C388.1169,668.6034 383.9445,669.0295 383.9445,665.9066 L383.9445,651.5540 Z"
       style="fill: none; "
       id="path51" />
    <path
       d="  M230.7940,615.5866 C230.7940,613.8068 232.2854,612.3514 233.7306,611.9412 C235.9464,611.3123 236.7530,613.3834 237.3700,614.5489 C236.7509,615.2607 233.7018,618.6982 233.5629,619.2179 C232.7403,618.9985 230.7940,617.4987 230.7940,615.5866 Z"
       style="fill: none; "
       id="path52" />
    <path
       d="  M228.5443,633.2248 C228.5443,631.4900 229.6405,630.5679 230.3187,629.8099 C230.6521,629.4369 230.6512,629.3201 231.0074,628.9417 C231.3237,628.6050 231.5781,628.4220 231.8605,628.0649 L233.4605,626.2056 C233.7564,625.8110 233.8894,625.6879 234.2549,625.4431 L236.6327,627.3903 C236.9151,627.7063 236.9067,627.8023 237.2407,628.1660 C239.0748,630.1636 240.0008,633.6944 237.1257,635.5744 C233.6697,637.8340 228.5443,636.4383 228.5443,633.2248 Z"
       style="fill: none; "
       id="path53" />
    <path
       d="  M247.2340,531.0280 C240.0188,531.0280 236.7233,519.7003 241.0589,511.0240 C242.0381,509.0645 244.4336,506.3001 246.8880,506.3001 L248.2722,506.3001 C253.2413,506.3001 255.8865,513.3322 255.8865,517.8860 C255.8865,522.0787 255.0400,526.7209 251.8066,529.1990 C251.0219,529.8004 250.6864,530.1644 249.4110,530.6094 C249.0722,530.7276 247.5550,531.0280 247.2340,531.0280 Z"
       style="fill: none; "
       id="path54" />
    <path
       d="  M211.0661,566.1309 C211.0661,562.1104 217.4131,559.7304 220.2852,562.2793 C222.1313,563.9181 221.6223,565.0035 221.6223,568.5519 C221.6223,569.4627 218.1480,573.4661 213.9445,571.3817 C211.4577,570.1487 211.0661,568.6173 211.0661,566.1309 Z"
       style="fill: none; "
       id="path55" />
    <path
       d="  M324.4148,687.0032 C324.4148,681.1702 328.9049,673.0530 332.5980,668.7229 L334.6733,666.3009 C337.5766,662.8296 339.8164,665.2158 339.8164,666.5983 C339.8164,668.4642 338.7697,668.9521 337.3492,670.3580 C335.4052,672.2821 331.1309,678.6939 330.6448,680.7780 C331.4067,680.6007 331.9393,680.3108 332.7894,680.1541 C336.0447,679.5549 339.3321,680.2109 341.5068,682.3744 C344.5442,685.3959 344.8812,689.1890 342.9916,692.9427 C342.0400,694.8335 339.7981,697.0268 337.8434,697.8280 C336.6743,698.3066 335.2363,698.7387 333.8112,698.6706 C327.5407,698.3714 324.4148,693.1852 324.4148,687.0032 Z"
       style="fill: none; "
       id="path56" />
    <path
       d="  M329.0870,688.3866 C329.0870,686.9678 332.4329,684.5824 334.7979,684.5824 C340.6305,684.5824 340.5984,690.3641 337.3267,692.8158 C332.6889,696.2898 329.0870,691.9509 329.0870,688.3866 Z"
       style="fill: none; "
       id="path57" />
  </g>
  <path
     d="  M332.7822,567.9764 A3.6523,3.6523 0.0000 0,1 336.4345,571.6287 A3.6523,3.6523 0.0000 1,1 332.7822,567.9764 Z"
     style="stroke-width: 0.2160; stroke: #1b1918; stroke-dasharray: none; stroke-linecap: butt; stroke-linejoin: miter; fill: none; "
     id="path58" />
  <path
     d="  M434.2259,84.9255 C457.4962,100.5738 483.2549,129.1053 497.4683,153.4157 C508.6943,153.7031 540.5549,130.2578 530.1987,94.4674 C527.2413,84.2469 520.7619,74.4379 520.5517,72.7250 C518.5867,71.3083 514.6977,64.7537 512.2748,61.7997 C508.6828,57.4205 507.1510,56.2075 502.7873,52.4868 C477.6422,31.0466 442.9563,38.1584 427.8579,63.1460 C427.6118,63.5532 427.2614,64.1660 426.9428,64.5444 C425.4111,66.3629 426.5109,65.2074 425.0667,66.2251 C425.0413,69.7650 421.0193,74.4876 423.1395,77.9467 C424.1760,79.6449 432.1159,83.5069 434.2259,84.9255 Z Z M474.3986,85.3421 C481.4284,90.6730 492.0740,102.8727 489.4806,114.8584 C488.4937,119.4203 483.5607,128.0960 478.7124,123.2874 C470.8836,115.5226 469.9050,112.3670 457.1234,100.4061 C455.4182,98.8104 445.9911,90.9537 445.8460,89.2941 C445.6004,86.4865 450.7769,80.1212 457.6874,79.5517 C464.6927,78.9744 470.1077,82.0885 474.3986,85.3421 Z"
     style="fill-rule: evenodd; fill: #71859e; "
     id="path59" />
  <path
     d="  M253.9476,76.4965 C254.3495,68.6778 250.9448,66.9826 249.7103,61.7933 C245.7356,59.0427 238.1773,40.2522 207.7780,38.9110 C173.5545,37.4012 144.7737,81.1086 144.8260,105.8436 C144.8804,131.3502 158.2960,137.0469 167.4395,146.2868 C168.3319,147.1889 167.8844,146.6229 168.6270,147.6536 C172.1320,148.3348 173.6622,150.5788 178.7766,151.2640 L201.8237,118.7293 C204.8927,115.0335 207.5403,112.4803 210.6942,108.8279 C217.2932,101.1861 232.4618,89.4512 241.9562,83.6234 C243.9999,82.3689 245.6614,81.1679 247.4917,80.1511 L253.9476,76.4965 Z Z M201.5687,83.8319 C210.2757,75.5638 230.2171,76.3002 230.5265,88.5415 C223.2349,95.8254 218.0729,98.3287 207.9931,109.0688 L197.6294,120.6078 C191.5456,125.7092 174.6579,109.3865 201.5687,83.8319 Z"
     style="fill-rule: evenodd; fill: #71859e; "
     id="path60" />
  <path
     d="  M294.9613,169.9536 C283.7866,157.8337 266.2847,156.7595 251.3763,163.6237 C240.6253,168.5736 224.7365,185.3309 219.5515,195.2168 C218.4890,197.2425 218.9529,195.6798 218.6569,197.6435 L216.3152,200.3412 C209.3225,211.9203 203.1582,234.6174 205.7945,247.9041 C209.4023,266.0886 222.4366,274.6358 239.3881,277.5704 C257.5851,280.5190 285.6499,267.6113 296.4359,252.4965 C303.3683,242.7820 306.2756,236.7714 308.3331,223.0041 C311.2314,203.6097 305.9491,192.6347 305.3520,186.0413 C304.2524,185.1284 299.6809,177.0382 298.9488,174.6011 C297.2581,173.3803 296.4642,171.5837 294.9613,169.9536 Z Z M277.9127,208.2369 C289.5955,203.6923 298.1571,216.2547 297.0807,227.8622 C296.1318,238.0970 285.1386,246.7012 274.8038,245.3399 C255.2429,242.7628 241.7988,222.2863 277.9127,208.2369 Z"
     style="fill-rule: evenodd; fill: #71859e; "
     id="path61" />
  <path
     d="  M412.9142,222.9316 C419.1871,233.8978 404.9824,242.2265 396.4691,244.1398 C385.3586,246.6365 374.5839,237.1764 373.1988,228.5626 C371.3564,217.1034 378.0117,204.0708 389.5720,206.5345 C400.1469,208.7881 408.0990,214.5136 412.9142,222.9316 Z Z M361.2183,195.9318 C360.1921,202.1431 359.0989,215.5678 360.1018,221.7874 C361.4227,229.9791 362.3574,236.8998 366.1600,243.2771 C377.5482,262.3738 390.2284,272.1327 414.3292,277.7782 C430.6870,281.6099 448.5809,272.2351 454.9253,264.1802 C463.9313,252.7464 464.3990,235.0160 459.3220,219.5083 C453.8457,202.7817 449.0617,195.4363 439.6660,183.3357 C417.5412,154.8409 383.2027,152.0427 369.5861,176.6386 C365.9234,183.2548 362.5731,187.7314 361.2183,195.9318 Z"
     style="fill-rule: evenodd; fill: #71859e; "
     id="path62" />
  <path
     d="  M280.7884,242.3806 C295.7592,239.4847 291.2361,215.1062 275.6147,218.6370 C269.0766,220.1148 264.5166,224.2448 265.8061,233.0058 C266.7757,239.5922 272.8306,243.9198 280.7884,242.3806 Z Z M280.4993,226.0716 C280.4993,227.9111 279.0083,229.4021 277.1688,229.4021 C275.3294,229.4021 273.8384,227.9111 273.8384,226.0716 C273.8384,224.2322 275.3294,222.7412 277.1688,222.7412 C279.0083,222.7412 280.4993,224.2322 280.4993,226.0716 Z"
     style="fill-rule: evenodd; fill: #71859e; "
     id="path63" />
  <path
     d="  M389.4918,217.3375 C374.5299,220.0343 376.9931,243.2993 393.7255,241.4739 C409.4028,239.7634 407.0497,214.1726 389.4918,217.3375 Z Z M391.0933,226.0716 C391.0933,227.9111 389.6023,229.4021 387.7629,229.4021 C385.9234,229.4021 384.4324,227.9111 384.4324,226.0716 C384.4324,224.2322 385.9234,222.7412 387.7629,222.7412 C389.6023,222.7412 391.0933,224.2322 391.0933,226.0716 Z"
     style="fill-rule: evenodd; fill: #71859e; "
     id="path64" />
  <path
     d="  M398.1024,126.9343 C399.4369,128.1617 418.4150,135.8530 422.4750,138.1323 C426.7990,140.5598 442.4921,150.6089 444.9180,151.0952 C443.8009,145.7828 429.7965,133.3640 425.5451,129.7113 C412.3257,118.3535 398.7189,118.8934 398.1024,126.9343 Z"
     style="fill-rule: evenodd; fill: #71859e; "
     id="path65" />
  <path
     d="  M243.5727,139.4111 C248.2735,136.0856 261.4074,130.0387 266.4070,127.7251 C269.5633,126.2644 277.6231,124.4177 279.3696,122.4176 C279.1771,118.8447 276.8863,117.8497 274.0170,117.0546 C266.8752,116.5107 264.7118,116.9123 259.6070,120.0267 C255.9437,122.2620 252.6780,125.4529 249.4894,126.9560 C247.2055,130.8244 234.1973,139.8895 232.7658,145.6765 C235.2162,145.2013 241.1221,141.1445 243.5727,139.4111 Z"
     style="fill-rule: evenodd; fill: #71859e; "
     id="path66" />
  <path
     d="  M470.9380,656.6198 C463.3893,665.4355 444.6393,684.8365 439.2445,692.6533 C437.1091,695.7473 431.8225,704.0278 430.7103,706.6771 C425.5695,718.9226 431.7047,734.7333 437.5397,741.8148 C443.0877,748.5479 454.3284,756.0933 465.2360,758.4455 C474.9705,758.9090 480.8683,760.3046 490.8719,758.6997 C511.0531,755.4621 530.8980,746.6108 548.9105,737.6399 L565.0121,727.3670 C575.9860,720.0747 584.9914,712.3580 593.5794,703.1954 C597.1533,699.3825 602.0180,695.8517 606.7227,690.0166 C623.2380,669.5331 634.8662,650.5272 613.1407,627.9718 C595.2575,609.4056 607.6070,602.2145 585.9237,588.8228 C575.4246,582.3384 575.8872,585.7454 562.0495,573.5942 C558.8591,570.7926 557.4080,569.7992 554.5035,567.3064 C541.6221,560.9639 530.4567,562.0689 520.1680,570.3001 C499.2775,587.0134 502.3023,619.9914 470.9380,656.6198 Z Z M530.5384,716.1869 C506.3354,711.5672 485.8288,684.5602 490.7874,658.1400 C491.2693,655.5731 491.7953,652.7209 492.5155,650.2264 C493.2480,647.6900 495.2977,645.2447 495.3483,643.3903 C498.5445,641.2459 505.4834,635.4905 511.7012,639.0981 C514.1063,640.4935 520.9202,647.1001 522.9528,649.6276 C529.2274,657.4296 536.9136,667.4854 544.5001,671.7696 C562.0625,681.6871 592.7354,685.4742 570.0842,706.7622 C568.9775,707.8021 568.2302,708.2139 567.0687,709.0095 L564.4457,711.1611 C564.3234,711.2900 564.1378,711.5322 564.0396,711.6412 C563.9398,711.7520 563.7597,711.9639 563.6365,712.1380 C560.2274,712.2705 548.3710,719.5908 530.5384,716.1869 Z Z M575.2718,648.7379 C551.9059,662.5771 542.1733,638.7443 558.5571,620.0089 C562.1330,615.9198 566.1987,613.6365 570.9892,611.9985 C595.1969,603.7219 594.4443,637.3825 575.2718,648.7379 Z Z M550.0752,609.2852 C547.3493,638.6801 517.4506,639.8657 519.5540,611.7335 C520.2926,601.8545 526.3333,592.0305 534.3720,589.6301 C545.1110,586.4232 551.0346,598.9391 550.0752,609.2852 Z Z M588.2817,675.1816 C570.5637,680.2563 564.2722,659.2556 588.1263,650.1425 C596.4267,646.9715 606.2592,651.2709 603.2762,661.7314 C601.4017,668.3044 594.2552,673.4710 588.2817,675.1816 Z"
     style="fill-rule: evenodd; fill: #71859e; "
     id="path67" />
  <path
     d="  M236.6995,736.1748 C240.5880,728.7596 243.1975,713.7133 237.9893,705.0389 C232.6020,696.0668 228.5584,689.9336 221.3423,682.4800 C219.6208,680.7023 218.4986,678.8293 216.8482,677.2090 C205.8517,666.4141 194.2463,653.5642 186.1342,640.1506 C181.7449,632.8925 176.5744,623.6946 172.8667,614.9954 C166.3787,599.7730 165.1918,587.5740 153.8299,575.3479 C150.9402,572.2383 147.3159,568.0405 142.9477,567.6871 L139.0382,565.3154 C119.4831,557.9043 108.4867,574.0637 96.6970,581.9366 C85.4514,589.4459 78.8023,588.6841 70.3479,600.0579 C65.9048,606.0353 66.7208,609.2771 64.3778,615.9405 C60.6846,626.4442 52.1990,627.8688 45.5753,641.5186 C35.1344,663.0355 55.7593,686.2104 69.9911,700.5881 C71.9246,702.5415 73.6301,704.5160 75.3675,706.5576 C77.3655,708.9047 79.3159,709.5291 81.6093,711.5356 C87.4317,716.6301 90.6772,719.7798 96.9974,723.9662 C98.2810,724.8163 98.8247,725.4187 99.9427,726.3137 C102.7823,728.5868 103.5002,728.3369 105.1584,729.4224 L119.2044,738.9566 C123.2866,740.0470 125.9913,741.6022 129.4698,743.4903 C132.8474,745.3234 135.9250,746.2604 139.3378,747.9118 C149.1359,752.6530 174.0497,759.9348 183.6447,760.6702 C188.2521,761.0233 193.3618,761.0869 197.9798,760.7376 C202.5104,760.3949 205.8544,758.8305 210.3543,758.1442 C210.5576,757.9948 212.2027,757.4332 213.5180,756.8144 C214.6298,756.2911 213.8053,756.8750 215.0566,755.9209 C216.4897,754.8283 215.2333,756.0750 216.3019,754.5129 C223.1196,754.0149 233.6811,741.9304 236.6995,736.1748 Z Z M170.4204,642.3545 C177.6510,648.6754 180.2006,665.0917 177.8725,677.2329 C176.6602,683.5543 175.3397,686.8855 172.1537,692.7912 C169.6323,697.4647 166.3819,701.9545 162.8895,705.3841 C156.1245,712.0264 147.0711,718.2340 135.0927,720.1932 C120.8481,722.5228 109.5846,719.7785 99.8686,713.6175 C91.6355,708.3966 80.2322,695.0470 92.4024,687.5902 C97.3948,684.5316 100.7030,683.2613 106.4580,680.5495 C125.4314,671.6096 128.0352,671.3644 143.0534,652.4205 C146.6896,647.8338 149.1120,646.0831 153.7441,642.0654 C156.5628,639.6205 156.6271,639.0401 161.8533,639.3514 C165.2513,639.5537 168.2184,640.4295 170.4204,642.3545 Z Z M93.0138,666.3172 C95.3686,676.4097 85.7134,680.4707 77.0226,677.7075 C70.3615,675.5898 62.6047,670.2349 61.2815,663.6823 C60.1106,657.8837 61.1197,654.3890 65.0713,652.6447 C76.7727,647.4800 90.6817,656.3215 93.0138,666.3172 Z Z M84.8488,612.1780 C96.3342,608.9940 107.6820,618.7831 111.9849,626.2621 C118.5147,637.6127 118.6775,652.1349 106.8726,654.6075 C83.1497,659.5759 63.0936,618.2089 84.8488,612.1780 Z Z M147.1940,605.2779 C154.9005,637.7666 124.8279,643.3259 117.4945,616.8135 C115.9636,611.2790 115.8906,605.1644 117.5538,599.8522 C119.3437,594.1358 121.8182,592.2083 126.6654,589.9715 C136.4064,585.4768 145.6420,598.7347 147.1940,605.2779 Z"
     style="fill-rule: evenodd; fill: #71859e; "
     id="path68" />
  <path
     d="  M159.1127,536.1579 C166.1713,534.9345 190.3694,510.1961 196.1521,502.9896 C228.7991,462.3041 257.4129,421.7906 320.7500,415.8218 C354.1349,415.5997 371.3323,415.1752 400.8355,427.7940 C404.2556,429.2568 405.9365,430.0146 408.6047,431.9797 C411.3336,433.9892 412.9765,433.9707 416.2246,435.6044 C429.9446,442.5051 443.4123,456.7484 452.9680,467.4511 L474.4193,492.6249 C486.6175,508.1232 502.9948,528.3731 520.4349,538.4655 C531.6417,544.9507 538.6719,547.6990 552.5614,551.4788 C566.0867,552.7891 576.9659,555.4080 592.8334,548.9572 L597.3014,546.1728 C607.3889,545.0807 630.1903,519.5822 618.1575,493.6329 C607.3368,470.2978 586.1262,457.2761 569.2208,442.9842 L487.1337,384.7471 C484.7904,384.4260 482.7173,382.3622 480.2622,380.6500 C478.0381,379.0988 476.0187,377.8358 473.9674,376.4060 C472.3313,375.2657 463.3483,367.5319 461.8330,368.4143 C454.7627,370.7460 448.9415,374.5213 442.4998,377.4327 C438.7426,379.1306 426.9343,384.4928 422.3265,385.2855 L416.0259,386.9807 C412.7979,389.9889 400.0133,392.1542 394.5690,393.4134 C386.4170,395.2985 380.1684,396.7885 371.1071,397.4557 C351.7650,398.8801 338.6511,399.4646 318.6422,398.0709 C313.6010,396.1404 287.2704,397.5667 238.6634,376.9299 C234.3590,375.1024 218.5660,365.3529 216.4298,366.8874 L190.8999,386.3124 C165.0956,405.3195 100.7698,445.8458 79.4363,464.5373 C68.5106,474.1101 60.1682,482.2397 55.6982,499.5712 C47.6610,530.7336 82.6094,559.9840 116.3182,551.9884 C126.0248,549.6859 131.0193,549.9972 139.9916,546.1937 C143.9545,544.5139 156.5603,539.8244 159.1127,536.1579 Z Z M137.7715,523.8201 C144.8457,519.9517 153.4761,527.4103 150.0230,534.9533 C143.2151,549.8238 123.1989,531.7884 137.7715,523.8201 Z Z M521.8971,533.4476 C518.1589,520.3068 536.5947,518.0752 538.2966,529.0135 C540.1181,540.7181 524.6074,542.9745 521.8971,533.4476 Z Z M545.9635,535.2132 C549.1098,525.1205 565.5782,528.9953 562.0066,540.2228 C557.9643,552.9293 543.0029,544.7096 545.9635,535.2132 Z Z M590.9655,516.0283 C594.4699,509.5034 605.4669,510.1807 606.9997,518.4262 C609.9895,534.5079 583.5181,529.8946 590.9655,516.0283 Z Z M84.8718,514.8322 C88.6184,527.0737 71.0079,530.6084 67.8911,520.6500 C64.1817,508.7986 81.9104,505.1557 84.8718,514.8322 Z Z M84.9168,531.6943 C88.5518,521.3390 106.9979,528.0246 101.5192,538.7173 C96.2636,548.9742 80.7796,543.4807 84.9168,531.6943 Z Z M125.3048,536.6911 C128.8523,549.6656 111.0572,552.1301 108.0655,542.4811 C106.3677,537.0052 109.7498,532.3339 114.1773,531.1184 C119.3448,529.6995 124.3028,533.0263 125.3048,536.6911 Z Z M587.1575,533.5470 C589.3081,545.4364 572.7153,546.9967 570.4561,537.2116 C567.8997,526.1389 585.0919,522.1277 587.1575,533.5470 Z"
     style="fill-rule: evenodd; fill: #71859e; "
     id="path69" />
  <path
     d="  M249.4111,530.6094 C249.0723,530.7277 247.5550,531.0279 247.2339,531.0279 C240.0189,531.0279 236.7232,519.7002 241.0589,511.0240 C242.0380,509.0644 244.4335,506.3002 246.8880,506.3002 L248.2722,506.3002 C253.2413,506.3002 255.8865,513.3323 255.8865,517.8859 C255.8865,522.0786 255.0400,526.7210 251.8067,529.1989 C251.0218,529.8005 250.6864,530.1643 249.4111,530.6094 Z Z M234.6012,518.2320 C234.6012,524.0809 235.0587,527.0020 238.7801,531.6939 C242.9148,536.9060 252.0269,537.1559 257.0263,530.2648 C260.7585,525.1205 261.3793,518.3105 259.6237,512.0765 C258.8873,509.4618 257.5354,507.1821 255.8387,505.1370 C254.5614,503.5971 250.9988,501.6311 248.4451,501.6311 C245.4064,501.6311 244.1723,501.8287 241.6596,503.4968 C237.4009,506.3247 234.6012,513.3086 234.6012,518.2320 Z"
     style="fill-rule: evenodd; fill: #71859e; "
     id="path70" />
  <path
     d="  M230.6208,533.7948 L230.6208,503.1876 C230.6208,501.3170 225.9486,500.2586 225.9486,504.0518 L225.9486,533.1027 C225.9486,536.7763 230.6208,536.0742 230.6208,533.7948 Z"
     style="fill-rule: evenodd; fill: #71859e; "
     id="path71" />
  <path
     d="  M226.1219,558.6951 C226.1219,557.5563 225.0325,556.6203 223.8721,556.6203 C222.7906,556.6203 222.4263,557.2355 221.7951,557.6580 C219.0822,556.3570 215.3824,556.2439 212.6228,557.4841 C208.9890,559.1177 206.3935,562.4931 206.3935,566.6498 C206.3935,572.1715 210.7286,576.5064 215.5655,576.5064 C220.4667,576.5064 219.6004,575.7666 221.6223,575.2960 L221.6148,588.0996 C221.6148,591.2962 224.8287,590.7045 225.5357,589.9275 C225.5709,589.8883 225.8741,589.4465 225.8899,589.4167 C226.0666,589.0870 226.1219,589.0614 226.1219,588.6109 L226.1219,558.6951 Z Z M220.2851,562.2793 C222.1312,563.9181 221.6223,565.0035 221.6223,568.5520 C221.6223,569.4627 218.1480,573.4660 213.9444,571.3818 C211.4577,570.1486 211.0661,568.6173 211.0661,566.1308 C211.0661,562.1105 217.4131,559.7305 220.2851,562.2793 Z"
     style="fill-rule: evenodd; fill: #71859e; "
     id="path72" />
  <path
     d="  M233.5629,619.2178 C232.7404,618.9984 230.7941,617.4987 230.7941,615.5865 C230.7941,613.8068 232.2855,612.3515 233.7306,611.9413 C235.9465,611.3123 236.7531,613.3834 237.3700,614.5490 C236.7510,615.2607 233.7018,618.6982 233.5629,619.2178 Z Z M238.4803,608.4248 C235.0144,606.1368 230.1770,607.2665 227.6054,611.0169 C226.7509,612.2636 226.1219,614.1416 226.1219,615.7594 C226.1219,619.0211 228.3108,621.3622 230.2749,622.6763 C228.9617,625.1561 221.4332,630.1149 224.6174,636.4570 C225.2849,637.7860 226.3630,638.9174 227.6209,639.6807 C235.9541,644.7385 248.7455,636.8695 241.4910,626.1672 C240.8308,625.1935 240.3874,624.7447 239.5765,623.9297 L237.1969,621.9847 L240.4409,618.1361 C240.9245,617.6398 241.0839,617.3376 241.5672,616.8410 L245.3675,612.3382 C246.1210,611.2459 245.6633,608.8427 243.2537,608.8427 C242.0678,608.8427 241.4381,610.0496 240.6577,610.5720 C239.9945,609.5816 239.5261,609.1156 238.4803,608.4248 Z Z M228.5443,633.2247 C228.5443,631.4900 229.6405,630.5678 230.3187,629.8098 C230.6520,629.4368 230.6511,629.3200 231.0073,628.9417 C231.3237,628.6050 231.5781,628.4219 231.8604,628.0649 L233.4604,626.2056 C233.7564,625.8110 233.8894,625.6879 234.2549,625.4431 L236.6327,627.3903 C236.9151,627.7064 236.9067,627.8024 237.2407,628.1660 C239.0748,630.1636 240.0007,633.6944 237.1257,635.5744 C233.6698,637.8340 228.5443,636.4384 228.5443,633.2247 Z"
     style="fill-rule: evenodd; fill: #71859e; "
     id="path73" />
  <path
     d="  M284.6130,647.0581 L270.2498,647.0581 C269.4325,647.0581 268.6807,647.2290 268.2100,647.6140 C267.8299,647.9249 267.3082,648.7098 267.3082,649.3064 C267.3082,652.5980 271.2034,651.7271 273.5380,651.7271 L282.1902,651.7271 L277.8611,661.5806 C276.5338,664.5728 271.1151,676.9737 271.1151,679.0487 C271.1151,681.1875 274.5266,682.0296 275.5003,679.9722 L284.2682,658.2992 C284.5337,657.7096 284.8444,656.9790 285.1324,656.3962 L286.8639,652.5929 C287.4936,651.1962 287.5547,651.5867 287.5547,649.8252 C287.5547,647.8248 286.5940,647.0581 284.6130,647.0581 Z"
     style="fill-rule: evenodd; fill: #71859e; "
     id="path74" />
  <path
     d="  M332.7895,680.1541 C331.9393,680.3107 331.4067,680.6007 330.6449,680.7780 C331.1310,678.6940 335.4052,672.2822 337.3492,670.3580 C338.7698,668.9522 339.8165,668.4642 339.8165,666.5983 C339.8165,665.2157 337.5767,662.8295 334.6733,666.3008 L332.5980,668.7228 C328.9049,673.0530 324.4149,681.1702 324.4149,687.0031 C324.4149,693.1851 327.5406,698.3714 333.8112,698.6706 C335.2362,698.7387 336.6743,698.3065 337.8435,697.8281 C339.7981,697.0268 342.0400,694.8336 342.9916,692.9427 C344.8811,689.1889 344.5442,685.3961 341.5068,682.3744 C339.3321,680.2108 336.0448,679.5548 332.7895,680.1541 Z Z M334.7979,684.5824 C340.6306,684.5824 340.5984,690.3640 337.3266,692.8157 C332.6889,696.2898 329.0871,691.9508 329.0871,688.3865 C329.0871,686.9677 332.4329,684.5824 334.7979,684.5824 Z"
     style="fill-rule: evenodd; fill: #71859e; "
     id="path75" />
  <path
     d="  M382.5603,675.9361 C382.5603,678.4062 384.8364,680.3689 386.7454,681.6107 C389.4753,683.3870 394.4199,683.7704 397.8467,681.8736 C398.9756,681.2483 399.5724,680.6628 400.4316,679.7874 C404.5409,675.5994 404.4254,666.2225 397.5877,662.9949 C394.8358,661.6962 391.3282,661.8398 388.6171,663.1402 L388.6171,653.8022 L401.7691,653.8022 C405.0895,653.8022 404.9589,649.1334 401.9422,649.1334 L386.0214,649.1334 C384.8447,649.1334 383.9446,650.1931 383.9446,651.5541 L383.9446,665.9067 C383.9446,669.0295 388.1169,668.6033 390.0016,667.6362 C391.8210,666.7024 393.9769,666.3318 395.8334,667.3420 L397.3485,668.5950 C400.5295,672.8174 397.0896,678.5301 393.2893,678.5301 C390.1646,678.5301 388.2438,677.5419 386.9462,675.1848 C385.6533,672.8343 382.5603,674.0444 382.5603,675.9361 Z"
     style="fill-rule: evenodd; fill: #71859e; "
     id="path76" />
  <path
     d="  M436.0332,628.9016 L436.0332,641.8707 C436.0332,642.4239 436.3722,643.0092 436.6889,643.2907 C438.3402,644.7612 440.5326,643.4324 440.5326,642.0436 L440.5326,628.9016 C441.6130,628.9016 442.8201,629.0330 443.6107,628.3461 C444.5774,627.5077 444.6653,625.5609 443.4889,624.7366 C442.6437,624.1448 441.6213,624.2328 440.5326,624.2328 L440.5326,611.6093 C440.5326,608.8783 436.0332,609.0262 436.0332,611.6093 L436.0332,624.2328 L427.2075,624.2328 L427.2075,612.1278 C427.2075,610.7555 426.3695,609.7423 425.0712,609.5983 C423.8269,609.4602 422.5352,610.5833 422.5352,611.7821 L422.5352,626.4804 C422.5352,627.9938 423.4438,628.9016 424.9579,628.9016 L436.0332,628.9016 Z"
     style="fill-rule: evenodd; fill: #71859e; "
     id="path77" />
  <path
     d="  M439.0394,581.2789 C441.4487,589.3593 452.6846,590.6883 457.5675,584.1909 C460.6171,580.1332 460.1261,572.9839 456.8264,570.4268 C455.8200,569.6473 455.9306,569.8468 456.4749,569.0923 C461.4815,562.1506 456.6377,554.1994 451.2619,554.1994 C449.6679,554.1994 448.3479,554.2135 446.8793,554.8346 C446.3799,555.0459 446.0806,555.2145 445.6506,555.5092 C443.7149,556.8346 441.5709,559.9774 441.5709,561.2891 C441.5709,563.8693 444.1498,564.2608 445.4158,563.2291 C445.7844,562.9291 445.7897,562.8834 446.0178,562.4470 C447.2021,560.1774 448.9735,557.7415 451.9606,559.0346 C453.8950,559.8718 454.4044,562.3540 453.5376,564.7736 C453.2482,565.5796 452.9970,565.8918 452.5235,566.5273 C450.2707,569.5538 448.2695,567.2823 446.4544,568.7628 C445.2635,569.7342 445.3192,571.6701 446.4783,572.4669 C448.5753,573.9098 455.5388,570.4874 454.9654,577.9681 C454.4398,584.8244 446.6693,584.6563 444.4067,581.6270 C443.0004,579.7438 443.5516,578.2355 440.8787,578.2355 C439.7191,578.2355 438.4801,579.4034 439.0394,581.2789 Z"
     style="fill-rule: evenodd; fill: #71859e; "
     id="path78" />
  <path
     d="  M425.4768,532.4111 L440.1862,532.4111 C443.0988,532.4111 443.3542,528.7851 441.2380,527.9023 C440.4122,527.5573 432.2952,527.7425 431.0146,527.7425 C431.1196,527.3505 432.3287,526.0061 432.7015,525.6233 C433.1244,525.1888 433.1957,525.0098 433.5695,524.5886 L436.2468,521.3851 C440.4254,516.3699 445.5893,509.1026 441.1264,502.5937 C440.3441,501.4527 439.9451,501.1414 438.9249,500.2983 C435.5080,497.4727 430.0456,497.6279 426.7309,500.9818 C425.8656,501.8575 423.4003,504.5117 423.4003,505.7814 C423.4003,508.6831 426.5549,509.2439 427.8306,507.0957 C428.9701,505.1764 430.5558,502.8417 433.0911,502.8417 C434.7195,502.8417 436.2393,503.8639 437.0252,504.7902 C437.5047,505.3557 437.7841,505.9137 438.0049,506.7517 C438.2738,507.7756 438.1953,508.1492 438.1024,509.2300 C437.8289,512.4111 432.8368,518.6215 430.6269,520.9566 C429.0949,522.5758 427.4682,524.7612 425.7764,526.4854 C425.1486,527.1252 423.2275,529.1974 423.2275,529.9906 C423.2275,531.3392 423.6035,532.4111 425.4768,532.4111 Z"
     style="fill-rule: evenodd; fill: #71859e; "
     id="path79" />
  <path
     d="  M390.0014,488.4891 C390.0014,491.2564 394.6740,491.1610 394.6740,488.4891 L394.6740,458.4005 C394.6740,455.7869 390.0014,455.6027 390.0014,458.4005 L390.0014,488.4891 Z"
     style="fill-rule: evenodd; fill: #71859e; "
     id="path80" />
  <path
     d="  M346.6660,307.9285 C354.0805,302.6071 374.2971,303.3617 372.7844,286.5709 C371.3956,271.1577 347.3492,263.0108 331.2530,263.9143 C314.7960,264.8379 290.2731,274.0464 293.8581,290.2924 C295.5151,297.8015 305.6073,301.6321 311.8014,304.3004 C316.2688,306.2248 318.4699,307.0647 322.6258,309.4022 C331.9598,314.6521 338.0820,314.0889 346.6660,307.9285 Z Z M314.5670,271.9513 C329.9767,268.4628 337.4879,282.3147 322.6332,285.2126 C308.9695,287.8783 298.0551,275.6895 314.5670,271.9513 Z"
     style="fill-rule: evenodd; fill: #71859e; "
     id="path81" />
  <path
     d="  M378.3531,325.2976 C352.9354,337.9844 332.6689,340.1371 304.4989,330.5562 C300.4045,329.1643 282.2051,321.4284 281.0769,318.1462 C282.6142,317.4334 285.3068,317.8081 286.8754,316.6405 C282.2506,313.7857 270.4267,316.6959 269.1888,320.4045 C270.6576,320.9905 272.0988,319.4067 275.5263,319.4229 C278.7821,321.7028 292.4648,340.6572 295.4848,344.8469 C309.5117,364.3067 319.2392,384.8478 349.3317,376.9148 C355.2674,375.3499 359.6385,372.1849 363.3770,368.3699 C366.2384,365.4492 371.2635,357.0987 373.0183,355.9045 C373.4376,352.0748 379.8503,342.9268 382.4231,338.4816 C384.4743,334.9376 390.4484,323.7243 392.3941,321.9064 L393.7163,319.7129 C397.7684,319.9081 396.1383,320.9107 399.9094,322.1084 C398.6854,317.7168 395.0970,314.9973 389.1994,315.4273 L389.5201,318.4791 C385.3065,321.0396 383.4468,322.7552 378.3531,325.2976 Z Z M336.0648,356.1403 C351.1831,351.7521 360.9545,363.5120 360.0011,367.0782 C357.0012,371.4483 345.5420,374.6980 338.7734,374.7870 C330.4618,374.8963 320.5778,372.8170 316.8076,367.0782 C316.9706,362.4702 321.4506,358.3496 325.3179,357.4738 C332.6512,355.8132 334.6052,359.6583 338.7160,361.8302 C337.8403,358.8607 336.4304,359.0350 336.0648,356.1403 Z"
     style="fill-rule: evenodd; fill: #71859e; "
     id="path82" />
  <path
     d="  M276.1335,492.9853 L276.1335,463.5887 C276.1335,460.2882 271.4612,460.5573 271.4612,463.2428 L271.4612,493.3310 C271.4612,495.9890 276.1335,496.2255 276.1335,492.9853 Z"
     style="fill-rule: evenodd; fill: #71859e; "
     id="path83" />
  <path
     d="  M288.9392,463.7616 L288.9392,492.8120 C288.9392,496.3326 293.6118,495.8789 293.6118,493.5038 L293.6118,463.0700 C293.6118,460.7325 288.9392,460.1198 288.9392,463.7616 Z"
     style="fill-rule: evenodd; fill: #71859e; "
     id="path84" />
  <path
     d="  M320.6079,446.6421 L320.6079,476.7307 C320.6079,479.3657 325.2802,479.7039 325.2802,476.3848 L325.2802,446.9878 C325.2802,446.2753 325.0591,445.7414 324.6935,445.3261 C323.3750,443.8277 320.6079,444.7481 320.6079,446.6421 Z"
     style="fill-rule: evenodd; fill: #71859e; "
     id="path85" />
  <path
     d="  M340.1223,464.9312 L331.4630,474.9547 C329.7631,476.6467 330.9389,478.8056 332.5485,478.8056 L347.7769,478.8056 C350.4966,478.8056 350.8643,475.0289 348.5048,474.2739 C347.6535,474.0014 339.7145,474.1370 338.4322,474.1370 C338.9228,473.4044 339.6473,472.7490 340.1628,472.0615 C341.9690,469.6557 344.9541,466.6161 346.9476,463.6244 C349.5169,459.7681 351.5032,454.9527 349.3381,450.2698 C349.0082,449.5575 347.9489,448.0994 347.3932,447.5444 C346.9831,447.1351 346.6357,446.8959 346.1485,446.5401 C344.3099,445.1962 342.5136,444.7400 340.1628,444.7400 C337.4794,444.7400 335.7755,446.0976 334.2506,447.3054 C333.8334,447.6359 333.5451,447.9673 333.2399,448.3704 C332.9107,448.8055 332.6130,449.1476 332.2494,449.6290 C331.8883,450.1072 331.7586,450.3614 331.4346,450.8899 C331.1502,451.3545 330.8179,451.8444 330.8179,452.5213 C330.8179,454.6000 333.7890,455.8814 335.2879,453.5296 C336.2302,452.0512 337.9625,449.2359 340.3359,449.2359 C343.2188,449.2359 345.7004,451.7772 345.7004,454.4237 C345.7004,458.0576 343.0927,461.1518 341.1284,463.6886 C340.7740,464.1463 340.4829,464.4976 340.1223,464.9312 Z"
     style="fill-rule: evenodd; fill: #71859e; "
     id="path86" />
  <path
     d="  M332.7823,560.2901 C339.0435,560.2901 344.1209,565.3675 344.1209,571.6287 C344.1209,577.8899 339.0435,582.9673 332.7823,582.9673 C326.5211,582.9673 321.4437,577.8899 321.4437,571.6287 C321.4437,565.3675 326.5211,560.2901 332.7823,560.2901 Z"
     style="stroke-width: 0.2160; stroke: #1b1918; stroke-dasharray: none; stroke-linecap: butt; stroke-linejoin: miter; fill: none; "
     id="path88" />
  <path
     d="  M332.7823,560.2901 C339.0435,560.2901 344.1209,565.3675 344.1209,571.6287 C344.1209,577.8899 339.0435,582.9673 332.7823,582.9673 C326.5211,582.9673 321.4437,577.8899 321.4437,571.6287 C321.4437,565.3675 326.5211,560.2901 332.7823,560.2901 Z"
     style="stroke-width: 0.2160; stroke: #1b1918; stroke-dasharray: none; stroke-linecap: butt; stroke-linejoin: miter; fill: none; "
     id="path89" />
  <text
     xml:space="preserve"
     style="font-size:60.374px;text-align:start;writing-mode:lr-tb;direction:ltr;text-anchor:start;fill:#000000;fill-opacity:1;stroke-width:5.03907;stroke-dasharray:none"
     x="334.08099"
     y="450.43942"
     id="text199-8"
     transform="scale(0.75229385,1.3292678)"><tspan
       id="tspan199-2"
       style="fill-opacity:1;stroke-width:5.03907;stroke-dasharray:none"
       x="334.08099"
       y="450.43942"
       sodipodi:role="line">EE   SA</tspan></text>
  <text
     xml:space="preserve"
     transform="scale(0.75000153)"
     id="text200"
     style="text-align:start;writing-mode:lr-tb;text-orientation:auto;direction:ltr;fill-opacity:1;stroke-width:1.0015748;stroke-dasharray:none;white-space:pre;shape-inside:url(#rect200)" />
</svg>
