  0
SECTION
  2
HEADER
  9
$ACADVER
  1
AC1015
  9
$ACADMAINTVER
 70
     6
  9
$DWGCODEPAGE
  3
ANSI_1252
  9
$INSBASE
 10
0.0
 20
0.0
 30
0.0
  9
$EXTMIN
 10
53.7266237865
 20
29.5839352456
 30
0.0
  9
$EXTMAX
 10
78.5915392584
 20
54.4131683331
 30
0.0
  9
$LIMMIN
 10
0.0
 20
0.0
  9
$LIMMAX
 10
420.0
 20
297.0
  9
$ORTHOMODE
 70
     0
  9
$REGENMODE
 70
     1
  9
$FILLMODE
 70
     1
  9
$QTEXTMODE
 70
     0
  9
$MIRRTEXT
 70
     1
  9
$LTSCALE
 40
1.0
  9
$ATTMODE
 70
     1
  9
$TEXTSIZE
 40
3.5
  9
$TRACEWID
 40
1.0
  9
$TEXTSTYLE
  7
Standard
  9
$CLAYER
  8
0
  9
$CELTYPE
  6
ByLayer
  9
$CECOLOR
 62
   256
  9
$CELTSCALE
 40
1.0
  9
$DISPSILH
 70
     0
  9
$DIMSCALE
 40
1.0
  9
$DIMASZ
 40
3.302
  9
$DIMEXO
 40
0.0
  9
$DIMDLI
 40
3.75
  9
$DIMRND
 40
0.0
  9
$DIMDLE
 40
0.0
  9
$DIMEXE
 40
1.0
  9
$DIMTP
 40
0.0
  9
$DIMTM
 40
0.0
  9
$DIMTXT
 40
3.5
  9
$DIMCEN
 40
2.5
  9
$DIMTSZ
 40
0.0
  9
$DIMTOL
 70
     0
  9
$DIMLIM
 70
     0
  9
$DIMTIH
 70
     1
  9
$DIMTOH
 70
     1
  9
$DIMSE1
 70
     0
  9
$DIMSE2
 70
     0
  9
$DIMTAD
 70
     1
  9
$DIMZIN
 70
     1
  9
$DIMBLK
  1

  9
$DIMASO
 70
     1
  9
$DIMSHO
 70
     1
  9
$DIMPOST
  1

  9
$DIMAPOST
  1

  9
$DIMALT
 70
     0
  9
$DIMALTD
 70
     3
  9
$DIMALTF
 40
0.0393700787
  9
$DIMLFAC
 40
1.0
  9
$DIMTOFL
 70
     1
  9
$DIMTVP
 40
0.0
  9
$DIMTIX
 70
     0
  9
$DIMSOXD
 70
     0
  9
$DIMSAH
 70
     0
  9
$DIMBLK1
  1

  9
$DIMBLK2
  1

  9
$DIMSTYLE
  2
ISO-25
  9
$DIMCLRD
 70
     0
  9
$DIMCLRE
 70
     0
  9
$DIMCLRT
 70
     0
  9
$DIMTFAC
 40
1.0
  9
$DIMGAP
 40
1.524
  9
$DIMJUST
 70
     0
  9
$DIMSD1
 70
     0
  9
$DIMSD2
 70
     0
  9
$DIMTOLJ
 70
     0
  9
$DIMTZIN
 70
     1
  9
$DIMALTZ
 70
     0
  9
$DIMALTTZ
 70
     0
  9
$DIMUPT
 70
     0
  9
$DIMDEC
 70
     2
  9
$DIMTDEC
 70
     2
  9
$DIMALTU
 70
     2
  9
$DIMALTTD
 70
     3
  9
$DIMTXSTY
  7
Standard
  9
$DIMAUNIT
 70
     0
  9
$DIMADEC
 70
     2
  9
$DIMALTRND
 40
0.0
  9
$DIMAZIN
 70
     0
  9
$DIMDSEP
 70
    44
  9
$DIMATFIT
 70
     3
  9
$DIMFRAC
 70
     0
  9
$DIMLDRBLK
  1

  9
$DIMLUNIT
 70
     2
  9
$DIMLWD
 70
    -2
  9
$DIMLWE
 70
    -2
  9
$DIMTMOVE
 70
     0
  9
$LUNITS
 70
     2
  9
$LUPREC
 70
     2
  9
$SKETCHINC
 40
1.0
  9
$FILLETRAD
 40
0.0
  9
$AUNITS
 70
     0
  9
$AUPREC
 70
     2
  9
$MENU
  1
.
  9
$ELEVATION
 40
0.0
  9
$PELEVATION
 40
0.0
  9
$THICKNESS
 40
0.0
  9
$LIMCHECK
 70
     0
  9
$CHAMFERA
 40
0.0
  9
$CHAMFERB
 40
0.0
  9
$CHAMFERC
 40
0.0
  9
$CHAMFERD
 40
0.0
  9
$SKPOLY
 70
     0
  9
$TDCREATE
 40
2460955.789237222
  9
$TDUCREATE
 40
2460955.747570556
  9
$TDUPDATE
 40
2460955.789273391
  9
$TDUUPDATE
 40
2460955.747606725
  9
$TDINDWG
 40
0.0000000116
  9
$TDUSRTIMER
 40
0.0000000116
  9
$USRTIMER
 70
     1
  9
$ANGBASE
 50
0.0
  9
$ANGDIR
 70
     0
  9
$PDMODE
 70
     0
  9
$PDSIZE
 40
-1.0
  9
$PLINEWID
 40
0.0
  9
$SPLFRAME
 70
     0
  9
$SPLINETYPE
 70
     6
  9
$SPLINESEGS
 70
     8
  9
$HANDSEED
  5
6B
  9
$SURFTAB1
 70
     6
  9
$SURFTAB2
 70
     6
  9
$SURFTYPE
 70
     6
  9
$SURFU
 70
     6
  9
$SURFV
 70
     6
  9
$UCSBASE
  2

  9
$UCSNAME
  2

  9
$UCSORG
 10
0.0
 20
0.0
 30
0.0
  9
$UCSXDIR
 10
1.0
 20
0.0
 30
0.0
  9
$UCSYDIR
 10
0.0
 20
1.0
 30
0.0
  9
$UCSORTHOREF
  2

  9
$UCSORTHOVIEW
 70
     0
  9
$UCSORGTOP
 10
0.0
 20
0.0
 30
0.0
  9
$UCSORGBOTTOM
 10
0.0
 20
0.0
 30
0.0
  9
$UCSORGLEFT
 10
0.0
 20
0.0
 30
0.0
  9
$UCSORGRIGHT
 10
0.0
 20
0.0
 30
0.0
  9
$UCSORGFRONT
 10
0.0
 20
0.0
 30
0.0
  9
$UCSORGBACK
 10
0.0
 20
0.0
 30
0.0
  9
$PUCSBASE
  2

  9
$PUCSNAME
  2

  9
$PUCSORG
 10
0.0
 20
0.0
 30
0.0
  9
$PUCSXDIR
 10
1.0
 20
0.0
 30
0.0
  9
$PUCSYDIR
 10
0.0
 20
1.0
 30
0.0
  9
$PUCSORTHOREF
  2

  9
$PUCSORTHOVIEW
 70
     0
  9
$PUCSORGTOP
 10
0.0
 20
0.0
 30
0.0
  9
$PUCSORGBOTTOM
 10
0.0
 20
0.0
 30
0.0
  9
$PUCSORGLEFT
 10
0.0
 20
0.0
 30
0.0
  9
$PUCSORGRIGHT
 10
0.0
 20
0.0
 30
0.0
  9
$PUCSORGFRONT
 10
0.0
 20
0.0
 30
0.0
  9
$PUCSORGBACK
 10
0.0
 20
0.0
 30
0.0
  9
$USERI1
 70
     0
  9
$USERI2
 70
     0
  9
$USERI3
 70
     0
  9
$USERI4
 70
     0
  9
$USERI5
 70
     0
  9
$USERR1
 40
0.0
  9
$USERR2
 40
0.0
  9
$USERR3
 40
0.0
  9
$USERR4
 40
0.0
  9
$USERR5
 40
0.0
  9
$WORLDVIEW
 70
     1
  9
$SHADEDGE
 70
     3
  9
$SHADEDIF
 70
    70
  9
$TILEMODE
 70
     1
  9
$MAXACTVP
 70
    64
  9
$PINSBASE
 10
0.0
 20
0.0
 30
0.0
  9
$PLIMCHECK
 70
     0
  9
$PEXTMIN
 10
1.0000000000E+20
 20
1.0000000000E+20
 30
1.0000000000E+20
  9
$PEXTMAX
 10
-1.0000000000E+20
 20
-1.0000000000E+20
 30
-1.0000000000E+20
  9
$PLIMMIN
 10
0.0
 20
0.0
  9
$PLIMMAX
 10
420.0
 20
297.0
  9
$UNITMODE
 70
     0
  9
$VISRETAIN
 70
     1
  9
$PLINEGEN
 70
     0
  9
$PSLTSCALE
 70
     1
  9
$TREEDEPTH
 70
  3020
  9
$CMLSTYLE
  2
Standard
  9
$CMLJUST
 70
     0
  9
$CMLSCALE
 40
20.0
  9
$PROXYGRAPHICS
 70
     1
  9
$MEASUREMENT
 70
     1
  9
$CELWEIGHT
370
    -1
  9
$ENDCAPS
280
     0
  9
$JOINSTYLE
280
     0
  9
$LWDISPLAY
290
     1
  9
$INSUNITS
 70
     4
  9
$HYPERLINKBASE
  1

  9
$STYLESHEET
  1

  9
$XEDIT
290
     1
  9
$CEPSNTYPE
380
     0
  9
$PSTYLEMODE
290
     1
  9
$FINGERPRINTGUID
  2
{ac9fa073-7f1e-460b-9efe-12be93a3c5ae}
  9
$VERSIONGUID
  2
{FAEB1C32-E019-11D5-929B-00C0DF256EC4}
  9
$EXTNAMES
290
     1
  9
$PSVPSCALE
 40
0.0
  9
$OLESTARTUP
290
     0
  0
ENDSEC
  0
SECTION
  2
CLASSES
  0
CLASS
  1
ACDBDICTIONARYWDFLT
  2
AcDbDictionaryWithDefault
  3
ObjectDBX Classes
 90
        0
280
     0
281
     0
  0
CLASS
  1
VISUALSTYLE
  2
AcDbVisualStyle
  3
ObjectDBX Classes
 90
     4095
280
     0
281
     0
  0
CLASS
  1
MATERIAL
  2
AcDbMaterial
  3
ObjectDBX Classes
 90
     1153
280
     0
281
     0
  0
CLASS
  1
SCALE
  2
AcDbScale
  3
ObjectDBX Classes
 90
     1153
280
     0
281
     0
  0
CLASS
  1
TABLESTYLE
  2
AcDbTableStyle
  3
ObjectDBX Classes
 90
     4095
280
     0
281
     0
  0
CLASS
  1
MLEADERSTYLE
  2
AcDbMLeaderStyle
  3
ACDB_MLEADERSTYLE_CLASS
 90
     4095
280
     0
281
     0
  0
CLASS
  1
SUN
  2
AcDbSun
  3
SCENEOE
 90
     1153
280
     0
281
     0
  0
CLASS
  1
ACDBPLACEHOLDER
  2
AcDbPlaceHolder
  3
ObjectDBX Classes
 90
        0
280
     0
281
     0
  0
CLASS
  1
LAYOUT
  2
AcDbLayout
  3
ObjectDBX Classes
 90
        0
280
     0
281
     0
  0
ENDSEC
  0
SECTION
  2
TABLES
  0
TABLE
  2
VPORT
  5
8
330
0
100
AcDbSymbolTable
 70
     1
  0
VPORT
  5
29
330
8
100
AcDbSymbolTableRecord
100
AcDbViewportTableRecord
  2
*Active
 70
     0
 10
0.0
 20
0.0
 11
1.0
 21
1.0
 12
66.1590815224
 22
41.9985517893
 13
0.0
 23
0.0
 14
10.0
 24
10.0
 15
10.0
 25
10.0
 16
0.0
 26
0.0
 36
1.0
 17
0.0
 27
0.0
 37
0.0
 40
25.3258177493
 41
1.0014371118
 42
50.0
 43
0.0
 44
0.0
 50
0.0
 51
0.0
 71
     0
 72
   100
 73
     1
 74
     3
 75
     0
 76
     0
 77
     0
 78
     0
281
     0
 65
     1
110
0.0
120
0.0
130
0.0
111
1.0
121
0.0
131
0.0
112
0.0
122
1.0
132
0.0
 79
     0
146
0.0
  0
ENDTAB
  0
TABLE
  2
LTYPE
  5
5
330
0
100
AcDbSymbolTable
 70
     6
  0
LTYPE
  5
14
330
5
100
AcDbSymbolTableRecord
100
AcDbLinetypeTableRecord
  2
ByBlock
 70
     0
  3

 72
    65
 73
     0
 40
0.0
  0
LTYPE
  5
15
330
5
100
AcDbSymbolTableRecord
100
AcDbLinetypeTableRecord
  2
ByLayer
 70
     0
  3

 72
    65
 73
     0
 40
0.0
  0
LTYPE
  5
16
330
5
100
AcDbSymbolTableRecord
100
AcDbLinetypeTableRecord
  2
Continuous
 70
     0
  3
Solid line
 72
    65
 73
     0
 40
0.0
  0
LTYPE
  5
5E
330
5
100
AcDbSymbolTableRecord
100
AcDbLinetypeTableRecord
  2
HIDDEN
 70
     0
  3
Hidden __ __ __ __ __ __ __ __ __ __ __ __ __ __
 72
    65
 73
     2
 40
1.905
 49
1.27
 74
     0
 49
-0.635
 74
     0
  0
LTYPE
  5
5F
330
5
100
AcDbSymbolTableRecord
100
AcDbLinetypeTableRecord
  2
PHANTOM
 70
     0
  3
Phantom ______  __  __  ______  __  __  ______
 72
    65
 73
     6
 40
12.7
 49
6.35
 74
     0
 49
-1.27
 74
     0
 49
1.27
 74
     0
 49
-1.27
 74
     0
 49
1.27
 74
     0
 49
-1.27
 74
     0
  0
LTYPE
  5
60
330
5
100
AcDbSymbolTableRecord
100
AcDbLinetypeTableRecord
  2
CENTER
 70
     0
  3
Center ____ _ ____ _ ____ _ ____ _ ____ _ ____
 72
    65
 73
     4
 40
10.16
 49
6.35
 74
     0
 49
-1.27
 74
     0
 49
1.27
 74
     0
 49
-1.27
 74
     0
  0
LTYPE
  5
61
330
5
100
AcDbSymbolTableRecord
100
AcDbLinetypeTableRecord
  2
CENTERX2
 70
     0
  3
Center (2x) ________  __  ________  __  _____
 72
    65
 73
     4
 40
20.32
 49
12.7
 74
     0
 49
-2.54
 74
     0
 49
2.54
 74
     0
 49
-2.54
 74
     0
  0
LTYPE
  5
62
330
5
100
AcDbSymbolTableRecord
100
AcDbLinetypeTableRecord
  2
DOT2
 70
     0
  3
Dot (.5x) ........................................
 72
    65
 73
     2
 40
0.635
 49
0.0
 74
     0
 49
-0.635
 74
     0
  0
ENDTAB
  0
TABLE
  2
LAYER
  5
2
330
0
100
AcDbSymbolTable
 70
     1
  0
LAYER
  5
10
330
2
100
AcDbSymbolTableRecord
100
AcDbLayerTableRecord
  2
0
 70
     0
 62
     7
  6
Continuous
370
    -3
390
F
  0
ENDTAB
  0
TABLE
  2
STYLE
  5
3
330
0
100
AcDbSymbolTable
 70
     2
  0
STYLE
  5
11
330
3
100
AcDbSymbolTableRecord
100
AcDbTextStyleTableRecord
  2
Standard
 70
     0
 40
0.0
 41
1.0
 50
0.0
 71
     0
 42
3.5
  3
txt
  4

  0
STYLE
  5
67
330
3
100
AcDbSymbolTableRecord
100
AcDbTextStyleTableRecord
  2
SLDTEXTSTYLE0
 70
     0
 40
0.0
 41
0.7
 50
0.0
 71
     0
 42
3.5
  3
TXT
  4

  0
ENDTAB
  0
TABLE
  2
VIEW
  5
6
330
0
100
AcDbSymbolTable
 70
     0
  0
ENDTAB
  0
TABLE
  2
UCS
  5
7
330
0
100
AcDbSymbolTable
 70
     0
  0
ENDTAB
  0
TABLE
  2
APPID
  5
9
330
0
100
AcDbSymbolTable
 70
     1
  0
APPID
  5
12
330
9
100
AcDbSymbolTableRecord
100
AcDbRegAppTableRecord
  2
ACAD
 70
     0
  0
ENDTAB
  0
TABLE
  2
DIMSTYLE
  5
A
330
0
100
AcDbSymbolTable
 70
     1
100
AcDbDimStyleTable
  0
DIMSTYLE
105
27
330
A
100
AcDbSymbolTableRecord
100
AcDbDimStyleTableRecord
  2
ISO-25
 70
     0
 41
2.5
 42
0.625
 43
3.75
 44
1.25
 73
     0
 74
     0
 77
     1
 78
     8
140
2.5
141
2.5
143
0.0393700787
147
0.625
171
     3
172
     1
178
     0
271
     2
272
     2
274
     3
278
    44
283
     0
284
     8
340
11
  0
ENDTAB
  0
TABLE
  2
BLOCK_RECORD
  5
1
330
0
100
AcDbSymbolTable
 70
     1
  0
BLOCK_RECORD
  5
1F
330
1
100
AcDbSymbolTableRecord
100
AcDbBlockTableRecord
  2
*Model_Space
340
22
  0
BLOCK_RECORD
  5
1B
330
1
100
AcDbSymbolTableRecord
100
AcDbBlockTableRecord
  2
*Paper_Space
340
1E
  0
BLOCK_RECORD
  5
23
330
1
100
AcDbSymbolTableRecord
100
AcDbBlockTableRecord
  2
*Paper_Space0
340
26
  0
ENDTAB
  0
ENDSEC
  0
SECTION
  2
BLOCKS
  0
BLOCK
  5
20
330
1F
100
AcDbEntity
  8
0
100
AcDbBlockBegin
  2
*Model_Space
 70
     0
 10
0.0
 20
0.0
 30
0.0
  3
*Model_Space
  1

  0
ENDBLK
  5
21
330
1F
100
AcDbEntity
  8
0
100
AcDbBlockEnd
  0
BLOCK
  5
1C
330
1B
100
AcDbEntity
 67
     1
  8
0
100
AcDbBlockBegin
  2
*Paper_Space
 70
     0
 10
0.0
 20
0.0
 30
0.0
  3
*Paper_Space
  1

  0
ENDBLK
  5
1D
330
1B
100
AcDbEntity
 67
     1
  8
0
100
AcDbBlockEnd
  0
BLOCK
  5
24
330
23
100
AcDbEntity
  8
0
100
AcDbBlockBegin
  2
*Paper_Space0
 70
     0
 10
0.0
 20
0.0
 30
0.0
  3
*Paper_Space0
  1

  0
ENDBLK
  5
25
330
23
100
AcDbEntity
  8
0
100
AcDbBlockEnd
  0
ENDSEC
  0
SECTION
  2
ENTITIES
  0
SPLINE
  5
63
330
1F
100
AcDbEntity
  8
0
  6
Continuous
 62
     7
370
    25
100
AcDbSpline
210
0.0
220
0.0
230
1.0
 70
     8
 71
     3
 72
    50
 73
    46
 74
     0
 42
0.00000001
 43
0.00000001
 40
0.0
 40
0.0
 40
0.0
 40
0.0
 40
0.042490987682529
 40
0.0715929804054418
 40
0.0962997096421992
 40
0.1227421145249024
 40
0.1551997965822458
 40
0.2088183738277014
 40
0.2459056560146829
 40
0.2909361788899293
 40
0.3171273673712715
 40
0.353339060102817
 40
0.381827243468523
 40
0.4063637211792582
 40
0.4266379970300231
 40
0.4464453318201262
 40
0.4650973453952929
 40
0.4789391300167488
 40
0.4900284979533928
 40
0.5046843861738906
 40
0.5167169841671442
 40
0.5311465666479048
 40
0.5437957917984886
 40
0.557208516978195
 40
0.5661815025445975
 40
0.5757042968289914
 40
0.5863417603861204
 40
0.5956204598168612
 40
0.6035110088967078
 40
0.6136978348699423
 40
0.6250985855008881
 40
0.6359821181675297
 40
0.6454740311144488
 40
0.6556326098760952
 40
0.6653178905224824
 40
0.6813716659670322
 40
0.7004907189577206
 40
0.7235174706517713
 40
0.7483151067629903
 40
0.7787797250441282
 40
0.817049787786536
 40
0.8747880500245654
 40
0.9265047701439214
 40
0.9750788520008602
 40
1.0
 40
1.0
 40
1.0
 40
1.0
 10
78.49111213546912
 20
41.41015831936581
 30
0.0
 10
78.48028821870746
 20
41.71986793817613
 30
0.0
 10
78.46205102294215
 20
42.24169705724791
 30
0.0
 10
78.41218948146883
 20
42.94216501044905
 30
0.0
 10
78.38587150538902
 20
43.52709372706575
 30
0.0
 10
78.3082144438298
 20
44.13219182157381
 30
0.0
 10
78.21873171930453
 20
44.94762840710422
 30
0.0
 10
78.1263944482646
 20
45.84157687487063
 30
0.0
 10
77.94908083973708
 20
46.81607432543584
 30
0.0
 10
77.8808370670532
 20
47.60399126232974
 30
0.0
 10
77.74291254477842
 20
48.3755187023467
 30
0.0
 10
77.6539418360307
 20
49.03242015711522
 30
0.0
 10
77.545353674321
 20
49.67405836255729
 30
0.0
 10
77.45485346295519
 20
50.20094450539802
 30
0.0
 10
77.35657988121467
 20
50.66183693314701
 30
0.0
 10
77.26870425601416
 20
51.08108730731901
 30
0.0
 10
77.18804441603567
 20
51.45363583060544
 30
0.0
 10
77.10732994638128
 20
51.76189638539457
 30
0.0
 10
76.99246393217423
 20
52.02734720984154
 30
0.0
 10
76.86932322712485
 20
52.27394580767805
 30
0.0
 10
76.7126353119593
 20
52.53006973328308
 30
0.0
 10
76.54655537217148
 20
52.76178272675502
 30
0.0
 10
76.37704784656091
 20
53.00440928893318
 30
0.0
 10
76.19660139672914
 20
53.18621332976988
 30
0.0
 10
76.04533466566659
 20
53.36311750444473
 30
0.0
 10
75.8909750640961
 20
53.50969638781427
 30
0.0
 10
75.72740098968437
 20
53.64823685110955
 30
0.0
 10
75.56738738994524
 20
53.77462730733381
 30
0.0
 10
75.38595186386175
 20
53.85953939099137
 30
0.0
 10
75.21103904797934
 20
53.98701210144561
 30
0.0
 10
74.98729518014547
 20
54.06940159709319
 30
0.0
 10
74.77440052846417
 20
54.15955395961372
 30
0.0
 10
74.56773931703428
 20
54.24416716083471
 30
0.0
 10
74.35798006255254
 20
54.28951788480678
 30
0.0
 10
74.10040083205796
 20
54.33534171390523
 30
0.0
 10
73.77585855892603
 20
54.37886245453122
 30
0.0
 10
73.35175197118691
 20
54.40245253686115
 30
0.0
 10
72.86354803277554
 20
54.40349403504603
 30
0.0
 10
72.29274604050102
 20
54.41721574488474
 30
0.0
 10
71.61061787170846
 20
54.40640763905757
 30
0.0
 10
70.6889161464724
 20
54.37238196309929
 30
0.0
 10
69.61144700293053
 20
54.37495810532698
 30
0.0
 10
68.45914725265757
 20
54.37344610279652
 30
0.0
 10
67.54604537574615
 20
54.33973622962498
 30
0.0
 10
67.01241782799464
 20
54.28933689110704
 30
0.0
 10
66.83147260039313
 20
54.27224721907358
 30
0.0
  0
SPLINE
  5
64
330
1F
100
AcDbEntity
  8
0
  6
Continuous
 62
     7
370
    25
100
AcDbSpline
210
0.0
220
0.0
230
1.0
 70
     8
 71
     3
 72
    52
 73
    48
 74
     0
 42
0.00000001
 43
0.00000001
 40
0.0
 40
0.0
 40
0.0
 40
0.0
 40
0.0372224208288209
 40
0.0605425004405833
 40
0.0833489687932628
 40
0.1062633341583294
 40
0.1357427765252248
 40
0.1820567981476431
 40
0.2149666363780455
 40
0.2544307774334815
 40
0.2773843806927805
 40
0.3091198183152333
 40
0.3340864768164464
 40
0.3555899139420301
 40
0.3733580150184497
 40
0.3907168952662863
 40
0.4070632676310388
 40
0.4191940204156213
 40
0.4289125924535205
 40
0.441756814618757
 40
0.4523020207178435
 40
0.4649479115943367
 40
0.4760335213921082
 40
0.4877882522864435
 40
0.4956520554464006
 40
0.5039977035287551
 40
0.5133202326820058
 40
0.5214519593368399
 40
0.5283671298036496
 40
0.5372947262747956
 40
0.5472861898934611
 40
0.5568243706853584
 40
0.565142954781326
 40
0.5740457957783763
 40
0.5825338447101961
 40
0.5966031563273676
 40
0.6140461054252764
 40
0.6354460294338874
 40
0.6547648497475307
 40
0.6823824063615594
 40
0.7154280597887557
 40
0.7652477765421148
 40
0.8089843060242339
 40
0.8552297740017668
 40
0.9138646889243798
 40
0.968285676598722
 40
1.0
 40
1.0
 40
1.0
 40
1.0
 10
66.83147260039313
 20
54.27224721907358
 30
0.0
 10
66.52180668930134
 20
54.26574661388376
 30
0.0
 10
66.01813314681667
 20
54.25517333885744
 30
0.0
 10
65.32524470983466
 20
54.22332768728853
 30
0.0
 10
64.75221067697136
 20
54.18219262745993
 30
0.0
 10
64.12826777306691
 20
54.13492845546448
 30
0.0
 10
63.30948336511921
 20
54.07039045082356
 30
0.0
 10
62.40979725993562
 20
53.97292525847837
 30
0.0
 10
61.43443779854815
 20
53.81661131645011
 30
0.0
 10
60.64394692425999
 20
53.74266752029961
 30
0.0
 10
59.87227837583256
 20
53.60569100824133
 30
0.0
 10
59.21541697511945
 20
53.51645120388394
 30
0.0
 10
58.57376960209722
 20
53.40792463283087
 30
0.0
 10
58.04688533288054
 20
53.3174118338754
 30
0.0
 10
57.58599251321859
 20
53.2191408851283
 30
0.0
 10
57.16674223404983
 20
53.13126462166642
 30
0.0
 10
56.79419368811975
 20
53.05060493381491
 30
0.0
 10
56.48593313757372
 20
52.96989043565456
 30
0.0
 10
56.22048231226279
 20
52.8550244272502
 30
0.0
 10
55.97388371469471
 20
52.73188372040454
 30
0.0
 10
55.71775978901881
 20
52.57519580568999
 30
0.0
 10
55.48604679558191
 20
52.40911586577021
 30
0.0
 10
55.24342023334435
 20
52.23960834019781
 30
0.0
 10
55.06161619269427
 20
52.05916189034042
 30
0.0
 10
54.88471201752457
 20
51.90789515932551
 30
0.0
 10
54.7381331359956
 20
51.75353555758316
 30
0.0
 10
54.59959266527265
 20
51.5899614838636
 30
0.0
 10
54.47320223277276
 20
51.42994788191383
 30
0.0
 10
54.388290068962
 20
51.248512363299
 30
0.0
 10
54.26081774834795
 20
51.07359951109141
 30
0.0
 10
54.17842657849433
 20
50.84985579925943
 30
0.0
 10
54.08828005982469
 20
50.6369606030503
 30
0.0
 10
54.00364750947992
 20
50.43030119456451
 30
0.0
 10
53.9583705200255
 20
50.22053506952815
 30
0.0
 10
53.91222225181836
 20
49.96298607014752
 30
0.0
 10
53.87013310595241
 20
49.63256586688092
 30
0.0
 10
53.8346483121603
 20
49.19363052862882
 30
0.0
 10
53.81336652507203
 20
48.71009242446942
 30
0.0
 10
53.77763042288223
 20
48.14259160215164
 30
0.0
 10
53.75155346409342
 20
47.47746312936614
 30
0.0
 10
53.74255505639045
 20
46.55816874817901
 30
0.0
 10
53.71828913267952
 20
45.50487466774771
 30
0.0
 10
53.72901624002281
 20
44.34170256458134
 30
0.0
 10
53.72368943200303
 20
43.10446462815209
 30
0.0
 10
53.82891039467199
 20
41.78232141377578
 30
0.0
 10
53.86869439745265
 20
40.57778437103556
 30
0.0
 10
53.94271305812794
 20
39.86472281809404
 30
0.0
 10
53.96996612905869
 20
39.6021793337482
 30
0.0
  0
SPLINE
  5
65
330
1F
100
AcDbEntity
  8
0
  6
Continuous
 62
     7
370
    25
100
AcDbSpline
210
0.0
220
0.0
230
1.0
 70
     8
 71
     3
 72
    46
 73
    42
 74
     0
 42
0.00000001
 43
0.00000001
 40
0.0
 40
0.0
 40
0.0
 40
0.0
 40
0.0430526311351485
 40
0.0804395400204802
 40
0.1216802009543596
 40
0.1713683442620126
 40
0.2070020634813967
 40
0.2407997340406427
 40
0.2765801265839526
 40
0.3037450807556321
 40
0.3302788493427869
 40
0.354768998139793
 40
0.374480177457699
 40
0.3927675788232683
 40
0.4096181115362045
 40
0.4254364435899373
 40
0.4432490997072769
 40
0.4606593511478943
 40
0.4731495524931655
 40
0.485564559740042
 40
0.4961396698488499
 40
0.5094071043370298
 40
0.5224708529947811
 40
0.5321955569825448
 40
0.5422005936807872
 40
0.5559320584815745
 40
0.5691155360609467
 40
0.5791540205305434
 40
0.5899642488890048
 40
0.601687485566522
 40
0.613735058185036
 40
0.6307298070118565
 40
0.6532548044719172
 40
0.6845840842331188
 40
0.7138671461362343
 40
0.7453234614885275
 40
0.7886511941646251
 40
0.8539722014869364
 40
0.9113172517749099
 40
0.9699391008345234
 40
1.0
 40
1.0
 40
1.0
 40
1.0
 10
53.96996612905869
 20
39.6021793337482
 30
0.0
 10
53.99752908858119
 20
39.33033591872888
 30
0.0
 10
54.0490277247187
 20
38.82242365680214
 30
0.0
 10
54.14811980656864
 20
38.05652814431911
 30
0.0
 10
54.22430830918269
 20
37.24555158656447
 30
0.0
 10
54.3411294824951
 20
36.4507996874156
 30
0.0
 10
54.39916244537722
 20
35.695778448787
 30
0.0
 10
54.54744911414529
 20
35.04320385140083
 30
0.0
 10
54.60401934135111
 20
34.43060808364255
 30
0.0
 10
54.72448698638782
 20
33.87518536853458
 30
0.0
 10
54.78788261112611
 20
33.38214911298806
 30
0.0
 10
54.90412466532516
 20
32.94818418970622
 30
0.0
 10
54.98141658956855
 20
32.55821035104828
 30
0.0
 10
55.1040140147669
 20
32.23219101278641
 30
0.0
 10
55.19788872460047
 20
31.92077542489972
 30
0.0
 10
55.37102319114429
 20
31.64861845126139
 30
0.0
 10
55.54654696907235
 20
31.37749722135423
 30
0.0
 10
55.71991849063019
 20
31.12753156682767
 30
0.0
 10
55.91087740975938
 20
30.93798425170461
 30
0.0
 10
56.05822242602837
 20
30.76752415784417
 30
0.0
 10
56.22858617643135
 20
30.61206042099325
 30
0.0
 10
56.41521553655078
 20
30.47067170270765
 30
0.0
 10
56.59822450702215
 20
30.33236996829722
 30
0.0
 10
56.78154372653854
 20
30.2333017485249
 30
0.0
 10
56.96044564498573
 20
30.11813733399448
 30
0.0
 10
57.17507393804701
 20
30.02380852651028
 30
0.0
 10
57.37967265177513
 20
29.90501676736083
 30
0.0
 10
57.59207053601721
 20
29.85817974312012
 30
0.0
 10
57.78370351292143
 20
29.77873952834484
 30
0.0
 10
58.00083936547216
 20
29.7403235851308
 30
0.0
 10
58.25556045688623
 20
29.69788233894907
 30
0.0
 10
58.57791905058743
 20
29.63473080684802
 30
0.0
 10
59.02936771216553
 20
29.64441429676682
 30
0.0
 10
59.55605885227436
 20
29.62533142588757
 30
0.0
 10
60.14027886258758
 20
29.6002772134909
 30
0.0
 10
60.80060963316743
 20
29.6288263920682
 30
0.0
 10
61.68964325064381
 20
29.59726275021521
 30
0.0
 10
62.74286621415688
 20
29.58687808521609
 30
0.0
 10
63.89366786105616
 20
29.57775230726051
 30
0.0
 10
64.81957320008047
 20
29.6279462214111
 30
0.0
 10
65.38051405054463
 20
29.67348266610895
 30
0.0
 10
65.57065685375142
 20
29.68891821022337
 30
0.0
  0
SPLINE
  5
66
330
1F
100
AcDbEntity
  8
0
  6
Continuous
 62
     7
370
    25
100
AcDbSpline
210
0.0
220
0.0
230
1.0
 70
     8
 71
     3
 72
    51
 73
    47
 74
     0
 42
0.00000001
 43
0.00000001
 40
0.0
 40
0.0
 40
0.0
 40
0.0
 40
0.0343660108302553
 40
0.0543160834004923
 40
0.0756189818935214
 40
0.098847180121269
 40
0.121908915301494
 40
0.1298881084140928
 40
0.1786391112472571
 40
0.217616585369122
 40
0.2643567888900514
 40
0.2915423821700692
 40
0.3291289296947086
 40
0.3586987282098977
 40
0.3841667860662043
 40
0.4052108184024392
 40
0.4257701812564187
 40
0.4451303586408497
 40
0.4594976763842408
 40
0.4710080760239072
 40
0.486220406560327
 40
0.4987098480142553
 40
0.5136872806268252
 40
0.5268167608142599
 40
0.5407387289514409
 40
0.550052393212589
 40
0.5599367408621526
 40
0.5709780786006484
 40
0.5806090638104775
 40
0.5887991945559201
 40
0.599372785285487
 40
0.6112063899331188
 40
0.622503139324078
 40
0.6323554331597742
 40
0.6428997042116136
 40
0.6529527073673551
 40
0.6674940938771976
 40
0.6905285840299532
 40
0.7151999188948724
 40
0.7366440634677178
 40
0.769778624659777
 40
0.8077530018319351
 40
0.8694130029374545
 40
0.9226692614729597
 40
0.9744211855875964
 40
1.0
 40
1.0
 40
1.0
 40
1.0
 10
65.57065685375142
 20
29.68891821022337
 30
0.0
 10
65.88267881993451
 20
29.71475814451796
 30
0.0
 10
66.37583501492313
 20
29.75559861428154
 30
0.0
 10
67.06258193380451
 20
29.7909061385595
 30
0.0
 10
67.65028687081588
 20
29.8586302091692
 30
0.0
 10
68.24892677494066
 20
29.88178203626067
 30
0.0
 10
68.78871018524922
 20
29.95686136534349
 30
0.0
 10
69.51118707437736
 20
29.95810552860926
 30
0.0
 10
70.01489157217506
 20
30.06576395119568
 30
0.0
 10
70.93235730468352
 20
30.19479677646488
 30
0.0
 10
71.73348827726215
 20
30.30843680684054
 30
0.0
 10
72.59804920326343
 20
30.43089226519773
 30
0.0
 10
73.16828849492977
 20
30.53870481327404
 30
0.0
 10
73.93901723106357
 20
30.67028875391037
 30
0.0
 10
74.29583184741539
 20
30.74722066263666
 30
0.0
 10
74.88602099842265
 20
30.82981938958021
 30
0.0
 10
75.20538253670522
 20
30.90433527715458
 30
0.0
 10
75.63613864854602
 20
30.99686686700993
 30
0.0
 10
75.9033936483301
 20
31.09947768748447
 30
0.0
 10
76.22350070852067
 20
31.19980468531357
 30
0.0
 10
76.42955838606231
 20
31.31294819642603
 30
0.0
 10
76.7317282943821
 20
31.45202239244394
 30
0.0
 10
76.95415727243214
 20
31.61287232339261
 30
0.0
 10
77.19702899737071
 20
31.80806045982857
 30
0.0
 10
77.3301808214507
 20
31.97114367568348
 30
0.0
 10
77.5640910418341
 20
32.21162133931182
 30
0.0
 10
77.67207467735706
 20
32.3367940863845
 30
0.0
 10
77.77963596683398
 20
32.52528742117677
 30
0.0
 10
77.91332554329513
 20
32.67942933875577
 30
0.0
 10
77.99656364533054
 20
32.86221270504723
 30
0.0
 10
78.12458398728742
 20
33.03667861016303
 30
0.0
 10
78.206834834141
 20
33.26056151162948
 30
0.0
 10
78.29689770178577
 20
33.4734321383886
 30
0.0
 10
78.38194847690494
 20
33.68005927423154
 30
0.0
 10
78.42559373559811
 20
33.88997893574253
 30
0.0
 10
78.47589602751574
 20
34.13221502150954
 30
0.0
 10
78.47528243975967
 20
34.46838736832309
 30
0.0
 10
78.5337121244265
 20
34.90230377596694
 30
0.0
 10
78.54354580606285
 20
35.38855739155722
 30
0.0
 10
78.58396696621305
 20
35.94394221351576
 30
0.0
 10
78.59160508612615
 20
36.59442351111844
 30
0.0
 10
78.6044961095023
 20
37.52701806740534
 30
0.0
 10
78.59555542905542
 20
38.60128255267308
 30
0.0
 10
78.5759273269695
 20
39.77195102482976
 30
0.0
 10
78.54725404651825
 20
40.68928889139973
 30
0.0
 10
78.50506655935364
 20
41.23098170468972
 30
0.0
 10
78.49111213546912
 20
41.41015831936581
 30
0.0
  0
MTEXT
  5
68
330
1F
100
AcDbEntity
  8
0
  6
Continuous
 62
     7
100
AcDbMText
 10
53.7266237865
 20
28.5643688539
 30
0.0
 40
4.83362
 41
0.0
 71
     1
 72
     1
  1
SOLIDWORKS Educational Product.
  7
SLDTEXTSTYLE0
 73
     1
 44
1.0
  0
MTEXT
  5
69
330
1F
100
AcDbEntity
  8
0
  6
Continuous
 62
     7
100
AcDbMText
 10
53.7266237865
 20
21.3139388539
 30
0.0
 40
4.83362
 41
0.0
 71
     1
 72
     1
  1
For Instructional Use Only.
  7
SLDTEXTSTYLE0
 73
     1
 44
1.0
  0
ENDSEC
  0
SECTION
  2
OBJECTS
  0
DICTIONARY
  5
C
330
0
100
AcDbDictionary
281
     1
  3
ACAD_GROUP
350
D
  3
ACAD_LAYOUT
350
1A
  3
ACAD_MLINESTYLE
350
17
  3
ACAD_PLOTSETTINGS
350
19
  3
ACAD_PLOTSTYLENAME
350
E
  3
ACAD_SCALELIST
350
47
  3
DWGPROPS
350
6A
  0
DICTIONARY
  5
D
102
{ACAD_REACTORS
330
C
102
}
330
C
100
AcDbDictionary
281
     1
  0
DICTIONARY
  5
1A
102
{ACAD_REACTORS
330
C
102
}
330
C
100
AcDbDictionary
281
     1
  3
Layout1
350
1E
  3
Layout2
350
26
  3
Model
350
22
  0
DICTIONARY
  5
17
102
{ACAD_REACTORS
330
C
102
}
330
C
100
AcDbDictionary
281
     1
  3
Standard
350
18
  0
DICTIONARY
  5
19
102
{ACAD_REACTORS
330
C
102
}
330
C
100
AcDbDictionary
281
     1
  0
ACDBDICTIONARYWDFLT
  5
E
102
{ACAD_REACTORS
330
C
102
}
330
C
100
AcDbDictionary
281
     1
  3
Normal
350
F
100
AcDbDictionaryWithDefault
340
F
  0
DICTIONARY
  5
47
102
{ACAD_REACTORS
330
C
102
}
330
C
100
AcDbDictionary
281
     1
  3
A0
350
48
  3
A1
350
49
  3
A2
350
4A
  3
A3
350
4B
  3
A4
350
4C
  3
A5
350
4D
  3
A6
350
4E
  3
A7
350
4F
  3
A8
350
50
  3
A9
350
51
  3
B0
350
52
  3
B1
350
53
  3
B2
350
54
  3
B3
350
55
  3
B4
350
56
  3
B5
350
57
  3
B6
350
58
  0
XRECORD
  5
6A
102
{ACAD_REACTORS
330
C
102
}
330
C
100
AcDbXrecord
280
     1
  1
DWGPROPS COOKIE
  2

  3

  4

  6

  7

  8
brad
  9

300
=
301
=
302
=
303
=
304
=
305
=
306
=
307
=
308
=
309
=
 40
0.0
 41
2460955.747570556
 42
2460955.747606725
  1

 90
        0
  0
LAYOUT
  5
1E
102
{ACAD_REACTORS
330
1A
102
}
330
1A
100
AcDbPlotSettings
  1

  2
none_device
  4

  6

 40
0.0
 41
0.0
 42
0.0
 43
0.0
 44
0.0
 45
0.0
 46
0.0
 47
0.0
 48
0.0
 49
0.0
140
0.0
141
0.0
142
1.0
143
1.0
 70
   688
 72
     1
 73
     0
 74
     5
  7

 75
    16
147
1.0
148
0.0
149
0.0
100
AcDbLayout
  1
Layout1
 70
     1
 71
     1
 10
0.0
 20
0.0
 11
420.0
 21
297.0
 12
0.0
 22
0.0
 32
0.0
 14
1.0000000000E+20
 24
1.0000000000E+20
 34
1.0000000000E+20
 15
-1.0000000000E+20
 25
-1.0000000000E+20
 35
-1.0000000000E+20
146
0.0
 13
0.0
 23
0.0
 33
0.0
 16
1.0
 26
0.0
 36
0.0
 17
0.0
 27
1.0
 37
0.0
 76
     0
330
1B
  0
LAYOUT
  5
26
102
{ACAD_REACTORS
330
1A
102
}
330
1A
100
AcDbPlotSettings
  1

  2
none_device
  4

  6

 40
0.0
 41
0.0
 42
0.0
 43
0.0
 44
0.0
 45
0.0
 46
0.0
 47
0.0
 48
0.0
 49
0.0
140
0.0
141
0.0
142
1.0
143
1.0
 70
   688
 72
     1
 73
     0
 74
     5
  7

 75
    16
147
1.0
148
0.0
149
0.0
100
AcDbLayout
  1
Layout2
 70
     1
 71
     2
 10
0.0
 20
0.0
 11
0.0
 21
0.0
 12
0.0
 22
0.0
 32
0.0
 14
0.0
 24
0.0
 34
0.0
 15
0.0
 25
0.0
 35
0.0
146
0.0
 13
0.0
 23
0.0
 33
0.0
 16
1.0
 26
0.0
 36
0.0
 17
0.0
 27
1.0
 37
0.0
 76
     0
330
23
  0
LAYOUT
  5
22
102
{ACAD_REACTORS
330
1A
102
}
330
1A
100
AcDbPlotSettings
  1

  2
none_device
  4
ANSI_A_(11.00_x_8.50_Inches)
  6

 40
6.35
 41
19.05
 42
6.35000508
 43
19.05000254
 44
279.4
 45
215.9
 46
-436.1765841233
 47
-272.6420765467
 48
0.0
 49
0.0
140
0.0
141
0.0
142
0.3389150189
143
1.0
 70
  1696
 72
     0
 73
     0
 74
     0
  7

 75
     0
147
0.0179189148
148
-1300.4909072572
149
0.0
100
AcDbLayout
  1
Model
 70
     1
 71
     0
 10
0.0
 20
0.0
 11
420.0
 21
297.0
 12
0.0
 22
0.0
 32
0.0
 14
53.7266237865
 24
29.5839352456
 34
0.0
 15
78.5915392584
 25
54.4131683331
 35
0.0
146
0.0
 13
0.0
 23
0.0
 33
0.0
 16
1.0
 26
0.0
 36
0.0
 17
0.0
 27
1.0
 37
0.0
 76
     0
330
1F
331
29
  0
MLINESTYLE
  5
18
102
{ACAD_REACTORS
330
17
102
}
330
17
100
AcDbMlineStyle
  2
Standard
 70
     0
  3

 62
   256
 51
90.0
 52
90.0
 71
     2
 49
0.5
 62
   256
  6
BYLAYER
 49
-0.5
 62
   256
  6
BYLAYER
  0
ACDBPLACEHOLDER
  5
F
102
{ACAD_REACTORS
330
E
102
}
330
E
  0
SCALE
  5
48
102
{ACAD_REACTORS
330
47
102
}
330
47
100
AcDbScale
 70
     0
300
1:1
140
1.0
141
1.0
290
     1
  0
SCALE
  5
49
102
{ACAD_REACTORS
330
47
102
}
330
47
100
AcDbScale
 70
     0
300
1:2
140
1.0
141
2.0
290
     0
  0
SCALE
  5
4A
102
{ACAD_REACTORS
330
47
102
}
330
47
100
AcDbScale
 70
     0
300
1:4
140
1.0
141
4.0
290
     0
  0
SCALE
  5
4B
102
{ACAD_REACTORS
330
47
102
}
330
47
100
AcDbScale
 70
     0
300
1:5
140
1.0
141
5.0
290
     0
  0
SCALE
  5
4C
102
{ACAD_REACTORS
330
47
102
}
330
47
100
AcDbScale
 70
     0
300
1:8
140
1.0
141
8.0
290
     0
  0
SCALE
  5
4D
102
{ACAD_REACTORS
330
47
102
}
330
47
100
AcDbScale
 70
     0
300
1:10
140
1.0
141
10.0
290
     0
  0
SCALE
  5
4E
102
{ACAD_REACTORS
330
47
102
}
330
47
100
AcDbScale
 70
     0
300
1:16
140
1.0
141
16.0
290
     0
  0
SCALE
  5
4F
102
{ACAD_REACTORS
330
47
102
}
330
47
100
AcDbScale
 70
     0
300
1:20
140
1.0
141
20.0
290
     0
  0
SCALE
  5
50
102
{ACAD_REACTORS
330
47
102
}
330
47
100
AcDbScale
 70
     0
300
1:30
140
1.0
141
30.0
290
     0
  0
SCALE
  5
51
102
{ACAD_REACTORS
330
47
102
}
330
47
100
AcDbScale
 70
     0
300
1:40
140
1.0
141
40.0
290
     0
  0
SCALE
  5
52
102
{ACAD_REACTORS
330
47
102
}
330
47
100
AcDbScale
 70
     0
300
1:50
140
1.0
141
50.0
290
     0
  0
SCALE
  5
53
102
{ACAD_REACTORS
330
47
102
}
330
47
100
AcDbScale
 70
     0
300
1:100
140
1.0
141
100.0
290
     0
  0
SCALE
  5
54
102
{ACAD_REACTORS
330
47
102
}
330
47
100
AcDbScale
 70
     0
300
2:1
140
2.0
141
1.0
290
     0
  0
SCALE
  5
55
102
{ACAD_REACTORS
330
47
102
}
330
47
100
AcDbScale
 70
     0
300
4:1
140
4.0
141
1.0
290
     0
  0
SCALE
  5
56
102
{ACAD_REACTORS
330
47
102
}
330
47
100
AcDbScale
 70
     0
300
8:1
140
8.0
141
1.0
290
     0
  0
SCALE
  5
57
102
{ACAD_REACTORS
330
47
102
}
330
47
100
AcDbScale
 70
     0
300
10:1
140
10.0
141
1.0
290
     0
  0
SCALE
  5
58
102
{ACAD_REACTORS
330
47
102
}
330
47
100
AcDbScale
 70
     0
300
100:1
140
100.0
141
1.0
290
     0
  0
ENDSEC
  0
EOF
