  0
SECTION
  2
HEADER
  9
$ACADVER
  1
AC1015
  9
$ACADMAINTVER
 70
     6
  9
$DWGCODEPAGE
  3
ANSI_1252
  9
$INSBASE
 10
0.0
 20
0.0
 30
0.0
  9
$EXTMIN
 10
0.0
 20
0.0
 30
0.0
  9
$EXTMAX
 10
210.0
 20
297.0
 30
0.0
  9
$LIMMIN
 10
0.0
 20
0.0
  9
$LIMMAX
 10
210.0
 20
297.0
  9
$ORTHOMODE
 70
     0
  9
$REGENMODE
 70
     1
  9
$FILLMODE
 70
     1
  9
$QTEXTMODE
 70
     0
  9
$MIRRTEXT
 70
     1
  9
$LTSCALE
 40
1.0
  9
$ATTMODE
 70
     1
  9
$TEXTSIZE
 40
3.5
  9
$TRACEWID
 40
1.0
  9
$TEXTSTYLE
  7
Standard
  9
$CLAYER
  8
0
  9
$CELTYPE
  6
ByLayer
  9
$CECOLOR
 62
   256
  9
$CELTSCALE
 40
1.0
  9
$DISPSILH
 70
     0
  9
$DIMSCALE
 40
1.0
  9
$DIMASZ
 40
3.302
  9
$DIMEXO
 40
1.0
  9
$DIMDLI
 40
3.75
  9
$DIMRND
 40
0.0
  9
$DIMDLE
 40
0.0
  9
$DIMEXE
 40
1.0
  9
$DIMTP
 40
0.0
  9
$DIMTM
 40
0.0
  9
$DIMTXT
 40
3.5
  9
$DIMCEN
 40
2.5
  9
$DIMTSZ
 40
0.0
  9
$DIMTOL
 70
     0
  9
$DIMLIM
 70
     0
  9
$DIMTIH
 70
     1
  9
$DIMTOH
 70
     1
  9
$DIMSE1
 70
     0
  9
$DIMSE2
 70
     0
  9
$DIMTAD
 70
     1
  9
$DIMZIN
 70
     1
  9
$DIMBLK
  1

  9
$DIMASO
 70
     1
  9
$DIMSHO
 70
     1
  9
$DIMPOST
  1

  9
$DIMAPOST
  1

  9
$DIMALT
 70
     0
  9
$DIMALTD
 70
     3
  9
$DIMALTF
 40
0.0393700787
  9
$DIMLFAC
 40
1.0
  9
$DIMTOFL
 70
     1
  9
$DIMTVP
 40
0.0
  9
$DIMTIX
 70
     0
  9
$DIMSOXD
 70
     0
  9
$DIMSAH
 70
     0
  9
$DIMBLK1
  1

  9
$DIMBLK2
  1

  9
$DIMSTYLE
  2
ISO-25
  9
$DIMCLRD
 70
     0
  9
$DIMCLRE
 70
     0
  9
$DIMCLRT
 70
     0
  9
$DIMTFAC
 40
1.0
  9
$DIMGAP
 40
1.524
  9
$DIMJUST
 70
     0
  9
$DIMSD1
 70
     0
  9
$DIMSD2
 70
     0
  9
$DIMTOLJ
 70
     0
  9
$DIMTZIN
 70
     1
  9
$DIMALTZ
 70
     0
  9
$DIMALTTZ
 70
     0
  9
$DIMUPT
 70
     0
  9
$DIMDEC
 70
     2
  9
$DIMTDEC
 70
     2
  9
$DIMALTU
 70
     2
  9
$DIMALTTD
 70
     3
  9
$DIMTXSTY
  7
Standard
  9
$DIMAUNIT
 70
     0
  9
$DIMADEC
 70
     2
  9
$DIMALTRND
 40
0.0
  9
$DIMAZIN
 70
     0
  9
$DIMDSEP
 70
    44
  9
$DIMATFIT
 70
     3
  9
$DIMFRAC
 70
     0
  9
$DIMLDRBLK
  1

  9
$DIMLUNIT
 70
     2
  9
$DIMLWD
 70
    -2
  9
$DIMLWE
 70
    -2
  9
$DIMTMOVE
 70
     0
  9
$LUNITS
 70
     2
  9
$LUPREC
 70
     2
  9
$SKETCHINC
 40
1.0
  9
$FILLETRAD
 40
0.0
  9
$AUNITS
 70
     0
  9
$AUPREC
 70
     2
  9
$MENU
  1
.
  9
$ELEVATION
 40
0.0
  9
$PELEVATION
 40
0.0
  9
$THICKNESS
 40
0.0
  9
$LIMCHECK
 70
     0
  9
$CHAMFERA
 40
0.0
  9
$CHAMFERB
 40
0.0
  9
$CHAMFERC
 40
0.0
  9
$CHAMFERD
 40
0.0
  9
$SKPOLY
 70
     0
  9
$TDCREATE
 40
2460851.845609248
  9
$TDUCREATE
 40
2460851.803942581
  9
$TDUPDATE
 40
2460851.84560985
  9
$TDUUPDATE
 40
2460851.803943183
  9
$TDINDWG
 40
0.0000000116
  9
$TDUSRTIMER
 40
0.0000000116
  9
$USRTIMER
 70
     1
  9
$ANGBASE
 50
0.0
  9
$ANGDIR
 70
     0
  9
$PDMODE
 70
     0
  9
$PDSIZE
 40
-1.0
  9
$PLINEWID
 40
0.0
  9
$SPLFRAME
 70
     0
  9
$SPLINETYPE
 70
     6
  9
$SPLINESEGS
 70
     8
  9
$HANDSEED
  5
89
  9
$SURFTAB1
 70
     6
  9
$SURFTAB2
 70
     6
  9
$SURFTYPE
 70
     6
  9
$SURFU
 70
     6
  9
$SURFV
 70
     6
  9
$UCSBASE
  2

  9
$UCSNAME
  2

  9
$UCSORG
 10
0.0
 20
0.0
 30
0.0
  9
$UCSXDIR
 10
1.0
 20
0.0
 30
0.0
  9
$UCSYDIR
 10
0.0
 20
1.0
 30
0.0
  9
$UCSORTHOREF
  2

  9
$UCSORTHOVIEW
 70
     0
  9
$UCSORGTOP
 10
0.0
 20
0.0
 30
0.0
  9
$UCSORGBOTTOM
 10
0.0
 20
0.0
 30
0.0
  9
$UCSORGLEFT
 10
0.0
 20
0.0
 30
0.0
  9
$UCSORGRIGHT
 10
0.0
 20
0.0
 30
0.0
  9
$UCSORGFRONT
 10
0.0
 20
0.0
 30
0.0
  9
$UCSORGBACK
 10
0.0
 20
0.0
 30
0.0
  9
$PUCSBASE
  2

  9
$PUCSNAME
  2

  9
$PUCSORG
 10
0.0
 20
0.0
 30
0.0
  9
$PUCSXDIR
 10
1.0
 20
0.0
 30
0.0
  9
$PUCSYDIR
 10
0.0
 20
1.0
 30
0.0
  9
$PUCSORTHOREF
  2

  9
$PUCSORTHOVIEW
 70
     0
  9
$PUCSORGTOP
 10
0.0
 20
0.0
 30
0.0
  9
$PUCSORGBOTTOM
 10
0.0
 20
0.0
 30
0.0
  9
$PUCSORGLEFT
 10
0.0
 20
0.0
 30
0.0
  9
$PUCSORGRIGHT
 10
0.0
 20
0.0
 30
0.0
  9
$PUCSORGFRONT
 10
0.0
 20
0.0
 30
0.0
  9
$PUCSORGBACK
 10
0.0
 20
0.0
 30
0.0
  9
$USERI1
 70
     0
  9
$USERI2
 70
     0
  9
$USERI3
 70
     0
  9
$USERI4
 70
     0
  9
$USERI5
 70
     0
  9
$USERR1
 40
0.0
  9
$USERR2
 40
0.0
  9
$USERR3
 40
0.0
  9
$USERR4
 40
0.0
  9
$USERR5
 40
0.0
  9
$WORLDVIEW
 70
     1
  9
$SHADEDGE
 70
     3
  9
$SHADEDIF
 70
    70
  9
$TILEMODE
 70
     1
  9
$MAXACTVP
 70
    64
  9
$PINSBASE
 10
0.0
 20
0.0
 30
0.0
  9
$PLIMCHECK
 70
     0
  9
$PEXTMIN
 10
1.0000000000E+20
 20
1.0000000000E+20
 30
1.0000000000E+20
  9
$PEXTMAX
 10
-1.0000000000E+20
 20
-1.0000000000E+20
 30
-1.0000000000E+20
  9
$PLIMMIN
 10
0.0
 20
0.0
  9
$PLIMMAX
 10
420.0
 20
297.0
  9
$UNITMODE
 70
     0
  9
$VISRETAIN
 70
     1
  9
$PLINEGEN
 70
     0
  9
$PSLTSCALE
 70
     1
  9
$TREEDEPTH
 70
  3020
  9
$CMLSTYLE
  2
Standard
  9
$CMLJUST
 70
     0
  9
$CMLSCALE
 40
20.0
  9
$PROXYGRAPHICS
 70
     1
  9
$MEASUREMENT
 70
     1
  9
$CELWEIGHT
370
    -1
  9
$ENDCAPS
280
     0
  9
$JOINSTYLE
280
     0
  9
$LWDISPLAY
290
     1
  9
$INSUNITS
 70
     4
  9
$HYPERLINKBASE
  1

  9
$STYLESHEET
  1

  9
$XEDIT
290
     1
  9
$CEPSNTYPE
380
     0
  9
$PSTYLEMODE
290
     1
  9
$FINGERPRINTGUID
  2
{6a641af4-4b50-4ba2-92de-43cdfe87d9fc}
  9
$VERSIONGUID
  2
{FAEB1C32-E019-11D5-929B-00C0DF256EC4}
  9
$EXTNAMES
290
     1
  9
$PSVPSCALE
 40
0.0
  9
$OLESTARTUP
290
     0
  0
ENDSEC
  0
SECTION
  2
CLASSES
  0
CLASS
  1
ACDBDICTIONARYWDFLT
  2
AcDbDictionaryWithDefault
  3
ObjectDBX Classes
 90
        0
280
     0
281
     0
  0
CLASS
  1
VISUALSTYLE
  2
AcDbVisualStyle
  3
ObjectDBX Classes
 90
     4095
280
     0
281
     0
  0
CLASS
  1
MATERIAL
  2
AcDbMaterial
  3
ObjectDBX Classes
 90
     1153
280
     0
281
     0
  0
CLASS
  1
SCALE
  2
AcDbScale
  3
ObjectDBX Classes
 90
     1153
280
     0
281
     0
  0
CLASS
  1
TABLESTYLE
  2
AcDbTableStyle
  3
ObjectDBX Classes
 90
     4095
280
     0
281
     0
  0
CLASS
  1
MLEADERSTYLE
  2
AcDbMLeaderStyle
  3
ACDB_MLEADERSTYLE_CLASS
 90
     4095
280
     0
281
     0
  0
CLASS
  1
SUN
  2
AcDbSun
  3
SCENEOE
 90
     1153
280
     0
281
     0
  0
CLASS
  1
ACDBPLACEHOLDER
  2
AcDbPlaceHolder
  3
ObjectDBX Classes
 90
        0
280
     0
281
     0
  0
CLASS
  1
LAYOUT
  2
AcDbLayout
  3
ObjectDBX Classes
 90
        0
280
     0
281
     0
  0
ENDSEC
  0
SECTION
  2
TABLES
  0
TABLE
  2
VPORT
  5
8
330
0
100
AcDbSymbolTable
 70
     1
  0
VPORT
  5
29
330
8
100
AcDbSymbolTableRecord
100
AcDbViewportTableRecord
  2
*Active
 70
     0
 10
0.0
 20
0.0
 11
1.0
 21
1.0
 12
105.0
 22
148.5
 13
0.0
 23
0.0
 14
10.0
 24
10.0
 15
10.0
 25
10.0
 16
0.0
 26
0.0
 36
1.0
 17
0.0
 27
0.0
 37
0.0
 40
297.0
 41
0.7070707071
 42
50.0
 43
0.0
 44
0.0
 50
0.0
 51
0.0
 71
     0
 72
  2000
 73
     1
 74
     3
 75
     0
 76
     0
 77
     0
 78
     0
281
     0
 65
     1
110
0.0
120
0.0
130
0.0
111
1.0
121
0.0
131
0.0
112
0.0
122
1.0
132
0.0
 79
     0
146
0.0
  0
ENDTAB
  0
TABLE
  2
LTYPE
  5
5
330
0
100
AcDbSymbolTable
 70
     6
  0
LTYPE
  5
14
330
5
100
AcDbSymbolTableRecord
100
AcDbLinetypeTableRecord
  2
ByBlock
 70
     0
  3

 72
    65
 73
     0
 40
0.0
  0
LTYPE
  5
15
330
5
100
AcDbSymbolTableRecord
100
AcDbLinetypeTableRecord
  2
ByLayer
 70
     0
  3

 72
    65
 73
     0
 40
0.0
  0
LTYPE
  5
16
330
5
100
AcDbSymbolTableRecord
100
AcDbLinetypeTableRecord
  2
Continuous
 70
     0
  3
Solid line
 72
    65
 73
     0
 40
0.0
  0
LTYPE
  5
5E
330
5
100
AcDbSymbolTableRecord
100
AcDbLinetypeTableRecord
  2
HIDDEN
 70
     0
  3
Hidden __ __ __ __ __ __ __ __ __ __ __ __ __ __
 72
    65
 73
     2
 40
1.905
 49
1.27
 74
     0
 49
-0.635
 74
     0
  0
LTYPE
  5
5F
330
5
100
AcDbSymbolTableRecord
100
AcDbLinetypeTableRecord
  2
PHANTOM
 70
     0
  3
Phantom ______  __  __  ______  __  __  ______
 72
    65
 73
     6
 40
12.7
 49
6.35
 74
     0
 49
-1.27
 74
     0
 49
1.27
 74
     0
 49
-1.27
 74
     0
 49
1.27
 74
     0
 49
-1.27
 74
     0
  0
LTYPE
  5
60
330
5
100
AcDbSymbolTableRecord
100
AcDbLinetypeTableRecord
  2
CENTER
 70
     0
  3
Center ____ _ ____ _ ____ _ ____ _ ____ _ ____
 72
    65
 73
     4
 40
10.16
 49
6.35
 74
     0
 49
-1.27
 74
     0
 49
1.27
 74
     0
 49
-1.27
 74
     0
  0
LTYPE
  5
61
330
5
100
AcDbSymbolTableRecord
100
AcDbLinetypeTableRecord
  2
CENTERX2
 70
     0
  3
Center (2x) ________  __  ________  __  _____
 72
    65
 73
     4
 40
20.32
 49
12.7
 74
     0
 49
-2.54
 74
     0
 49
2.54
 74
     0
 49
-2.54
 74
     0
  0
LTYPE
  5
62
330
5
100
AcDbSymbolTableRecord
100
AcDbLinetypeTableRecord
  2
DOT2
 70
     0
  3
Dot (.5x) ........................................
 72
    65
 73
     2
 40
0.635
 49
0.0
 74
     0
 49
-0.635
 74
     0
  0
ENDTAB
  0
TABLE
  2
LAYER
  5
2
330
0
100
AcDbSymbolTable
 70
     1
  0
LAYER
  5
10
330
2
100
AcDbSymbolTableRecord
100
AcDbLayerTableRecord
  2
0
 70
     0
 62
     7
  6
Continuous
370
    -3
390
F
  0
ENDTAB
  0
TABLE
  2
STYLE
  5
3
330
0
100
AcDbSymbolTable
 70
     2
  0
STYLE
  5
11
330
3
100
AcDbSymbolTableRecord
100
AcDbTextStyleTableRecord
  2
Standard
 70
     0
 40
0.0
 41
1.0
 50
0.0
 71
     0
 42
3.5
  3
txt
  4

  0
STYLE
  5
85
330
3
100
AcDbSymbolTableRecord
100
AcDbTextStyleTableRecord
  2
SLDTEXTSTYLE0
 70
     0
 40
0.0
 41
0.7
 50
0.0
 71
     0
 42
3.5
  3
TXT
  4

  0
ENDTAB
  0
TABLE
  2
VIEW
  5
6
330
0
100
AcDbSymbolTable
 70
     0
  0
ENDTAB
  0
TABLE
  2
UCS
  5
7
330
0
100
AcDbSymbolTable
 70
     0
  0
ENDTAB
  0
TABLE
  2
APPID
  5
9
330
0
100
AcDbSymbolTable
 70
     1
  0
APPID
  5
12
330
9
100
AcDbSymbolTableRecord
100
AcDbRegAppTableRecord
  2
ACAD
 70
     0
  0
ENDTAB
  0
TABLE
  2
DIMSTYLE
  5
A
330
0
100
AcDbSymbolTable
 70
     1
100
AcDbDimStyleTable
  0
DIMSTYLE
105
27
330
A
100
AcDbSymbolTableRecord
100
AcDbDimStyleTableRecord
  2
ISO-25
 70
     0
 41
2.5
 42
0.625
 43
3.75
 44
1.25
 73
     0
 74
     0
 77
     1
 78
     8
140
2.5
141
2.5
143
0.0393700787
147
0.625
171
     3
172
     1
178
     0
271
     2
272
     2
274
     3
278
    44
283
     0
284
     8
340
11
  0
ENDTAB
  0
TABLE
  2
BLOCK_RECORD
  5
1
330
0
100
AcDbSymbolTable
 70
     1
  0
BLOCK_RECORD
  5
1F
330
1
100
AcDbSymbolTableRecord
100
AcDbBlockTableRecord
  2
*Model_Space
340
22
  0
BLOCK_RECORD
  5
1B
330
1
100
AcDbSymbolTableRecord
100
AcDbBlockTableRecord
  2
*Paper_Space
340
1E
  0
BLOCK_RECORD
  5
23
330
1
100
AcDbSymbolTableRecord
100
AcDbBlockTableRecord
  2
*Paper_Space0
340
26
  0
ENDTAB
  0
ENDSEC
  0
SECTION
  2
BLOCKS
  0
BLOCK
  5
20
330
1F
100
AcDbEntity
  8
0
100
AcDbBlockBegin
  2
*Model_Space
 70
     0
 10
0.0
 20
0.0
 30
0.0
  3
*Model_Space
  1

  0
ENDBLK
  5
21
330
1F
100
AcDbEntity
  8
0
100
AcDbBlockEnd
  0
BLOCK
  5
1C
330
1B
100
AcDbEntity
 67
     1
  8
0
100
AcDbBlockBegin
  2
*Paper_Space
 70
     0
 10
0.0
 20
0.0
 30
0.0
  3
*Paper_Space
  1

  0
ENDBLK
  5
1D
330
1B
100
AcDbEntity
 67
     1
  8
0
100
AcDbBlockEnd
  0
BLOCK
  5
24
330
23
100
AcDbEntity
  8
0
100
AcDbBlockBegin
  2
*Paper_Space0
 70
     0
 10
0.0
 20
0.0
 30
0.0
  3
*Paper_Space0
  1

  0
ENDBLK
  5
25
330
23
100
AcDbEntity
  8
0
100
AcDbBlockEnd
  0
ENDSEC
  0
SECTION
  2
ENTITIES
  0
LINE
  5
63
330
1F
100
AcDbEntity
  8
0
  6
Continuous
 62
     7
370
    25
100
AcDbLine
 10
178.8702767627
 20
211.0208909059
 30
0.0
 11
174.9702767627
 21
211.0208909059
 31
0.0
  0
LINE
  5
64
330
1F
100
AcDbEntity
  8
0
  6
Continuous
 62
     7
370
    25
100
AcDbLine
 10
178.8702767627
 20
213.5208909059
 30
0.0
 11
178.8702767627
 21
211.0208909059
 31
0.0
  0
LINE
  5
65
330
1F
100
AcDbEntity
  8
0
  6
Continuous
 62
     7
370
    25
100
AcDbLine
 10
178.8702767627
 20
213.5208909059
 30
0.0
 11
174.9702767627
 21
213.5208909059
 31
0.0
  0
LINE
  5
66
330
1F
100
AcDbEntity
  8
0
  6
Continuous
 62
     7
370
    25
100
AcDbLine
 10
174.9702767627
 20
213.5208909059
 30
0.0
 11
174.9702767627
 21
211.0208909059
 31
0.0
  0
LINE
  5
67
330
1F
100
AcDbEntity
  8
0
  6
Continuous
 62
     7
370
    25
100
AcDbLine
 10
34.3817589013
 20
211.0208909059
 30
0.0
 11
38.2817589013
 21
211.0208909059
 31
0.0
  0
LINE
  5
68
330
1F
100
AcDbEntity
  8
0
  6
Continuous
 62
     7
370
    25
100
AcDbLine
 10
38.2817589013
 20
213.5208909059
 30
0.0
 11
38.2817589013
 21
211.0208909059
 31
0.0
  0
LINE
  5
69
330
1F
100
AcDbEntity
  8
0
  6
Continuous
 62
     7
370
    25
100
AcDbLine
 10
34.3817589013
 20
213.5208909059
 30
0.0
 11
38.2817589013
 21
213.5208909059
 31
0.0
  0
LINE
  5
6A
330
1F
100
AcDbEntity
  8
0
  6
Continuous
 62
     7
370
    25
100
AcDbLine
 10
34.3817589013
 20
213.5208909059
 30
0.0
 11
34.3817589013
 21
211.0208909059
 31
0.0
  0
ARC
  5
6B
330
1F
100
AcDbEntity
  8
0
  6
Continuous
 62
     7
370
    25
100
AcDbCircle
 10
179.6202767627
 20
210.7708909059
 30
0.0
 40
0.75
100
AcDbArc
 50
270.0
 51
0.0
  0
LINE
  5
6C
330
1F
100
AcDbEntity
  8
0
  6
Continuous
 62
     7
370
    25
100
AcDbLine
 10
179.6202767627
 20
210.0208909059
 30
0.0
 11
174.9743630884
 21
210.0208909059
 31
0.0
  0
ARC
  5
6D
330
1F
100
AcDbEntity
  8
0
  6
Continuous
 62
     7
370
    25
100
AcDbCircle
 10
174.9743630884
 20
207.5208909059
 30
0.0
 40
2.500000000000007
100
AcDbArc
 50
90.0
 51
182.9602684332
  0
ARC
  5
6E
330
1F
100
AcDbEntity
  8
0
  6
Continuous
 62
     7
370
    25
100
AcDbCircle
 10
109.6309592896
 20
207.0208909059
 30
0.0
 40
3.999999999999995
100
AcDbArc
 50
1.6368589546
 51
90.0
  0
ARC
  5
6F
330
1F
100
AcDbEntity
  8
0
  6
Continuous
 62
     7
370
    25
100
AcDbCircle
 10
103.6210763743
 20
207.0208909059
 30
0.0
 40
3.999999999999994
100
AcDbArc
 50
90.0
 51
178.3631410454
  0
ARC
  5
70
330
1F
100
AcDbEntity
  8
0
  6
Continuous
 62
     7
370
    25
100
AcDbCircle
 10
38.2776725756
 20
207.5208909059
 30
0.0
 40
2.500000000000114
100
AcDbArc
 50
357.0397315668
 51
90.0
  0
LINE
  5
71
330
1F
100
AcDbEntity
  8
0
  6
Continuous
 62
     7
370
    25
100
AcDbLine
 10
33.6317589013
 20
210.0208909059
 30
0.0
 11
38.2776725756
 21
210.0208909059
 31
0.0
  0
ARC
  5
72
330
1F
100
AcDbEntity
  8
0
  6
Continuous
 62
     7
370
    25
100
AcDbCircle
 10
33.6317589013
 20
210.7708909059
 30
0.0
 40
0.75
100
AcDbArc
 50
180.0
 51
270.0
  0
LINE
  5
73
330
1F
100
AcDbEntity
  8
0
  6
Continuous
 62
     7
370
    25
100
AcDbLine
 10
32.8817589013
 20
213.7708909059
 30
0.0
 11
32.8817589013
 21
210.7708909059
 31
0.0
  0
ARC
  5
74
330
1F
100
AcDbEntity
  8
0
  6
Continuous
 62
     7
370
    25
100
AcDbCircle
 10
33.6317589013
 20
213.7708909059
 30
0.0
 40
0.75
100
AcDbArc
 50
90.0
 51
180.0
  0
LINE
  5
75
330
1F
100
AcDbEntity
  8
0
  6
Continuous
 62
     7
370
    25
100
AcDbLine
 10
33.6317589013
 20
214.5208909059
 30
0.0
 11
41.0259006219
 21
214.5208909059
 31
0.0
  0
ARC
  5
76
330
1F
100
AcDbEntity
  8
0
  6
Continuous
 62
     7
370
    25
100
AcDbCircle
 10
41.0259006219
 20
218.5208909059
 30
0.0
 40
3.999999999999978
100
AcDbArc
 50
270.0
 51
313.0915437738
  0
ARC
  5
77
330
1F
100
AcDbEntity
  8
0
  6
Continuous
 62
     7
370
    25
100
AcDbCircle
 10
98.5877851228
 20
218.5208909059
 30
0.0
 40
4.000000000000028
100
AcDbArc
 50
233.2734194889
 51
270.0
  0
ARC
  5
78
330
1F
100
AcDbEntity
  8
0
  6
Continuous
 62
     7
370
    25
100
AcDbCircle
 10
114.6642505411
 20
218.5208909059
 30
0.0
 40
4.000000000000028
100
AcDbArc
 50
270.0
 51
306.7265805111
  0
ARC
  5
79
330
1F
100
AcDbEntity
  8
0
  6
Continuous
 62
     7
370
    25
100
AcDbCircle
 10
172.226135042
 20
218.5208909059
 30
0.0
 40
4.000000000000023
100
AcDbArc
 50
226.9084562262
 51
270.0
  0
LINE
  5
7A
330
1F
100
AcDbEntity
  8
0
  6
Continuous
 62
     7
370
    25
100
AcDbLine
 10
172.226135042
 20
214.5208909059
 30
0.0
 11
179.6202767627
 21
214.5208909059
 31
0.0
  0
ARC
  5
7B
330
1F
100
AcDbEntity
  8
0
  6
Continuous
 62
     7
370
    25
100
AcDbCircle
 10
179.6202767627
 20
213.7708909059
 30
0.0
 40
0.75
100
AcDbArc
 50
0.0
 51
90.0
  0
LINE
  5
7C
330
1F
100
AcDbEntity
  8
0
  6
Continuous
 62
     7
370
    25
100
AcDbLine
 10
180.3702767627
 20
213.7708909059
 30
0.0
 11
180.3702767627
 21
210.7708909059
 31
0.0
  0
SPLINE
  5
7D
330
1F
100
AcDbEntity
  8
0
  6
Continuous
 62
     7
370
    25
100
AcDbSpline
210
0.0
220
0.0
230
1.0
 70
    11
 71
     3
 72
    43
 73
    39
 74
     0
 42
0.00000001
 43
0.00000001
 40
0.0
 40
0.0
 40
0.0
 40
0.0
 40
0.053330194369662
 40
0.1046763786803277
 40
0.1389940484315028
 40
0.156125585015928
 40
0.1681629552227847
 40
0.179232517964405
 40
0.1878475678935793
 40
0.1998773200521906
 40
0.2242118879599514
 40
0.2843540007153409
 40
0.3338754010273438
 40
0.3409671279306149
 40
0.3959243573486624
 40
0.3993015174314045
 40
0.4161202910687226
 40
0.4520996804975841
 40
0.4866409426408638
 40
0.5309632448928445
 40
0.5742683419617212
 40
0.6004330529053097
 40
0.6222534492693909
 40
0.6383704820505424
 40
0.653270395895568
 40
0.6768797136613387
 40
0.7194723946632965
 40
0.7587078299290063
 40
0.7923988232859714
 40
0.8144973825800582
 40
0.8256327411149219
 40
0.8347396334898771
 40
0.8497606667822086
 40
0.8680087664910383
 40
0.89398557739577
 40
0.9164755754530705
 40
0.9385224170788942
 40
1.0
 40
1.0
 40
1.0
 40
1.0
 10
70.55566832978656
 20
217.5208909059202
 30
0.0
 10
73.29567441667119
 20
217.4288293098612
 30
0.0
 10
78.65535421500489
 20
217.1042564916152
 30
0.0
 10
85.77483011850317
 20
216.1579658862952
 30
0.0
 10
90.80060673157492
 20
214.568981467736
 30
0.0
 10
93.89110484237166
 20
213.4124834959184
 30
0.0
 10
95.47042281768984
 20
212.0338207756811
 30
0.0
 10
96.37067424000021
 20
210.6233576224325
 30
0.0
 10
96.62085925906425
 20
208.9922222524789
 30
0.0
 10
96.66392079227896
 20
206.6829252373099
 30
0.0
 10
96.12282481980458
 20
201.7409935139153
 30
0.0
 10
94.61335952191335
 20
194.9958568722454
 30
0.0
 10
92.29797255746908
 20
189.4231748818895
 30
0.0
 10
89.61655521074397
 20
184.3693254301909
 30
0.0
 10
86.64433565523996
 20
181.9961677864355
 30
0.0
 10
82.91701147666126
 20
181.0020966542492
 30
0.0
 10
80.0880319569087
 20
180.4163013602301
 30
0.0
 10
75.63992616519542
 20
179.7927506309068
 30
0.0
 10
69.74091152106821
 20
179.4966277121068
 30
0.0
 10
63.46752930036273
 20
179.621258783301
 30
0.0
 10
57.62005820069207
 20
180.1578540978198
 30
0.0
 10
53.06207543579222
 20
181.1806244175336
 30
0.0
 10
49.87735377647591
 20
182.2873684952667
 30
0.0
 10
47.9354307188354
 20
184.2549108957757
 30
0.0
 10
46.32991309847649
 20
186.5730789669186
 30
0.0
 10
45.04287247883818
 20
190.589424580165
 30
0.0
 10
44.16381876129914
 20
195.93050125596
 30
0.0
 10
43.65415127110632
 20
201.8566902974864
 30
0.0
 10
43.69025314351348
 20
206.7318516232532
 30
0.0
 10
43.98320885798226
 20
210.1863556629025
 30
0.0
 10
44.7826981553445
 20
212.2389749845979
 30
0.0
 10
45.93030133922633
 20
213.6761275341032
 30
0.0
 10
47.85527935994555
 20
214.7894560672379
 30
0.0
 10
50.75099124556653
 20
215.7174834335967
 30
0.0
 10
54.0744503125101
 20
216.6059118438108
 30
0.0
 10
57.68698425541057
 20
216.9452321788107
 30
0.0
 10
63.08881244940623
 20
217.6388611935902
 30
0.0
 10
67.39706458941448
 20
217.6270169846353
 30
0.0
 10
70.55566832978656
 20
217.5208909059202
 30
0.0
  0
LINE
  5
7E
330
1F
100
AcDbEntity
  8
0
  6
Continuous
 62
     7
370
    25
100
AcDbLine
 10
98.5877851228
 20
214.5208909059
 30
0.0
 11
114.6642505411
 21
214.5208909059
 31
0.0
  0
SPLINE
  5
7F
330
1F
100
AcDbEntity
  8
0
  6
Continuous
 62
     7
370
    25
100
AcDbSpline
210
0.0
220
0.0
230
1.0
 70
    11
 71
     3
 72
    43
 73
    39
 74
     0
 42
0.00000001
 43
0.00000001
 40
0.0
 40
0.0
 40
0.0
 40
0.0
 40
0.0533301943696619
 40
0.1046763786803277
 40
0.1389940484315028
 40
0.1561255850159279
 40
0.1681629552227846
 40
0.179232517964405
 40
0.1878475678935793
 40
0.1998773200521906
 40
0.2242118879599513
 40
0.2843540007153409
 40
0.3338754010273438
 40
0.3409671279306148
 40
0.3959243573486624
 40
0.3993015174314044
 40
0.4161202910687226
 40
0.4520996804975841
 40
0.4866409426408638
 40
0.5309632448928446
 40
0.5742683419617213
 40
0.6004330529053098
 40
0.622253449269391
 40
0.6383704820505424
 40
0.653270395895568
 40
0.6768797136613387
 40
0.7194723946632965
 40
0.7587078299290063
 40
0.7923988232859714
 40
0.8144973825800583
 40
0.8256327411149219
 40
0.8347396334898771
 40
0.8497606667822087
 40
0.8680087664910383
 40
0.89398557739577
 40
0.9164755754530705
 40
0.9385224170788942
 40
1.0
 40
1.0
 40
1.0
 40
1.0
 10
142.6963673341625
 20
217.5208909059202
 30
0.0
 10
139.9563612472779
 20
217.4288293098612
 30
0.0
 10
134.5966814489442
 20
217.1042564916152
 30
0.0
 10
127.477205545446
 20
216.1579658862952
 30
0.0
 10
122.4514289323742
 20
214.568981467736
 30
0.0
 10
119.3609308215775
 20
213.4124834959184
 30
0.0
 10
117.7816128462593
 20
212.0338207756811
 30
0.0
 10
116.8813614239489
 20
210.6233576224325
 30
0.0
 10
116.6311764048849
 20
208.9922222524789
 30
0.0
 10
116.5881148716702
 20
206.6829252373099
 30
0.0
 10
117.1292108441445
 20
201.7409935139154
 30
0.0
 10
118.6386761420358
 20
194.9958568722454
 30
0.0
 10
120.95406310648
 20
189.4231748818895
 30
0.0
 10
123.6354804532052
 20
184.3693254301909
 30
0.0
 10
126.6077000087092
 20
181.9961677864356
 30
0.0
 10
130.3350241872879
 20
181.0020966542492
 30
0.0
 10
133.1640037070404
 20
180.4163013602301
 30
0.0
 10
137.6121094987537
 20
179.7927506309068
 30
0.0
 10
143.5111241428809
 20
179.4966277121068
 30
0.0
 10
149.7845063635864
 20
179.621258783301
 30
0.0
 10
155.6319774632571
 20
180.1578540978199
 30
0.0
 10
160.1899602281569
 20
181.1806244175336
 30
0.0
 10
163.3746818874732
 20
182.2873684952667
 30
0.0
 10
165.3166049451137
 20
184.2549108957757
 30
0.0
 10
166.9221225654726
 20
186.5730789669186
 30
0.0
 10
168.2091631851109
 20
190.589424580165
 30
0.0
 10
169.08821690265
 20
195.93050125596
 30
0.0
 10
169.5978843928428
 20
201.8566902974864
 30
0.0
 10
169.5617825204356
 20
206.7318516232532
 30
0.0
 10
169.2688268059668
 20
210.1863556629025
 30
0.0
 10
168.4693375086046
 20
212.238974984598
 30
0.0
 10
167.3217343247228
 20
213.6761275341032
 30
0.0
 10
165.3967563040036
 20
214.7894560672379
 30
0.0
 10
162.5010444183826
 20
215.7174834335967
 30
0.0
 10
159.177585351439
 20
216.6059118438108
 30
0.0
 10
155.5650514085385
 20
216.9452321788107
 30
0.0
 10
150.1632232145429
 20
217.6388611935902
 30
0.0
 10
145.8549710745346
 20
217.6270169846353
 30
0.0
 10
142.6963673341625
 20
217.5208909059202
 30
0.0
  0
SPLINE
  5
80
330
1F
100
AcDbEntity
  8
0
  6
Continuous
 62
     7
370
    25
100
AcDbSpline
210
0.0
220
0.0
230
1.0
 70
     8
 71
     3
 72
    59
 73
    55
 74
     0
 42
0.00000001
 43
0.00000001
 40
0.2004989911829287
 40
0.2004989911829287
 40
0.2004989911829287
 40
0.2004989911829287
 40
0.203125
 40
0.2109375
 40
0.21875
 40
0.234375
 40
0.25
 40
0.265625
 40
0.28125
 40
0.296875
 40
0.3125
 40
0.3203125
 40
0.328125
 40
0.33203125
 40
0.3359375
 40
0.34375
 40
0.3515625
 40
0.359375
 40
0.375
 40
0.3828125
 40
0.390625
 40
0.3984375
 40
0.40234375
 40
0.40625
 40
0.4140625
 40
0.421875
 40
0.4375
 40
0.453125
 40
0.46875
 40
0.5
 40
0.53125
 40
0.546875
 40
0.5625
 40
0.578125
 40
0.59375
 40
0.6015625
 40
0.609375
 40
0.6171875
 40
0.625
 40
0.6328125
 40
0.640625
 40
0.6484375
 40
0.65625
 40
0.6640625
 40
0.671875
 40
0.6875
 40
0.703125
 40
0.71875
 40
0.734375
 40
0.75
 40
0.765625
 40
0.78125
 40
0.7890625
 40
0.791759623888736
 40
0.791759623888736
 40
0.791759623888736
 40
0.791759623888736
 10
113.6293270733155
 20
207.1351496747269
 30
0.0
 10
113.6336993631575
 20
206.9821459006789
 30
0.0
 10
113.6568002886676
 20
206.3783532762716
 30
0.0
 10
113.7300636019892
 20
205.3378471002497
 30
0.0
 10
113.92275741342
 20
203.6070145419172
 30
0.0
 10
114.234776204715
 20
201.5294728456687
 30
0.0
 10
114.7129638287913
 20
199.0279752813864
 30
0.0
 10
115.3044516489364
 20
196.5506375837367
 30
0.0
 10
116.0130852514455
 20
194.0953960282476
 30
0.0
 10
116.8444554727811
 20
191.6709866964108
 30
0.0
 10
117.6374490916298
 20
189.6872840559942
 30
0.0
 10
118.3319805033351
 20
188.1254195821571
 30
0.0
 10
118.7897511035965
 20
187.1619229163531
 30
0.0
 10
119.1731265542901
 20
186.3962241139861
 30
0.0
 10
119.5576064669188
 20
185.6444745878827
 30
0.0
 10
120.1941929077649
 20
184.5206608088189
 30
0.0
 10
121.1109786106181
 20
183.2777307854567
 30
0.0
 10
122.4935769205539
 20
181.7523915337815
 30
0.0
 10
124.0948897754874
 20
180.4450355947777
 30
0.0
 10
125.8837072564554
 20
179.3963291359906
 30
0.0
 10
127.2872835969191
 20
178.7553952730697
 30
0.0
 10
128.584107350572
 20
178.3550697814357
 30
0.0
 10
129.4224841063443
 20
178.1503764920485
 30
0.0
 10
130.2811899092654
 20
177.9524138779494
 30
0.0
 10
131.3300210834456
 20
177.7408639539212
 30
0.0
 10
132.9819520994238
 20
177.4424169700223
 30
0.0
 10
135.0646993595578
 20
177.1272638381
 30
0.0
 10
137.5772268891268
 20
176.8473924845775
 30
0.0
 10
140.9289819466766
 20
176.6077313570283
 30
0.0
 10
145.082124753618
 20
176.5168343732782
 30
0.0
 10
149.2175366076056
 20
176.6437071638143
 30
0.0
 10
152.5469503953288
 20
176.8753157588191
 30
0.0
 10
155.0752980399139
 20
177.1462048328329
 30
0.0
 10
157.6097091962685
 20
177.5435126950928
 30
0.0
 10
159.7379537815761
 20
178.0143818126949
 30
0.0
 10
161.4113777497826
 20
178.4753069937509
 30
0.0
 10
162.7671905273369
 20
178.910398396353
 30
0.0
 10
164.2188188258427
 20
179.526138033749
 30
0.0
 10
165.730386437359
 20
180.4891032199906
 30
0.0
 10
166.9364441621581
 20
181.6246880306101
 30
0.0
 10
167.8964663665805
 20
182.7529900763904
 30
0.0
 10
168.7706806266609
 20
183.9760705349183
 30
0.0
 10
169.5328670459383
 20
185.3562766511539
 30
0.0
 10
170.0991567499211
 20
186.7342847206838
 30
0.0
 10
170.671850956082
 20
188.5217296331865
 30
0.0
 10
171.1820453110439
 20
190.6135281267286
 30
0.0
 10
171.6574298508813
 20
193.1450092058735
 30
0.0
 10
172.0047486142646
 20
195.6337019655786
 30
0.0
 10
172.2777457383429
 20
198.1165468622302
 30
0.0
 10
172.4695303736135
 20
200.626862353796
 30
0.0
 10
172.5663750330311
 20
203.1513161755084
 30
0.0
 10
172.56160428735
 20
205.2598962832167
 30
0.0
 10
172.5120684843872
 20
206.6757794448796
 30
0.0
 10
172.4852969495627
 20
207.2448577491529
 30
0.0
 10
172.4776991212561
 20
207.39178228742
 30
0.0
  0
LINE
  5
81
330
1F
100
AcDbEntity
  8
0
  6
Continuous
 62
     7
370
    25
100
AcDbLine
 10
103.6210763743
 20
211.0208909059
 30
0.0
 11
109.6309592896
 21
211.0208909059
 31
0.0
  0
SPLINE
  5
82
330
1F
100
AcDbEntity
  8
0
  6
Continuous
 62
     7
370
    25
100
AcDbSpline
210
0.0
220
0.0
230
1.0
 70
     8
 71
     3
 72
    30
 73
    26
 74
     0
 42
0.00000001
 43
0.00000001
 40
0.8349182916276692
 40
0.8349182916276692
 40
0.8349182916276692
 40
0.8349182916276692
 40
0.8359375
 40
0.84375
 40
0.8515625
 40
0.859375
 40
0.875
 40
0.890625
 40
0.90625
 40
0.921875
 40
0.9375
 40
0.953125
 40
0.96875
 40
1.0
 40
1.03125
 40
1.0625
 40
1.078125
 40
1.09375
 40
1.109375
 40
1.125
 40
1.1328125
 40
1.140625
 40
1.1484375
 40
1.15625
 40
1.158989321676479
 40
1.158989321676479
 40
1.158989321676479
 40
1.158989321676479
 10
43.75856463122256
 20
215.599838456505
 30
0.0
 10
43.81886997666381
 20
215.6562545085649
 30
0.0
 10
44.34656038545151
 20
216.1348769023013
 30
0.0
 10
45.41096721980713
 20
216.857859331712
 30
0.0
 10
46.81004479872113
 20
217.5297561362808
 30
0.0
 10
48.60150603239634
 20
218.1982825533139
 30
0.0
 10
50.58327768590594
 20
218.77427590829
 30
0.0
 10
53.16045335081516
 20
219.4329055366735
 30
0.0
 10
55.86320444569814
 20
219.7965686459358
 30
0.0
 10
58.15820151427297
 20
220.0298389864116
 30
0.0
 10
60.62240586758053
 20
220.3331136667358
 30
0.0
 10
63.18082875449525
 20
220.5167526775013
 30
0.0
 10
66.53296652055917
 20
220.6189570765621
 30
0.0
 10
70.66601923596578
 20
220.5451862929831
 30
0.0
 10
75.56801885074427
 20
220.3007375608849
 30
0.0
 10
79.6627087812847
 20
219.9483377858258
 30
0.0
 10
82.99563206609977
 20
219.5272053732206
 30
0.0
 10
85.51062726196102
 20
219.1028925649285
 30
0.0
 10
88.04571684448612
 20
218.5271935702151
 30
0.0
 10
90.08910613141346
 20
217.9286342671603
 30
0.0
 10
91.70465708852393
 20
217.3958092806443
 30
0.0
 10
92.86473289011198
 20
216.9921519230322
 30
0.0
 10
94.18684710530971
 20
216.4989743129618
 30
0.0
 10
95.37303479028812
 20
215.8953549191715
 30
0.0
 10
96.02869701480107
 20
215.4395707622543
 30
0.0
 10
96.19579696141933
 20
215.3148976689127
 30
0.0
  0
SPLINE
  5
83
330
1F
100
AcDbEntity
  8
0
  6
Continuous
 62
     7
370
    25
100
AcDbSpline
210
0.0
220
0.0
230
1.0
 70
     8
 71
     3
 72
    59
 73
    55
 74
     0
 42
0.00000001
 43
0.00000001
 40
0.2004989911829277
 40
0.2004989911829277
 40
0.2004989911829277
 40
0.2004989911829277
 40
0.203125
 40
0.2109375
 40
0.21875
 40
0.234375
 40
0.25
 40
0.265625
 40
0.28125
 40
0.296875
 40
0.3125
 40
0.3203125
 40
0.328125
 40
0.33203125
 40
0.3359375
 40
0.34375
 40
0.3515625
 40
0.359375
 40
0.375
 40
0.3828125
 40
0.390625
 40
0.3984375
 40
0.40234375
 40
0.40625
 40
0.4140625
 40
0.421875
 40
0.4375
 40
0.453125
 40
0.46875
 40
0.5
 40
0.53125
 40
0.546875
 40
0.5625
 40
0.578125
 40
0.59375
 40
0.6015625
 40
0.609375
 40
0.6171875
 40
0.625
 40
0.6328125
 40
0.640625
 40
0.6484375
 40
0.65625
 40
0.6640625
 40
0.671875
 40
0.6875
 40
0.703125
 40
0.71875
 40
0.734375
 40
0.75
 40
0.765625
 40
0.78125
 40
0.7890625
 40
0.7917596238887368
 40
0.7917596238887368
 40
0.7917596238887368
 40
0.7917596238887368
 10
99.62270859063368
 20
207.1351496747271
 30
0.0
 10
99.61833630079161
 20
206.982145900679
 30
0.0
 10
99.59523537528149
 20
206.3783532762716
 30
0.0
 10
99.52197206195993
 20
205.3378471002496
 30
0.0
 10
99.32927825052909
 20
203.6070145419172
 30
0.0
 10
99.01725945923414
 20
201.5294728456687
 30
0.0
 10
98.5390718351578
 20
199.0279752813864
 30
0.0
 10
97.94758401501282
 20
196.5506375837366
 30
0.0
 10
97.23895041250371
 20
194.0953960282476
 30
0.0
 10
96.4075801911681
 20
191.6709866964108
 30
0.0
 10
95.6145865723194
 20
189.6872840559942
 30
0.0
 10
94.9200551606141
 20
188.125419582157
 30
0.0
 10
94.46228456035274
 20
187.161922916353
 30
0.0
 10
94.07890910965911
 20
186.396224113986
 30
0.0
 10
93.69442919703042
 20
185.6444745878827
 30
0.0
 10
93.0578427561843
 20
184.5206608088189
 30
0.0
 10
92.14105705333111
 20
183.2777307854566
 30
0.0
 10
90.75845874339538
 20
181.7523915337815
 30
0.0
 10
89.15714588846187
 20
180.4450355947777
 30
0.0
 10
87.3683284074939
 20
179.3963291359906
 30
0.0
 10
85.96475206703016
 20
178.7553952730696
 30
0.0
 10
84.6679283133773
 20
178.3550697814356
 30
0.0
 10
83.82955155760497
 20
178.1503764920484
 30
0.0
 10
82.97084575468389
 20
177.9524138779493
 30
0.0
 10
81.9220145805037
 20
177.7408639539211
 30
0.0
 10
80.27008356452545
 20
177.4424169700222
 30
0.0
 10
78.18733630439154
 20
177.1272638380999
 30
0.0
 10
75.67480877482245
 20
176.8473924845774
 30
0.0
 10
72.32305371727271
 20
176.6077313570281
 30
0.0
 10
68.16991091033131
 20
176.5168343732781
 30
0.0
 10
64.0344990563437
 20
176.6437071638141
 30
0.0
 10
60.70508526862055
 20
176.875315758819
 30
0.0
 10
58.17673762403542
 20
177.1462048328327
 30
0.0
 10
55.64232646768079
 20
177.5435126950925
 30
0.0
 10
53.51408188237318
 20
178.0143818126947
 30
0.0
 10
51.84065791416674
 20
178.4753069937507
 30
0.0
 10
50.48484513661236
 20
178.9103983963528
 30
0.0
 10
49.03321683810658
 20
179.5261380337487
 30
0.0
 10
47.5216492265902
 20
180.4891032199904
 30
0.0
 10
46.3155915017912
 20
181.6246880306099
 30
0.0
 10
45.35556929736877
 20
182.7529900763901
 30
0.0
 10
44.48135503728836
 20
183.976070534918
 30
0.0
 10
43.71916861801074
 20
185.3562766511537
 30
0.0
 10
43.15287891402797
 20
186.7342847206836
 30
0.0
 10
42.58018470786722
 20
188.5217296331862
 30
0.0
 10
42.0699903529053
 20
190.6135281267283
 30
0.0
 10
41.5946058130679
 20
193.1450092058732
 30
0.0
 10
41.24728704968465
 20
195.6337019655783
 30
0.0
 10
40.97428992560631
 20
198.1165468622299
 30
0.0
 10
40.78250529033567
 20
200.6268623537956
 30
0.0
 10
40.68566063091799
 20
203.1513161755081
 30
0.0
 10
40.69043137659909
 20
205.2598962832164
 30
0.0
 10
40.73996717956194
 20
206.6757794448794
 30
0.0
 10
40.76673871438638
 20
207.2448577491527
 30
0.0
 10
40.77433654269304
 20
207.3917822874198
 30
0.0
  0
SPLINE
  5
84
330
1F
100
AcDbEntity
  8
0
  6
Continuous
 62
     7
370
    25
100
AcDbSpline
210
0.0
220
0.0
230
1.0
 70
     8
 71
     3
 72
    30
 73
    26
 74
     0
 42
0.00000001
 43
0.00000001
 40
0.834918291627668
 40
0.834918291627668
 40
0.834918291627668
 40
0.834918291627668
 40
0.8359375
 40
0.84375
 40
0.8515625
 40
0.859375
 40
0.875
 40
0.890625
 40
0.90625
 40
0.921875
 40
0.9375
 40
0.953125
 40
0.96875
 40
1.0
 40
1.03125
 40
1.0625
 40
1.078125
 40
1.09375
 40
1.109375
 40
1.125
 40
1.1328125
 40
1.140625
 40
1.1484375
 40
1.15625
 40
1.158989321676479
 40
1.158989321676479
 40
1.158989321676479
 40
1.158989321676479
 10
169.4934710327267
 20
215.599838456505
 30
0.0
 10
169.4331656872854
 20
215.656254508565
 30
0.0
 10
168.9054752784976
 20
216.1348769023015
 30
0.0
 10
167.8410684441419
 20
216.8578593317122
 30
0.0
 10
166.4419908652279
 20
217.5297561362811
 30
0.0
 10
164.6505296315526
 20
218.1982825533142
 30
0.0
 10
162.6687579780431
 20
218.7742759082903
 30
0.0
 10
160.091582313134
 20
219.4329055366737
 30
0.0
 10
157.388831218251
 20
219.796568645936
 30
0.0
 10
155.0938341496762
 20
220.0298389864119
 30
0.0
 10
152.6296297963686
 20
220.333113666736
 30
0.0
 10
150.0712069094538
 20
220.5167526775015
 30
0.0
 10
146.7190691433899
 20
220.6189570765622
 30
0.0
 10
142.5860164279834
 20
220.5451862929832
 30
0.0
 10
137.6840168132049
 20
220.300737560885
 30
0.0
 10
133.5893268826644
 20
219.9483377858259
 30
0.0
 10
130.2564035978493
 20
219.5272053732206
 30
0.0
 10
127.7414084019881
 20
219.1028925649286
 30
0.0
 10
125.206318819463
 20
218.5271935702152
 30
0.0
 10
123.1629295325356
 20
217.9286342671603
 30
0.0
 10
121.5473785754252
 20
217.3958092806444
 30
0.0
 10
120.3873027738371
 20
216.9921519230322
 30
0.0
 10
119.0651885586394
 20
216.4989743129618
 30
0.0
 10
117.879000873661
 20
215.8953549191715
 30
0.0
 10
117.2233386491481
 20
215.4395707622543
 30
0.0
 10
117.0562387025298
 20
215.3148976689127
 30
0.0
  0
MTEXT
  5
86
330
1F
100
AcDbEntity
  8
0
  6
Continuous
 62
     7
100
AcDbMText
 10
0.0
 20
10.1326830986
 30
0.0
 40
3.633
 41
0.0
 71
     1
 72
     1
  1
SOLIDWORKS Educational Product.
  7
SLDTEXTSTYLE0
 73
     1
 44
1.0
  0
MTEXT
  5
87
330
1F
100
AcDbEntity
  8
0
  6
Continuous
 62
     7
100
AcDbMText
 10
0.0
 20
4.6831830986
 30
0.0
 40
3.633
 41
0.0
 71
     1
 72
     1
  1
For Instructional Use Only.
  7
SLDTEXTSTYLE0
 73
     1
 44
1.0
  0
ENDSEC
  0
SECTION
  2
OBJECTS
  0
DICTIONARY
  5
C
330
0
100
AcDbDictionary
281
     1
  3
ACAD_GROUP
350
D
  3
ACAD_LAYOUT
350
1A
  3
ACAD_MLINESTYLE
350
17
  3
ACAD_PLOTSETTINGS
350
19
  3
ACAD_PLOTSTYLENAME
350
E
  3
ACAD_SCALELIST
350
47
  3
DWGPROPS
350
88
  0
DICTIONARY
  5
D
102
{ACAD_REACTORS
330
C
102
}
330
C
100
AcDbDictionary
281
     1
  0
DICTIONARY
  5
1A
102
{ACAD_REACTORS
330
C
102
}
330
C
100
AcDbDictionary
281
     1
  3
Layout1
350
1E
  3
Layout2
350
26
  3
Model
350
22
  0
DICTIONARY
  5
17
102
{ACAD_REACTORS
330
C
102
}
330
C
100
AcDbDictionary
281
     1
  3
Standard
350
18
  0
DICTIONARY
  5
19
102
{ACAD_REACTORS
330
C
102
}
330
C
100
AcDbDictionary
281
     1
  0
ACDBDICTIONARYWDFLT
  5
E
102
{ACAD_REACTORS
330
C
102
}
330
C
100
AcDbDictionary
281
     1
  3
Normal
350
F
100
AcDbDictionaryWithDefault
340
F
  0
DICTIONARY
  5
47
102
{ACAD_REACTORS
330
C
102
}
330
C
100
AcDbDictionary
281
     1
  3
A0
350
48
  3
A1
350
49
  3
A2
350
4A
  3
A3
350
4B
  3
A4
350
4C
  3
A5
350
4D
  3
A6
350
4E
  3
A7
350
4F
  3
A8
350
50
  3
A9
350
51
  3
B0
350
52
  3
B1
350
53
  3
B2
350
54
  3
B3
350
55
  3
B4
350
56
  3
B5
350
57
  3
B6
350
58
  0
XRECORD
  5
88
102
{ACAD_REACTORS
330
C
102
}
330
C
100
AcDbXrecord
280
     1
  1
DWGPROPS COOKIE
  2

  3

  4

  6

  7

  8
brad
  9

300
=
301
=
302
=
303
=
304
=
305
=
306
=
307
=
308
=
309
=
 40
0.0
 41
2460851.803942581
 42
2460851.803943183
  1

 90
        0
  0
LAYOUT
  5
1E
102
{ACAD_REACTORS
330
1A
102
}
330
1A
100
AcDbPlotSettings
  1

  2
none_device
  4

  6

 40
0.0
 41
0.0
 42
0.0
 43
0.0
 44
0.0
 45
0.0
 46
0.0
 47
0.0
 48
0.0
 49
0.0
140
0.0
141
0.0
142
1.0
143
1.0
 70
   688
 72
     1
 73
     0
 74
     5
  7

 75
    16
147
1.0
148
0.0
149
0.0
100
AcDbLayout
  1
Layout1
 70
     1
 71
     1
 10
0.0
 20
0.0
 11
420.0
 21
297.0
 12
0.0
 22
0.0
 32
0.0
 14
1.0000000000E+20
 24
1.0000000000E+20
 34
1.0000000000E+20
 15
-1.0000000000E+20
 25
-1.0000000000E+20
 35
-1.0000000000E+20
146
0.0
 13
0.0
 23
0.0
 33
0.0
 16
1.0
 26
0.0
 36
0.0
 17
0.0
 27
1.0
 37
0.0
 76
     0
330
1B
  0
LAYOUT
  5
26
102
{ACAD_REACTORS
330
1A
102
}
330
1A
100
AcDbPlotSettings
  1

  2
none_device
  4

  6

 40
0.0
 41
0.0
 42
0.0
 43
0.0
 44
0.0
 45
0.0
 46
0.0
 47
0.0
 48
0.0
 49
0.0
140
0.0
141
0.0
142
1.0
143
1.0
 70
   688
 72
     1
 73
     0
 74
     5
  7

 75
    16
147
1.0
148
0.0
149
0.0
100
AcDbLayout
  1
Layout2
 70
     1
 71
     2
 10
0.0
 20
0.0
 11
0.0
 21
0.0
 12
0.0
 22
0.0
 32
0.0
 14
0.0
 24
0.0
 34
0.0
 15
0.0
 25
0.0
 35
0.0
146
0.0
 13
0.0
 23
0.0
 33
0.0
 16
1.0
 26
0.0
 36
0.0
 17
0.0
 27
1.0
 37
0.0
 76
     0
330
23
  0
LAYOUT
  5
22
102
{ACAD_REACTORS
330
1A
102
}
330
1A
100
AcDbPlotSettings
  1

  2
none_device
  4
Letter_(8.50_x_11.00_Inches)
  6

 40
6.35
 41
6.35
 42
6.35000508
 43
6.35000508
 44
215.9
 45
279.4
 46
0.0
 47
0.0
 48
0.0
 49
0.0
140
0.0
141
0.0
142
1.0
143
1.0
 70
  1712
 72
     1
 73
     0
 74
     0
  7

 75
     0
147
1.0
148
0.0
149
0.0
100
AcDbLayout
  1
Model
 70
     1
 71
     0
 10
0.0
 20
0.0
 11
210.0
 21
297.0
 12
0.0
 22
0.0
 32
0.0
 14
0.0
 24
0.0
 34
0.0
 15
210.0
 25
297.0
 35
0.0
146
0.0
 13
0.0
 23
0.0
 33
0.0
 16
1.0
 26
0.0
 36
0.0
 17
0.0
 27
1.0
 37
0.0
 76
     0
330
1F
331
29
  0
MLINESTYLE
  5
18
102
{ACAD_REACTORS
330
17
102
}
330
17
100
AcDbMlineStyle
  2
Standard
 70
     0
  3

 62
   256
 51
90.0
 52
90.0
 71
     2
 49
0.5
 62
   256
  6
BYLAYER
 49
-0.5
 62
   256
  6
BYLAYER
  0
ACDBPLACEHOLDER
  5
F
102
{ACAD_REACTORS
330
E
102
}
330
E
  0
SCALE
  5
48
102
{ACAD_REACTORS
330
47
102
}
330
47
100
AcDbScale
 70
     0
300
1:1
140
1.0
141
1.0
290
     1
  0
SCALE
  5
49
102
{ACAD_REACTORS
330
47
102
}
330
47
100
AcDbScale
 70
     0
300
1:2
140
1.0
141
2.0
290
     0
  0
SCALE
  5
4A
102
{ACAD_REACTORS
330
47
102
}
330
47
100
AcDbScale
 70
     0
300
1:4
140
1.0
141
4.0
290
     0
  0
SCALE
  5
4B
102
{ACAD_REACTORS
330
47
102
}
330
47
100
AcDbScale
 70
     0
300
1:5
140
1.0
141
5.0
290
     0
  0
SCALE
  5
4C
102
{ACAD_REACTORS
330
47
102
}
330
47
100
AcDbScale
 70
     0
300
1:8
140
1.0
141
8.0
290
     0
  0
SCALE
  5
4D
102
{ACAD_REACTORS
330
47
102
}
330
47
100
AcDbScale
 70
     0
300
1:10
140
1.0
141
10.0
290
     0
  0
SCALE
  5
4E
102
{ACAD_REACTORS
330
47
102
}
330
47
100
AcDbScale
 70
     0
300
1:16
140
1.0
141
16.0
290
     0
  0
SCALE
  5
4F
102
{ACAD_REACTORS
330
47
102
}
330
47
100
AcDbScale
 70
     0
300
1:20
140
1.0
141
20.0
290
     0
  0
SCALE
  5
50
102
{ACAD_REACTORS
330
47
102
}
330
47
100
AcDbScale
 70
     0
300
1:30
140
1.0
141
30.0
290
     0
  0
SCALE
  5
51
102
{ACAD_REACTORS
330
47
102
}
330
47
100
AcDbScale
 70
     0
300
1:40
140
1.0
141
40.0
290
     0
  0
SCALE
  5
52
102
{ACAD_REACTORS
330
47
102
}
330
47
100
AcDbScale
 70
     0
300
1:50
140
1.0
141
50.0
290
     0
  0
SCALE
  5
53
102
{ACAD_REACTORS
330
47
102
}
330
47
100
AcDbScale
 70
     0
300
1:100
140
1.0
141
100.0
290
     0
  0
SCALE
  5
54
102
{ACAD_REACTORS
330
47
102
}
330
47
100
AcDbScale
 70
     0
300
2:1
140
2.0
141
1.0
290
     0
  0
SCALE
  5
55
102
{ACAD_REACTORS
330
47
102
}
330
47
100
AcDbScale
 70
     0
300
4:1
140
4.0
141
1.0
290
     0
  0
SCALE
  5
56
102
{ACAD_REACTORS
330
47
102
}
330
47
100
AcDbScale
 70
     0
300
8:1
140
8.0
141
1.0
290
     0
  0
SCALE
  5
57
102
{ACAD_REACTORS
330
47
102
}
330
47
100
AcDbScale
 70
     0
300
10:1
140
10.0
141
1.0
290
     0
  0
SCALE
  5
58
102
{ACAD_REACTORS
330
47
102
}
330
47
100
AcDbScale
 70
     0
300
100:1
140
100.0
141
1.0
290
     0
  0
ENDSEC
  0
EOF
