<?xml version="1.0" encoding="UTF-8"?>
<svg version="1.1" xmlns="http://www.w3.org/2000/svg" width="141" height="216">
<path d="M0 0 C46.53 0 93.06 0 141 0 C141 71.28 141 142.56 141 216 C94.47 216 47.94 216 0 216 C0 144.72 0 73.44 0 0 Z " fill="#C9C0AB" transform="translate(0,0)"/>
<path d="M0 0 C4.66073545 3.37796423 8.72718307 6.65942578 9.69140625 12.60546875 C10.23059544 18.30843131 10.07235783 22.79017407 6.69140625 27.60546875 C0.705376 34.09355315 -6.71824832 39.81760839 -15.7265625 40.89453125 C-21.88121022 40.61910812 -25.90286631 37.69444454 -30.30859375 33.60546875 C-30.82808594 33.13882813 -31.34757812 32.6721875 -31.8828125 32.19140625 C-35.84514308 28.12689522 -36.17656401 24.00668518 -36.30859375 18.60546875 C-36.96859375 18.93546875 -37.62859375 19.26546875 -38.30859375 19.60546875 C-39.30829207 13.17883668 -36.89421151 9.40927387 -33.31640625 4.13671875 C-24.84464282 -6.5436367 -11.24477827 -6.79253104 0 0 Z " fill="#CBC1AD" transform="translate(54.30859375,73.39453125)"/>
<path d="M0 0 C5.72543863 0.69399256 10.2353036 3.2353036 14.25 7.25 C18.34683375 13.68788161 20.4200872 20.34336316 19 28 C16.83063757 33.25084314 13.82148778 36.99467241 8.75 39.625 C3.71191167 41.46861748 -0.8566504 41.47454391 -6 40 C-11.90017505 36.54895421 -14.72976162 31.37413083 -17 25 C-17.670469 21.29977014 -17.77724137 18.22137929 -15.6875 14.9375 C-14.8521875 13.9784375 -14.8521875 13.9784375 -14 13 C-13.54625 11.845 -13.0925 10.69 -12.625 9.5 C-10.85509869 5.68790487 -9.61290962 4.10052885 -6 2 C-2.6875 1.75 -2.6875 1.75 0 2 C0 1.34 0 0.68 0 0 Z " fill="#CCC2AE" transform="translate(75,22)"/>
<path d="M0 0 C2.97969428 2.55402367 4.32062132 5.49520971 6 9 C6.99 10.485 6.99 10.485 8 12 C10.05868402 19.43413672 10.52474538 27.34967369 11.21484375 35.00976562 C12.00468868 43.31699437 13.08417047 50.33929035 17.75 57.4375 C18.47741034 58.55934655 19.20396599 59.68174772 19.9296875 60.8046875 C20.61289063 61.85914063 21.29609375 62.91359375 22 64 C22.96443793 65.68401856 23.92332435 67.37123642 24.875 69.0625 C27.92952311 74.20651832 31.72599997 78.63744545 35.6328125 83.140625 C37.98125845 85.9773617 39.96129643 88.93760698 42 92 C44.10575643 93.83300909 44.10575643 93.83300909 46 95 C44.84826645 97.46800047 43.95216435 99.04783565 42 101 C36.47418003 100.36976391 32.69883945 95.97381789 29.23828125 91.953125 C27.43794475 89.6713502 25.71038572 87.34988834 24 85 C23.37609375 84.16855469 22.7521875 83.33710938 22.109375 82.48046875 C18.94613289 78.15426999 16.34523224 74.1485739 14.671875 69.046875 C13.91099794 66.72885419 12.99569032 64.50401353 12.0625 62.25 C6.59255487 48.5855363 2.5841128 34.52728143 0.25 20 C0.12230225 19.21101318 -0.00539551 18.42202637 -0.13696289 17.60913086 C-1.02559333 11.73467791 -1.84580072 5.76812724 0 0 Z " fill="#CAC0AB" transform="translate(77,108)"/>
<path d="M0 0 C0.495 1.485 0.495 1.485 1 3 C0.32453125 2.90460937 -0.3509375 2.80921875 -1.046875 2.7109375 C-1.93890625 2.60007812 -2.8309375 2.48921875 -3.75 2.375 C-4.63171875 2.25898438 -5.5134375 2.14296875 -6.421875 2.0234375 C-9.22859878 1.99792183 -10.63384866 2.55156156 -13 4 C-11.68 4 -10.36 4 -9 4 C0.28925064 5.08014542 10.2424009 8.359943 16.453125 15.72265625 C17.5625 17.375 17.5625 17.375 19 20 C18.67 20.66 18.34 21.32 18 22 C17.55269531 21.59007813 17.10539062 21.18015625 16.64453125 20.7578125 C16.03996094 20.21898438 15.43539062 19.68015625 14.8125 19.125 C14.22082031 18.59132813 13.62914062 18.05765625 13.01953125 17.5078125 C10.78401927 15.83874553 8.61894321 14.9317829 6 14 C6.63228516 15.03060547 6.63228516 15.03060547 7.27734375 16.08203125 C7.82519531 16.98308594 8.37304688 17.88414063 8.9375 18.8125 C9.48277344 19.70582031 10.02804688 20.59914063 10.58984375 21.51953125 C13.76249808 27.10023901 13.65330401 32.73916991 13 39 C11.33187938 44.69373823 8.51711589 48.13116642 3.375 51.0625 C-2.89044864 53.76909889 -9.36940951 54.37155641 -15.8125 51.9375 C-21.19914836 47.1664686 -25.53828637 42.22504165 -27 35 C-27 25.87830358 -22.16031428 18.26266455 -17 11 C-22.29500913 12.36157378 -24.23745533 15.60343955 -27 20 C-27.33 19.34 -27.66 18.68 -28 18 C-26 15 -24 12 -22 9 C-27.11607465 12.86547862 -30.14875349 16.11108613 -31.5703125 22.60546875 C-32.11191683 26.88414296 -32.10714894 31.06809479 -32.0625 35.375 C-32.05798828 36.20644531 -32.05347656 37.03789063 -32.04882812 37.89453125 C-32.03713164 39.92971897 -32.01919935 41.96486923 -32 44 C-34 43 -34 43 -35 40 C-35.73033131 29.19952347 -35.19243779 19.23988274 -28.33203125 10.47265625 C-26.40418304 8.34128154 -24.37868767 6.6072214 -22 5 C-21.34 5 -20.68 5 -20 5 C-20 4.34 -20 3.68 -20 3 C-13.19877155 -0.13902852 -7.43378943 -0.33452052 0 0 Z M-8 11 C-8 11.66 -8 12.32 -8 13 C-8.86625 12.896875 -9.7325 12.79375 -10.625 12.6875 C-14.92955504 13.08606991 -17.28810351 14.7730846 -20 18 C-21.24893999 20.29223123 -22.08758392 22.53647658 -23 25 C-23.66 25.99 -24.32 26.98 -25 28 C-25.9473477 35.71411701 -23.38576655 41.59950817 -18.68359375 47.7109375 C-15.20539457 51.13958968 -11.36356612 52.01979988 -6.66015625 52.25390625 C-0.96388142 51.71020895 3.73503327 49.30059542 7.73828125 45.234375 C11.43174703 40.11554355 11.98390387 35.14475813 11 29 C9.20338849 21.83469055 6.22477315 17.04064222 0 13 C-3.1317168 11.16073775 -4.1427548 11 -8 11 Z " fill="#C9BFAB" transform="translate(83,11)"/>
<path d="M0 0 C0.66 0.33 1.32 0.66 2 1 C1.9244464 28.87927961 -4.05483494 57.32060578 -21.8828125 79.3359375 C-25.30397187 83.64079117 -28.13216697 88.31556533 -31 93 C-33.74875188 91.95089303 -36.05041045 90.96597294 -38.5 89.3125 C-40.94986442 87.72879935 -40.94986442 87.72879935 -43.8125 88.3125 C-44.534375 88.539375 -45.25625 88.76625 -46 89 C-46 88.34 -46 87.68 -46 87 C-44.49609375 85.84375 -44.49609375 85.84375 -42.4375 84.5 C-37.34889719 80.81390963 -34.3413637 76.24717855 -31 71 C-30.57074219 70.38640625 -30.14148437 69.7728125 -29.69921875 69.140625 C-18.31996593 52.38680652 -13.68403851 31.85657353 -12 12 C-11.34 12 -10.68 12 -10 12 C-10.80641506 28.72250187 -13.55347308 42.4869673 -20 58 C-20.66 58 -21.32 58 -22 58 C-22.23203125 58.82628906 -22.4640625 59.65257812 -22.703125 60.50390625 C-24.2552207 64.68801965 -26.36410535 68.18468654 -28.75 71.9375 C-29.16765625 72.61490234 -29.5853125 73.29230469 -30.015625 73.99023438 C-32.97101222 78.68911985 -36.27923606 82.88380423 -40 87 C-39.236875 87.28875 -38.47375 87.5775 -37.6875 87.875 C-35 89 -35 89 -32 91 C-31.73574219 90.44570312 -31.47148438 89.89140625 -31.19921875 89.3203125 C-29.86585989 86.74045855 -28.37283999 84.32441243 -26.8125 81.875 C-26.18859375 80.8953125 -25.5646875 79.915625 -24.921875 78.90625 C-23.21335349 76.32263211 -21.41465533 73.85586861 -19.5625 71.375 C-12.26065671 60.97440605 -7.51288058 49.70280714 -5.5703125 37.171875 C-5 34 -5 34 -4.01757812 31.72875977 C-2.81549735 28.50523364 -2.48022713 25.59143449 -2.1484375 22.16796875 C-2.01953125 20.87568359 -1.890625 19.58339844 -1.7578125 18.25195312 C-1.6300473 16.89715059 -1.50244517 15.54233267 -1.375 14.1875 C-1.24026288 12.81308425 -1.10485307 11.43873428 -0.96875 10.06445312 C-0.63921161 6.71022311 -0.31654842 3.35547669 0 0 Z " fill="#B6AE9B" transform="translate(70,112)"/>
<path d="M0 0 C5.39269596 3.04980184 8.32727176 6.74334338 10.08203125 12.79296875 C10.97417133 16.98523764 11.47873287 20.63486626 10.5234375 24.8671875 C7.93701305 28.65483837 4.85024325 31.72765227 1.5234375 34.8671875 C0.86085937 35.57617188 0.19828125 36.28515625 -0.484375 37.015625 C-5.04413818 41.25352254 -11.34418188 43.08594147 -17.4765625 43.4921875 C-24.23461256 43.18403742 -29.54555384 39.68095581 -34.33203125 35.0859375 C-35.82381036 33.40630473 -37.16096526 31.68644573 -38.4765625 29.8671875 C-39.0953125 29.1246875 -39.7140625 28.3821875 -40.3515625 27.6171875 C-42.45618533 22.47255392 -42.50341419 16.40411521 -40.4140625 11.2421875 C-39.7746875 10.4584375 -39.1353125 9.6746875 -38.4765625 8.8671875 C-37.94289063 8.12210938 -37.40921875 7.37703125 -36.859375 6.609375 C-32.08889208 0.07811298 -32.08889208 0.07811298 -29.25390625 -0.8984375 C-28.66738281 -0.97578125 -28.08085937 -1.053125 -27.4765625 -1.1328125 C-27.4765625 -1.7928125 -27.4765625 -2.4528125 -27.4765625 -3.1328125 C-18.26212797 -7.60041712 -8.82945077 -4.03870777 0 0 Z M-33.4765625 3.8671875 C-37.56165929 9.43070027 -40.3894958 13.86803222 -39.4765625 20.8671875 C-38.8165625 20.8671875 -38.1565625 20.8671875 -37.4765625 20.8671875 C-37.4765625 22.0015625 -37.4765625 23.1359375 -37.4765625 24.3046875 C-36.71873875 30.31390965 -32.85427649 33.97758099 -28.4765625 37.8671875 C-24.50642365 40.84089935 -21.02883243 42.19823415 -16.0390625 41.9296875 C-7.14707049 40.3739702 0.60170092 34.4774981 6.5234375 27.8671875 C9.46578771 21.9638646 9.25879762 16.4193197 7.4609375 10.1796875 C3.21696328 2.9238606 -2.96409408 -0.57801372 -10.9140625 -2.8203125 C-19.80344192 -3.90438316 -26.88816654 -2.72120846 -33.4765625 3.8671875 Z " fill="#AFA795" transform="translate(55.4765625,72.1328125)"/>
<path d="M0 0 C0.99 0.33 1.98 0.66 3 1 C2.01 1.495 2.01 1.495 1 2 C1.99 2.33 2.98 2.66 4 3 C4 2.34 4 1.68 4 1 C7.9413147 -0.15355552 10.25467839 -0.19062997 13.8125 1.75 C17 4 17 4 18 7 C18.598125 7.556875 19.19625 8.11375 19.8125 8.6875 C24.40154949 13.53878089 26.26424954 18.24816832 26.5625 24.9375 C26.3126542 30.93379931 25.07887968 35.49853368 21 40 C15.28371768 44.37974149 9.53300331 45.73802616 2.40625 45.34765625 C-3.16534669 44.54266907 -6.221301 41.15400058 -9.63671875 36.953125 C-12.7697516 32.46453926 -14 28.60039419 -14 23.125 C-12.59958528 15.30730027 -7.72211522 6.49653248 -1.9375 1.0625 C-1.298125 0.711875 -0.65875 0.36125 0 0 Z M5 3 C5 3.66 5 4.32 5 5 C4.13375 4.896875 3.2675 4.79375 2.375 4.6875 C-1.92955504 5.08606991 -4.28810351 6.7730846 -7 10 C-8.24893999 12.29223123 -9.08758392 14.53647658 -10 17 C-10.66 17.99 -11.32 18.98 -12 20 C-12.9473477 27.71411701 -10.38576655 33.59950817 -5.68359375 39.7109375 C-2.20539457 43.13958968 1.63643388 44.01979988 6.33984375 44.25390625 C12.03611858 43.71020895 16.73503327 41.30059542 20.73828125 37.234375 C24.43174703 32.11554355 24.98390387 27.14475813 24 21 C22.20338849 13.83469055 19.22477315 9.04064222 13 5 C9.8682832 3.16073775 8.8572452 3 5 3 Z " fill="#B8B09D" transform="translate(70,19)"/>
<path d="M0 0 C0.99 0.33 1.98 0.66 3 1 C1.125 6.75 1.125 6.75 0 9 C0.05816473 19.00433271 1.12617769 30.22172738 8 38 C18.98668427 45.65867894 30.1700977 45.93658903 43 44 C42.34 44.66 41.68 45.32 41 46 C39.68 46 38.36 46 37 46 C36.505 46.99 36.505 46.99 36 48 C28.14120137 47.64775091 21.34937998 46.86501253 14 44 C14 44.66 14 45.32 14 46 C17.96 46.66 21.92 47.32 26 48 C26 48.33 26 48.66 26 49 C18.22029246 49.5556934 13.87192317 47.39690482 7.375 43.375 C-0.30824074 35.69175926 -3.03113239 27.06644172 -3.25 16.5 C-3.16170949 10.65245156 -2.6519488 5.30389759 0 0 Z " fill="#BAB19E" transform="translate(10,77)"/>
<path d="M0 0 C4.03119644 0.52672427 6.13732125 1.57672358 9.125 4.3125 C10.11886719 5.20388672 10.11886719 5.20388672 11.1328125 6.11328125 C15.52244939 10.54883485 17.8296345 14.44451747 18.25 20.75 C18.0742672 26.56016565 17.24807686 31.90501384 14.25 36.9375 C9.66118594 41.14391289 4.45454274 41.46653938 -1.54296875 41.3046875 C-6.44916534 40.69628792 -9.50291667 38.71385558 -12.7265625 35.0234375 C-16.99519297 29.46005656 -18.46975693 25.97700583 -18.4140625 18.89453125 C-17.56486869 12.95818582 -13.56221813 9.52411525 -9.4375 5.5 C-6.68706517 3.80742472 -5.17154332 3.63753791 -2 4 C-2.99 4.66 -3.98 5.32 -5 6 C-9.83034818 9.57025735 -13.77266131 13.29883032 -16 19 C-16.45868202 23.66590332 -15.42319598 27.13733127 -13.375 31.3125 C-9.55093409 35.63973247 -4.89330682 38.57904951 1 39 C4.01723728 38.77536643 7.00471969 38.42416824 10 38 C10 37.01 10 36.02 10 35 C10.639375 34.54625 11.27875 34.0925 11.9375 33.625 C14.1377558 32.1849101 14.1377558 32.1849101 14.75 29.9375 C15.41910815 22.07547922 15.87129621 15.6323479 11 9 C7.69036902 5.47535819 4.82908025 2.92133768 0 2 C0 1.34 0 0.68 0 0 Z " fill="#B9B19D" transform="translate(105,75)"/>
<path d="M0 0 C-1 2 -1 2 -4.25 3.3125 C-10.78487655 6.00646952 -15.05533462 11.70577775 -18 18 C-18.42248477 21.33711408 -18.42248477 21.33711408 -18 24 C-17.34 23.67 -16.68 23.34 -16 23 C-16.00902344 23.6290625 -16.01804687 24.258125 -16.02734375 24.90625 C-15.80545185 31.3121727 -14.40825715 34.72561151 -9.921875 39.3046875 C-7.40701093 41.52308385 -4.89351712 43.30623388 -2 45 C-2.99 45.495 -2.99 45.495 -4 46 C-11.32514438 41.7643723 -17.15776164 36.68447672 -21 29 C-21.49935013 23.03660709 -21.9279294 17.8148812 -18 13 C-17.46632813 12.25492188 -16.93265625 11.50984375 -16.3828125 10.7421875 C-11.61232958 4.21092548 -11.61232958 4.21092548 -8.77734375 3.234375 C-8.19082031 3.15703125 -7.60429687 3.0796875 -7 3 C-7 2.34 -7 1.68 -7 1 C-4.53721199 -0.231394 -2.7204945 -0.07159196 0 0 Z " fill="#A9A290" transform="translate(35,68)"/>
<path d="M0 0 C0.495 1.485 0.495 1.485 1 3 C0.3709375 2.89300781 -0.258125 2.78601563 -0.90625 2.67578125 C-10.02827049 1.39814886 -14.94971645 3.25344148 -22.25 8.75 C-28.21884697 13.75612972 -31.03790958 18.15805547 -32 26 C-32.11083567 29.12662157 -32.09492796 32.24694933 -32.0625 35.375 C-32.05798828 36.20644531 -32.05347656 37.03789063 -32.04882812 37.89453125 C-32.03713164 39.92971897 -32.01919935 41.96486923 -32 44 C-34 43 -34 43 -35 40 C-35.73033131 29.19952347 -35.19243779 19.23988274 -28.33203125 10.47265625 C-26.40418304 8.34128154 -24.37868767 6.6072214 -22 5 C-21.34 5 -20.68 5 -20 5 C-20 4.34 -20 3.68 -20 3 C-13.19877155 -0.13902852 -7.43378943 -0.33452052 0 0 Z " fill="#B7AF9C" transform="translate(83,11)"/>
<path d="M0 0 C0.66 0 1.32 0 2 0 C1.19358494 16.72250187 -1.55347308 30.4869673 -8 46 C-8.66 46 -9.32 46 -10 46 C-10.28875 46.94875 -10.5775 47.8975 -10.875 48.875 C-12 52 -12 52 -14 54 C-13.69184572 50.09671246 -12.69326226 47.29514288 -10.8125 43.9375 C-3.83799495 30.47508328 -1.13855489 14.97788593 0 0 Z " fill="#B8AF9B" transform="translate(58,124)"/>
<path d="M0 0 C3 1 3 1 4 3 C6.52733235 3.65555119 6.52733235 3.65555119 9 4 C9 4.66 9 5.32 9 6 C8.34 6 7.68 6 7 6 C7 6.66 7 7.32 7 8 C6.401875 7.814375 5.80375 7.62875 5.1875 7.4375 C2.83591238 6.77906313 2.83591238 6.77906313 0 8 C-1.2065625 8.12375 -1.2065625 8.12375 -2.4375 8.25 C-5.91592757 9.26807636 -6.92692526 11.09769536 -9 14 C-9.98230498 15.0173873 -10.97469597 16.02596117 -12 17 C-10.08398554 9.68430844 -5.26377447 5.11338091 0 0 Z " fill="#C2B8A4" transform="translate(67,14)"/>
<path d="M0 0 C4.33357004 4.19986643 8.16258521 8.69360477 11.98242188 13.359375 C14.45739608 16.33626705 16.89820353 18.70831978 20 21 C20 21.66 20 22.32 20 23 C19.34 23 18.68 23 18 23 C18 23.66 18 24.32 18 25 C16 26.625 16 26.625 14 28 C13.34 27.67 12.68 27.34 12 27 C13.65 25.02 15.3 23.04 17 21 C16.4225 20.773125 15.845 20.54625 15.25 20.3125 C12.38673335 18.64226112 11.02273057 16.63101549 9 14 C8.22140625 12.99582031 7.4428125 11.99164063 6.640625 10.95703125 C5.85171875 9.91933594 5.0628125 8.88164062 4.25 7.8125 C3.05117187 6.24435547 3.05117187 6.24435547 1.828125 4.64453125 C0 2 0 2 0 0 Z " fill="#A7A190" transform="translate(106,182)"/>
<path d="M0 0 C0.83755894 2.34380892 1.22722371 3.49604688 0.18310547 5.81176758 C-0.25114746 6.41657959 -0.68540039 7.0213916 -1.1328125 7.64453125 C-1.60976563 8.32193359 -2.08671875 8.99933594 -2.578125 9.69726562 C-3.08859375 10.39529297 -3.5990625 11.09332031 -4.125 11.8125 C-4.61226562 12.49892578 -5.09953125 13.18535156 -5.6015625 13.89257812 C-7.05607814 15.93702365 -8.52700502 17.96884338 -10 20 C-10.95687859 21.33641734 -11.91268822 22.67360102 -12.8671875 24.01171875 C-13.92292969 25.49091797 -13.92292969 25.49091797 -15 27 C-16 24 -16 24 -15.18310547 22.31762695 C-14.74885254 21.71394287 -14.31459961 21.11025879 -13.8671875 20.48828125 C-13.39023437 19.81216797 -12.91328125 19.13605469 -12.421875 18.43945312 C-11.91140625 17.73755859 -11.4009375 17.03566406 -10.875 16.3125 C-9.89150335 14.93482414 -8.9097279 13.55591792 -7.9296875 12.17578125 C-7.44467773 11.49467285 -6.95966797 10.81356445 -6.45996094 10.11181641 C-4.1828215 6.81796086 -2.08139536 3.41992618 0 0 Z " fill="#B2AB97" transform="translate(55,176)"/>
<path d="M0 0 C1 2 1 2 1.125 5.625 C1.75649907 11.13808713 5.03745708 14.35961504 9 18 C10.95252939 19.51108797 12.86345481 20.7493394 15 22 C14.34 22.33 13.68 22.66 13 23 C0.18734028 15.12816984 0.18734028 15.12816984 -1.58984375 8.94921875 C-2.23167472 5.00448231 -2.25622805 3.38434208 0 0 Z " fill="#A29A8B" transform="translate(18,91)"/>
<path d="M0 0 C5.26170694 1.41167747 8.72171358 3.74850232 13 7 C10 8 10 8 8.02734375 7.36328125 C7.33769531 7.01652344 6.64804687 6.66976562 5.9375 6.3125 C5.24527344 5.97863281 4.55304687 5.64476563 3.83984375 5.30078125 C1.68468113 3.77706755 0.98229523 2.41756599 0 0 Z " fill="#C3BAA5" transform="translate(50,63)"/>
<path d="M0 0 C0.66 0 1.32 0 2 0 C3.09506492 3.28519475 3.09960608 5.73663415 3.0625 9.1875 C3.05347656 10.27417969 3.04445312 11.36085938 3.03515625 12.48046875 C3.02355469 13.31191406 3.01195312 14.14335938 3 15 C2.34 15 1.68 15 1 15 C0.67 10.05 0.34 5.1 0 0 Z " fill="#ADA694" transform="translate(129,89)"/>
<path d="M0 0 C0.66 0 1.32 0 2 0 C1.66556792 6.46568686 0.66454291 9.44922643 -4 14 C-4.66 14 -5.32 14 -6 14 C-4.91865204 11.75412346 -3.78496541 9.66454604 -2.4375 7.5625 C-0.98843384 4.97938206 -0.41605855 2.91240988 0 0 Z " fill="#B0A996" transform="translate(104,49)"/>
<path d="M0 0 C0.33 0 0.66 0 1 0 C1.34530062 3.71198163 1.25629673 5.57283878 -0.6875 8.8125 C-3.21501576 11.20339329 -4.58470886 11.7153924 -8 12 C-8 11.34 -8 10.68 -8 10 C-7.01 10 -6.02 10 -5 10 C-5 9.01 -5 8.02 -5 7 C-4.360625 6.525625 -3.72125 6.05125 -3.0625 5.5625 C-0.8326539 4.17520713 -0.8326539 4.17520713 -0.25 1.8125 C-0.1675 1.214375 -0.085 0.61625 0 0 Z " fill="#AFA795" transform="translate(120,103)"/>
<path d="M0 0 C1.32 1.32 2.64 2.64 4 4 C3.67 4.99 3.34 5.98 3 7 C3.61875 7.268125 4.2375 7.53625 4.875 7.8125 C7 9 7 9 9 12 C5.16853404 10.43903239 2.71851946 8.08588695 0 5 C-0.875 2.75 -0.875 2.75 -1 1 C-0.67 0.67 -0.34 0.34 0 0 Z " fill="#B4AB99" transform="translate(13,110)"/>
<path d="M0 0 C3.48331435 3.01887244 4.79157144 5.56909529 6 10 C5.01 10.33 4.02 10.66 3 11 C2.30034557 9.73581754 1.61565237 8.46334598 0.9375 7.1875 C0.55464844 6.47980469 0.17179687 5.77210937 -0.22265625 5.04296875 C-1 3 -1 3 0 0 Z " fill="#B4AC9A" transform="translate(125,79)"/>
<path d="M0 0 C0.66 0.33 1.32 0.66 2 1 C0.88096454 2.81618856 -0.24541284 4.62785526 -1.375 6.4375 C-2.00148438 7.44683594 -2.62796875 8.45617187 -3.2734375 9.49609375 C-5 12 -5 12 -7 13 C-6.36610765 9.50155614 -4.94822306 7.15913124 -2.9375 4.25 C-2.38964844 3.45078125 -1.84179688 2.6515625 -1.27734375 1.828125 C-0.85582031 1.22484375 -0.43429688 0.6215625 0 0 Z " fill="#A69F8D" transform="translate(46,190)"/>
<path d="M0 0 C-3.51822249 4.43601966 -7.75390186 5.52033129 -13 7 C-13 6.34 -13 5.68 -13 5 C-9.10648082 1.81175849 -5.18450403 -0.81007875 0 0 Z " fill="#AAA290" transform="translate(34,60)"/>
<path d="M0 0 C0.99 0.495 0.99 0.495 2 1 C2.4140625 3.06640625 2.4140625 3.06640625 2.625 5.5625 C2.69976562 6.38878906 2.77453125 7.21507813 2.8515625 8.06640625 C2.92503906 9.02353516 2.92503906 9.02353516 3 10 C2.34 9.67 1.68 9.34 1 9 C0.5859375 6.93359375 0.5859375 6.93359375 0.375 4.4375 C0.30023437 3.61121094 0.22546875 2.78492187 0.1484375 1.93359375 C0.09945313 1.29550781 0.05046875 0.65742187 0 0 Z " fill="#B1A895" transform="translate(7,94)"/>
<path d="M0 0 C1.98120645 2.97180967 2.65962579 4.51116436 3 8 C2.015625 10.16015625 2.015625 10.16015625 1 12 C0.63896464 10.18885568 0.28634496 8.37603177 -0.0625 6.5625 C-0.25972656 5.55316406 -0.45695312 4.54382813 -0.66015625 3.50390625 C-0.77230469 2.67761719 -0.88445312 1.85132812 -1 1 C-0.67 0.67 -0.34 0.34 0 0 Z " fill="#B7AF9B" transform="translate(71,81)"/>
<path d="M0 0 C2.09350689 3.4019487 2.17942163 6.05272412 2 10 C0.4375 8.9375 0.4375 8.9375 -1 7 C-0.6875 3.3125 -0.6875 3.3125 0 0 Z " fill="#B4AA98" transform="translate(15,90)"/>
<path d="M0 0 C1.32 0.33 2.64 0.66 4 1 C4 1.66 4 2.32 4 3 C-0.455 3.495 -0.455 3.495 -5 4 C-4.34 3.34 -3.68 2.68 -3 2 C-2.01 2 -1.02 2 0 2 C0 1.34 0 0.68 0 0 Z " fill="#C2B8A5" transform="translate(40,62)"/>
</svg>
