<?xml version="1.0" encoding="UTF-8"?>
<svg version="1.1" xmlns="http://www.w3.org/2000/svg" width="159" height="182">
<path d="M0 0 C52.47 0 104.94 0 159 0 C159 60.06 159 120.12 159 182 C106.53 182 54.06 182 0 182 C0 121.94 0 61.88 0 0 Z " fill="#C7BEAA" transform="translate(0,0)"/>
<path d="M0 0 C0 0.33 0 0.66 0 1 C-3.76036765 1.85494496 -7.3388007 2.15156275 -11.1875 2.3125 C-31.74484655 3.73024804 -52.69400746 9.65438347 -68 24 C-70.40795744 26.84576788 -72.34361064 29.66523381 -74 33 C-74.33 33.66 -74.66 34.32 -75 35 C-75.84721383 40.67311539 -75.45669115 45.02932349 -72.375 49.9375 C-68.86224528 54.60197758 -65.61619746 56.5381281 -59.8359375 57.55859375 C-55.70611003 58.0338183 -51.71200073 58.11185362 -47.5625 58.0625 C-46.83095703 58.05798828 -46.09941406 58.05347656 -45.34570312 58.04882812 C-43.56376581 58.03718148 -41.78187137 58.01925191 -40 58 C-40 57.01 -40 56.02 -40 55 C-40.79664063 54.89042969 -41.59328125 54.78085938 -42.4140625 54.66796875 C-56.04569864 52.62819838 -56.04569864 52.62819838 -59.8125 47.5625 C-62.13957878 42.54090895 -62.81157917 37.48266817 -62 32 C-60.68081812 29.04503259 -58.95178007 26.57022201 -57 24 C-56.4225 23.154375 -55.845 22.30875 -55.25 21.4375 C-42.87000775 8.02584173 -25.0277403 4.84471364 -7.49121094 4.09033203 C2.64682783 3.80290192 12.57910738 3.90619393 22 8 C22.83273438 8.33902344 23.66546875 8.67804687 24.5234375 9.02734375 C31.60170222 12.1838672 36.88289501 16.24407486 40.09375 23.45703125 C42.14246581 29.63163306 42.72436359 35.19709113 41.5 41.625 C36.71264281 49.20498221 28.2687574 51.81558414 20 54 C14.93826457 55.01234709 10.13828402 55.09014533 5 55 C5 54.34 5 53.68 5 53 C6.2684375 52.94392578 6.2684375 52.94392578 7.5625 52.88671875 C14.3573508 52.49292626 19.79185775 51.78296032 26 49 C27.216875 48.525625 28.43375 48.05125 29.6875 47.5625 C32.95072509 46.02324288 35.37754881 44.46818936 38 42 C40.11961362 35.64115914 39.59374845 28.90940138 37 22.76171875 C35.41050705 19.96147922 33.42816944 18.10003843 31 16 C27.08820537 17.48378417 25.99627332 19.40670802 24 23 C23.1794409 24.17568632 22.3452231 25.3419182 21.5 26.5 C19.50557558 29.25278341 17.73791234 32.07714743 16 35 C14.4375 37.3125 14.4375 37.3125 13 39 C12.34 39 11.68 39 11 39 C10.67 40.32 10.34 41.64 10 43 C8 43 8 43 6.25 41.3125 C5 39 5 39 5.61328125 36.796875 C7.38244384 33.22864847 9.58366512 30.14048166 11.9375 26.9375 C12.38029297 26.32583984 12.82308594 25.71417969 13.27929688 25.08398438 C15.49128239 22.03467498 17.7289133 19.00562959 20 16 C20.66 16.33 21.32 16.66 22 17 C20.65794921 21.02615236 18.99459641 23.05897419 16 26 C14.58021148 27.66739542 13.18464633 29.35568384 11.8125 31.0625 C11.11769531 31.91972656 10.42289062 32.77695312 9.70703125 33.66015625 C7.84202354 35.96782717 7.84202354 35.96782717 7 39 C12.27568698 34.92868821 15.93964433 31.11906224 18.89453125 25.11328125 C20.07571026 22.85526766 21.33793495 20.93253233 23 19 C23.66 19 24.32 19 25 19 C25.144375 18.21625 25.28875 17.4325 25.4375 16.625 C26 14 26 14 27 12 C26.113125 11.87625 25.22625 11.7525 24.3125 11.625 C21 11 21 11 18.8203125 10 C15.09823674 8.68026123 11.47005006 8.53242588 7.5625 8.375 C6.7677124 8.33850342 5.9729248 8.30200684 5.15405273 8.2644043 C2.7696441 8.16233487 0.38532496 8.07745219 -2 8 C-3.2890625 7.95746094 -4.578125 7.91492188 -5.90625 7.87109375 C-13.19899917 7.75008574 -19.89782963 8.3696596 -27 10 C-28.01191406 10.20625 -29.02382813 10.4125 -30.06640625 10.625 C-36.63538562 12.07198419 -41.65884895 13.92167924 -47 18 C-47.87140625 18.56976562 -48.7428125 19.13953125 -49.640625 19.7265625 C-54.93482762 23.64427244 -57.53457497 27.01160682 -58.64501953 33.45800781 C-58.74153809 34.21436523 -58.83805664 34.97072266 -58.9375 35.75 C-59.03659668 36.4831543 -59.13569336 37.21630859 -59.23779297 37.97167969 C-59.52170421 41.65999846 -59.15793126 43.74758287 -57.19140625 46.890625 C-48.70811452 52.49769664 -37.69683327 51.19626613 -27.9375 51 C-25.34261075 50.94919453 -22.74753235 50.90705586 -20.15234375 50.875 C-18.4506604 50.84019531 -18.4506604 50.84019531 -16.71459961 50.8046875 C-14 51 -14 51 -12 53 C-11.3726167 59.16311834 -11.45452717 65.27268612 -14 71 C-15.65 71 -17.3 71 -19 71 C-19.01458252 71.59312988 -19.02916504 72.18625977 -19.04418945 72.79736328 C-19.36522661 84.52032444 -19.88195165 95.64139529 -23 107 C-23.25007813 107.95519531 -23.50015625 108.91039063 -23.7578125 109.89453125 C-25.01744422 114.42257579 -26.49149074 118.00187717 -29 122 C-29.60457031 123.01835937 -30.20914063 124.03671875 -30.83203125 125.0859375 C-34.88692241 131.820096 -38.91814991 138.04725952 -44.60546875 143.5546875 C-46.10907269 144.96879884 -46.10907269 144.96879884 -47 147 C-47.66 147 -48.32 147 -49 147 C-49 147.66 -49 148.32 -49 149 C-50.98260426 150.68732277 -52.9832342 152.35366057 -55 154 C-55.33 154.66 -55.66 155.32 -56 156 C-58.72265625 156.4140625 -58.72265625 156.4140625 -62.0625 156.625 C-63.71958984 156.73714844 -63.71958984 156.73714844 -65.41015625 156.8515625 C-66.26480469 156.90054688 -67.11945313 156.94953125 -68 157 C-67.65600604 154.11536497 -67.39574352 152.4295265 -65.3984375 150.26171875 C-64.73070312 149.74222656 -64.06296875 149.22273437 -63.375 148.6875 C-59.59637577 145.60207662 -56.52512727 142.27846993 -53.4453125 138.50390625 C-52.96835937 138.00761719 -52.49140625 137.51132813 -52 137 C-51.34 137 -50.68 137 -50 137 C-50 135.68 -50 134.36 -50 133 C-49.34 133 -48.68 133 -48 133 C-47.7525 132.154375 -47.505 131.30875 -47.25 130.4375 C-46.10760683 127.29591879 -44.66322918 124.67118162 -42.953125 121.8125 C-41.46285635 118.9785465 -40.75983626 116.10266472 -40 113 C-39.34 113 -38.68 113 -38 113 C-37.773125 111.845 -37.54625 110.69 -37.3125 109.5 C-36.14684745 104.20844059 -34.51952066 99.08797651 -32.8527832 93.9375 C-32.2181972 91.96312383 -31.60296629 89.9842538 -31 88 C-30.80293457 87.35885254 -30.60586914 86.71770508 -30.40283203 86.05712891 C-28.92972085 80.820995 -28.76030524 75.91712162 -28.875 70.5 C-28.88402344 69.67757812 -28.89304688 68.85515625 -28.90234375 68.0078125 C-28.92563135 66.00507917 -28.96149041 64.00249846 -29 62 C-30.11375 62.01160156 -31.2275 62.02320313 -32.375 62.03515625 C-36.42218139 62.06640862 -40.46800279 62.05586514 -44.51513672 62.02099609 C-46.10266281 62.00758214 -47.6902496 61.99955611 -49.27783203 61.99853516 C-57.04600597 61.96171917 -63.90901519 61.8324736 -70.23046875 56.81640625 C-75.6829637 51.21947435 -78.48093306 45.17331409 -78.421875 37.2890625 C-77.56352666 32.63172801 -74.67278538 28.82383894 -72 25 C-71.48050781 24.24203125 -70.96101563 23.4840625 -70.42578125 22.703125 C-69.95527344 22.14109375 -69.48476562 21.5790625 -69 21 C-68.34 21 -67.68 21 -67 21 C-67 20.34 -67 19.68 -67 19 C-65.02878525 17.57086931 -63.06537878 16.28044714 -61 15 C-60.36191406 14.58234375 -59.72382812 14.1646875 -59.06640625 13.734375 C-58.40511719 13.30640625 -57.74382813 12.8784375 -57.0625 12.4375 C-56.45535156 12.04433594 -55.84820312 11.65117187 -55.22265625 11.24609375 C-38.45153655 1.84365582 -18.86481124 -0.43590064 0 0 Z " fill="#C5BCA9" transform="translate(91,13)"/>
<path d="M0 0 C0.82757813 0.33902344 1.65515625 0.67804687 2.5078125 1.02734375 C9.59653465 4.1696579 14.88223814 8.24259926 18.09375 15.45703125 C20.14246581 21.63163306 20.72436359 27.19709113 19.5 33.625 C14.71264281 41.20498221 6.2687574 43.81558414 -2 46 C-7.06173543 47.01234709 -11.86171598 47.09014533 -17 47 C-17 46.34 -17 45.68 -17 45 C-15.7315625 44.94392578 -15.7315625 44.94392578 -14.4375 44.88671875 C-7.6426492 44.49292626 -2.20814225 43.78296032 4 41 C5.216875 40.525625 6.43375 40.05125 7.6875 39.5625 C10.95072509 38.02324288 13.37754881 36.46818936 16 34 C18.11961362 27.64115914 17.59374845 20.90940138 15 14.76171875 C13.41050705 11.96147922 11.42816944 10.10003843 9 8 C5.08820537 9.48378417 3.99627332 11.40670802 2 15 C1.1794409 16.17568632 0.3452231 17.3419182 -0.5 18.5 C-2.49442442 21.25278341 -4.26208766 24.07714743 -6 27 C-7.5625 29.3125 -7.5625 29.3125 -9 31 C-9.66 31 -10.32 31 -11 31 C-11.33 32.32 -11.66 33.64 -12 35 C-14 35 -14 35 -15.75 33.3125 C-17 31 -17 31 -16.38671875 28.796875 C-14.61755616 25.22864847 -12.41633488 22.14048166 -10.0625 18.9375 C-9.61970703 18.32583984 -9.17691406 17.71417969 -8.72070312 17.08398438 C-6.50871761 14.03467498 -4.2710867 11.00562959 -2 8 C-1.01 8.495 -1.01 8.495 0 9 C-1.34205079 13.02615236 -3.00540359 15.05897419 -6 18 C-7.41978852 19.66739542 -8.81535367 21.35568384 -10.1875 23.0625 C-10.88230469 23.91972656 -11.57710938 24.77695312 -12.29296875 25.66015625 C-14.15797646 27.96782717 -14.15797646 27.96782717 -15 31 C-9.72431302 26.92868821 -6.06035567 23.11906224 -3.10546875 17.11328125 C-1.92428974 14.85526766 -0.66206505 12.93253233 1 11 C1.66 11 2.32 11 3 11 C3.144375 10.21625 3.28875 9.4325 3.4375 8.625 C4 6 4 6 5 4 C3.6696875 3.814375 3.6696875 3.814375 2.3125 3.625 C-1 3 -1 3 -3.1796875 2 C-6.90176326 0.68026123 -10.52994994 0.53242588 -14.4375 0.375 C-15.2322876 0.33850342 -16.0270752 0.30200684 -16.84594727 0.2644043 C-19.2303559 0.16233487 -21.61467504 0.07745219 -24 0 C-25.2890625 -0.04253906 -26.578125 -0.08507812 -27.90625 -0.12890625 C-35.19899917 -0.24991426 -41.89782963 0.3696596 -49 2 C-50.51787109 2.309375 -50.51787109 2.309375 -52.06640625 2.625 C-58.63538562 4.07198419 -63.65884895 5.92167924 -69 10 C-69.87140625 10.56976563 -70.7428125 11.13953125 -71.640625 11.7265625 C-76.93482762 15.64427244 -79.53457497 19.01160682 -80.64501953 25.45800781 C-80.78979736 26.59254395 -80.78979736 26.59254395 -80.9375 27.75 C-81.03659668 28.4831543 -81.13569336 29.21630859 -81.23779297 29.97167969 C-81.52170421 33.65999846 -81.15793126 35.74758287 -79.19140625 38.890625 C-70.70811452 44.49769664 -59.69683327 43.19626613 -49.9375 43 C-47.34261075 42.94919453 -44.74753235 42.90705586 -42.15234375 42.875 C-40.4506604 42.84019531 -40.4506604 42.84019531 -38.71459961 42.8046875 C-36 43 -36 43 -34 45 C-33.3726167 51.16311834 -33.45452717 57.27268612 -36 63 C-37.65 63 -39.3 63 -41 63 C-40.67 58.71 -40.34 54.42 -40 50 C-39.34 50 -38.68 50 -38 50 C-37.505 53.465 -37.505 53.465 -37 57 C-37 53.37 -37 49.74 -37 46 C-37.76554199 46.0407666 -38.53108398 46.0815332 -39.31982422 46.12353516 C-42.83769199 46.30354379 -46.35619529 46.46439066 -49.875 46.625 C-51.68097656 46.72167969 -51.68097656 46.72167969 -53.5234375 46.8203125 C-62.68886386 47.2188093 -72.07040748 47.22192678 -80 42 C-83.59798631 37.16132876 -84.40997483 32.29411626 -84.3515625 26.375 C-83.73559075 22.21376864 -81.49754562 19.28891909 -79 16 C-78.4225 15.154375 -77.845 14.30875 -77.25 13.4375 C-65.23314264 0.41923786 -47.77467061 -3.15503609 -30.64453125 -3.97265625 C-8.89464881 -4.13583865 -8.89464881 -4.13583865 0 0 Z " fill="#B3AB98" transform="translate(113,21)"/>
<path d="M0 0 C0 0.33 0 0.66 0 1 C-3.76036765 1.85494496 -7.3388007 2.15156275 -11.1875 2.3125 C-31.74484655 3.73024804 -52.69400746 9.65438347 -68 24 C-70.40795744 26.84576788 -72.34361064 29.66523381 -74 33 C-74.33 33.66 -74.66 34.32 -75 35 C-75.84721383 40.67311539 -75.45669115 45.02932349 -72.375 49.9375 C-68.83632934 54.63639055 -65.57619562 56.56718987 -59.7434082 57.54711914 C-56.15059862 57.98178044 -52.6596885 58.17184437 -49.04296875 58.24609375 C-47.76615234 58.27896484 -46.48933594 58.31183594 -45.17382812 58.34570312 C-43.16810585 58.39189075 -41.16237254 58.4379863 -39.15649414 58.47680664 C-37.20179454 58.5163793 -35.24736243 58.56854029 -33.29296875 58.62109375 C-31.55309692 58.65867798 -31.55309692 58.65867798 -29.77807617 58.69702148 C-27 59 -27 59 -25 61 C-25.66 61 -26.32 61 -27 61 C-26.82339844 62.09570312 -26.64679688 63.19140625 -26.46484375 64.3203125 C-25.05544245 75.77308527 -26.70154925 85.59330722 -30.0625 96.5 C-30.44462646 97.75055176 -30.82675293 99.00110352 -31.22045898 100.28955078 C-33.79641347 108.25582088 -37.03227239 115.6309985 -41 123 C-42.31223496 119.06329512 -41.24296256 116.87511856 -40 113 C-39.34 113 -38.68 113 -38 113 C-37.773125 111.845 -37.54625 110.69 -37.3125 109.5 C-36.14684745 104.20844059 -34.51952066 99.08797651 -32.8527832 93.9375 C-32.2181972 91.96312383 -31.60296629 89.9842538 -31 88 C-30.80293457 87.35885254 -30.60586914 86.71770508 -30.40283203 86.05712891 C-28.92972085 80.820995 -28.76030524 75.91712162 -28.875 70.5 C-28.88402344 69.67757812 -28.89304688 68.85515625 -28.90234375 68.0078125 C-28.92563135 66.00507917 -28.96149041 64.00249846 -29 62 C-30.11375 62.01160156 -31.2275 62.02320313 -32.375 62.03515625 C-36.42218139 62.06640862 -40.46800279 62.05586514 -44.51513672 62.02099609 C-46.10266281 62.00758214 -47.6902496 61.99955611 -49.27783203 61.99853516 C-57.04600597 61.96171917 -63.90901519 61.8324736 -70.23046875 56.81640625 C-75.6829637 51.21947435 -78.48093306 45.17331409 -78.421875 37.2890625 C-77.56352666 32.63172801 -74.67278538 28.82383894 -72 25 C-71.48050781 24.24203125 -70.96101563 23.4840625 -70.42578125 22.703125 C-69.95527344 22.14109375 -69.48476562 21.5790625 -69 21 C-68.34 21 -67.68 21 -67 21 C-67 20.34 -67 19.68 -67 19 C-65.02878525 17.57086931 -63.06537878 16.28044714 -61 15 C-60.36191406 14.58234375 -59.72382812 14.1646875 -59.06640625 13.734375 C-58.40511719 13.30640625 -57.74382813 12.8784375 -57.0625 12.4375 C-56.45535156 12.04433594 -55.84820312 11.65117187 -55.22265625 11.24609375 C-38.45153655 1.84365582 -18.86481124 -0.43590064 0 0 Z " fill="#A9A18F" transform="translate(91,13)"/>
<path d="M0 0 C16.80353437 -0.87417231 32.02148352 1.72228882 44.9375 12.9375 C49.64718482 17.21348723 52.63520092 20.9170901 53.3984375 27.3671875 C53.2990375 42.24405355 53.2990375 42.24405355 48.3359375 47.89453125 C43.74602684 52.23757421 38.90430953 54.86460805 33 57 C32.2059375 57.31066406 31.411875 57.62132812 30.59375 57.94140625 C24.14105341 60.21822799 18.71479259 60.05955853 12 59 C12.33 58.34 12.66 57.68 13 57 C14.8493092 56.84209511 16.70666278 56.77732521 18.5625 56.75 C28.26585316 56.18110872 37.4382941 52.50960082 46 48 C46 47.34 46 46.68 46 46 C46.66 46 47.32 46 48 46 C50.17466146 41.5984852 50.3665765 37.4432404 50.375 32.625 C50.39949219 31.89539063 50.42398438 31.16578125 50.44921875 30.4140625 C50.4792853 24.80164053 49.234825 21.60189018 46 17 C43.96194454 14.86513497 43.96194454 14.86513497 41.6875 13.25 C40.96949219 12.69828125 40.25148437 12.1465625 39.51171875 11.578125 C33.75366389 7.96031137 27.89421028 6.31673991 21.3125 4.9375 C20.52955566 4.76831055 19.74661133 4.59912109 18.93994141 4.42480469 C12.65836251 3.08786007 6.35266568 1.94667175 0 1 C0 0.67 0 0.34 0 0 Z " fill="#B4AC99" transform="translate(92,13)"/>
<path d="M0 0 C0.66 0 1.32 0 2 0 C1.96519531 1.26972656 1.93039063 2.53945312 1.89453125 3.84765625 C1.71310245 13.43065055 2.03304325 22.16834013 4.2109375 31.53125 C4.99856629 34.99369736 5.52400911 38.42000798 6 41.9375 C6.63020288 46.15934692 7.44529685 49.88697037 9.10546875 53.8125 C9.80174191 55.51517673 10.41271391 57.25282325 10.98828125 59 C13.3004061 65.99199267 16.0617026 72.43432394 19.5 78.9375 C19.86754395 79.63480225 20.23508789 80.33210449 20.61376953 81.05053711 C22.48057904 84.49584419 24.46209859 87.71783755 26.78125 90.87890625 C29 94 29 94 29 96 C29.66 96 30.32 96 31 96 C31 96.66 31 97.32 31 98 C29.35 97.67 27.7 97.34 26 97 C25.34 94.69 24.68 92.38 24 90 C23.34 90 22.68 90 22 90 C17.75815834 84.1947367 14.72242899 77.62305204 12 71 C11.67257813 70.24332031 11.34515625 69.48664063 11.0078125 68.70703125 C2.36684605 48.17636289 -4.23112846 22.21342439 0 0 Z " fill="#B5AE9B" transform="translate(96,72)"/>
<path d="M0 0 C0.66 0.33 1.32 0.66 2 1 C1.96519531 2.71896484 1.96519531 2.71896484 1.9296875 4.47265625 C1.91091521 6.0025976 1.89271659 7.53254606 1.875 9.0625 C1.85824219 9.81466797 1.84148437 10.56683594 1.82421875 11.34179688 C1.78127329 16.30199795 2.58220326 20.21243987 4 25 C4.90746652 30.4154207 5.61195471 35.86441905 6.32421875 41.30859375 C7.30147514 48.16527881 8.81506671 53.85241353 12 60 C12.75 61.625 13.5 63.25 14.25 64.875 C14.58515625 65.59429687 14.9203125 66.31359375 15.265625 67.0546875 C16 69 16 69 16 72 C16.66 72 17.32 72 18 72 C19.48046875 74.0546875 19.48046875 74.0546875 21.1875 76.875 C24.18010637 81.73484186 27.35643403 86.39070609 30.71484375 91.00390625 C32 93 32 93 32 95 C27.79236776 93.4972742 26.1972242 90.76667005 24 87 C24 86.34 24 85.68 24 85 C23.34 85 22.68 85 22 85 C19.38782014 81.17477619 17.25190271 77.04525266 15 73 C14.071875 71.41638672 14.071875 71.41638672 13.125 69.80078125 C8.73064649 62.10119202 6.11242388 54.58909406 4 46 C3.79761719 45.30777344 3.59523438 44.61554688 3.38671875 43.90234375 C1.84908307 38.56170073 1.31573673 33.05326984 0.69677734 27.54541016 C0.35475771 24.54643799 -0.04198793 21.87403622 -1 19 C-1.09137566 17.60384892 -1.13065667 16.20382391 -1.1328125 14.8046875 C-1.13410156 14.00675781 -1.13539062 13.20882812 -1.13671875 12.38671875 C-1.13285156 11.55785156 -1.12898438 10.72898437 -1.125 9.875 C-1.12886719 9.03839844 -1.13273437 8.20179687 -1.13671875 7.33984375 C-1.12664874 1.12664874 -1.12664874 1.12664874 0 0 Z " fill="#B4AD9B" transform="translate(104,76)"/>
<path d="M0 0 C0.66 0 1.32 0 2 0 C-0.06642828 10.33214142 -7.16356404 19.33355732 -14.609375 26.5625 C-16.11004401 27.96970264 -16.11004401 27.96970264 -17 30 C-17.66 30 -18.32 30 -19 30 C-19 30.66 -19 31.32 -19 32 C-20.98260426 33.68732277 -22.9832342 35.35366057 -25 37 C-25.33 37.66 -25.66 38.32 -26 39 C-28.72265625 39.4140625 -28.72265625 39.4140625 -32.0625 39.625 C-33.16722656 39.69976562 -34.27195312 39.77453125 -35.41015625 39.8515625 C-36.26480469 39.90054688 -37.11945312 39.94953125 -38 40 C-37.65600604 37.11536497 -37.39574352 35.4295265 -35.3984375 33.26171875 C-34.39683594 32.48248047 -34.39683594 32.48248047 -33.375 31.6875 C-29.59637577 28.60207662 -26.52512727 25.27846993 -23.4453125 21.50390625 C-22.96835937 21.00761719 -22.49140625 20.51132813 -22 20 C-21.34 20 -20.68 20 -20 20 C-22.88381234 26.23231481 -27.49748521 30.95403324 -33 35 C-30.167832 35.33448259 -30.167832 35.33448259 -27 35 C-24.74934898 33.08333079 -24.74934898 33.08333079 -23 31 C-22.34 31 -21.68 31 -21 31 C-20.73703125 30.40703125 -20.4740625 29.8140625 -20.203125 29.203125 C-18.94597491 26.90107093 -17.66412082 25.52616617 -15.75 23.75 C-8.59172543 16.73992987 -4.2504516 9.04351404 0 0 Z " fill="#B2AB9A" transform="translate(61,130)"/>
<path d="M0 0 C1.5625 1.890625 1.5625 1.890625 3 4.25 C4.70313266 6.96896051 6.35117695 9.43435043 8.375 11.9375 C10 14 10 14 10 16 C10.66 16 11.32 16 12 16 C12 16.66 12 17.32 12 18 C12.66 18 13.32 18 14 18 C14 20 14 20 11.5625 22.5 C10.716875 23.325 9.87125 24.15 9 25 C8.67 25.66 8.34 26.32 8 27 C6.13671875 26.7421875 6.13671875 26.7421875 4 26 C2.83203125 24.3203125 2.83203125 24.3203125 1.8125 22.125 C-1.38250256 15.93406047 -6.15855679 7.28048107 -13 5 C-13.33 3.35 -13.66 1.7 -14 0 C-12.906875 0.020625 -11.81375 0.04125 -10.6875 0.0625 C-0.27526882 -0.11397849 -0.27526882 -0.11397849 0 0 Z M-9 4 C-8.64695801 4.46897705 -8.29391602 4.9379541 -7.93017578 5.42114258 C-6.3276072 7.55096202 -4.72629122 9.68172004 -3.125 11.8125 C-2.56941406 12.55048828 -2.01382813 13.28847656 -1.44140625 14.04882812 C-0.63896484 15.11713867 -0.63896484 15.11713867 0.1796875 16.20703125 C0.67194824 16.8616333 1.16420898 17.51623535 1.67138672 18.19067383 C2.82532495 19.76212481 3.91854349 21.37781523 5 23 C5.99 22.67 6.98 22.34 8 22 C8 21.34 8 20.68 8 20 C8.66 20 9.32 20 10 20 C9.07114901 15.52535066 6.89051921 12.45331519 4.3125 8.75 C3.89033203 8.1003125 3.46816406 7.450625 3.03320312 6.78125 C1.78454697 4.98830783 0.63146431 3.45446315 -1 2 C-4.85558177 1.34253173 -6.20131666 1.20131666 -9 4 Z " fill="#A49C8C" transform="translate(64,32)"/>
<path d="M0 0 C0 0.33 0 0.66 0 1 C-3.76036765 1.85494496 -7.3388007 2.15156275 -11.1875 2.3125 C-32.05412716 3.75157774 -50.60093089 10.03448599 -67 23 C-67.66 22.34 -68.32 21.68 -69 21 C-68.34 21 -67.68 21 -67 21 C-67 20.34 -67 19.68 -67 19 C-65.02878525 17.57086931 -63.06537878 16.28044714 -61 15 C-60.36191406 14.58234375 -59.72382812 14.1646875 -59.06640625 13.734375 C-58.40511719 13.30640625 -57.74382813 12.8784375 -57.0625 12.4375 C-56.45535156 12.04433594 -55.84820312 11.65117187 -55.22265625 11.24609375 C-38.45153655 1.84365582 -18.86481124 -0.43590064 0 0 Z " fill="#AFA795" transform="translate(91,13)"/>
<path d="M0 0 C12.68021409 -0.65966432 28.37170519 0.21620733 39 8 C40.7578125 10.16015625 40.7578125 10.16015625 42 12 C39 12 39 12 36.875 10.6875 C26.08229808 4.35265322 12.16956884 2.86380784 0 1 C0 0.67 0 0.34 0 0 Z " fill="#AEA593" transform="translate(92,13)"/>
<path d="M0 0 C0.66 0.33 1.32 0.66 2 1 C0.65794921 5.02615236 -1.00540359 7.05897419 -4 10 C-5.41978852 11.66739542 -6.81535367 13.35568384 -8.1875 15.0625 C-8.88230469 15.91972656 -9.57710938 16.77695312 -10.29296875 17.66015625 C-12.15797646 19.96782717 -12.15797646 19.96782717 -13 23 C-12.44570312 22.50628906 -11.89140625 22.01257813 -11.3203125 21.50390625 C-10.59585938 20.86324219 -9.87140625 20.22257812 -9.125 19.5625 C-8.40570313 18.92441406 -7.68640625 18.28632812 -6.9453125 17.62890625 C-5 16 -5 16 -3 15 C-3.59687434 18.34249629 -4.73603877 20.46436342 -7 23 C-7.66 23 -8.32 23 -9 23 C-9.33 24.32 -9.66 25.64 -10 27 C-12 27 -12 27 -13.75 25.3125 C-15 23 -15 23 -14.38671875 20.796875 C-12.61755616 17.22864847 -10.41633488 14.14048166 -8.0625 10.9375 C-7.61970703 10.32583984 -7.17691406 9.71417969 -6.72070312 9.08398438 C-4.50871761 6.03467498 -2.2710867 3.00562959 0 0 Z " fill="#B4AB9A" transform="translate(111,29)"/>
<path d="M0 0 C0.66 0 1.32 0 2 0 C0.86187551 3.3109076 -0.60582009 5.86751219 -2.625 8.6875 C-5.5899326 13.39598997 -6.1983647 17.5612679 -5 23 C-2.64864941 27.96732263 -0.179839 31.83798024 5 34 C5 34.66 5 35.32 5 36 C2.875 36 2.875 36 0 35 C-5.09379858 29.78165867 -7.54096338 24.44277463 -8.5 17.25 C-8.39269774 11.68101271 -5.04940034 7.4477005 -2 3 C-1.34 2.01 -0.68 1.02 0 0 Z " fill="#9E9786" transform="translate(21,35)"/>
<path d="M0 0 C0 0.66 0 1.32 0 2 C0.99 2.33 1.98 2.66 3 3 C1.82824219 3.04898437 0.65648437 3.09796875 -0.55078125 3.1484375 C-8.38504952 3.50985218 -15.95647788 3.9840603 -23.65234375 5.58984375 C-27.14439421 6.19993576 -30.46420976 6.13342605 -34 6 C-24.65488499 -0.23007668 -10.88808233 0 0 0 Z " fill="#A89F8D" transform="translate(90,17)"/>
<path d="M0 0 C2.48709896 3.73064844 2.29991053 5.57631968 2 10 C1 13.4375 1 13.4375 0 16 C-1.65 16 -3.3 16 -5 16 C-4.67 11.71 -4.34 7.42 -4 3 C-3.34 3 -2.68 3 -2 3 C-1.67 5.31 -1.34 7.62 -1 10 C-0.67 6.7 -0.34 3.4 0 0 Z " fill="#ABA392" transform="translate(77,68)"/>
<path d="M0 0 C0 0.33 0 0.66 0 1 C-0.6290625 1.08636719 -1.258125 1.17273438 -1.90625 1.26171875 C-8.32331152 2.31512192 -12.76446074 4.20018594 -18 8 C-18.67675781 8.474375 -19.35351562 8.94875 -20.05078125 9.4375 C-21.7117862 10.60919087 -23.35757747 11.80240024 -25 13 C-25 12.01 -25 11.02 -25 10 C-17.48913033 2.50424274 -10.63007838 -2.05141863 0 0 Z " fill="#B6AE9B" transform="translate(62,23)"/>
<path d="M0 0 C1.7492214 -0.08142927 3.49954542 -0.13938541 5.25 -0.1875 C6.22453125 -0.22230469 7.1990625 -0.25710938 8.203125 -0.29296875 C11.37468742 0.03924798 12.67040307 0.88672279 15 3 C14.28972656 3.04898437 13.57945313 3.09796875 12.84765625 3.1484375 C11.46900391 3.26058594 11.46900391 3.26058594 10.0625 3.375 C9.14597656 3.44460938 8.22945312 3.51421875 7.28515625 3.5859375 C6.15400391 3.79089844 6.15400391 3.79089844 5 4 C4.67 4.66 4.34 5.32 4 6 C2.41753293 6.08153933 0.83383727 6.13943557 -0.75 6.1875 C-2.07257813 6.23970703 -2.07257813 6.23970703 -3.421875 6.29296875 C-6 6 -6 6 -10 3 C-5.38 2.67 -0.76 2.34 4 2 C2.68 1.34 1.36 0.68 0 0 Z " fill="#BFB6A2" transform="translate(82,12)"/>
<path d="M0 0 C0.33 0 0.66 0 1 0 C0.85991329 3.5210863 0.71189018 7.04179712 0.5625 10.5625 C0.52318359 11.55314453 0.48386719 12.54378906 0.44335938 13.56445312 C0.21827654 18.77598637 -0.14105239 23.85353238 -1 29 C-1.33 29 -1.66 29 -2 29 C-2.05821935 25.10422976 -2.0936703 21.20857198 -2.125 17.3125 C-2.14175781 16.20970703 -2.15851563 15.10691406 -2.17578125 13.97070312 C-2.18222656 12.90400391 -2.18867187 11.83730469 -2.1953125 10.73828125 C-2.20578613 9.75899658 -2.21625977 8.77971191 -2.22705078 7.77075195 C-1.98597685 4.82887228 -1.23055542 2.66762274 0 0 Z " fill="#ACA593" transform="translate(71,84)"/>
<path d="M0 0 C1.70840281 1.63412443 2.93453047 2.86906094 4 5 C4.66 5 5.32 5 6 5 C6.33 4.34 6.66 3.68 7 3 C7.66 3 8.32 3 9 3 C9.33 2.34 9.66 1.68 10 1 C10.99 1 11.98 1 13 1 C13 3 13 3 10.5625 5.5 C9.716875 6.325 8.87125 7.15 8 8 C7.67 8.66 7.34 9.32 7 10 C5.1875 9.875 5.1875 9.875 3 9 C1.04679411 5.79116175 0 3.7794561 0 0 Z " fill="#AEA795" transform="translate(65,49)"/>
<path d="M0 0 C1.13671875 1.6328125 1.13671875 1.6328125 2 4 C1.20703125 6.8046875 1.20703125 6.8046875 -0.1875 9.875 C-0.65929688 10.92945312 -1.13109375 11.98390625 -1.6171875 13.0703125 C-3.03494976 16.07404611 -4.44967951 19.06255066 -6 22 C-7.31223496 18.06329512 -6.24296256 15.87511856 -5 12 C-4.34 12 -3.68 12 -3 12 C-2.86722656 11.38511719 -2.73445313 10.77023438 -2.59765625 10.13671875 C-2.33275391 8.92435547 -2.33275391 8.92435547 -2.0625 7.6875 C-1.88847656 6.88699219 -1.71445312 6.08648437 -1.53515625 5.26171875 C-1 3 -1 3 0 0 Z " fill="#B1AA98" transform="translate(56,114)"/>
<path d="M0 0 C0.33 0 0.66 0 1 0 C1.061875 1.051875 1.12375 2.10375 1.1875 3.1875 C2.15424458 7.72376302 3.41166833 9.14564526 7 12 C9.66533035 13.319018 9.66533035 13.319018 12 14 C12 14.33 12 14.66 12 15 C9.3125 15.3125 9.3125 15.3125 6 15 C3.42714276 12.827365 1.51003081 11.02006162 0 8 C-0.13415472 5.3276379 -0.04318541 2.67749512 0 0 Z " fill="#A29C8B" transform="translate(30,50)"/>
<path d="M0 0 C0.66 0 1.32 0 2 0 C1.43215818 5.4512815 0.17545909 9.95293491 -2 15 C-2.99 15.495 -2.99 15.495 -4 16 C-2.84941444 10.60204011 -1.57578241 5.29012667 0 0 Z " fill="#B1AA98" transform="translate(67,113)"/>
<path d="M0 0 C0.66 0 1.32 0 2 0 C1.34 1.65 0.68 3.3 0 5 C-3.63 5 -7.26 5 -11 5 C-10.67 4.34 -10.34 3.68 -10 3 C-7.96875 2.40234375 -7.96875 2.40234375 -5.5 1.9375 C-2.46226779 1.54135157 -2.46226779 1.54135157 0 0 Z " fill="#ABA696" transform="translate(35,164)"/>
<path d="M0 0 C0.33 0.99 0.66 1.98 1 3 C-0.8125 5.6875 -0.8125 5.6875 -3 8 C-3.66 8 -4.32 8 -5 8 C-5.33 8.99 -5.66 9.98 -6 11 C-6.71484375 9.234375 -6.71484375 9.234375 -7 7 C-5.56640625 5.078125 -5.56640625 5.078125 -3.5625 3.25 C-2.90378906 2.63640625 -2.24507813 2.0228125 -1.56640625 1.390625 C-1.04949219 0.93171875 -0.53257813 0.4728125 0 0 Z " fill="#A59D8D" transform="translate(107,44)"/>
<path d="M0 0 C0.66 0 1.32 0 2 0 C0 4 -2 8 -4 12 C-4.66 10.68 -5.32 9.36 -6 8 C-5.04956626 6.66102417 -4.08940853 5.32894573 -3.125 4 C-2.59132813 3.2575 -2.05765625 2.515 -1.5078125 1.75 C-1.01023437 1.1725 -0.51265625 0.595 0 0 Z " fill="#AFA795" transform="translate(113,34)"/>
<path d="M0 0 C1.19109375 0.10054688 1.19109375 0.10054688 2.40625 0.203125 C4.5 0.75 4.5 0.75 6.5 3.75 C-1.69256018 4.2226477 -1.69256018 4.2226477 -5.0625 2.25 C-5.536875 1.755 -6.01125 1.26 -6.5 0.75 C-4.04048544 -0.47975728 -2.71743376 -0.26468511 0 0 Z " fill="#AEA694" transform="translate(30.5,70.25)"/>
<path d="M0 0 C0.66 0 1.32 0 2 0 C0.54955729 4.10958767 -1.51110752 7.43258745 -4 11 C-4.66 10.34 -5.32 9.68 -6 9 C-5.05016642 7.49460339 -4.08988109 5.99579653 -3.125 4.5 C-2.59132813 3.6646875 -2.05765625 2.829375 -1.5078125 1.96875 C-0.76144531 0.99421875 -0.76144531 0.99421875 0 0 Z " fill="#A9A190" transform="translate(21,35)"/>
<path d="M0 0 C0.66 0.33 1.32 0.66 2 1 C0.69386058 4.91841827 -0.83129848 7.32640809 -4 10 C-4.66 10 -5.32 10 -6 10 C-4.34832443 6.4213696 -2.21713508 3.25179812 0 0 Z " fill="#ADA594" transform="translate(111,29)"/>
<path d="M0 0 C2 1.375 2 1.375 4 3 C4 3.66 4 4.32 4 5 C4.66 5 5.32 5 6 5 C6 5.66 6 6.32 6 7 C4.35 6.67 2.7 6.34 1 6 C0.67 4.02 0.34 2.04 0 0 Z " fill="#ACA492" transform="translate(121,163)"/>
<path d="M0 0 C1.49739583 1.26953125 2.99479167 2.5390625 4.4921875 3.80859375 C6.00594079 5.0878152 6.00594079 5.0878152 8 6 C8 6.66 8 7.32 8 8 C5.75 7.875 5.75 7.875 3 7 C0.6875 3.9375 0.6875 3.9375 -1 1 C-0.67 0.67 -0.34 0.34 0 0 Z " fill="#A49E8B" transform="translate(18,63)"/>
<path d="M0 0 C1.32 0 2.64 0 4 0 C4 2 4 2 1.625 4.5625 C-1 7 -1 7 -3 8 C-2.67 6.02 -2.34 4.04 -2 2 C-1.34 2 -0.68 2 0 2 C0 1.34 0 0.68 0 0 Z " fill="#A8A28F" transform="translate(74,50)"/>
<path d="M0 0 C2.31 0.66 4.62 1.32 7 2 C7 2.33 7 2.66 7 3 C4.69 3.33 2.38 3.66 0 4 C0 4.66 0 5.32 0 6 C-0.66 6 -1.32 6 -2 6 C-1.125 1.125 -1.125 1.125 0 0 Z " fill="#B8B2A1" transform="translate(25,164)"/>
</svg>
